M48
;Layer_Color=9474304
;FILE_FORMAT=2:5
INCH,LZ
;TYPE=PLATED
T1F00S00C0.02756
T2F00S00C0.02800
T3F00S00C0.03000
T4F00S00C0.03150
T5F00S00C0.03200
T6F00S00C0.03346
T7F00S00C0.03543
T8F00S00C0.05276
%
T01
X015Y00285
X016
X01645Y01395
X01745
X00775Y0159
Y0169
X0037
Y0159
T02
X0025Y0075
X00375Y01
X00625
X00875
X0075Y0075
X01
X0125
X01375Y005
X00875
X00625
X01Y0025
Y0125
X0125
X015
X01375Y015
X0112912Y0149588
X00375Y015
X01875
X0210909Y0148409
X02Y0125
X0225
X02375Y01
X02125
X01875
X02Y0075
X0225
X0275
X02875Y005
X0261
X025Y0025
X0275
X03
X0225
X0175
X01625Y005
X0175Y0125
X0275
X03
X02875Y015
X02625
X03125
X0325Y0125
X03125Y01
X0325Y0075
X03125Y005
X0325Y0025
Y0175
X03
X0275
X025
X0225
X02
X0175
X0125
X01
X005
X0025
T03
X00635Y00365
X00935
Y01115
X00635Y01315
T04
X0171028Y0163157
Y0182843
X0111972
Y0163157
T05
X0017645Y0054915
X0027645
X0037645
X0136Y00735
X0146
X0156
T06
X0119Y00285
Y00685
X0118Y01
X01385
Y014
X0118
X01985Y0061
X0213Y0039
X01985Y0021
X0253Y0039
X03Y00505
Y00105
X0335Y0018
Y0058
X00775Y01825
X00375
T07
X0009498Y01145
Y01245
Y01345
Y01445
X0315Y019
X0325
X0335
X0345
T08
X0256Y01065
X0266
X0276
M30
