G04*
G04 #@! TF.GenerationSoftware,Altium Limited,Altium Designer,21.6.4 (81)*
G04*
G04 Layer_Color=128*
%FSLAX25Y25*%
%MOIN*%
G70*
G04*
G04 #@! TF.SameCoordinates,2300CAAD-5815-40F2-B5FC-BA94866832FB*
G04*
G04*
G04 #@! TF.FilePolarity,Positive*
G04*
G01*
G75*
%ADD38C,0.00200*%
D38*
X7726Y134500D02*
X11269D01*
X9498Y132728D02*
Y136272D01*
X7726Y114500D02*
X11269D01*
X9498Y112728D02*
Y116272D01*
X7726Y124500D02*
X11269D01*
X9498Y122728D02*
Y126272D01*
X7726Y144500D02*
X11269D01*
X9498Y142728D02*
Y146272D01*
X211327Y39000D02*
X214673D01*
X213000Y37327D02*
Y40673D01*
X251327Y39000D02*
X254673D01*
X253000Y37327D02*
Y40673D01*
X333327Y18000D02*
X336673D01*
X335000Y16327D02*
Y19673D01*
X333327Y58000D02*
X336673D01*
X335000Y56327D02*
Y59673D01*
X196827Y21000D02*
X200173D01*
X198500Y19327D02*
Y22673D01*
X196827Y61000D02*
X200173D01*
X198500Y59327D02*
Y62673D01*
X117327Y28500D02*
X120673D01*
X119000Y26827D02*
Y30173D01*
X117327Y68500D02*
X120673D01*
X119000Y66827D02*
Y70173D01*
X298327Y50500D02*
X301673D01*
X300000Y48827D02*
Y52173D01*
X298327Y10500D02*
X301673D01*
X300000Y8827D02*
Y12173D01*
X35827Y182500D02*
X39173D01*
X37500Y180827D02*
Y184173D01*
X75827Y182500D02*
X79173D01*
X77500Y180827D02*
Y184173D01*
X16045Y54915D02*
X19245D01*
X17645Y53316D02*
Y56516D01*
X36045Y54915D02*
X39245D01*
X37645Y53316D02*
Y56516D01*
X26045Y54915D02*
X29245D01*
X27645Y53316D02*
Y56516D01*
X148622Y28500D02*
X151378D01*
X150000Y27122D02*
Y29878D01*
X158622Y28500D02*
X161378D01*
X160000Y27122D02*
Y29878D01*
X144400Y73500D02*
X147600D01*
X146000Y71900D02*
Y75100D01*
X134400Y73500D02*
X137600D01*
X136000Y71900D02*
Y75100D01*
X154400Y73500D02*
X157600D01*
X156000Y71900D02*
Y75100D01*
X273362Y106500D02*
X278638D01*
X276000Y103862D02*
Y109138D01*
X263362Y106500D02*
X268638D01*
X266000Y103862D02*
Y109138D01*
X253362Y106500D02*
X258638D01*
X256000Y103862D02*
Y109138D01*
X62000Y131500D02*
X65000D01*
X63500Y130000D02*
Y133000D01*
X92000Y36500D02*
X95000D01*
X93500Y35000D02*
Y38000D01*
X92000Y111500D02*
X95000D01*
X93500Y110000D02*
Y113000D01*
X62000Y36500D02*
X65000D01*
X63500Y35000D02*
Y38000D01*
X169453Y182843D02*
X172602D01*
X171028Y181268D02*
Y184417D01*
X110398Y182843D02*
X113547D01*
X111972Y181268D02*
Y184417D01*
X110398Y163157D02*
X113547D01*
X111972Y161583D02*
Y164732D01*
X169453Y163157D02*
X172602D01*
X171028Y161583D02*
Y164732D01*
X35622Y169000D02*
X38378D01*
X37000Y167622D02*
Y170378D01*
X35622Y159000D02*
X38378D01*
X37000Y157622D02*
Y160378D01*
X76122Y169000D02*
X78878D01*
X77500Y167622D02*
Y170378D01*
X76122Y159000D02*
X78878D01*
X77500Y157622D02*
Y160378D01*
X136827Y140000D02*
X140173D01*
X138500Y138327D02*
Y141673D01*
X136827Y100000D02*
X140173D01*
X138500Y98327D02*
Y101673D01*
X323228Y190000D02*
X326772D01*
X325000Y188228D02*
Y191772D01*
X313228Y190000D02*
X316772D01*
X315000Y188228D02*
Y191772D01*
X116327Y100000D02*
X119673D01*
X118000Y98327D02*
Y101673D01*
X333228Y190000D02*
X336772D01*
X335000Y188228D02*
Y191772D01*
X173122Y139500D02*
X175878D01*
X174500Y138122D02*
Y140878D01*
X343228Y190000D02*
X346772D01*
X345000Y188228D02*
Y191772D01*
X163122Y139500D02*
X165878D01*
X164500Y138122D02*
Y140878D01*
X116327Y140000D02*
X119673D01*
X118000Y138327D02*
Y141673D01*
X111512Y149588D02*
X114312D01*
X112912Y148188D02*
Y150988D01*
X86100Y100000D02*
X88900D01*
X87500Y98600D02*
Y101400D01*
X73600Y75000D02*
X76400D01*
X75000Y73600D02*
Y76400D01*
X61100Y100000D02*
X63900D01*
X62500Y98600D02*
Y101400D01*
X209509Y148409D02*
X212309D01*
X210909Y147009D02*
Y149809D01*
X259600Y50000D02*
X262400D01*
X261000Y48600D02*
Y51400D01*
X186100Y150000D02*
X188900D01*
X187500Y148600D02*
Y151400D01*
X136100Y50000D02*
X138900D01*
X137500Y48600D02*
Y51400D01*
X323600Y175000D02*
X326400D01*
X325000Y173600D02*
Y176400D01*
X311100Y150000D02*
X313900D01*
X312500Y148600D02*
Y151400D01*
X286100Y150000D02*
X288900D01*
X287500Y148600D02*
Y151400D01*
X273600Y125000D02*
X276400D01*
X275000Y123600D02*
Y126400D01*
X323600Y125000D02*
X326400D01*
X325000Y123600D02*
Y126400D01*
X323600Y75000D02*
X326400D01*
X325000Y73600D02*
Y76400D01*
X323600Y25000D02*
X326400D01*
X325000Y23600D02*
Y26400D01*
X298600Y175000D02*
X301400D01*
X300000Y173600D02*
Y176400D01*
X298600Y125000D02*
X301400D01*
X300000Y123600D02*
Y126400D01*
X311100Y100000D02*
X313900D01*
X312500Y98600D02*
Y101400D01*
X311100Y50000D02*
X313900D01*
X312500Y48600D02*
Y51400D01*
X298600Y25000D02*
X301400D01*
X300000Y23600D02*
Y26400D01*
X273600Y175000D02*
X276400D01*
X275000Y173600D02*
Y176400D01*
X273600Y75000D02*
X276400D01*
X275000Y73600D02*
Y76400D01*
X286100Y50000D02*
X288900D01*
X287500Y48600D02*
Y51400D01*
X273600Y25000D02*
X276400D01*
X275000Y23600D02*
Y26400D01*
X248600Y175000D02*
X251400D01*
X250000Y173600D02*
Y176400D01*
X261100Y150000D02*
X263900D01*
X262500Y148600D02*
Y151400D01*
X248600Y25000D02*
X251400D01*
X250000Y23600D02*
Y26400D01*
X223600Y175000D02*
X226400D01*
X225000Y173600D02*
Y176400D01*
X223600Y125000D02*
X226400D01*
X225000Y123600D02*
Y126400D01*
X236100Y100000D02*
X238900D01*
X237500Y98600D02*
Y101400D01*
X223600Y75000D02*
X226400D01*
X225000Y73600D02*
Y76400D01*
X223600Y25000D02*
X226400D01*
X225000Y23600D02*
Y26400D01*
X198600Y175000D02*
X201400D01*
X200000Y173600D02*
Y176400D01*
X198600Y125000D02*
X201400D01*
X200000Y123600D02*
Y126400D01*
X211100Y100000D02*
X213900D01*
X212500Y98600D02*
Y101400D01*
X198600Y75000D02*
X201400D01*
X200000Y73600D02*
Y76400D01*
X173600Y175000D02*
X176400D01*
X175000Y173600D02*
Y176400D01*
X173600Y125000D02*
X176400D01*
X175000Y123600D02*
Y126400D01*
X186100Y100000D02*
X188900D01*
X187500Y98600D02*
Y101400D01*
X173600Y25000D02*
X176400D01*
X175000Y23600D02*
Y26400D01*
X148600Y125000D02*
X151400D01*
X150000Y123600D02*
Y126400D01*
X161100Y50000D02*
X163900D01*
X162500Y48600D02*
Y51400D01*
X123600Y175000D02*
X126400D01*
X125000Y173600D02*
Y176400D01*
X136100Y150000D02*
X138900D01*
X137500Y148600D02*
Y151400D01*
X123600Y125000D02*
X126400D01*
X125000Y123600D02*
Y126400D01*
X123600Y75000D02*
X126400D01*
X125000Y73600D02*
Y76400D01*
X98600Y175000D02*
X101400D01*
X100000Y173600D02*
Y176400D01*
X98600Y125000D02*
X101400D01*
X100000Y123600D02*
Y126400D01*
X98600Y75000D02*
X101400D01*
X100000Y73600D02*
Y76400D01*
X98600Y25000D02*
X101400D01*
X100000Y23600D02*
Y26400D01*
X86100Y50000D02*
X88900D01*
X87500Y48600D02*
Y51400D01*
X48600Y175000D02*
X51400D01*
X50000Y173600D02*
Y176400D01*
X61100Y50000D02*
X63900D01*
X62500Y48600D02*
Y51400D01*
X23600Y175000D02*
X26400D01*
X25000Y173600D02*
Y176400D01*
X36100Y150000D02*
X38900D01*
X37500Y148600D02*
Y151400D01*
X36100Y100000D02*
X38900D01*
X37500Y98600D02*
Y101400D01*
X23600Y75000D02*
X26400D01*
X25000Y73600D02*
Y76400D01*
M02*
