G04*
G04 #@! TF.GenerationSoftware,Altium Limited,Altium Designer,21.6.4 (81)*
G04*
G04 Layer_Color=65535*
%FSLAX25Y25*%
%MOIN*%
G70*
G04*
G04 #@! TF.SameCoordinates,2300CAAD-5815-40F2-B5FC-BA94866832FB*
G04*
G04*
G04 #@! TF.FilePolarity,Positive*
G04*
G01*
G75*
%ADD10C,0.00500*%
%ADD11C,0.00787*%
%ADD12C,0.01000*%
G36*
X286194Y97115D02*
X286254D01*
Y97054D01*
X286314D01*
Y96994D01*
X286495D01*
Y96813D01*
X286435D01*
Y96633D01*
X286375D01*
Y96572D01*
X286254D01*
Y96512D01*
X286194D01*
Y96452D01*
X286134D01*
Y96392D01*
X286073D01*
Y96271D01*
X286013D01*
Y96211D01*
X285953D01*
Y96151D01*
X285893D01*
Y96090D01*
X285832D01*
Y96030D01*
X285712D01*
Y95970D01*
X285652D01*
Y95910D01*
X285591D01*
Y95729D01*
X285471D01*
Y95669D01*
X285411D01*
Y95428D01*
X285350D01*
Y95247D01*
X285290D01*
Y95126D01*
X285230D01*
Y95006D01*
X285170D01*
Y94825D01*
X285109D01*
Y94644D01*
X285049D01*
Y94524D01*
X284989D01*
Y94403D01*
X284929D01*
Y94223D01*
X284868D01*
Y93921D01*
X284808D01*
Y93740D01*
X284748D01*
Y93499D01*
X284808D01*
Y93018D01*
X284868D01*
Y92777D01*
X284929D01*
Y92656D01*
X284989D01*
Y92536D01*
X285049D01*
Y92355D01*
X285109D01*
Y91993D01*
X285170D01*
Y91933D01*
X285230D01*
Y91812D01*
X285290D01*
Y91692D01*
X285350D01*
Y91571D01*
X285411D01*
Y91451D01*
X285471D01*
Y91330D01*
X285531D01*
Y91270D01*
X285591D01*
Y91210D01*
X285652D01*
Y91089D01*
X285712D01*
Y91029D01*
X285832D01*
Y90909D01*
X285893D01*
Y90788D01*
X286073D01*
Y90728D01*
X286134D01*
Y90607D01*
X286254D01*
Y90547D01*
X286314D01*
Y90427D01*
X286495D01*
Y90366D01*
X286555D01*
Y90306D01*
X286616D01*
Y90246D01*
X286736D01*
Y90186D01*
X286917D01*
Y90125D01*
X286977D01*
Y90065D01*
X287037D01*
Y90005D01*
X287399D01*
Y89945D01*
X287580D01*
Y89884D01*
X287700D01*
Y89945D01*
X287821D01*
Y89884D01*
X288062D01*
Y89824D01*
X288363D01*
Y89764D01*
X288484D01*
Y89704D01*
X288845D01*
Y89643D01*
X289026D01*
Y89583D01*
X289267D01*
Y89523D01*
X289447D01*
Y89463D01*
X289628D01*
Y89402D01*
X289688D01*
Y89342D01*
X289749D01*
Y89282D01*
X289809D01*
Y88981D01*
X289749D01*
Y88920D01*
X289688D01*
Y88860D01*
X289628D01*
Y88800D01*
X289508D01*
Y88740D01*
X289447D01*
Y88679D01*
X289267D01*
Y88740D01*
X288724D01*
Y88800D01*
X288484D01*
Y88860D01*
X288243D01*
Y88920D01*
X287881D01*
Y88981D01*
X287821D01*
Y88920D01*
X287700D01*
Y88981D01*
X287640D01*
Y89041D01*
X287580D01*
Y88981D01*
X287519D01*
Y88860D01*
X287700D01*
Y88740D01*
X287760D01*
Y88679D01*
X287821D01*
Y88619D01*
X287881D01*
Y88559D01*
X287941D01*
Y88499D01*
X288062D01*
Y88438D01*
X288122D01*
Y88378D01*
X288182D01*
Y88318D01*
X288363D01*
Y88257D01*
X288423D01*
Y88197D01*
X288544D01*
Y88137D01*
X288604D01*
Y88077D01*
X288724D01*
Y88016D01*
X288785D01*
Y87956D01*
X288845D01*
Y87896D01*
X288966D01*
Y87836D01*
X289026D01*
Y87775D01*
X289086D01*
Y87715D01*
X289146D01*
Y87655D01*
X289207D01*
Y87595D01*
X289267D01*
Y87534D01*
X289387D01*
Y87474D01*
X289447D01*
Y87414D01*
X289508D01*
Y87354D01*
X289628D01*
Y87293D01*
X289688D01*
Y87233D01*
X289749D01*
Y87173D01*
X289809D01*
Y87113D01*
X289869D01*
Y86992D01*
X289930D01*
Y86932D01*
X289990D01*
Y86872D01*
X290050D01*
Y86812D01*
X290110D01*
Y86751D01*
X290171D01*
Y86691D01*
X290231D01*
Y86571D01*
X290291D01*
Y86510D01*
X290351D01*
Y86149D01*
X290291D01*
Y86088D01*
X290231D01*
Y85968D01*
X290171D01*
Y85908D01*
X290110D01*
Y85787D01*
X290050D01*
Y85727D01*
X289990D01*
Y85667D01*
X289930D01*
Y85606D01*
X289809D01*
Y85546D01*
X289628D01*
Y85486D01*
X289568D01*
Y85426D01*
X289327D01*
Y85365D01*
X289267D01*
Y85305D01*
X289026D01*
Y85245D01*
X288785D01*
Y85185D01*
X288724D01*
Y85124D01*
X288484D01*
Y85064D01*
X288243D01*
Y85004D01*
X288182D01*
Y85064D01*
X288122D01*
Y85004D01*
X288062D01*
Y85064D01*
X288001D01*
Y85004D01*
X287881D01*
Y84944D01*
X287760D01*
Y84823D01*
X287700D01*
Y84763D01*
X287760D01*
Y84703D01*
X287821D01*
Y84642D01*
X287881D01*
Y84582D01*
X287941D01*
Y84522D01*
X288122D01*
Y84401D01*
X288303D01*
Y84341D01*
X288363D01*
Y84221D01*
X288544D01*
Y84100D01*
X288664D01*
Y84040D01*
X288785D01*
Y83980D01*
X288845D01*
Y83919D01*
X288905D01*
Y83859D01*
X288966D01*
Y83739D01*
X289026D01*
Y83678D01*
X289207D01*
Y83558D01*
X289267D01*
Y83498D01*
X289327D01*
Y83437D01*
X289387D01*
Y83377D01*
X289447D01*
Y83257D01*
X289628D01*
Y83196D01*
X289688D01*
Y83076D01*
X289749D01*
Y83016D01*
X289809D01*
Y82955D01*
X289869D01*
Y82895D01*
X289930D01*
Y82835D01*
X289990D01*
Y82775D01*
X290050D01*
Y82654D01*
X290110D01*
Y82594D01*
X290231D01*
Y82534D01*
X290291D01*
Y82473D01*
X290351D01*
Y82353D01*
X290412D01*
Y82292D01*
X290472D01*
Y82232D01*
X290532D01*
Y82172D01*
X290592D01*
Y82051D01*
X290713D01*
Y81931D01*
X290773D01*
Y81871D01*
X290894D01*
Y81810D01*
X290954D01*
Y81630D01*
X291014D01*
Y81569D01*
X291074D01*
Y81509D01*
X291014D01*
Y81328D01*
X290954D01*
Y81148D01*
X290894D01*
Y81087D01*
X290773D01*
Y81027D01*
X290713D01*
Y80967D01*
X290472D01*
Y80907D01*
X290412D01*
Y80967D01*
X290351D01*
Y80907D01*
X290291D01*
Y80847D01*
X290050D01*
Y80786D01*
X289990D01*
Y80726D01*
X289447D01*
Y80666D01*
X288966D01*
Y80605D01*
X288724D01*
Y80666D01*
X288243D01*
Y80726D01*
X287941D01*
Y80666D01*
X287821D01*
Y80726D01*
X287760D01*
Y80786D01*
X287339D01*
Y80847D01*
X287098D01*
Y80907D01*
X286917D01*
Y80967D01*
X286857D01*
Y81027D01*
X286495D01*
Y81087D01*
X286435D01*
Y81148D01*
X286254D01*
Y81208D01*
X286073D01*
Y81268D01*
X286013D01*
Y81328D01*
X285893D01*
Y81389D01*
X285712D01*
Y81509D01*
X285652D01*
Y81569D01*
X285531D01*
Y81509D01*
X285471D01*
Y81569D01*
X285411D01*
Y81630D01*
X285290D01*
Y81690D01*
X285170D01*
Y81750D01*
X285049D01*
Y81810D01*
X284989D01*
Y81871D01*
X284929D01*
Y81931D01*
X284748D01*
Y81991D01*
X284627D01*
Y82051D01*
X284567D01*
Y82112D01*
X284507D01*
Y82172D01*
X284386D01*
Y82232D01*
X284266D01*
Y82292D01*
X284206D01*
Y82353D01*
X284085D01*
Y82413D01*
X283964D01*
Y82473D01*
X283904D01*
Y82534D01*
X283784D01*
Y82594D01*
X283663D01*
Y82654D01*
X283543D01*
Y82714D01*
X283422D01*
Y82775D01*
X283302D01*
Y82835D01*
X283242D01*
Y82895D01*
X283121D01*
Y82955D01*
X282940D01*
Y83016D01*
X282880D01*
Y83076D01*
X282639D01*
Y83136D01*
X282458D01*
Y83196D01*
X282157D01*
Y83257D01*
X282036D01*
Y83317D01*
X281675D01*
Y83257D01*
X281615D01*
Y83196D01*
X281554D01*
Y82955D01*
X281615D01*
Y82895D01*
X281554D01*
Y82835D01*
X281615D01*
Y82594D01*
X281675D01*
Y82534D01*
X281615D01*
Y82473D01*
X281675D01*
Y82413D01*
X281615D01*
Y82353D01*
X281675D01*
Y82112D01*
X281735D01*
Y81690D01*
X281795D01*
Y81569D01*
X281856D01*
Y81449D01*
X281916D01*
Y81208D01*
X281976D01*
Y81087D01*
X282036D01*
Y81027D01*
X282097D01*
Y80967D01*
X282217D01*
Y80907D01*
X282277D01*
Y80786D01*
X282338D01*
Y80726D01*
X282458D01*
Y80666D01*
X282519D01*
Y80605D01*
X282639D01*
Y80666D01*
X282699D01*
Y80605D01*
X283121D01*
Y80666D01*
X283181D01*
Y80605D01*
X283723D01*
Y80545D01*
X283784D01*
Y80605D01*
X283844D01*
Y80545D01*
X283904D01*
Y80605D01*
X284206D01*
Y80545D01*
X284748D01*
Y80485D01*
X284868D01*
Y80545D01*
X285049D01*
Y80485D01*
X285170D01*
Y80425D01*
X285953D01*
Y80364D01*
X286134D01*
Y80304D01*
X286254D01*
Y80364D01*
X286495D01*
Y80304D01*
X286616D01*
Y80244D01*
X286977D01*
Y80184D01*
X287218D01*
Y80123D01*
X287399D01*
Y80063D01*
X287640D01*
Y80003D01*
X287760D01*
Y79943D01*
X287881D01*
Y79882D01*
X288001D01*
Y79822D01*
X288062D01*
Y79762D01*
X288122D01*
Y79641D01*
X288182D01*
Y79581D01*
X288243D01*
Y79521D01*
X288363D01*
Y79461D01*
X288303D01*
Y79280D01*
X288363D01*
Y78918D01*
X288303D01*
Y78798D01*
X288243D01*
Y78677D01*
X288182D01*
Y78557D01*
X288001D01*
Y78497D01*
X287881D01*
Y78436D01*
X287700D01*
Y78376D01*
X287519D01*
Y78436D01*
X286917D01*
Y78497D01*
X286676D01*
Y78557D01*
X286616D01*
Y78617D01*
X286495D01*
Y78677D01*
X286314D01*
Y78798D01*
X286194D01*
Y78858D01*
X286073D01*
Y78918D01*
X285953D01*
Y78979D01*
X285832D01*
Y79039D01*
X285712D01*
Y79099D01*
X285652D01*
Y79159D01*
X285471D01*
Y79220D01*
X285290D01*
Y79280D01*
X285049D01*
Y79340D01*
X284808D01*
Y79400D01*
X284627D01*
Y79461D01*
X284567D01*
Y79400D01*
X284507D01*
Y79461D01*
X284386D01*
Y79521D01*
X284206D01*
Y79581D01*
X284145D01*
Y79521D01*
X284085D01*
Y79581D01*
X283844D01*
Y79641D01*
X283543D01*
Y79702D01*
X283181D01*
Y79762D01*
X283000D01*
Y79822D01*
X282699D01*
Y79882D01*
X282398D01*
Y79822D01*
X282338D01*
Y79461D01*
X282398D01*
Y79340D01*
X282458D01*
Y79280D01*
X282519D01*
Y79220D01*
X282579D01*
Y79159D01*
X282639D01*
Y78979D01*
X282759D01*
Y78918D01*
X282820D01*
Y78798D01*
X282880D01*
Y78738D01*
X282940D01*
Y78677D01*
X283000D01*
Y78617D01*
X283061D01*
Y78497D01*
X283121D01*
Y78436D01*
X283181D01*
Y78376D01*
X283302D01*
Y78316D01*
X283422D01*
Y78256D01*
X283543D01*
Y78195D01*
X283723D01*
Y78135D01*
X283904D01*
Y78075D01*
X284025D01*
Y78015D01*
X284206D01*
Y77894D01*
X284386D01*
Y77834D01*
X284567D01*
Y77774D01*
X284627D01*
Y77713D01*
X284748D01*
Y77653D01*
X284808D01*
Y77593D01*
X284989D01*
Y77533D01*
X285049D01*
Y77472D01*
X285170D01*
Y77412D01*
X285230D01*
Y77352D01*
X285411D01*
Y77231D01*
X285471D01*
Y77171D01*
X285652D01*
Y77111D01*
X285772D01*
Y77051D01*
X285832D01*
Y76990D01*
X285893D01*
Y76930D01*
X286013D01*
Y76870D01*
X286073D01*
Y76810D01*
X286134D01*
Y76749D01*
X286194D01*
Y76689D01*
X286254D01*
Y76629D01*
X286314D01*
Y76569D01*
X286435D01*
Y76508D01*
X286495D01*
Y76388D01*
X286555D01*
Y76328D01*
X286616D01*
Y76267D01*
X286676D01*
Y76207D01*
X286736D01*
Y76086D01*
X286796D01*
Y76026D01*
X286857D01*
Y75966D01*
X286917D01*
Y75906D01*
X286977D01*
Y75785D01*
X287037D01*
Y75725D01*
X287098D01*
Y75665D01*
X287158D01*
Y75303D01*
X287218D01*
Y74460D01*
X287158D01*
Y74399D01*
X287098D01*
Y74279D01*
X287037D01*
Y74219D01*
X286917D01*
Y74158D01*
X286857D01*
Y74098D01*
X286796D01*
Y73917D01*
X286857D01*
Y73857D01*
X287037D01*
Y73797D01*
X287218D01*
Y73737D01*
X287399D01*
Y73676D01*
X287459D01*
Y73616D01*
X287580D01*
Y73556D01*
X287760D01*
Y73616D01*
X287821D01*
Y73556D01*
X287881D01*
Y73496D01*
X288001D01*
Y73435D01*
X288182D01*
Y73375D01*
X288303D01*
Y73315D01*
X288423D01*
Y73194D01*
X288664D01*
Y73134D01*
X288785D01*
Y73074D01*
X288905D01*
Y73014D01*
X289026D01*
Y72953D01*
X289146D01*
Y72893D01*
X289267D01*
Y72833D01*
X289447D01*
Y72773D01*
X289508D01*
Y72712D01*
X289568D01*
Y72652D01*
X289688D01*
Y72592D01*
X289869D01*
Y72532D01*
X289930D01*
Y72471D01*
X290291D01*
Y72411D01*
X290351D01*
Y72351D01*
X290412D01*
Y72291D01*
X290532D01*
Y72230D01*
X290653D01*
Y72170D01*
X290954D01*
Y72110D01*
X291135D01*
Y72050D01*
X291496D01*
Y71989D01*
X291797D01*
Y71869D01*
X291858D01*
Y71447D01*
X291797D01*
Y71387D01*
X291737D01*
Y71327D01*
X291677D01*
Y71387D01*
X291617D01*
Y71327D01*
X291496D01*
Y71266D01*
X291135D01*
Y71206D01*
X291074D01*
Y71266D01*
X291014D01*
Y71206D01*
X290954D01*
Y71266D01*
X290833D01*
Y71327D01*
X290653D01*
Y71387D01*
X290412D01*
Y71447D01*
X290291D01*
Y71507D01*
X290050D01*
Y71568D01*
X289990D01*
Y71628D01*
X289869D01*
Y71688D01*
X289809D01*
Y71748D01*
X289628D01*
Y71809D01*
X289568D01*
Y71869D01*
X289447D01*
Y71929D01*
X289387D01*
Y71989D01*
X289146D01*
Y72050D01*
X289086D01*
Y72110D01*
X288905D01*
Y72170D01*
X288785D01*
Y72230D01*
X288664D01*
Y72291D01*
X288544D01*
Y72351D01*
X288484D01*
Y72411D01*
X288363D01*
Y72471D01*
X288303D01*
Y72532D01*
X288122D01*
Y72592D01*
X288062D01*
Y72652D01*
X287881D01*
Y72712D01*
X287760D01*
Y72773D01*
X287519D01*
Y72833D01*
X287459D01*
Y72893D01*
X287278D01*
Y72953D01*
X287158D01*
Y73014D01*
X287037D01*
Y73074D01*
X286917D01*
Y73134D01*
X286736D01*
Y73194D01*
X286495D01*
Y73255D01*
X286194D01*
Y73315D01*
X286013D01*
Y73375D01*
X285832D01*
Y73435D01*
X285591D01*
Y73496D01*
X285290D01*
Y73556D01*
X285049D01*
Y73616D01*
X284326D01*
Y73676D01*
X284025D01*
Y73616D01*
X283844D01*
Y73676D01*
X283422D01*
Y73616D01*
X283362D01*
Y73375D01*
X283422D01*
Y73255D01*
X283483D01*
Y73134D01*
X283543D01*
Y73014D01*
X283603D01*
Y72773D01*
X283663D01*
Y72712D01*
X283723D01*
Y72652D01*
X283784D01*
Y72532D01*
X283844D01*
Y72471D01*
X283904D01*
Y72351D01*
X283964D01*
Y72291D01*
X284025D01*
Y72230D01*
X284085D01*
Y72170D01*
X284145D01*
Y72050D01*
X284326D01*
Y71989D01*
X284386D01*
Y71929D01*
X284447D01*
Y71869D01*
X284567D01*
Y71809D01*
X284748D01*
Y71748D01*
X284989D01*
Y71688D01*
X285049D01*
Y71628D01*
X285290D01*
Y71568D01*
X285350D01*
Y71507D01*
X285411D01*
Y71447D01*
X285591D01*
Y71387D01*
X285652D01*
Y71327D01*
X285832D01*
Y71266D01*
X285953D01*
Y71206D01*
X286013D01*
Y71146D01*
X286073D01*
Y71086D01*
X286254D01*
Y70965D01*
X286435D01*
Y70905D01*
X286495D01*
Y70845D01*
X286736D01*
Y70784D01*
X286796D01*
Y70724D01*
X286977D01*
Y70664D01*
X287098D01*
Y70604D01*
X287278D01*
Y70483D01*
X287519D01*
Y70363D01*
X287580D01*
Y70302D01*
X287640D01*
Y70363D01*
X287700D01*
Y70302D01*
X287760D01*
Y70242D01*
X287821D01*
Y70182D01*
X287941D01*
Y70122D01*
X288001D01*
Y70061D01*
X288122D01*
Y70001D01*
X288182D01*
Y69941D01*
X288363D01*
Y69820D01*
X288484D01*
Y69760D01*
X288544D01*
Y69639D01*
X288724D01*
Y69579D01*
X288785D01*
Y69459D01*
X288724D01*
Y69278D01*
X288664D01*
Y69218D01*
X288604D01*
Y69097D01*
X288544D01*
Y69037D01*
X288363D01*
Y68977D01*
X288303D01*
Y69037D01*
X288243D01*
Y68977D01*
X287941D01*
Y69037D01*
X287821D01*
Y69097D01*
X287700D01*
Y69157D01*
X287640D01*
Y69278D01*
X287519D01*
Y69398D01*
X287459D01*
Y69459D01*
X287278D01*
Y69519D01*
X287218D01*
Y69579D01*
X287158D01*
Y69639D01*
X287037D01*
Y69700D01*
X286977D01*
Y69760D01*
X286796D01*
Y69880D01*
X286555D01*
Y69941D01*
X286435D01*
Y70001D01*
X286254D01*
Y70061D01*
X286073D01*
Y70122D01*
X285953D01*
Y70182D01*
X285712D01*
Y70242D01*
X285591D01*
Y70302D01*
X285471D01*
Y70363D01*
X285350D01*
Y70423D01*
X285170D01*
Y70483D01*
X285109D01*
Y70543D01*
X284989D01*
Y70604D01*
X284929D01*
Y70664D01*
X284808D01*
Y70724D01*
X284688D01*
Y70784D01*
X284507D01*
Y70905D01*
X284386D01*
Y70965D01*
X284326D01*
Y71025D01*
X284266D01*
Y71086D01*
X284085D01*
Y71206D01*
X284025D01*
Y71266D01*
X283964D01*
Y71327D01*
X283663D01*
Y71266D01*
X283603D01*
Y71206D01*
X283543D01*
Y71086D01*
X283603D01*
Y70604D01*
X283663D01*
Y70302D01*
X283723D01*
Y70182D01*
X283784D01*
Y70122D01*
X283844D01*
Y70001D01*
X283904D01*
Y69880D01*
X283964D01*
Y69820D01*
X284085D01*
Y69760D01*
X284145D01*
Y69700D01*
X284206D01*
Y69639D01*
X284266D01*
Y69579D01*
X284386D01*
Y69519D01*
X284567D01*
Y69459D01*
X284627D01*
Y69398D01*
X284808D01*
Y69338D01*
X284989D01*
Y69278D01*
X285109D01*
Y69218D01*
X285290D01*
Y69157D01*
X285531D01*
Y69097D01*
X285832D01*
Y69037D01*
X285893D01*
Y68977D01*
X285953D01*
Y69037D01*
X286073D01*
Y68977D01*
X286254D01*
Y68916D01*
X286314D01*
Y68856D01*
X286495D01*
Y68796D01*
X286676D01*
Y68736D01*
X286796D01*
Y68675D01*
X286917D01*
Y68615D01*
X287098D01*
Y68555D01*
X287158D01*
Y68495D01*
X287218D01*
Y68434D01*
X287339D01*
Y68374D01*
X287399D01*
Y68314D01*
X287459D01*
Y68254D01*
X287519D01*
Y68133D01*
X287580D01*
Y68073D01*
X287640D01*
Y68013D01*
X287700D01*
Y67952D01*
X287760D01*
Y67832D01*
X287821D01*
Y67711D01*
X287881D01*
Y67651D01*
X287941D01*
Y67350D01*
X288001D01*
Y67229D01*
X288062D01*
Y66988D01*
X288122D01*
Y66747D01*
X288182D01*
Y66506D01*
X288243D01*
Y66446D01*
X288182D01*
Y66205D01*
X288243D01*
Y65904D01*
X288182D01*
Y65783D01*
X288122D01*
Y65663D01*
X288062D01*
Y65602D01*
X287941D01*
Y65542D01*
X287881D01*
Y65482D01*
X287760D01*
Y65422D01*
X287700D01*
Y65361D01*
X287640D01*
Y65301D01*
X287580D01*
Y65121D01*
X287640D01*
Y65060D01*
X287760D01*
Y65000D01*
X287821D01*
Y64940D01*
X287881D01*
Y64880D01*
X288062D01*
Y64759D01*
X288122D01*
Y64699D01*
X288182D01*
Y64639D01*
X288243D01*
Y64578D01*
X288303D01*
Y64518D01*
X288423D01*
Y64337D01*
X288484D01*
Y64277D01*
X288544D01*
Y64217D01*
X288664D01*
Y64036D01*
X288724D01*
Y63735D01*
X288664D01*
Y63614D01*
X288604D01*
Y63554D01*
X288544D01*
Y63494D01*
X288303D01*
Y63433D01*
X288122D01*
Y63373D01*
X287580D01*
Y63313D01*
X286917D01*
Y63253D01*
X285953D01*
Y63192D01*
X285712D01*
Y63253D01*
X285411D01*
Y63313D01*
X285290D01*
Y63253D01*
X285230D01*
Y63313D01*
X284989D01*
Y63373D01*
X284748D01*
Y63433D01*
X284688D01*
Y63373D01*
X284627D01*
Y63433D01*
X284567D01*
Y63373D01*
X284447D01*
Y63313D01*
X284386D01*
Y63253D01*
X284326D01*
Y63132D01*
X284386D01*
Y63012D01*
X284507D01*
Y62951D01*
X284567D01*
Y62831D01*
X284627D01*
Y62710D01*
X284688D01*
Y62650D01*
X284808D01*
Y62590D01*
X284868D01*
Y62530D01*
X284929D01*
Y62469D01*
X285230D01*
Y62409D01*
X285411D01*
Y62349D01*
X285652D01*
Y62289D01*
X285712D01*
Y62228D01*
X285893D01*
Y62108D01*
X286134D01*
Y62048D01*
X286194D01*
Y61987D01*
X286254D01*
Y61927D01*
X286314D01*
Y61867D01*
X286375D01*
Y61807D01*
X286555D01*
Y61686D01*
X286736D01*
Y61626D01*
X286796D01*
Y61505D01*
X286857D01*
Y61445D01*
X286917D01*
Y61385D01*
X286977D01*
Y61325D01*
X287037D01*
Y61264D01*
X287158D01*
Y61204D01*
X287218D01*
Y61144D01*
X287278D01*
Y61084D01*
X287339D01*
Y61023D01*
X287399D01*
Y60903D01*
X287459D01*
Y60843D01*
X287519D01*
Y60782D01*
X287580D01*
Y60722D01*
X287640D01*
Y60602D01*
X287700D01*
Y60541D01*
X287821D01*
Y60481D01*
X287881D01*
Y60300D01*
X287941D01*
Y60240D01*
X288062D01*
Y60180D01*
X288122D01*
Y60059D01*
X288182D01*
Y59999D01*
X288303D01*
Y59878D01*
X288363D01*
Y59818D01*
X288423D01*
Y59758D01*
X288484D01*
Y59698D01*
X288544D01*
Y59577D01*
X288604D01*
Y59457D01*
X288664D01*
Y59396D01*
X288724D01*
Y59216D01*
X288785D01*
Y58915D01*
X288724D01*
Y58734D01*
X288664D01*
Y58674D01*
X288604D01*
Y58493D01*
X288544D01*
Y58433D01*
X288423D01*
Y58372D01*
X288243D01*
Y58312D01*
X288122D01*
Y58252D01*
X288062D01*
Y58312D01*
X288001D01*
Y58252D01*
X287881D01*
Y58191D01*
X287821D01*
Y58131D01*
X287580D01*
Y58071D01*
X287519D01*
Y58011D01*
X287278D01*
Y57950D01*
X287218D01*
Y58011D01*
X287158D01*
Y57950D01*
X286736D01*
Y57890D01*
X286676D01*
Y57950D01*
X286616D01*
Y57890D01*
X284627D01*
Y58011D01*
X284567D01*
Y58071D01*
X284507D01*
Y58131D01*
X284386D01*
Y58191D01*
X284326D01*
Y58252D01*
X284085D01*
Y58191D01*
X283844D01*
Y58252D01*
X283784D01*
Y58191D01*
X283543D01*
Y58131D01*
X283422D01*
Y58071D01*
X283362D01*
Y58011D01*
X283302D01*
Y57950D01*
X283242D01*
Y57890D01*
X283181D01*
Y57830D01*
X283121D01*
Y57709D01*
X283181D01*
Y57529D01*
X283121D01*
Y57408D01*
X283181D01*
Y57047D01*
X283121D01*
Y56926D01*
X283061D01*
Y56866D01*
X282880D01*
Y56806D01*
X282759D01*
Y56866D01*
X282699D01*
Y56806D01*
X282639D01*
Y56866D01*
X282398D01*
Y56926D01*
X282338D01*
Y56986D01*
X282277D01*
Y57348D01*
X282217D01*
Y57709D01*
X282277D01*
Y57770D01*
X282217D01*
Y58011D01*
X282277D01*
Y58071D01*
X282338D01*
Y58191D01*
X282398D01*
Y58312D01*
X282458D01*
Y58372D01*
X282519D01*
Y58493D01*
X282639D01*
Y58553D01*
X282820D01*
Y58613D01*
X282880D01*
Y58674D01*
X283000D01*
Y58734D01*
X283061D01*
Y58794D01*
X283603D01*
Y58854D01*
X283663D01*
Y58915D01*
X283723D01*
Y59095D01*
X283663D01*
Y59155D01*
X283603D01*
Y59216D01*
X283543D01*
Y59276D01*
X283483D01*
Y59336D01*
X283422D01*
Y59457D01*
X283242D01*
Y59637D01*
X283181D01*
Y59758D01*
X283121D01*
Y59878D01*
X283061D01*
Y60059D01*
X283000D01*
Y60541D01*
X282940D01*
Y61084D01*
X282880D01*
Y61867D01*
X282940D01*
Y62048D01*
X283000D01*
Y62168D01*
X283061D01*
Y62228D01*
X283121D01*
Y62289D01*
X283181D01*
Y62349D01*
X283302D01*
Y62409D01*
X283362D01*
Y62469D01*
X283483D01*
Y62530D01*
X283543D01*
Y62831D01*
X283483D01*
Y62951D01*
X283422D01*
Y63012D01*
X283362D01*
Y63373D01*
X283302D01*
Y63554D01*
X283362D01*
Y63614D01*
X283422D01*
Y63855D01*
X283483D01*
Y63915D01*
X283543D01*
Y63976D01*
X283603D01*
Y64036D01*
X283844D01*
Y64096D01*
X284085D01*
Y64157D01*
X284145D01*
Y64096D01*
X284206D01*
Y64157D01*
X284266D01*
Y64096D01*
X284567D01*
Y64157D01*
X284627D01*
Y64096D01*
X285109D01*
Y64036D01*
X285350D01*
Y63976D01*
X285591D01*
Y63915D01*
X286073D01*
Y63855D01*
X286134D01*
Y63915D01*
X286796D01*
Y63976D01*
X287218D01*
Y64036D01*
X287278D01*
Y64096D01*
X287399D01*
Y64337D01*
X287339D01*
Y64458D01*
X287158D01*
Y64518D01*
X287098D01*
Y64578D01*
X287037D01*
Y64639D01*
X286917D01*
Y64699D01*
X286857D01*
Y64759D01*
X286796D01*
Y64819D01*
X286736D01*
Y64940D01*
X286676D01*
Y65000D01*
X286616D01*
Y64940D01*
X286555D01*
Y65000D01*
X286495D01*
Y65060D01*
X286435D01*
Y65121D01*
X286314D01*
Y65181D01*
X286254D01*
Y65241D01*
X286194D01*
Y65301D01*
X286073D01*
Y65361D01*
X286013D01*
Y65422D01*
X285953D01*
Y65482D01*
X285832D01*
Y65542D01*
X285712D01*
Y65602D01*
X285652D01*
Y65663D01*
X285591D01*
Y65723D01*
X285471D01*
Y65783D01*
X285411D01*
Y65904D01*
X285230D01*
Y65964D01*
X285170D01*
Y66085D01*
X284989D01*
Y66145D01*
X284929D01*
Y66265D01*
X284808D01*
Y66326D01*
X284688D01*
Y66386D01*
X284567D01*
Y66446D01*
X284507D01*
Y66506D01*
X284386D01*
Y66567D01*
X284266D01*
Y66627D01*
X284145D01*
Y66687D01*
X284025D01*
Y66747D01*
X283904D01*
Y66808D01*
X283723D01*
Y66868D01*
X283663D01*
Y66988D01*
X283483D01*
Y67109D01*
X283422D01*
Y67169D01*
X283362D01*
Y67229D01*
X283302D01*
Y67531D01*
X283362D01*
Y67651D01*
X283422D01*
Y67772D01*
X283483D01*
Y67832D01*
X283603D01*
Y67772D01*
X283663D01*
Y67832D01*
X283904D01*
Y67892D01*
X284025D01*
Y67832D01*
X284206D01*
Y67772D01*
X284386D01*
Y67711D01*
X284507D01*
Y67651D01*
X284627D01*
Y67591D01*
X284688D01*
Y67531D01*
X284748D01*
Y67470D01*
X284808D01*
Y67410D01*
X284929D01*
Y67350D01*
X284989D01*
Y67290D01*
X285049D01*
Y67229D01*
X285109D01*
Y67169D01*
X285230D01*
Y67109D01*
X285290D01*
Y67049D01*
X285350D01*
Y66988D01*
X285411D01*
Y66868D01*
X285591D01*
Y66808D01*
X285652D01*
Y66687D01*
X285832D01*
Y66627D01*
X285893D01*
Y66567D01*
X286013D01*
Y66506D01*
X286073D01*
Y66446D01*
X286134D01*
Y66386D01*
X286314D01*
Y66326D01*
X286435D01*
Y66265D01*
X286495D01*
Y66205D01*
X286736D01*
Y66145D01*
X286857D01*
Y66085D01*
X287098D01*
Y66145D01*
X287218D01*
Y66265D01*
X287278D01*
Y66386D01*
X287218D01*
Y66687D01*
X287158D01*
Y67169D01*
X287098D01*
Y67290D01*
X287037D01*
Y67350D01*
X286977D01*
Y67470D01*
X286917D01*
Y67591D01*
X286857D01*
Y67711D01*
X286796D01*
Y67832D01*
X286736D01*
Y67892D01*
X286555D01*
Y68013D01*
X286435D01*
Y68073D01*
X286314D01*
Y68133D01*
X286254D01*
Y68193D01*
X286134D01*
Y68254D01*
X285953D01*
Y68314D01*
X285772D01*
Y68374D01*
X285531D01*
Y68434D01*
X285350D01*
Y68495D01*
X285170D01*
Y68555D01*
X284929D01*
Y68615D01*
X284627D01*
Y68675D01*
X284507D01*
Y68736D01*
X284326D01*
Y68796D01*
X284266D01*
Y68856D01*
X284085D01*
Y68916D01*
X283844D01*
Y68977D01*
X283784D01*
Y69037D01*
X283723D01*
Y69097D01*
X283663D01*
Y69157D01*
X283483D01*
Y69278D01*
X283422D01*
Y69338D01*
X283242D01*
Y69459D01*
X283181D01*
Y69519D01*
X283121D01*
Y69579D01*
X283061D01*
Y69700D01*
X283000D01*
Y69760D01*
X282940D01*
Y69880D01*
X282880D01*
Y70001D01*
X282820D01*
Y70122D01*
X282759D01*
Y70302D01*
X282699D01*
Y70483D01*
X282639D01*
Y70724D01*
X282579D01*
Y71507D01*
X282639D01*
Y71748D01*
X282699D01*
Y71869D01*
X282759D01*
Y71929D01*
X282820D01*
Y71989D01*
X282940D01*
Y72050D01*
X283000D01*
Y72230D01*
X282940D01*
Y72351D01*
X282820D01*
Y72471D01*
X282759D01*
Y72592D01*
X282699D01*
Y72712D01*
X282639D01*
Y72773D01*
X282579D01*
Y72833D01*
X282519D01*
Y73074D01*
X282458D01*
Y73134D01*
X282398D01*
Y73255D01*
X282338D01*
Y73797D01*
X282398D01*
Y73917D01*
X282458D01*
Y74038D01*
X282519D01*
Y74158D01*
X282579D01*
Y74219D01*
X282699D01*
Y74279D01*
X282759D01*
Y74520D01*
X282699D01*
Y74580D01*
X282519D01*
Y74701D01*
X282398D01*
Y74761D01*
X282277D01*
Y74821D01*
X282157D01*
Y74881D01*
X282097D01*
Y74942D01*
X282036D01*
Y75002D01*
X281976D01*
Y75062D01*
X281916D01*
Y75122D01*
X281856D01*
Y75243D01*
X281795D01*
Y75303D01*
X281735D01*
Y75363D01*
X281675D01*
Y75604D01*
X281615D01*
Y75725D01*
X281554D01*
Y75785D01*
X281494D01*
Y76026D01*
X281434D01*
Y76508D01*
X281374D01*
Y76629D01*
X281434D01*
Y76810D01*
X281374D01*
Y77111D01*
X281434D01*
Y77533D01*
X281494D01*
Y77653D01*
X281554D01*
Y77774D01*
X281615D01*
Y77894D01*
X281675D01*
Y77954D01*
X281735D01*
Y78075D01*
X281795D01*
Y78135D01*
X281856D01*
Y78195D01*
X281916D01*
Y78256D01*
X281976D01*
Y78497D01*
X281916D01*
Y78617D01*
X281795D01*
Y78677D01*
X281735D01*
Y78798D01*
X281675D01*
Y78918D01*
X281615D01*
Y78979D01*
X281554D01*
Y79039D01*
X281494D01*
Y79220D01*
X281434D01*
Y79340D01*
X281374D01*
Y79461D01*
X281313D01*
Y79822D01*
X281374D01*
Y80123D01*
X281434D01*
Y80304D01*
X281494D01*
Y80364D01*
X281434D01*
Y80485D01*
X281374D01*
Y80605D01*
X281313D01*
Y80726D01*
X281253D01*
Y80786D01*
X281193D01*
Y80907D01*
X281133D01*
Y81027D01*
X281072D01*
Y81148D01*
X281012D01*
Y81268D01*
X280952D01*
Y81328D01*
X280892D01*
Y81810D01*
X280831D01*
Y81931D01*
X280771D01*
Y82112D01*
X280711D01*
Y82413D01*
X280651D01*
Y82714D01*
X280590D01*
Y83377D01*
X280530D01*
Y83678D01*
X280590D01*
Y83799D01*
X280651D01*
Y83919D01*
X280711D01*
Y83980D01*
X280771D01*
Y84040D01*
X281012D01*
Y84100D01*
X281313D01*
Y84040D01*
X281494D01*
Y84100D01*
X281615D01*
Y84040D01*
X281795D01*
Y83980D01*
X282036D01*
Y83919D01*
X282338D01*
Y83859D01*
X282519D01*
Y83799D01*
X282759D01*
Y83739D01*
X282940D01*
Y83678D01*
X283000D01*
Y83618D01*
X283242D01*
Y83558D01*
X283302D01*
Y83498D01*
X283483D01*
Y83437D01*
X283603D01*
Y83377D01*
X283723D01*
Y83317D01*
X283844D01*
Y83257D01*
X284025D01*
Y83196D01*
X284085D01*
Y83136D01*
X284145D01*
Y83076D01*
X284266D01*
Y83016D01*
X284447D01*
Y82895D01*
X284507D01*
Y82835D01*
X284688D01*
Y82775D01*
X284808D01*
Y82714D01*
X284868D01*
Y82654D01*
X284929D01*
Y82594D01*
X285109D01*
Y82534D01*
X285230D01*
Y82473D01*
X285290D01*
Y82413D01*
X285350D01*
Y82353D01*
X285531D01*
Y82292D01*
X285652D01*
Y82232D01*
X285712D01*
Y82172D01*
X285772D01*
Y82112D01*
X285953D01*
Y82051D01*
X286013D01*
Y81991D01*
X286134D01*
Y81931D01*
X286194D01*
Y81871D01*
X286375D01*
Y81810D01*
X286616D01*
Y81750D01*
X286796D01*
Y81690D01*
X286857D01*
Y81630D01*
X286977D01*
Y81569D01*
X287278D01*
Y81509D01*
X287399D01*
Y81449D01*
X287760D01*
Y81389D01*
X288243D01*
Y81328D01*
X289387D01*
Y81389D01*
X289749D01*
Y81449D01*
X289809D01*
Y81509D01*
X289930D01*
Y81810D01*
X289869D01*
Y81871D01*
X289809D01*
Y81991D01*
X289749D01*
Y82051D01*
X289688D01*
Y82112D01*
X289628D01*
Y82232D01*
X289568D01*
Y82292D01*
X289447D01*
Y82353D01*
X289387D01*
Y82534D01*
X289327D01*
Y82594D01*
X289146D01*
Y82714D01*
X289086D01*
Y82775D01*
X289026D01*
Y82835D01*
X288966D01*
Y82895D01*
X288905D01*
Y83016D01*
X288845D01*
Y83076D01*
X288785D01*
Y83136D01*
X288724D01*
Y83196D01*
X288664D01*
Y83257D01*
X288544D01*
Y83317D01*
X288484D01*
Y83377D01*
X288423D01*
Y83437D01*
X288363D01*
Y83498D01*
X288303D01*
Y83618D01*
X288243D01*
Y83678D01*
X288062D01*
Y83799D01*
X288001D01*
Y83859D01*
X287821D01*
Y83980D01*
X287640D01*
Y84040D01*
X287580D01*
Y84160D01*
X287399D01*
Y84221D01*
X287339D01*
Y84281D01*
X287278D01*
Y84341D01*
X287218D01*
Y84401D01*
X287158D01*
Y84462D01*
X286977D01*
Y84522D01*
X286857D01*
Y84582D01*
X286736D01*
Y84642D01*
X286555D01*
Y84703D01*
X286495D01*
Y84763D01*
X286435D01*
Y84823D01*
X286314D01*
Y84883D01*
X286134D01*
Y84944D01*
X286013D01*
Y85004D01*
X285893D01*
Y85064D01*
X285591D01*
Y85124D01*
X285471D01*
Y85185D01*
X285170D01*
Y85245D01*
X285049D01*
Y85305D01*
X284748D01*
Y85365D01*
X284627D01*
Y85426D01*
X284447D01*
Y85486D01*
X284145D01*
Y85546D01*
X283964D01*
Y85606D01*
X283844D01*
Y85667D01*
X283663D01*
Y85787D01*
X283362D01*
Y85847D01*
X283242D01*
Y85908D01*
X283061D01*
Y85968D01*
X283000D01*
Y86028D01*
X282759D01*
Y86088D01*
X282639D01*
Y86149D01*
X282398D01*
Y86209D01*
X282338D01*
Y86269D01*
X282217D01*
Y86329D01*
X281916D01*
Y86390D01*
X281795D01*
Y86450D01*
X281675D01*
Y86510D01*
X281434D01*
Y86571D01*
X281313D01*
Y86631D01*
X281133D01*
Y86691D01*
X280952D01*
Y86751D01*
X280892D01*
Y86812D01*
X280711D01*
Y86872D01*
X280590D01*
Y86932D01*
X280530D01*
Y86992D01*
X280470D01*
Y87053D01*
X280349D01*
Y87113D01*
X280229D01*
Y87173D01*
X280108D01*
Y87414D01*
X280048D01*
Y87474D01*
X280108D01*
Y87715D01*
X280169D01*
Y87775D01*
X280410D01*
Y87836D01*
X280831D01*
Y87775D01*
X280952D01*
Y87715D01*
X281072D01*
Y87655D01*
X281193D01*
Y87595D01*
X281313D01*
Y87534D01*
X281374D01*
Y87474D01*
X281494D01*
Y87414D01*
X281615D01*
Y87354D01*
X281735D01*
Y87293D01*
X281795D01*
Y87233D01*
X281916D01*
Y87173D01*
X281976D01*
Y87233D01*
X282036D01*
Y87173D01*
X282217D01*
Y87113D01*
X282277D01*
Y87053D01*
X282458D01*
Y86992D01*
X282519D01*
Y86932D01*
X282639D01*
Y86872D01*
X282699D01*
Y86812D01*
X283000D01*
Y86751D01*
X283121D01*
Y86691D01*
X283302D01*
Y86631D01*
X283362D01*
Y86571D01*
X283422D01*
Y86631D01*
X283483D01*
Y86571D01*
X283543D01*
Y86510D01*
X283603D01*
Y86571D01*
X283723D01*
Y86510D01*
X283904D01*
Y86450D01*
X283964D01*
Y86390D01*
X284085D01*
Y86329D01*
X284386D01*
Y86269D01*
X284567D01*
Y86209D01*
X284688D01*
Y86149D01*
X284808D01*
Y86088D01*
X285049D01*
Y86028D01*
X285170D01*
Y85968D01*
X285350D01*
Y85908D01*
X285411D01*
Y85847D01*
X285591D01*
Y85787D01*
X285832D01*
Y85727D01*
X286013D01*
Y85667D01*
X286194D01*
Y85606D01*
X286495D01*
Y85546D01*
X286555D01*
Y85606D01*
X286676D01*
Y85546D01*
X286977D01*
Y85606D01*
X287037D01*
Y85546D01*
X287399D01*
Y85606D01*
X287821D01*
Y85667D01*
X288062D01*
Y85727D01*
X288243D01*
Y85787D01*
X288484D01*
Y85847D01*
X288664D01*
Y85908D01*
X288785D01*
Y85968D01*
X289026D01*
Y86028D01*
X289207D01*
Y86088D01*
X289327D01*
Y86149D01*
X289387D01*
Y86209D01*
X289447D01*
Y86571D01*
X289387D01*
Y86631D01*
X289327D01*
Y86691D01*
X289207D01*
Y86751D01*
X289146D01*
Y86872D01*
X289086D01*
Y86932D01*
X289026D01*
Y86992D01*
X288966D01*
Y87053D01*
X288905D01*
Y87113D01*
X288845D01*
Y87173D01*
X288724D01*
Y87233D01*
X288664D01*
Y87354D01*
X288544D01*
Y87474D01*
X288484D01*
Y87534D01*
X288303D01*
Y87655D01*
X288182D01*
Y87715D01*
X288062D01*
Y87836D01*
X287941D01*
Y87896D01*
X287821D01*
Y87956D01*
X287760D01*
Y88016D01*
X287640D01*
Y88077D01*
X287580D01*
Y88137D01*
X287459D01*
Y88197D01*
X287339D01*
Y88257D01*
X287278D01*
Y88318D01*
X287218D01*
Y88438D01*
X287037D01*
Y88499D01*
X286977D01*
Y88559D01*
X286917D01*
Y88619D01*
X286796D01*
Y88679D01*
X286676D01*
Y88740D01*
X286495D01*
Y88800D01*
X286314D01*
Y88860D01*
X286254D01*
Y88920D01*
X286194D01*
Y88981D01*
X286073D01*
Y89041D01*
X285893D01*
Y89101D01*
X285832D01*
Y89161D01*
X285652D01*
Y89222D01*
X285531D01*
Y89282D01*
X285471D01*
Y89342D01*
X285411D01*
Y89402D01*
X285290D01*
Y89463D01*
X285109D01*
Y89523D01*
X284929D01*
Y89583D01*
X284688D01*
Y89643D01*
X284627D01*
Y89704D01*
X284567D01*
Y89764D01*
X284326D01*
Y89824D01*
X284206D01*
Y89884D01*
X284145D01*
Y89824D01*
X284085D01*
Y89884D01*
X283964D01*
Y89945D01*
X283784D01*
Y90005D01*
X283422D01*
Y90065D01*
X283362D01*
Y90125D01*
X283302D01*
Y90065D01*
X283121D01*
Y90125D01*
X282880D01*
Y90186D01*
X282579D01*
Y90246D01*
X282519D01*
Y90306D01*
X282157D01*
Y90366D01*
X282097D01*
Y90427D01*
X281735D01*
Y90487D01*
X281554D01*
Y90547D01*
X281374D01*
Y90607D01*
X281313D01*
Y90668D01*
X281193D01*
Y90607D01*
X281133D01*
Y90668D01*
X281072D01*
Y90728D01*
X280892D01*
Y90788D01*
X280771D01*
Y90848D01*
X280470D01*
Y90909D01*
X280349D01*
Y90969D01*
X280289D01*
Y91029D01*
X280108D01*
Y91089D01*
X280048D01*
Y91150D01*
X279807D01*
Y91210D01*
X279687D01*
Y91270D01*
X279506D01*
Y91330D01*
X279446D01*
Y91391D01*
X279385D01*
Y91451D01*
X279265D01*
Y91511D01*
X279144D01*
Y91571D01*
X279024D01*
Y91632D01*
X278843D01*
Y91752D01*
X278723D01*
Y91812D01*
X278602D01*
Y91873D01*
X278542D01*
Y91933D01*
X278482D01*
Y91993D01*
X278421D01*
Y92234D01*
X278482D01*
Y92295D01*
X278542D01*
Y92355D01*
X278602D01*
Y92415D01*
X278723D01*
Y92475D01*
X279205D01*
Y92415D01*
X279325D01*
Y92355D01*
X279506D01*
Y92295D01*
X279566D01*
Y92234D01*
X279807D01*
Y92174D01*
X279928D01*
Y92114D01*
X280048D01*
Y92053D01*
X280169D01*
Y91993D01*
X280349D01*
Y91933D01*
X280410D01*
Y91873D01*
X280590D01*
Y91812D01*
X280711D01*
Y91873D01*
X280771D01*
Y91812D01*
X280831D01*
Y91752D01*
X280892D01*
Y91692D01*
X281133D01*
Y91632D01*
X281193D01*
Y91571D01*
X281253D01*
Y91632D01*
X281313D01*
Y91571D01*
X281434D01*
Y91511D01*
X281554D01*
Y91451D01*
X281675D01*
Y91391D01*
X281856D01*
Y91330D01*
X282036D01*
Y91270D01*
X282097D01*
Y91210D01*
X282157D01*
Y91270D01*
X282277D01*
Y91210D01*
X282398D01*
Y91150D01*
X282519D01*
Y91089D01*
X282759D01*
Y91029D01*
X282880D01*
Y90969D01*
X283061D01*
Y90909D01*
X283242D01*
Y90848D01*
X283302D01*
Y90788D01*
X283483D01*
Y90728D01*
X283723D01*
Y90668D01*
X283784D01*
Y90607D01*
X284145D01*
Y90547D01*
X284206D01*
Y90487D01*
X284507D01*
Y90427D01*
X284567D01*
Y90366D01*
X284627D01*
Y90427D01*
X284688D01*
Y90366D01*
X284748D01*
Y90427D01*
X284808D01*
Y90366D01*
X284989D01*
Y90427D01*
X285109D01*
Y90668D01*
X285049D01*
Y90788D01*
X284989D01*
Y90848D01*
X284929D01*
Y90969D01*
X284868D01*
Y91029D01*
X284808D01*
Y91089D01*
X284748D01*
Y91150D01*
X284688D01*
Y91270D01*
X284627D01*
Y91391D01*
X284507D01*
Y91632D01*
X284447D01*
Y91752D01*
X284386D01*
Y91812D01*
X284326D01*
Y91933D01*
X284266D01*
Y92234D01*
X284206D01*
Y92355D01*
X284145D01*
Y92475D01*
X284085D01*
Y92536D01*
X284025D01*
Y92596D01*
X284085D01*
Y92656D01*
X284025D01*
Y92957D01*
X283964D01*
Y93198D01*
X283904D01*
Y93379D01*
X283964D01*
Y93439D01*
X283904D01*
Y93921D01*
X283964D01*
Y94162D01*
X284025D01*
Y94403D01*
X284085D01*
Y94464D01*
X284145D01*
Y94705D01*
X284206D01*
Y94825D01*
X284266D01*
Y94946D01*
X284326D01*
Y95247D01*
X284386D01*
Y95367D01*
X284447D01*
Y95608D01*
X284507D01*
Y95849D01*
X284567D01*
Y95970D01*
X284627D01*
Y96090D01*
X284688D01*
Y96151D01*
X284748D01*
Y96211D01*
X284808D01*
Y96271D01*
X284868D01*
Y96392D01*
X284929D01*
Y96452D01*
X284989D01*
Y96512D01*
X285049D01*
Y96572D01*
X285109D01*
Y96633D01*
X285230D01*
Y96693D01*
X285290D01*
Y96753D01*
X285350D01*
Y96813D01*
X285411D01*
Y96934D01*
X285471D01*
Y96994D01*
X285531D01*
Y97054D01*
X285652D01*
Y97115D01*
X285832D01*
Y97175D01*
X285893D01*
Y97115D01*
X286073D01*
Y97175D01*
X286194D01*
Y97115D01*
D02*
G37*
G36*
X279024Y94223D02*
X279084D01*
Y94162D01*
X279024D01*
Y94042D01*
X278964D01*
Y93981D01*
X278903D01*
Y93861D01*
X278843D01*
Y93801D01*
X278783D01*
Y93620D01*
X278723D01*
Y93560D01*
X278662D01*
Y93499D01*
X278602D01*
Y93379D01*
X278542D01*
Y93259D01*
X278482D01*
Y93198D01*
X278421D01*
Y93078D01*
X278361D01*
Y93018D01*
X278301D01*
Y92957D01*
X278240D01*
Y92837D01*
X278180D01*
Y92716D01*
X278120D01*
Y92656D01*
X278060D01*
Y92596D01*
X277999D01*
Y92475D01*
X277939D01*
Y92355D01*
X277879D01*
Y92295D01*
X277819D01*
Y92174D01*
X277759D01*
Y92114D01*
X277698D01*
Y92053D01*
X277638D01*
Y91993D01*
X277578D01*
Y91812D01*
X277457D01*
Y91692D01*
X277397D01*
Y91632D01*
X277337D01*
Y91571D01*
X277276D01*
Y91451D01*
X277216D01*
Y91391D01*
X277156D01*
Y91330D01*
X277096D01*
Y91270D01*
X277035D01*
Y91150D01*
X276975D01*
Y91089D01*
X276915D01*
Y91029D01*
X276855D01*
Y90969D01*
X276795D01*
Y90848D01*
X276674D01*
Y90788D01*
X276614D01*
Y90668D01*
X276554D01*
Y90607D01*
X276493D01*
Y90547D01*
X276433D01*
Y90487D01*
X276373D01*
Y90427D01*
X276312D01*
Y90366D01*
X276252D01*
Y90306D01*
X276192D01*
Y90246D01*
X276132D01*
Y90186D01*
X276071D01*
Y90125D01*
X276011D01*
Y90065D01*
X275951D01*
Y90005D01*
X275891D01*
Y89945D01*
X275830D01*
Y89884D01*
X275770D01*
Y89824D01*
X275650D01*
Y89764D01*
X275589D01*
Y89643D01*
X275469D01*
Y89583D01*
X275348D01*
Y89523D01*
X275288D01*
Y89463D01*
X275228D01*
Y89402D01*
X275168D01*
Y89342D01*
X275107D01*
Y89282D01*
X275047D01*
Y89222D01*
X274927D01*
Y89161D01*
X274806D01*
Y89101D01*
X274686D01*
Y89041D01*
X274625D01*
Y88981D01*
X274505D01*
Y88920D01*
X274445D01*
Y88860D01*
X274204D01*
Y88800D01*
X274023D01*
Y88740D01*
X273481D01*
Y88800D01*
X273300D01*
Y88860D01*
X273119D01*
Y88920D01*
X272998D01*
Y88981D01*
X272878D01*
Y89041D01*
X272818D01*
Y89101D01*
X272697D01*
Y89161D01*
X272637D01*
Y89222D01*
X272577D01*
Y89282D01*
X272516D01*
Y89342D01*
X272396D01*
Y89402D01*
X272336D01*
Y89463D01*
X272275D01*
Y89523D01*
X272215D01*
Y89583D01*
X272155D01*
Y89643D01*
X272095D01*
Y89704D01*
X272035D01*
Y89764D01*
X271974D01*
Y89824D01*
X271914D01*
Y89945D01*
X271854D01*
Y90005D01*
X271673D01*
Y89824D01*
X271613D01*
Y89643D01*
X271552D01*
Y89222D01*
X271492D01*
Y88860D01*
X271432D01*
Y88619D01*
X271372D01*
Y88257D01*
X271311D01*
Y87896D01*
X271251D01*
Y87655D01*
X271191D01*
Y87354D01*
X271131D01*
Y87113D01*
X271070D01*
Y86872D01*
X271010D01*
Y86691D01*
X270950D01*
Y86510D01*
X270890D01*
Y86390D01*
X270829D01*
Y86329D01*
X270769D01*
Y86209D01*
X270649D01*
Y86149D01*
X270588D01*
Y86088D01*
X270408D01*
Y86149D01*
X270167D01*
Y86209D01*
X270106D01*
Y86088D01*
X270046D01*
Y86028D01*
X269986D01*
Y85908D01*
X269926D01*
Y85787D01*
X269865D01*
Y85667D01*
X269805D01*
Y85546D01*
X269745D01*
Y85426D01*
X269685D01*
Y85365D01*
X269624D01*
Y85245D01*
X269564D01*
Y85124D01*
X269504D01*
Y85004D01*
X269444D01*
Y84883D01*
X269383D01*
Y84823D01*
X269323D01*
Y84703D01*
X269263D01*
Y84582D01*
X269203D01*
Y84462D01*
X269142D01*
Y84341D01*
X269082D01*
Y84221D01*
X269022D01*
Y84100D01*
X268962D01*
Y83980D01*
X268901D01*
Y83859D01*
X268841D01*
Y83799D01*
X268781D01*
Y83618D01*
X268721D01*
Y83558D01*
X268660D01*
Y83377D01*
X268600D01*
Y83257D01*
X268540D01*
Y83196D01*
X268480D01*
Y83016D01*
X268419D01*
Y82895D01*
X268359D01*
Y82775D01*
X268299D01*
Y82654D01*
X268239D01*
Y82473D01*
X268178D01*
Y81810D01*
X268118D01*
Y81690D01*
X268178D01*
Y81630D01*
X268118D01*
Y81208D01*
X268058D01*
Y80726D01*
X267998D01*
Y80304D01*
X267937D01*
Y80184D01*
X267998D01*
Y80063D01*
X267937D01*
Y79641D01*
X267877D01*
Y79220D01*
X267817D01*
Y78738D01*
X267757D01*
Y78497D01*
X267696D01*
Y78195D01*
X267636D01*
Y77774D01*
X267576D01*
Y77593D01*
X267515D01*
Y77412D01*
X267455D01*
Y77111D01*
X267395D01*
Y76870D01*
X267335D01*
Y76810D01*
X267274D01*
Y76629D01*
X267214D01*
Y76569D01*
X267154D01*
Y76448D01*
X266853D01*
Y76508D01*
X266672D01*
Y76569D01*
X266612D01*
Y76629D01*
X266551D01*
Y76689D01*
X266491D01*
Y76810D01*
X266431D01*
Y77051D01*
X266371D01*
Y77171D01*
X266311D01*
Y77231D01*
X266371D01*
Y77292D01*
X266311D01*
Y78015D01*
X266371D01*
Y78075D01*
X266311D01*
Y78256D01*
X266371D01*
Y78677D01*
X266431D01*
Y79039D01*
X266491D01*
Y79400D01*
X266551D01*
Y79641D01*
X266612D01*
Y79882D01*
X266672D01*
Y80063D01*
X266732D01*
Y80244D01*
X266792D01*
Y80485D01*
X266853D01*
Y80666D01*
X266913D01*
Y80907D01*
X266973D01*
Y81027D01*
X267034D01*
Y81208D01*
X267094D01*
Y81328D01*
X267154D01*
Y81509D01*
X267214D01*
Y81630D01*
X267274D01*
Y81871D01*
X267335D01*
Y81991D01*
X267395D01*
Y82112D01*
X267455D01*
Y82292D01*
X267515D01*
Y82413D01*
X267576D01*
Y82594D01*
X267636D01*
Y82714D01*
X267696D01*
Y83558D01*
X267757D01*
Y83618D01*
X267696D01*
Y83919D01*
X267757D01*
Y84462D01*
X267696D01*
Y84522D01*
X267757D01*
Y85426D01*
X267696D01*
Y85486D01*
X267757D01*
Y86269D01*
X267576D01*
Y86088D01*
X267515D01*
Y85968D01*
X267455D01*
Y85787D01*
X267395D01*
Y85667D01*
X267335D01*
Y85486D01*
X267274D01*
Y85365D01*
X267214D01*
Y85245D01*
X267154D01*
Y85124D01*
X267094D01*
Y85004D01*
X267034D01*
Y84883D01*
X266973D01*
Y84823D01*
X266913D01*
Y84703D01*
X266853D01*
Y84582D01*
X266792D01*
Y84522D01*
X266732D01*
Y84401D01*
X266672D01*
Y84281D01*
X266612D01*
Y84160D01*
X266491D01*
Y84040D01*
X266431D01*
Y83980D01*
X266371D01*
Y83919D01*
X266311D01*
Y83799D01*
X266250D01*
Y83739D01*
X266190D01*
Y83678D01*
X266130D01*
Y83618D01*
X266070D01*
Y83558D01*
X266009D01*
Y83437D01*
X265949D01*
Y83377D01*
X265828D01*
Y83257D01*
X265768D01*
Y83196D01*
X265648D01*
Y83136D01*
X265527D01*
Y83076D01*
X265407D01*
Y83016D01*
X265347D01*
Y82955D01*
X265286D01*
Y82895D01*
X265045D01*
Y82835D01*
X264563D01*
Y82895D01*
X264443D01*
Y82955D01*
X264322D01*
Y83016D01*
X264262D01*
Y83076D01*
X264141D01*
Y83136D01*
X264081D01*
Y83196D01*
X264021D01*
Y83257D01*
X263840D01*
Y83136D01*
X263780D01*
Y82955D01*
X263720D01*
Y82835D01*
X263659D01*
Y82654D01*
X263599D01*
Y82534D01*
X263539D01*
Y82413D01*
X263479D01*
Y82292D01*
X263418D01*
Y82112D01*
X263358D01*
Y81991D01*
X263298D01*
Y81931D01*
X263238D01*
Y81750D01*
X263177D01*
Y81690D01*
X263117D01*
Y81569D01*
X263057D01*
Y81449D01*
X262997D01*
Y81389D01*
X262936D01*
Y81268D01*
X262876D01*
Y81208D01*
X262816D01*
Y81087D01*
X262756D01*
Y81027D01*
X262695D01*
Y80907D01*
X262575D01*
Y80786D01*
X262515D01*
Y80726D01*
X262394D01*
Y80666D01*
X262334D01*
Y80605D01*
X261912D01*
Y80666D01*
X261791D01*
Y80726D01*
X261671D01*
Y80786D01*
X261611D01*
Y80847D01*
X261550D01*
Y80907D01*
X261490D01*
Y80967D01*
X261430D01*
Y81027D01*
X261370D01*
Y81087D01*
X261310D01*
Y81328D01*
X261249D01*
Y81389D01*
X261189D01*
Y81630D01*
X261129D01*
Y81931D01*
X261069D01*
Y83618D01*
X261129D01*
Y84040D01*
X261189D01*
Y84281D01*
X261249D01*
Y84522D01*
X261189D01*
Y84462D01*
X261069D01*
Y84341D01*
X261008D01*
Y84281D01*
X260948D01*
Y84221D01*
X260888D01*
Y84160D01*
X260827D01*
Y84040D01*
X260767D01*
Y83980D01*
X260707D01*
Y83859D01*
X260647D01*
Y83799D01*
X260587D01*
Y83739D01*
X260526D01*
Y83618D01*
X260466D01*
Y83558D01*
X260406D01*
Y83498D01*
X260346D01*
Y83377D01*
X260285D01*
Y83317D01*
X260225D01*
Y83196D01*
X260165D01*
Y83076D01*
X260225D01*
Y82955D01*
X260165D01*
Y82353D01*
X260104D01*
Y81931D01*
X260044D01*
Y81690D01*
X259984D01*
Y81328D01*
X259924D01*
Y81148D01*
X259863D01*
Y81027D01*
X259803D01*
Y80847D01*
X259743D01*
Y80666D01*
X259683D01*
Y80425D01*
X259622D01*
Y80364D01*
X259562D01*
Y80184D01*
X259502D01*
Y80063D01*
X259442D01*
Y79882D01*
X259381D01*
Y79762D01*
X259321D01*
Y79702D01*
X259261D01*
Y79521D01*
X259201D01*
Y79461D01*
X259140D01*
Y79340D01*
X259080D01*
Y79220D01*
X259020D01*
Y79159D01*
X258960D01*
Y79099D01*
X258899D01*
Y78979D01*
X258839D01*
Y78918D01*
X258779D01*
Y78858D01*
X258719D01*
Y78738D01*
X258658D01*
Y78677D01*
X258538D01*
Y78557D01*
X258478D01*
Y78497D01*
X258357D01*
Y78436D01*
X258297D01*
Y78376D01*
X258176D01*
Y78316D01*
X258116D01*
Y78256D01*
X257875D01*
Y78195D01*
X257755D01*
Y78256D01*
X257453D01*
Y78316D01*
X257333D01*
Y78376D01*
X257212D01*
Y78436D01*
X257092D01*
Y78497D01*
X256971D01*
Y78617D01*
X256851D01*
Y78677D01*
X256791D01*
Y78798D01*
X256730D01*
Y78858D01*
X256670D01*
Y78979D01*
X256610D01*
Y79099D01*
X256550D01*
Y79159D01*
X256489D01*
Y79280D01*
X256429D01*
Y79461D01*
X256369D01*
Y79581D01*
X256309D01*
Y79762D01*
X256248D01*
Y79882D01*
X256188D01*
Y80063D01*
X256128D01*
Y80184D01*
X256067D01*
Y80364D01*
X256007D01*
Y80485D01*
X255947D01*
Y80545D01*
X255826D01*
Y80485D01*
X255766D01*
Y80425D01*
X255706D01*
Y80304D01*
X255646D01*
Y80244D01*
X255586D01*
Y80123D01*
X255525D01*
Y79943D01*
X255465D01*
Y79882D01*
X255405D01*
Y79762D01*
X255345D01*
Y79581D01*
X255284D01*
Y79461D01*
X255224D01*
Y79280D01*
X255164D01*
Y79220D01*
X255103D01*
Y79099D01*
X255043D01*
Y78918D01*
X254983D01*
Y78798D01*
X254923D01*
Y78617D01*
X254862D01*
Y78436D01*
X254802D01*
Y78316D01*
X254742D01*
Y78195D01*
X254682D01*
Y77954D01*
X254622D01*
Y77774D01*
X254561D01*
Y77533D01*
X254501D01*
Y77412D01*
X254441D01*
Y77231D01*
X254380D01*
Y76990D01*
X254320D01*
Y76629D01*
X254260D01*
Y76388D01*
X254200D01*
Y76026D01*
X254139D01*
Y75665D01*
X254079D01*
Y75303D01*
X254019D01*
Y74761D01*
X253959D01*
Y74339D01*
X253898D01*
Y74279D01*
X253838D01*
Y74339D01*
X253597D01*
Y74399D01*
X253537D01*
Y74460D01*
X253416D01*
Y74520D01*
X253356D01*
Y74821D01*
X253296D01*
Y75424D01*
X253236D01*
Y75845D01*
X253175D01*
Y77171D01*
X253115D01*
Y77292D01*
X253175D01*
Y77412D01*
X253115D01*
Y80304D01*
X253175D01*
Y80364D01*
X253115D01*
Y80545D01*
X253175D01*
Y80666D01*
X253115D01*
Y80726D01*
X253175D01*
Y82112D01*
X253236D01*
Y82292D01*
X253175D01*
Y82353D01*
X253236D01*
Y83377D01*
X253296D01*
Y83437D01*
X253236D01*
Y83498D01*
X253296D01*
Y83799D01*
X253236D01*
Y83859D01*
X253175D01*
Y83799D01*
X253115D01*
Y83618D01*
X253055D01*
Y83437D01*
X252995D01*
Y83377D01*
X252934D01*
Y83136D01*
X252874D01*
Y82955D01*
X252814D01*
Y82835D01*
X252754D01*
Y82654D01*
X252693D01*
Y82473D01*
X252633D01*
Y82353D01*
X252573D01*
Y82172D01*
X252513D01*
Y81931D01*
X252452D01*
Y81871D01*
X252392D01*
Y81690D01*
X252332D01*
Y81569D01*
X252272D01*
Y81328D01*
X252211D01*
Y81208D01*
X252151D01*
Y81087D01*
X252091D01*
Y80907D01*
X252031D01*
Y80786D01*
X251970D01*
Y80605D01*
X251910D01*
Y80485D01*
X251850D01*
Y80304D01*
X251790D01*
Y80123D01*
X251729D01*
Y80003D01*
X251669D01*
Y79822D01*
X251609D01*
Y79702D01*
X251549D01*
Y79521D01*
X251488D01*
Y79340D01*
X251428D01*
Y79220D01*
X251368D01*
Y79039D01*
X251308D01*
Y78858D01*
X251247D01*
Y78738D01*
X251187D01*
Y78617D01*
X251127D01*
Y78376D01*
X251067D01*
Y78316D01*
X251006D01*
Y78075D01*
X250946D01*
Y77954D01*
X250886D01*
Y77834D01*
X250826D01*
Y77593D01*
X250765D01*
Y77533D01*
X250705D01*
Y77292D01*
X250645D01*
Y77231D01*
X250585D01*
Y76930D01*
X250645D01*
Y76689D01*
X250705D01*
Y76328D01*
X250765D01*
Y75906D01*
X250826D01*
Y75122D01*
X250886D01*
Y73857D01*
X250826D01*
Y73797D01*
X250886D01*
Y73676D01*
X250826D01*
Y73074D01*
X250765D01*
Y72592D01*
X250705D01*
Y72351D01*
X250645D01*
Y72050D01*
X250585D01*
Y71929D01*
X250524D01*
Y71748D01*
X250464D01*
Y71507D01*
X250404D01*
Y71447D01*
X250343D01*
Y71266D01*
X250283D01*
Y71146D01*
X250223D01*
Y71086D01*
X250163D01*
Y70965D01*
X250102D01*
Y70905D01*
X250042D01*
Y70784D01*
X249922D01*
Y70724D01*
X249862D01*
Y70604D01*
X249741D01*
Y70543D01*
X249560D01*
Y70483D01*
X249319D01*
Y70543D01*
X249259D01*
Y70483D01*
X249199D01*
Y70543D01*
X249018D01*
Y70604D01*
X248958D01*
Y70664D01*
X248837D01*
Y70724D01*
X248777D01*
Y70784D01*
X248657D01*
Y70905D01*
X248596D01*
Y70965D01*
X248536D01*
Y71086D01*
X248476D01*
Y71266D01*
X248415D01*
Y72411D01*
X248476D01*
Y72652D01*
X248536D01*
Y73074D01*
X248596D01*
Y73375D01*
X248657D01*
Y73556D01*
X248717D01*
Y73797D01*
X248777D01*
Y74038D01*
X248837D01*
Y74219D01*
X248898D01*
Y74399D01*
X248958D01*
Y74580D01*
X249018D01*
Y74761D01*
X249078D01*
Y74942D01*
X249138D01*
Y75183D01*
X249199D01*
Y75303D01*
X249259D01*
Y75484D01*
X249319D01*
Y75665D01*
X249379D01*
Y75906D01*
X249440D01*
Y76026D01*
X249500D01*
Y76207D01*
X249560D01*
Y76388D01*
X249621D01*
Y76569D01*
X249681D01*
Y76689D01*
X249741D01*
Y76870D01*
X249801D01*
Y77051D01*
X249862D01*
Y77352D01*
X249801D01*
Y77593D01*
X249741D01*
Y77774D01*
X249681D01*
Y77954D01*
X249621D01*
Y78075D01*
X249560D01*
Y78316D01*
X249500D01*
Y78376D01*
X249440D01*
Y78497D01*
X249379D01*
Y78677D01*
X249319D01*
Y78798D01*
X249259D01*
Y78858D01*
X249199D01*
Y78979D01*
X249138D01*
Y79099D01*
X249078D01*
Y79280D01*
X249018D01*
Y79400D01*
X248958D01*
Y79461D01*
X248898D01*
Y79581D01*
X248837D01*
Y79641D01*
X248777D01*
Y79762D01*
X248717D01*
Y79882D01*
X248657D01*
Y79943D01*
X248536D01*
Y80003D01*
X248476D01*
Y80123D01*
X248415D01*
Y80244D01*
X248355D01*
Y80304D01*
X248295D01*
Y80425D01*
X248235D01*
Y80485D01*
X248174D01*
Y80545D01*
X248114D01*
Y80605D01*
X248054D01*
Y80666D01*
X247994D01*
Y80786D01*
X247933D01*
Y80847D01*
X247873D01*
Y80907D01*
X247813D01*
Y80967D01*
X247753D01*
Y81027D01*
X247692D01*
Y81148D01*
X247632D01*
Y81208D01*
X247572D01*
Y81268D01*
X247512D01*
Y81328D01*
X247391D01*
Y81268D01*
X247331D01*
Y81087D01*
X247271D01*
Y80967D01*
X247210D01*
Y80786D01*
X247150D01*
Y80666D01*
X247090D01*
Y80545D01*
X247030D01*
Y80364D01*
X246969D01*
Y80244D01*
X246909D01*
Y80123D01*
X246849D01*
Y79943D01*
X246789D01*
Y79882D01*
X246728D01*
Y79641D01*
X246668D01*
Y79581D01*
X246608D01*
Y79400D01*
X246548D01*
Y79280D01*
X246487D01*
Y79099D01*
X246427D01*
Y78979D01*
X246367D01*
Y78798D01*
X246307D01*
Y78738D01*
X246246D01*
Y78557D01*
X246186D01*
Y78376D01*
X246126D01*
Y78256D01*
X246066D01*
Y78135D01*
X246005D01*
Y77954D01*
X245945D01*
Y77894D01*
X245885D01*
Y77713D01*
X245825D01*
Y77593D01*
X245764D01*
Y77412D01*
X245704D01*
Y77352D01*
X245644D01*
Y77171D01*
X245584D01*
Y77051D01*
X245523D01*
Y76930D01*
X245463D01*
Y76749D01*
X245403D01*
Y76689D01*
X245343D01*
Y76508D01*
X245282D01*
Y76328D01*
X245222D01*
Y76267D01*
X245162D01*
Y76086D01*
X245101D01*
Y75966D01*
X245041D01*
Y75785D01*
X244981D01*
Y75665D01*
X244921D01*
Y75484D01*
X244861D01*
Y75424D01*
X244800D01*
Y75243D01*
X244740D01*
Y75122D01*
X244680D01*
Y75002D01*
X244619D01*
Y74881D01*
X244559D01*
Y74761D01*
X244499D01*
Y74580D01*
X244439D01*
Y74460D01*
X244378D01*
Y74279D01*
X244318D01*
Y74219D01*
X244258D01*
Y74038D01*
X244198D01*
Y73917D01*
X244138D01*
Y73797D01*
X244077D01*
Y73676D01*
X244017D01*
Y73556D01*
X243957D01*
Y73435D01*
X243897D01*
Y73315D01*
X243836D01*
Y73134D01*
X243776D01*
Y73014D01*
X243716D01*
Y72893D01*
X243655D01*
Y72773D01*
X243595D01*
Y72592D01*
X243535D01*
Y72532D01*
X243475D01*
Y72411D01*
X243414D01*
Y72230D01*
X243354D01*
Y72110D01*
X243294D01*
Y71989D01*
X243234D01*
Y71869D01*
X243174D01*
Y71748D01*
X243113D01*
Y71628D01*
X243053D01*
Y71507D01*
X242993D01*
Y71387D01*
X242933D01*
Y71266D01*
X242872D01*
Y71146D01*
X242812D01*
Y71025D01*
X242752D01*
Y70905D01*
X242691D01*
Y70784D01*
X242631D01*
Y70664D01*
X242571D01*
Y70543D01*
X242511D01*
Y70423D01*
X242450D01*
Y70363D01*
X242390D01*
Y70182D01*
X242330D01*
Y70122D01*
X242270D01*
Y70001D01*
X242209D01*
Y69880D01*
X242149D01*
Y69760D01*
X242089D01*
Y69639D01*
X242029D01*
Y69519D01*
X241968D01*
Y69398D01*
X241908D01*
Y69338D01*
X241848D01*
Y69157D01*
X241788D01*
Y69037D01*
X241727D01*
Y68977D01*
X241667D01*
Y68856D01*
X241607D01*
Y68736D01*
X241547D01*
Y68615D01*
X241486D01*
Y68495D01*
X241426D01*
Y68374D01*
X241366D01*
Y68254D01*
X241306D01*
Y68133D01*
X241245D01*
Y68013D01*
X241185D01*
Y67892D01*
X241125D01*
Y67832D01*
X241065D01*
Y67711D01*
X241004D01*
Y67591D01*
X240944D01*
Y67470D01*
X240884D01*
Y67350D01*
X240824D01*
Y67290D01*
X240763D01*
Y67169D01*
X240703D01*
Y66988D01*
X240643D01*
Y66928D01*
X240583D01*
Y66868D01*
X240522D01*
Y66747D01*
X240462D01*
Y66567D01*
X240402D01*
Y66506D01*
X240342D01*
Y66326D01*
X240281D01*
Y66265D01*
X240221D01*
Y66145D01*
X240161D01*
Y66024D01*
X240101D01*
Y65904D01*
X240040D01*
Y65843D01*
X239980D01*
Y65663D01*
X239920D01*
Y65602D01*
X239860D01*
Y65482D01*
X239799D01*
Y65301D01*
X239739D01*
Y65241D01*
X239679D01*
Y65181D01*
X239619D01*
Y65000D01*
X239558D01*
Y64880D01*
X239498D01*
Y64819D01*
X239438D01*
Y64639D01*
X239378D01*
Y64578D01*
X239317D01*
Y64518D01*
X239257D01*
Y64398D01*
X239197D01*
Y64277D01*
X239137D01*
Y64217D01*
X238956D01*
Y64277D01*
X239016D01*
Y64398D01*
X239076D01*
Y64458D01*
X239137D01*
Y64639D01*
X239197D01*
Y64699D01*
X239257D01*
Y64880D01*
X239317D01*
Y64940D01*
X239378D01*
Y65121D01*
X239438D01*
Y65181D01*
X239498D01*
Y65301D01*
X239558D01*
Y65482D01*
X239619D01*
Y65602D01*
X239679D01*
Y65663D01*
X239739D01*
Y65843D01*
X239799D01*
Y65904D01*
X239860D01*
Y66085D01*
X239920D01*
Y66205D01*
X239980D01*
Y66265D01*
X240040D01*
Y66446D01*
X240101D01*
Y66506D01*
X240161D01*
Y66627D01*
X240221D01*
Y66747D01*
X240281D01*
Y66868D01*
X240342D01*
Y67049D01*
X240402D01*
Y67109D01*
X240462D01*
Y67229D01*
X240522D01*
Y67350D01*
X240583D01*
Y67470D01*
X240643D01*
Y67591D01*
X240703D01*
Y67711D01*
X240763D01*
Y67832D01*
X240824D01*
Y67952D01*
X240884D01*
Y68073D01*
X240944D01*
Y68133D01*
X241004D01*
Y68314D01*
X241065D01*
Y68374D01*
X241125D01*
Y68495D01*
X241185D01*
Y68675D01*
X241245D01*
Y68736D01*
X241306D01*
Y68856D01*
X241366D01*
Y69037D01*
X241426D01*
Y69097D01*
X241486D01*
Y69278D01*
X241547D01*
Y69338D01*
X241607D01*
Y69519D01*
X241667D01*
Y69639D01*
X241727D01*
Y69760D01*
X241788D01*
Y69880D01*
X241848D01*
Y70001D01*
X241908D01*
Y70122D01*
X241968D01*
Y70242D01*
X242029D01*
Y70363D01*
X242089D01*
Y70483D01*
X242149D01*
Y70604D01*
X242209D01*
Y70664D01*
X242270D01*
Y70845D01*
X242330D01*
Y70965D01*
X242390D01*
Y71086D01*
X242450D01*
Y71206D01*
X242511D01*
Y71327D01*
X242571D01*
Y71447D01*
X242631D01*
Y71568D01*
X242691D01*
Y71688D01*
X242752D01*
Y71809D01*
X242812D01*
Y71929D01*
X242872D01*
Y72110D01*
X242933D01*
Y72170D01*
X242993D01*
Y72351D01*
X243053D01*
Y72471D01*
X243113D01*
Y72592D01*
X243174D01*
Y72712D01*
X243234D01*
Y72893D01*
X243294D01*
Y73014D01*
X243354D01*
Y73074D01*
X243414D01*
Y73255D01*
X243475D01*
Y73375D01*
X243535D01*
Y73496D01*
X243595D01*
Y73616D01*
X243655D01*
Y73797D01*
X243716D01*
Y73917D01*
X243776D01*
Y74098D01*
X243836D01*
Y74158D01*
X243897D01*
Y74339D01*
X243957D01*
Y74460D01*
X244017D01*
Y74580D01*
X244077D01*
Y74761D01*
X244138D01*
Y74881D01*
X244198D01*
Y75002D01*
X244258D01*
Y75183D01*
X244318D01*
Y75303D01*
X244378D01*
Y75484D01*
X244439D01*
Y75544D01*
X244499D01*
Y75785D01*
X244559D01*
Y75845D01*
X244619D01*
Y76026D01*
X244680D01*
Y76147D01*
X244740D01*
Y76267D01*
X244800D01*
Y76448D01*
X244861D01*
Y76569D01*
X244921D01*
Y76689D01*
X244981D01*
Y76870D01*
X245041D01*
Y76930D01*
X245101D01*
Y77171D01*
X245162D01*
Y77292D01*
X245222D01*
Y77412D01*
X245282D01*
Y77593D01*
X245343D01*
Y77713D01*
X245403D01*
Y77834D01*
X245463D01*
Y78015D01*
X245523D01*
Y78135D01*
X245584D01*
Y78256D01*
X245644D01*
Y78436D01*
X245704D01*
Y78557D01*
X245764D01*
Y78738D01*
X245825D01*
Y78858D01*
X245885D01*
Y78979D01*
X245945D01*
Y79159D01*
X246005D01*
Y79340D01*
X246066D01*
Y79400D01*
X246126D01*
Y79641D01*
X246186D01*
Y79702D01*
X246246D01*
Y79882D01*
X246307D01*
Y80063D01*
X246367D01*
Y80184D01*
X246427D01*
Y80364D01*
X246487D01*
Y80485D01*
X246548D01*
Y80666D01*
X246608D01*
Y80726D01*
X246668D01*
Y80967D01*
X246728D01*
Y81087D01*
X246789D01*
Y81208D01*
X246849D01*
Y81389D01*
X246909D01*
Y81509D01*
X246969D01*
Y81630D01*
X247030D01*
Y81810D01*
X247090D01*
Y81871D01*
X247030D01*
Y81991D01*
X246969D01*
Y82051D01*
X246909D01*
Y82172D01*
X246849D01*
Y82292D01*
X246789D01*
Y82353D01*
X246728D01*
Y82473D01*
X246668D01*
Y82534D01*
X246608D01*
Y82654D01*
X246548D01*
Y82775D01*
X246487D01*
Y82955D01*
X246427D01*
Y83136D01*
X246367D01*
Y83437D01*
X246307D01*
Y83919D01*
X246246D01*
Y83980D01*
X246307D01*
Y84100D01*
X246246D01*
Y84160D01*
X246307D01*
Y84823D01*
X246367D01*
Y85064D01*
X246427D01*
Y85305D01*
X246487D01*
Y85546D01*
X246548D01*
Y85667D01*
X246608D01*
Y85847D01*
X246668D01*
Y85968D01*
X246728D01*
Y86149D01*
X246789D01*
Y86269D01*
X246849D01*
Y86329D01*
X246909D01*
Y86510D01*
X246969D01*
Y86631D01*
X247030D01*
Y86751D01*
X247090D01*
Y86812D01*
X247150D01*
Y86932D01*
X247210D01*
Y86992D01*
X247271D01*
Y87053D01*
X247331D01*
Y87173D01*
X247391D01*
Y87233D01*
X247451D01*
Y87293D01*
X247512D01*
Y87414D01*
X247572D01*
Y87474D01*
X247632D01*
Y87534D01*
X247692D01*
Y87595D01*
X247753D01*
Y87655D01*
X247813D01*
Y87715D01*
X247873D01*
Y87775D01*
X247933D01*
Y87836D01*
X247994D01*
Y87896D01*
X248114D01*
Y87956D01*
X248174D01*
Y88016D01*
X248295D01*
Y88077D01*
X248476D01*
Y88137D01*
X248837D01*
Y88077D01*
X248898D01*
Y88016D01*
X248958D01*
Y87956D01*
X249018D01*
Y87896D01*
X249078D01*
Y87775D01*
X249138D01*
Y87595D01*
X249199D01*
Y86571D01*
X249138D01*
Y86269D01*
X249078D01*
Y85908D01*
X249018D01*
Y85606D01*
X248958D01*
Y85486D01*
X248898D01*
Y85245D01*
X248837D01*
Y85004D01*
X248777D01*
Y84823D01*
X248717D01*
Y84703D01*
X248657D01*
Y84401D01*
X248596D01*
Y84341D01*
X248536D01*
Y84100D01*
X248476D01*
Y83980D01*
X248415D01*
Y83739D01*
X248355D01*
Y83618D01*
X248295D01*
Y83437D01*
X248235D01*
Y83317D01*
X248174D01*
Y83136D01*
X248114D01*
Y83016D01*
X248054D01*
Y82835D01*
X247994D01*
Y82714D01*
X247933D01*
Y82594D01*
X247873D01*
Y82353D01*
X247813D01*
Y82292D01*
X247753D01*
Y81931D01*
X247813D01*
Y81871D01*
X247873D01*
Y81750D01*
X247933D01*
Y81690D01*
X247994D01*
Y81630D01*
X248114D01*
Y81509D01*
X248174D01*
Y81389D01*
X248235D01*
Y81328D01*
X248355D01*
Y81268D01*
X248415D01*
Y81148D01*
X248476D01*
Y81027D01*
X248536D01*
Y80967D01*
X248657D01*
Y80847D01*
X248717D01*
Y80786D01*
X248777D01*
Y80666D01*
X248837D01*
Y80605D01*
X248898D01*
Y80545D01*
X248958D01*
Y80485D01*
X249018D01*
Y80425D01*
X249078D01*
Y80304D01*
X249138D01*
Y80184D01*
X249199D01*
Y80123D01*
X249259D01*
Y80003D01*
X249319D01*
Y79882D01*
X249379D01*
Y79822D01*
X249440D01*
Y79702D01*
X249500D01*
Y79641D01*
X249560D01*
Y79521D01*
X249621D01*
Y79461D01*
X249681D01*
Y79340D01*
X249741D01*
Y79280D01*
X249801D01*
Y79039D01*
X249862D01*
Y78979D01*
X249922D01*
Y78858D01*
X249982D01*
Y78738D01*
X250042D01*
Y78557D01*
X250102D01*
Y78436D01*
X250163D01*
Y78316D01*
X250223D01*
Y78195D01*
X250283D01*
Y78316D01*
X250343D01*
Y78436D01*
X250404D01*
Y78617D01*
X250464D01*
Y78738D01*
X250524D01*
Y78979D01*
X250585D01*
Y79039D01*
X250645D01*
Y79220D01*
X250705D01*
Y79400D01*
X250765D01*
Y79521D01*
X250826D01*
Y79702D01*
X250886D01*
Y79822D01*
X250946D01*
Y80003D01*
X251006D01*
Y80123D01*
X251067D01*
Y80304D01*
X251127D01*
Y80485D01*
X251187D01*
Y80605D01*
X251247D01*
Y80786D01*
X251308D01*
Y80967D01*
X251368D01*
Y81087D01*
X251428D01*
Y81268D01*
X251488D01*
Y81328D01*
X251549D01*
Y81509D01*
X251609D01*
Y81630D01*
X251669D01*
Y81810D01*
X251729D01*
Y81991D01*
X251790D01*
Y82112D01*
X251850D01*
Y82292D01*
X251910D01*
Y82473D01*
X251970D01*
Y82594D01*
X252031D01*
Y82775D01*
X252091D01*
Y82955D01*
X252151D01*
Y83076D01*
X252211D01*
Y83317D01*
X252272D01*
Y83377D01*
X252332D01*
Y83618D01*
X252392D01*
Y83739D01*
X252452D01*
Y83919D01*
X252513D01*
Y84040D01*
X252573D01*
Y84221D01*
X252633D01*
Y84341D01*
X252693D01*
Y84522D01*
X252754D01*
Y84703D01*
X252814D01*
Y84883D01*
X252874D01*
Y85064D01*
X252934D01*
Y85245D01*
X252995D01*
Y85365D01*
X253055D01*
Y85606D01*
X253115D01*
Y85787D01*
X253175D01*
Y85908D01*
X253236D01*
Y86088D01*
X253296D01*
Y86269D01*
X253356D01*
Y86450D01*
X253416D01*
Y86571D01*
X253477D01*
Y86631D01*
X253416D01*
Y86691D01*
X253477D01*
Y86872D01*
X253537D01*
Y86992D01*
X253597D01*
Y87233D01*
X253657D01*
Y87474D01*
X253718D01*
Y87595D01*
X253778D01*
Y87775D01*
X253838D01*
Y87836D01*
X253898D01*
Y87896D01*
X253959D01*
Y87956D01*
X254200D01*
Y87896D01*
X254260D01*
Y87836D01*
X254320D01*
Y87595D01*
X254380D01*
Y87414D01*
X254320D01*
Y87173D01*
X254260D01*
Y86992D01*
X254200D01*
Y86450D01*
X254139D01*
Y86088D01*
X254079D01*
Y85968D01*
X254139D01*
Y85908D01*
X254079D01*
Y85546D01*
X254019D01*
Y85124D01*
X253959D01*
Y84642D01*
X253898D01*
Y84522D01*
X253959D01*
Y84462D01*
X253898D01*
Y83799D01*
X253838D01*
Y82775D01*
X253778D01*
Y81750D01*
X253718D01*
Y81208D01*
X253778D01*
Y81148D01*
X253718D01*
Y79822D01*
X253657D01*
Y79702D01*
X253718D01*
Y79581D01*
X253657D01*
Y79461D01*
X253718D01*
Y79400D01*
X253657D01*
Y79280D01*
X253718D01*
Y79159D01*
X253657D01*
Y78436D01*
X253718D01*
Y78376D01*
X253657D01*
Y77834D01*
X253718D01*
Y77111D01*
X253778D01*
Y77171D01*
X253838D01*
Y77352D01*
X253898D01*
Y77713D01*
X253959D01*
Y77834D01*
X254019D01*
Y78015D01*
X254079D01*
Y78195D01*
X254139D01*
Y78316D01*
X254200D01*
Y78376D01*
X254139D01*
Y78436D01*
X254200D01*
Y78557D01*
X254260D01*
Y78677D01*
X254320D01*
Y78858D01*
X254380D01*
Y79039D01*
X254441D01*
Y79159D01*
X254501D01*
Y79280D01*
X254561D01*
Y79400D01*
X254622D01*
Y79581D01*
X254682D01*
Y79702D01*
X254742D01*
Y79822D01*
X254802D01*
Y79943D01*
X254862D01*
Y80063D01*
X254923D01*
Y80184D01*
X254983D01*
Y80364D01*
X255043D01*
Y80425D01*
X255103D01*
Y80545D01*
X255164D01*
Y80666D01*
X255224D01*
Y80786D01*
X255284D01*
Y80847D01*
X255345D01*
Y80907D01*
X255405D01*
Y80967D01*
X255465D01*
Y81027D01*
X255525D01*
Y81087D01*
X255586D01*
Y81148D01*
X255706D01*
Y81208D01*
X255826D01*
Y81268D01*
X256128D01*
Y81208D01*
X256188D01*
Y81087D01*
X256248D01*
Y81027D01*
X256309D01*
Y80907D01*
X256369D01*
Y80786D01*
X256429D01*
Y80605D01*
X256489D01*
Y80485D01*
X256550D01*
Y80425D01*
X256610D01*
Y80184D01*
X256670D01*
Y80003D01*
X256730D01*
Y79882D01*
X256791D01*
Y79702D01*
X256851D01*
Y79581D01*
X256911D01*
Y79521D01*
X256971D01*
Y79400D01*
X257032D01*
Y79280D01*
X257092D01*
Y79220D01*
X257152D01*
Y79099D01*
X257212D01*
Y79039D01*
X257273D01*
Y78979D01*
X257333D01*
Y78918D01*
X257393D01*
Y78858D01*
X257514D01*
Y78798D01*
X257875D01*
Y78858D01*
X257935D01*
Y78918D01*
X257996D01*
Y78979D01*
X258056D01*
Y79039D01*
X258116D01*
Y79099D01*
X258176D01*
Y79159D01*
X258237D01*
Y79220D01*
X258297D01*
Y79340D01*
X258357D01*
Y79400D01*
X258417D01*
Y79521D01*
X258478D01*
Y79641D01*
X258538D01*
Y79702D01*
X258598D01*
Y79822D01*
X258658D01*
Y79943D01*
X258719D01*
Y80063D01*
X258779D01*
Y80184D01*
X258839D01*
Y80304D01*
X258899D01*
Y80425D01*
X258960D01*
Y80605D01*
X259020D01*
Y80786D01*
X259080D01*
Y80907D01*
X259140D01*
Y81087D01*
X259201D01*
Y81328D01*
X259261D01*
Y81449D01*
X259321D01*
Y81750D01*
X259381D01*
Y81931D01*
X259442D01*
Y82112D01*
X259261D01*
Y81991D01*
X259201D01*
Y81931D01*
X259080D01*
Y81871D01*
X259020D01*
Y81750D01*
X258960D01*
Y81690D01*
X258839D01*
Y81630D01*
X258598D01*
Y81569D01*
X258478D01*
Y81630D01*
X258297D01*
Y81690D01*
X258176D01*
Y81750D01*
X258116D01*
Y81810D01*
X258056D01*
Y81871D01*
X257996D01*
Y81931D01*
X257935D01*
Y82112D01*
X257875D01*
Y82473D01*
X257935D01*
Y82714D01*
X257996D01*
Y82955D01*
X258056D01*
Y83076D01*
X258116D01*
Y83196D01*
X258176D01*
Y83317D01*
X258237D01*
Y83437D01*
X258297D01*
Y83558D01*
X258357D01*
Y83618D01*
X258417D01*
Y83739D01*
X258478D01*
Y83799D01*
X258538D01*
Y83859D01*
X258598D01*
Y83980D01*
X258719D01*
Y84100D01*
X258839D01*
Y84160D01*
X258899D01*
Y84221D01*
X259020D01*
Y84281D01*
X259080D01*
Y84341D01*
X259201D01*
Y84401D01*
X259321D01*
Y84462D01*
X259683D01*
Y84401D01*
X259863D01*
Y84281D01*
X259924D01*
Y84221D01*
X259984D01*
Y84100D01*
X260044D01*
Y84040D01*
X260104D01*
Y84100D01*
X260165D01*
Y84160D01*
X260225D01*
Y84221D01*
X260285D01*
Y84281D01*
X260346D01*
Y84401D01*
X260406D01*
Y84462D01*
X260466D01*
Y84582D01*
X260526D01*
Y84642D01*
X260587D01*
Y84703D01*
X260647D01*
Y84763D01*
X260707D01*
Y84823D01*
X260767D01*
Y84944D01*
X260827D01*
Y85004D01*
X260888D01*
Y85064D01*
X260948D01*
Y85124D01*
X261008D01*
Y85185D01*
X261069D01*
Y85305D01*
X261189D01*
Y85365D01*
X261310D01*
Y85426D01*
X261370D01*
Y85486D01*
X261490D01*
Y85546D01*
X261671D01*
Y85486D01*
X261731D01*
Y85426D01*
X261791D01*
Y85185D01*
X261852D01*
Y84763D01*
X261791D01*
Y84462D01*
X261731D01*
Y84341D01*
X261791D01*
Y84281D01*
X261731D01*
Y84040D01*
X261671D01*
Y83799D01*
X261611D01*
Y83136D01*
X261550D01*
Y82112D01*
X261611D01*
Y81690D01*
X261671D01*
Y81569D01*
X261731D01*
Y81328D01*
X261791D01*
Y81268D01*
X261852D01*
Y81208D01*
X261912D01*
Y81148D01*
X262093D01*
Y81208D01*
X262153D01*
Y81268D01*
X262213D01*
Y81328D01*
X262274D01*
Y81389D01*
X262334D01*
Y81509D01*
X262394D01*
Y81630D01*
X262454D01*
Y81690D01*
X262515D01*
Y81750D01*
X262575D01*
Y81871D01*
X262635D01*
Y81991D01*
X262695D01*
Y82112D01*
X262756D01*
Y82232D01*
X262816D01*
Y82413D01*
X262876D01*
Y82534D01*
X262936D01*
Y82654D01*
X262997D01*
Y82775D01*
X263057D01*
Y82895D01*
X263117D01*
Y83076D01*
X263177D01*
Y83196D01*
X263238D01*
Y83377D01*
X263298D01*
Y83498D01*
X263358D01*
Y83739D01*
X263418D01*
Y83799D01*
X263479D01*
Y83980D01*
X263539D01*
Y84160D01*
X263599D01*
Y84883D01*
X263659D01*
Y85546D01*
X263720D01*
Y85787D01*
X263780D01*
Y86028D01*
X263840D01*
Y86088D01*
X263780D01*
Y86149D01*
X263840D01*
Y86329D01*
X263900D01*
Y86450D01*
X263961D01*
Y86691D01*
X264021D01*
Y86751D01*
X264081D01*
Y86932D01*
X264141D01*
Y87053D01*
X264202D01*
Y87173D01*
X264262D01*
Y87233D01*
X264322D01*
Y87293D01*
X264382D01*
Y87354D01*
X264443D01*
Y87414D01*
X264563D01*
Y87474D01*
X264684D01*
Y87414D01*
X264804D01*
Y87354D01*
X264864D01*
Y87113D01*
X264925D01*
Y86571D01*
X264864D01*
Y86329D01*
X264804D01*
Y86269D01*
X264864D01*
Y86209D01*
X264804D01*
Y85968D01*
X264744D01*
Y85787D01*
X264684D01*
Y85546D01*
X264623D01*
Y85365D01*
X264563D01*
Y85124D01*
X264503D01*
Y84883D01*
X264443D01*
Y84763D01*
X264382D01*
Y84582D01*
X264322D01*
Y84401D01*
X264262D01*
Y84221D01*
X264202D01*
Y83739D01*
X264262D01*
Y83618D01*
X264322D01*
Y83558D01*
X264382D01*
Y83498D01*
X264443D01*
Y83437D01*
X264623D01*
Y83377D01*
X265045D01*
Y83437D01*
X265105D01*
Y83498D01*
X265226D01*
Y83558D01*
X265286D01*
Y83618D01*
X265347D01*
Y83678D01*
X265407D01*
Y83739D01*
X265467D01*
Y83799D01*
X265527D01*
Y83859D01*
X265587D01*
Y83919D01*
X265648D01*
Y83980D01*
X265708D01*
Y84040D01*
X265768D01*
Y84160D01*
X265828D01*
Y84221D01*
X265889D01*
Y84281D01*
X265949D01*
Y84401D01*
X266009D01*
Y84462D01*
X266070D01*
Y84522D01*
X266130D01*
Y84642D01*
X266190D01*
Y84703D01*
X266250D01*
Y84823D01*
X266311D01*
Y84944D01*
X266371D01*
Y85004D01*
X266431D01*
Y85185D01*
X266491D01*
Y85245D01*
X266551D01*
Y85365D01*
X266612D01*
Y85486D01*
X266672D01*
Y85606D01*
X266732D01*
Y85787D01*
X266792D01*
Y85908D01*
X266853D01*
Y86088D01*
X266913D01*
Y86209D01*
X266973D01*
Y86329D01*
X267034D01*
Y86510D01*
X267094D01*
Y86691D01*
X267154D01*
Y86872D01*
X267214D01*
Y87053D01*
X267274D01*
Y87293D01*
X267335D01*
Y87474D01*
X267395D01*
Y87595D01*
X267455D01*
Y87775D01*
X267515D01*
Y88137D01*
X267576D01*
Y88559D01*
X267636D01*
Y88800D01*
X267696D01*
Y88920D01*
X267636D01*
Y89041D01*
X267696D01*
Y89463D01*
X267757D01*
Y89643D01*
X267817D01*
Y89764D01*
X267937D01*
Y89824D01*
X268178D01*
Y89764D01*
X268239D01*
Y89463D01*
X268299D01*
Y89282D01*
X268239D01*
Y89101D01*
X268299D01*
Y88981D01*
X268239D01*
Y88619D01*
X268178D01*
Y88197D01*
X268118D01*
Y88077D01*
X268178D01*
Y87896D01*
X268118D01*
Y87836D01*
X268178D01*
Y86510D01*
X268239D01*
Y85245D01*
X268299D01*
Y85185D01*
X268239D01*
Y84883D01*
X268299D01*
Y84823D01*
X268239D01*
Y84522D01*
X268299D01*
Y84462D01*
X268239D01*
Y84160D01*
X268359D01*
Y84221D01*
X268419D01*
Y84341D01*
X268480D01*
Y84462D01*
X268540D01*
Y84582D01*
X268600D01*
Y84703D01*
X268660D01*
Y84823D01*
X268721D01*
Y84883D01*
X268781D01*
Y85004D01*
X268841D01*
Y85124D01*
X268901D01*
Y85245D01*
X268962D01*
Y85305D01*
X269022D01*
Y85486D01*
X269082D01*
Y85546D01*
X269142D01*
Y85667D01*
X269203D01*
Y85787D01*
X269263D01*
Y85847D01*
X269323D01*
Y86028D01*
X269383D01*
Y86088D01*
X269444D01*
Y86269D01*
X269504D01*
Y86329D01*
X269564D01*
Y86390D01*
X269624D01*
Y86510D01*
X269685D01*
Y86691D01*
X269745D01*
Y86812D01*
X269685D01*
Y87113D01*
X269624D01*
Y87474D01*
X269564D01*
Y87534D01*
X269624D01*
Y88197D01*
X269685D01*
Y88619D01*
X269745D01*
Y88800D01*
X269805D01*
Y88981D01*
X269865D01*
Y89222D01*
X269926D01*
Y89402D01*
X269986D01*
Y89523D01*
X270046D01*
Y89764D01*
X270106D01*
Y89884D01*
X270167D01*
Y90005D01*
X270227D01*
Y90125D01*
X270287D01*
Y90246D01*
X270347D01*
Y90366D01*
X270408D01*
Y90487D01*
X270468D01*
Y90547D01*
X270528D01*
Y90668D01*
X270588D01*
Y90728D01*
X270649D01*
Y90848D01*
X270709D01*
Y90909D01*
X270769D01*
Y91029D01*
X270890D01*
Y91150D01*
X270950D01*
Y91210D01*
X271010D01*
Y91270D01*
X271372D01*
Y91150D01*
X271432D01*
Y91029D01*
X271492D01*
Y90728D01*
X271552D01*
Y90668D01*
X271854D01*
Y90607D01*
X271974D01*
Y90487D01*
X272035D01*
Y90427D01*
X272155D01*
Y90366D01*
X272215D01*
Y90246D01*
X272275D01*
Y90186D01*
X272396D01*
Y90065D01*
X272456D01*
Y90005D01*
X272577D01*
Y89884D01*
X272637D01*
Y89824D01*
X272758D01*
Y89764D01*
X272818D01*
Y89704D01*
X272878D01*
Y89643D01*
X272938D01*
Y89583D01*
X272998D01*
Y89523D01*
X273119D01*
Y89463D01*
X273240D01*
Y89402D01*
X273481D01*
Y89342D01*
X273842D01*
Y89402D01*
X274023D01*
Y89463D01*
X274143D01*
Y89523D01*
X274264D01*
Y89583D01*
X274324D01*
Y89643D01*
X274445D01*
Y89704D01*
X274565D01*
Y89764D01*
X274625D01*
Y89824D01*
X274746D01*
Y89884D01*
X274806D01*
Y89945D01*
X274866D01*
Y90005D01*
X274927D01*
Y90065D01*
X274987D01*
Y90125D01*
X275107D01*
Y90246D01*
X275168D01*
Y90306D01*
X275288D01*
Y90366D01*
X275348D01*
Y90427D01*
X275409D01*
Y90487D01*
X275469D01*
Y90547D01*
X275529D01*
Y90607D01*
X275589D01*
Y90668D01*
X275650D01*
Y90728D01*
X275710D01*
Y90788D01*
X275770D01*
Y90848D01*
X275830D01*
Y90909D01*
X275891D01*
Y90969D01*
X275951D01*
Y91029D01*
X276011D01*
Y91089D01*
X276071D01*
Y91150D01*
X276132D01*
Y91270D01*
X276252D01*
Y91330D01*
X276312D01*
Y91451D01*
X276433D01*
Y91571D01*
X276493D01*
Y91632D01*
X276554D01*
Y91692D01*
X276614D01*
Y91752D01*
X276674D01*
Y91812D01*
X276734D01*
Y91873D01*
X276795D01*
Y91933D01*
X276855D01*
Y91993D01*
X276915D01*
Y92053D01*
X276975D01*
Y92114D01*
X277035D01*
Y92174D01*
X277096D01*
Y92234D01*
X277156D01*
Y92295D01*
X277216D01*
Y92355D01*
X277276D01*
Y92475D01*
X277337D01*
Y92536D01*
X277457D01*
Y92656D01*
X277518D01*
Y92716D01*
X277638D01*
Y92837D01*
X277698D01*
Y92897D01*
X277759D01*
Y92957D01*
X277819D01*
Y93018D01*
X277879D01*
Y93078D01*
X277939D01*
Y93138D01*
X277999D01*
Y93198D01*
X278060D01*
Y93259D01*
X278120D01*
Y93379D01*
X278240D01*
Y93499D01*
X278301D01*
Y93560D01*
X278421D01*
Y93680D01*
X278482D01*
Y93740D01*
X278542D01*
Y93801D01*
X278602D01*
Y93861D01*
X278662D01*
Y93921D01*
X278723D01*
Y93981D01*
X278783D01*
Y94042D01*
X278843D01*
Y94102D01*
X278903D01*
Y94162D01*
X278964D01*
Y94283D01*
X279024D01*
Y94223D01*
D02*
G37*
G36*
X291376Y68856D02*
X291496D01*
Y68736D01*
X291617D01*
Y68495D01*
X291556D01*
Y68434D01*
X291496D01*
Y68374D01*
X291195D01*
Y68314D01*
X291014D01*
Y68374D01*
X290954D01*
Y68495D01*
X290833D01*
Y68615D01*
Y68675D01*
X290894D01*
Y68736D01*
X290954D01*
Y68796D01*
X291014D01*
Y68856D01*
X291135D01*
Y68916D01*
X291376D01*
Y68856D01*
D02*
G37*
G36*
X248174Y74098D02*
X248235D01*
Y74038D01*
X248295D01*
Y73978D01*
X248355D01*
Y73857D01*
X248415D01*
Y73496D01*
X248355D01*
Y73375D01*
X248295D01*
Y73194D01*
X248235D01*
Y73074D01*
X248174D01*
Y73014D01*
X248114D01*
Y72893D01*
X248054D01*
Y72773D01*
X247994D01*
Y72712D01*
X247933D01*
Y72592D01*
X247873D01*
Y72532D01*
X247813D01*
Y72411D01*
X247753D01*
Y72291D01*
X247692D01*
Y72230D01*
X247632D01*
Y72110D01*
X247572D01*
Y72050D01*
X247512D01*
Y71929D01*
X247451D01*
Y71809D01*
X247391D01*
Y71748D01*
X247331D01*
Y71628D01*
X247271D01*
Y71568D01*
X247210D01*
Y71447D01*
X247150D01*
Y71387D01*
X247090D01*
Y71266D01*
X247030D01*
Y71146D01*
X246969D01*
Y71086D01*
X246909D01*
Y70965D01*
X246849D01*
Y70845D01*
X246789D01*
Y70784D01*
X246728D01*
Y70664D01*
X246668D01*
Y70543D01*
X246608D01*
Y70483D01*
X246548D01*
Y70363D01*
X246487D01*
Y70242D01*
X246427D01*
Y70122D01*
X246367D01*
Y70061D01*
X246307D01*
Y69941D01*
X246246D01*
Y69880D01*
X246186D01*
Y69700D01*
X246126D01*
Y69639D01*
X246066D01*
Y69519D01*
X246005D01*
Y69398D01*
X245945D01*
Y69278D01*
X245885D01*
Y69218D01*
X245825D01*
Y69097D01*
X245764D01*
Y68977D01*
X245704D01*
Y68856D01*
X245644D01*
Y68736D01*
X245584D01*
Y68615D01*
X245523D01*
Y68434D01*
X245463D01*
Y68374D01*
X245403D01*
Y68254D01*
X245343D01*
Y68133D01*
X245282D01*
Y68013D01*
X245222D01*
Y67832D01*
X245162D01*
Y67711D01*
X245101D01*
Y67591D01*
X245041D01*
Y67410D01*
X244981D01*
Y67350D01*
X244921D01*
Y67109D01*
X244861D01*
Y66988D01*
X244800D01*
Y66868D01*
X244740D01*
Y66627D01*
X244680D01*
Y66506D01*
X244619D01*
Y66386D01*
X244559D01*
Y66145D01*
X244499D01*
Y65904D01*
X244439D01*
Y65663D01*
X244378D01*
Y65422D01*
X244318D01*
Y65181D01*
X244258D01*
Y64398D01*
X244318D01*
Y64157D01*
X244378D01*
Y64036D01*
X244439D01*
Y63976D01*
X244499D01*
Y63855D01*
X244559D01*
Y63795D01*
X244619D01*
Y63735D01*
X244680D01*
Y63674D01*
X244740D01*
Y63614D01*
X244921D01*
Y63554D01*
X245403D01*
Y63614D01*
X245584D01*
Y63674D01*
X245764D01*
Y63735D01*
X245885D01*
Y63795D01*
X246066D01*
Y63855D01*
X246186D01*
Y63915D01*
X246246D01*
Y63976D01*
X246427D01*
Y64036D01*
X246487D01*
Y64096D01*
X246608D01*
Y64157D01*
X246668D01*
Y64217D01*
X246789D01*
Y64277D01*
X246909D01*
Y64337D01*
X247030D01*
Y64398D01*
X247090D01*
Y64458D01*
X247210D01*
Y64518D01*
X247271D01*
Y64578D01*
X247331D01*
Y64639D01*
X247451D01*
Y64699D01*
X247512D01*
Y64759D01*
X247632D01*
Y64819D01*
X247692D01*
Y64880D01*
X247753D01*
Y64940D01*
X247813D01*
Y65000D01*
X247873D01*
Y65060D01*
X247933D01*
Y65121D01*
X248054D01*
Y65181D01*
X248114D01*
Y65241D01*
X248174D01*
Y65301D01*
X248235D01*
Y65361D01*
X248295D01*
Y65422D01*
X248355D01*
Y65482D01*
X248415D01*
Y65542D01*
X248476D01*
Y65602D01*
X248536D01*
Y65663D01*
X248596D01*
Y65723D01*
X248657D01*
Y65783D01*
X248717D01*
Y65843D01*
X248777D01*
Y65904D01*
X248837D01*
Y65964D01*
X248958D01*
Y66024D01*
X249018D01*
Y66145D01*
X249078D01*
Y66205D01*
X249199D01*
Y66326D01*
X249259D01*
Y66386D01*
X249319D01*
Y66446D01*
X249379D01*
Y66506D01*
X249440D01*
Y66567D01*
X249500D01*
Y66687D01*
X249560D01*
Y66747D01*
X249621D01*
Y66868D01*
X249681D01*
Y66928D01*
X249741D01*
Y67049D01*
X249801D01*
Y67109D01*
X249862D01*
Y67169D01*
X249922D01*
Y67290D01*
X249982D01*
Y67350D01*
X250042D01*
Y67470D01*
X250102D01*
Y67531D01*
X250163D01*
Y67651D01*
X250223D01*
Y67711D01*
X250283D01*
Y67832D01*
X250343D01*
Y67892D01*
X250404D01*
Y67952D01*
X250464D01*
Y68073D01*
X250524D01*
Y68133D01*
X250585D01*
Y68193D01*
X250645D01*
Y68314D01*
X250705D01*
Y68374D01*
X250765D01*
Y68434D01*
X250826D01*
Y68555D01*
X250886D01*
Y68615D01*
X250946D01*
Y68675D01*
X251006D01*
Y68796D01*
X251067D01*
Y68856D01*
X251127D01*
Y68916D01*
X251187D01*
Y69037D01*
X251247D01*
Y69097D01*
X251308D01*
Y69157D01*
X251368D01*
Y69218D01*
X251428D01*
Y69338D01*
X251488D01*
Y69398D01*
X251549D01*
Y69459D01*
X251609D01*
Y69519D01*
X251669D01*
Y69579D01*
X251729D01*
Y69700D01*
X251790D01*
Y69760D01*
X251850D01*
Y69820D01*
X251910D01*
Y69880D01*
X251970D01*
Y70001D01*
X252031D01*
Y70061D01*
X252091D01*
Y70122D01*
X252151D01*
Y70182D01*
X252211D01*
Y70242D01*
X252272D01*
Y70302D01*
X252332D01*
Y70363D01*
X252392D01*
Y70483D01*
X252452D01*
Y70543D01*
X252513D01*
Y70604D01*
X252573D01*
Y70664D01*
X252633D01*
Y70724D01*
X252693D01*
Y70784D01*
X252754D01*
Y70845D01*
X252814D01*
Y70905D01*
X252874D01*
Y70965D01*
X252934D01*
Y71025D01*
X252995D01*
Y71086D01*
X253055D01*
Y71146D01*
X253115D01*
Y71206D01*
X253175D01*
Y71266D01*
X253236D01*
Y71327D01*
X253296D01*
Y71387D01*
X253356D01*
Y71447D01*
X253416D01*
Y71507D01*
X253477D01*
Y71568D01*
X253537D01*
Y71628D01*
X253597D01*
Y71688D01*
X253657D01*
Y71748D01*
X253718D01*
Y71809D01*
X253778D01*
Y71869D01*
X253838D01*
Y71929D01*
X253898D01*
Y71989D01*
X253959D01*
Y72050D01*
X254019D01*
Y72110D01*
X254139D01*
Y72170D01*
X254200D01*
Y72230D01*
X254561D01*
Y72170D01*
X254622D01*
Y72110D01*
X254682D01*
Y72050D01*
X254742D01*
Y71748D01*
X254682D01*
Y71628D01*
X254622D01*
Y71507D01*
X254561D01*
Y71447D01*
X254501D01*
Y71387D01*
X254441D01*
Y71327D01*
X254380D01*
Y71266D01*
X254320D01*
Y71206D01*
X254260D01*
Y71146D01*
X254200D01*
Y71025D01*
X254079D01*
Y70965D01*
X254019D01*
Y70905D01*
X253959D01*
Y70784D01*
X253838D01*
Y70664D01*
X253778D01*
Y70604D01*
X253718D01*
Y70543D01*
X253657D01*
Y70483D01*
X253597D01*
Y70423D01*
X253537D01*
Y70363D01*
X253477D01*
Y70302D01*
X253416D01*
Y70242D01*
X253356D01*
Y70182D01*
X253296D01*
Y70122D01*
X253236D01*
Y70061D01*
X253175D01*
Y70001D01*
X253115D01*
Y69941D01*
X253055D01*
Y69880D01*
X252995D01*
Y69820D01*
X252934D01*
Y69760D01*
X252874D01*
Y69639D01*
X252814D01*
Y69579D01*
X252754D01*
Y69519D01*
X252693D01*
Y69459D01*
X252633D01*
Y69338D01*
X252573D01*
Y69278D01*
X252513D01*
Y69218D01*
X252452D01*
Y69157D01*
X252392D01*
Y69097D01*
X252332D01*
Y68977D01*
X252272D01*
Y68916D01*
X252211D01*
Y68856D01*
X252151D01*
Y68796D01*
X252091D01*
Y68675D01*
X252031D01*
Y68615D01*
X251970D01*
Y68555D01*
X251910D01*
Y68434D01*
X251850D01*
Y68374D01*
X251790D01*
Y68314D01*
X251729D01*
Y68193D01*
X251669D01*
Y68133D01*
X251609D01*
Y68073D01*
X251549D01*
Y67952D01*
X251488D01*
Y67892D01*
X251428D01*
Y67832D01*
X251368D01*
Y67711D01*
X251308D01*
Y67651D01*
X251247D01*
Y67591D01*
X251187D01*
Y67470D01*
X251127D01*
Y67410D01*
X251067D01*
Y67290D01*
X251006D01*
Y67229D01*
X250946D01*
Y67169D01*
X250886D01*
Y67049D01*
X250826D01*
Y66988D01*
X250765D01*
Y66868D01*
X250705D01*
Y66808D01*
X250645D01*
Y66747D01*
X250585D01*
Y66627D01*
X250524D01*
Y66506D01*
X250464D01*
Y66446D01*
X250404D01*
Y66386D01*
X250343D01*
Y66265D01*
X250283D01*
Y66205D01*
X250223D01*
Y66085D01*
X250163D01*
Y66024D01*
X250102D01*
Y65904D01*
X250042D01*
Y65783D01*
X249982D01*
Y65723D01*
X249922D01*
Y65663D01*
X249862D01*
Y65542D01*
X249801D01*
Y65422D01*
X249741D01*
Y65361D01*
X249681D01*
Y65241D01*
X249621D01*
Y65121D01*
X249560D01*
Y65060D01*
X249500D01*
Y64940D01*
X249440D01*
Y64880D01*
X249379D01*
Y64759D01*
X249319D01*
Y64639D01*
X249259D01*
Y64518D01*
X249199D01*
Y64458D01*
X249138D01*
Y64337D01*
X249078D01*
Y64217D01*
X249018D01*
Y64096D01*
X248958D01*
Y64036D01*
X248898D01*
Y63915D01*
X248837D01*
Y63795D01*
X248777D01*
Y63674D01*
X248717D01*
Y63554D01*
X248657D01*
Y63433D01*
X248596D01*
Y63253D01*
X248536D01*
Y63192D01*
X248476D01*
Y63012D01*
X248415D01*
Y62891D01*
X248355D01*
Y62771D01*
X248295D01*
Y62530D01*
X248235D01*
Y62349D01*
X248174D01*
Y62108D01*
X248114D01*
Y61807D01*
X248054D01*
Y61264D01*
X248114D01*
Y61084D01*
X248174D01*
Y60903D01*
X248235D01*
Y60782D01*
X248295D01*
Y60662D01*
X248355D01*
Y60602D01*
X248415D01*
Y60541D01*
X248536D01*
Y60481D01*
X248596D01*
Y60421D01*
X249259D01*
Y60481D01*
X249500D01*
Y60541D01*
X249681D01*
Y60602D01*
X249801D01*
Y60662D01*
X249982D01*
Y60722D01*
X250102D01*
Y60782D01*
X250223D01*
Y60843D01*
X250343D01*
Y60903D01*
X250524D01*
Y60963D01*
X250645D01*
Y61023D01*
X250705D01*
Y61084D01*
X250826D01*
Y61144D01*
X250946D01*
Y61204D01*
X251067D01*
Y61264D01*
X251127D01*
Y61325D01*
X251247D01*
Y61385D01*
X251368D01*
Y61445D01*
X251428D01*
Y61505D01*
X251488D01*
Y61566D01*
X251549D01*
Y61626D01*
X251609D01*
Y61686D01*
X251729D01*
Y61746D01*
X251790D01*
Y61807D01*
X251850D01*
Y61867D01*
X251910D01*
Y61927D01*
X251970D01*
Y61987D01*
X252031D01*
Y62048D01*
X252091D01*
Y62228D01*
X252151D01*
Y62349D01*
X252211D01*
Y62409D01*
X252272D01*
Y62590D01*
X252332D01*
Y62650D01*
X252392D01*
Y62831D01*
X252452D01*
Y62891D01*
X252513D01*
Y63012D01*
X252573D01*
Y63132D01*
X252633D01*
Y63253D01*
X252693D01*
Y63313D01*
X252754D01*
Y63433D01*
X252814D01*
Y63554D01*
X252874D01*
Y63614D01*
X252934D01*
Y63674D01*
X252995D01*
Y63795D01*
X253055D01*
Y63855D01*
X253115D01*
Y63976D01*
X253175D01*
Y64036D01*
X253236D01*
Y64157D01*
X253296D01*
Y64217D01*
X253356D01*
Y64337D01*
X253416D01*
Y64398D01*
X253477D01*
Y64458D01*
X253537D01*
Y64578D01*
X253597D01*
Y64639D01*
X253657D01*
Y64699D01*
X253718D01*
Y64759D01*
X253778D01*
Y64880D01*
X253838D01*
Y64940D01*
X253898D01*
Y65000D01*
X253959D01*
Y65060D01*
X254019D01*
Y65181D01*
X254079D01*
Y65241D01*
X254139D01*
Y65301D01*
X254200D01*
Y65361D01*
X254260D01*
Y65422D01*
X254320D01*
Y65482D01*
X254380D01*
Y65542D01*
X254441D01*
Y65602D01*
X254501D01*
Y65663D01*
X254561D01*
Y65783D01*
X254682D01*
Y65843D01*
X254802D01*
Y65904D01*
X254983D01*
Y65964D01*
X255345D01*
Y65904D01*
X255405D01*
Y65843D01*
X255465D01*
Y65482D01*
X255405D01*
Y65422D01*
X255345D01*
Y65361D01*
X255284D01*
Y65241D01*
X255224D01*
Y65121D01*
X255164D01*
Y65000D01*
X255103D01*
Y64940D01*
X255043D01*
Y64819D01*
X254983D01*
Y64759D01*
X254923D01*
Y64639D01*
X254862D01*
Y64578D01*
X254802D01*
Y64458D01*
X254742D01*
Y64398D01*
X254682D01*
Y64277D01*
X254622D01*
Y64217D01*
X254561D01*
Y64157D01*
X254501D01*
Y64036D01*
X254441D01*
Y63976D01*
X254380D01*
Y63915D01*
X254320D01*
Y63795D01*
X254260D01*
Y63735D01*
X254200D01*
Y63674D01*
X254139D01*
Y63614D01*
X254079D01*
Y63554D01*
X254019D01*
Y63494D01*
X253959D01*
Y63373D01*
X253898D01*
Y63313D01*
X253838D01*
Y63253D01*
X253778D01*
Y63192D01*
X253718D01*
Y63132D01*
X253657D01*
Y63072D01*
X253597D01*
Y63012D01*
X253537D01*
Y62951D01*
X253477D01*
Y62831D01*
X253416D01*
Y62710D01*
X253356D01*
Y62590D01*
X253296D01*
Y62530D01*
X253236D01*
Y62409D01*
X253175D01*
Y62289D01*
X253115D01*
Y62168D01*
X253055D01*
Y62048D01*
X252995D01*
Y61927D01*
X252934D01*
Y61807D01*
X252874D01*
Y61686D01*
X252814D01*
Y61445D01*
X252754D01*
Y61264D01*
X252693D01*
Y61023D01*
X252633D01*
Y60782D01*
X252693D01*
Y60662D01*
X252754D01*
Y60602D01*
X252874D01*
Y60541D01*
X253537D01*
Y60602D01*
X253838D01*
Y60662D01*
X254079D01*
Y60722D01*
X254260D01*
Y60782D01*
X254501D01*
Y60843D01*
X254622D01*
Y60903D01*
X254802D01*
Y60963D01*
X254862D01*
Y61023D01*
X254923D01*
Y61084D01*
X254983D01*
Y61144D01*
X255043D01*
Y61204D01*
X255103D01*
Y61264D01*
X255164D01*
Y61325D01*
X255224D01*
Y61385D01*
X255284D01*
Y61445D01*
X255345D01*
Y61505D01*
X255405D01*
Y61566D01*
X255465D01*
Y61626D01*
X255525D01*
Y61686D01*
X255586D01*
Y61746D01*
X255646D01*
Y61807D01*
X255706D01*
Y61867D01*
X255766D01*
Y61927D01*
X255826D01*
Y61987D01*
X255947D01*
Y62048D01*
X256007D01*
Y62108D01*
X256067D01*
Y62168D01*
X256128D01*
Y62228D01*
X256188D01*
Y62289D01*
X256309D01*
Y62349D01*
X256369D01*
Y62409D01*
X256429D01*
Y62469D01*
X256550D01*
Y62530D01*
X256610D01*
Y62590D01*
X256670D01*
Y62650D01*
X256791D01*
Y62710D01*
X256851D01*
Y62771D01*
X256911D01*
Y62831D01*
X257032D01*
Y62891D01*
X257092D01*
Y62951D01*
X257212D01*
Y63012D01*
X257273D01*
Y63072D01*
X257393D01*
Y63132D01*
X257453D01*
Y63192D01*
X257574D01*
Y63253D01*
X257634D01*
Y63313D01*
X257755D01*
Y63373D01*
X257815D01*
Y63433D01*
X257935D01*
Y63494D01*
X257996D01*
Y63554D01*
X258116D01*
Y63614D01*
X258176D01*
Y63674D01*
X258297D01*
Y63735D01*
X258417D01*
Y63795D01*
X258478D01*
Y63855D01*
X258598D01*
Y63915D01*
X258719D01*
Y63976D01*
X258839D01*
Y64036D01*
X258960D01*
Y64096D01*
X259020D01*
Y64157D01*
X259140D01*
Y64217D01*
X259261D01*
Y64277D01*
X259381D01*
Y64337D01*
X259502D01*
Y64398D01*
X259622D01*
Y64458D01*
X259743D01*
Y64518D01*
X259863D01*
Y64578D01*
X260044D01*
Y64639D01*
X260165D01*
Y64699D01*
X260285D01*
Y64759D01*
X260466D01*
Y64819D01*
X260587D01*
Y64880D01*
X260767D01*
Y64940D01*
X260888D01*
Y65000D01*
X261069D01*
Y65060D01*
X261249D01*
Y65121D01*
X261430D01*
Y65181D01*
X261611D01*
Y65241D01*
X261852D01*
Y65301D01*
X262093D01*
Y65361D01*
X262334D01*
Y65422D01*
X262394D01*
Y65361D01*
X262575D01*
Y65301D01*
X262695D01*
Y65241D01*
X262816D01*
Y65181D01*
X262876D01*
Y65060D01*
X262936D01*
Y64880D01*
X262876D01*
Y64759D01*
X262816D01*
Y64699D01*
X262756D01*
Y64639D01*
X262695D01*
Y64578D01*
X262635D01*
Y64518D01*
X262515D01*
Y64458D01*
X262394D01*
Y64398D01*
X262334D01*
Y64337D01*
X262213D01*
Y64277D01*
X262153D01*
Y64217D01*
X262033D01*
Y64157D01*
X261912D01*
Y64096D01*
X261791D01*
Y64036D01*
X261731D01*
Y63976D01*
X261611D01*
Y63915D01*
X261490D01*
Y63855D01*
X261370D01*
Y63795D01*
X261249D01*
Y63735D01*
X261189D01*
Y63674D01*
X261069D01*
Y63614D01*
X261008D01*
Y63554D01*
X260827D01*
Y63494D01*
X260767D01*
Y63433D01*
X260647D01*
Y63373D01*
X260526D01*
Y63313D01*
X260466D01*
Y63253D01*
X260346D01*
Y63192D01*
X260225D01*
Y63132D01*
X260104D01*
Y63072D01*
X260044D01*
Y63012D01*
X259924D01*
Y62951D01*
X259803D01*
Y62891D01*
X259743D01*
Y62831D01*
X259562D01*
Y62771D01*
X259442D01*
Y62710D01*
X259381D01*
Y62650D01*
X259261D01*
Y62590D01*
X259080D01*
Y62530D01*
X259020D01*
Y62469D01*
X258899D01*
Y62409D01*
X258719D01*
Y62349D01*
X258598D01*
Y62289D01*
X258538D01*
Y62228D01*
X258357D01*
Y62168D01*
X258237D01*
Y62108D01*
X258176D01*
Y62048D01*
X257996D01*
Y61987D01*
X257875D01*
Y61927D01*
X257755D01*
Y61867D01*
X257634D01*
Y61807D01*
X257514D01*
Y61746D01*
X257393D01*
Y61686D01*
X257212D01*
Y61626D01*
X257152D01*
Y61566D01*
X256971D01*
Y61505D01*
X256851D01*
Y61445D01*
X256730D01*
Y61385D01*
X256610D01*
Y61325D01*
X256489D01*
Y61264D01*
X256369D01*
Y61204D01*
X256248D01*
Y61144D01*
X256128D01*
Y61084D01*
X256067D01*
Y61023D01*
X256007D01*
Y60963D01*
X255947D01*
Y60903D01*
X255887D01*
Y60843D01*
X255826D01*
Y60782D01*
X255766D01*
Y60722D01*
X255706D01*
Y60662D01*
X255646D01*
Y60602D01*
X255586D01*
Y60541D01*
X255525D01*
Y60421D01*
X255465D01*
Y60361D01*
X255405D01*
Y60300D01*
X255345D01*
Y60180D01*
X255284D01*
Y60059D01*
X255224D01*
Y59939D01*
X255164D01*
Y59517D01*
X255224D01*
Y59457D01*
X255284D01*
Y59396D01*
X255586D01*
Y59336D01*
X255766D01*
Y59396D01*
X256007D01*
Y59457D01*
X256248D01*
Y59517D01*
X256550D01*
Y59577D01*
X256670D01*
Y59637D01*
X256911D01*
Y59698D01*
X257152D01*
Y59758D01*
X257333D01*
Y59818D01*
X257514D01*
Y59878D01*
X257694D01*
Y59939D01*
X257875D01*
Y59999D01*
X258056D01*
Y60059D01*
X258237D01*
Y60119D01*
X258357D01*
Y60180D01*
X258538D01*
Y60240D01*
X258719D01*
Y60300D01*
X258839D01*
Y60361D01*
X259020D01*
Y60421D01*
X259140D01*
Y60481D01*
X259261D01*
Y60541D01*
X259442D01*
Y60602D01*
X259562D01*
Y60662D01*
X259683D01*
Y60722D01*
X259803D01*
Y60782D01*
X259924D01*
Y60843D01*
X260044D01*
Y60903D01*
X260165D01*
Y60963D01*
X260285D01*
Y61023D01*
X260406D01*
Y61084D01*
X260587D01*
Y61144D01*
X260707D01*
Y61204D01*
X260827D01*
Y61264D01*
X260948D01*
Y61325D01*
X261069D01*
Y61385D01*
X261189D01*
Y61445D01*
X261310D01*
Y61505D01*
X261430D01*
Y61566D01*
X261611D01*
Y61626D01*
X261731D01*
Y61686D01*
X261852D01*
Y61746D01*
X261972D01*
Y61807D01*
X262093D01*
Y61867D01*
X262213D01*
Y61927D01*
X262334D01*
Y61987D01*
X262454D01*
Y62048D01*
X262575D01*
Y62108D01*
X262695D01*
Y62168D01*
X262816D01*
Y62228D01*
X262936D01*
Y62289D01*
X262997D01*
Y62349D01*
X263117D01*
Y62409D01*
X263238D01*
Y62469D01*
X263358D01*
Y62530D01*
X263479D01*
Y62590D01*
X263599D01*
Y62650D01*
X263659D01*
Y62710D01*
X263840D01*
Y62771D01*
X263900D01*
Y62831D01*
X264021D01*
Y62891D01*
X264141D01*
Y62951D01*
X264262D01*
Y63012D01*
X264382D01*
Y63072D01*
X264503D01*
Y63132D01*
X264623D01*
Y63192D01*
X264744D01*
Y63253D01*
X264925D01*
Y63313D01*
X265045D01*
Y63373D01*
X265226D01*
Y63433D01*
X265347D01*
Y63494D01*
X265527D01*
Y63554D01*
X265768D01*
Y63494D01*
X265828D01*
Y63433D01*
X265889D01*
Y63373D01*
X265949D01*
Y63012D01*
X265889D01*
Y62951D01*
X265828D01*
Y62771D01*
X265768D01*
Y62710D01*
X265708D01*
Y62650D01*
X265648D01*
Y62590D01*
X265587D01*
Y62530D01*
X265527D01*
Y62469D01*
X265407D01*
Y62409D01*
X265347D01*
Y62349D01*
X265286D01*
Y62289D01*
X265166D01*
Y62228D01*
X265045D01*
Y62168D01*
X264985D01*
Y62108D01*
X264864D01*
Y62048D01*
X264804D01*
Y61987D01*
X264684D01*
Y61927D01*
X264563D01*
Y61867D01*
X264503D01*
Y61807D01*
X264382D01*
Y61746D01*
X264322D01*
Y61686D01*
X264202D01*
Y61626D01*
X264141D01*
Y61566D01*
X264021D01*
Y61505D01*
X263961D01*
Y61445D01*
X263840D01*
Y61385D01*
X263720D01*
Y61325D01*
X263599D01*
Y61264D01*
X263479D01*
Y61204D01*
X263418D01*
Y61144D01*
X263298D01*
Y61084D01*
X263238D01*
Y61023D01*
X263117D01*
Y60963D01*
X263057D01*
Y60903D01*
X262936D01*
Y60843D01*
X262876D01*
Y60782D01*
X262756D01*
Y60722D01*
X262695D01*
Y60662D01*
X262575D01*
Y60602D01*
X262515D01*
Y60541D01*
X262454D01*
Y60481D01*
X262394D01*
Y60421D01*
X262274D01*
Y60361D01*
X262213D01*
Y60300D01*
X262153D01*
Y60240D01*
X262093D01*
Y60180D01*
X262033D01*
Y60119D01*
X261912D01*
Y60059D01*
X261852D01*
Y59999D01*
X261791D01*
Y59939D01*
X261731D01*
Y59878D01*
X261671D01*
Y59818D01*
X261611D01*
Y59758D01*
X261550D01*
Y59637D01*
X261490D01*
Y59577D01*
X261430D01*
Y59517D01*
X261370D01*
Y59457D01*
X261310D01*
Y59336D01*
X261249D01*
Y59276D01*
X261189D01*
Y59155D01*
X261129D01*
Y59035D01*
X261069D01*
Y58854D01*
X261008D01*
Y58674D01*
X260948D01*
Y58372D01*
X261008D01*
Y58312D01*
X261129D01*
Y58252D01*
X261430D01*
Y58312D01*
X261490D01*
Y58252D01*
X261731D01*
Y58312D01*
X262213D01*
Y58372D01*
X262515D01*
Y58433D01*
X262876D01*
Y58493D01*
X263177D01*
Y58553D01*
X263418D01*
Y58613D01*
X263720D01*
Y58674D01*
X263961D01*
Y58734D01*
X264202D01*
Y58794D01*
X264382D01*
Y58854D01*
X264623D01*
Y58915D01*
X264804D01*
Y58975D01*
X264985D01*
Y59035D01*
X265166D01*
Y59095D01*
X265407D01*
Y59155D01*
X265587D01*
Y59216D01*
X265828D01*
Y59276D01*
X266009D01*
Y59336D01*
X266190D01*
Y59396D01*
X266371D01*
Y59457D01*
X266551D01*
Y59517D01*
X266732D01*
Y59577D01*
X266913D01*
Y59637D01*
X267094D01*
Y59698D01*
X267214D01*
Y59758D01*
X267455D01*
Y59818D01*
X267636D01*
Y59878D01*
X267817D01*
Y59939D01*
X267998D01*
Y59999D01*
X268178D01*
Y60059D01*
X268359D01*
Y60119D01*
X268480D01*
Y60180D01*
X268660D01*
Y60240D01*
X268841D01*
Y60300D01*
X269022D01*
Y60361D01*
X269203D01*
Y60421D01*
X269323D01*
Y60481D01*
X269444D01*
Y60541D01*
X269564D01*
Y60602D01*
X269685D01*
Y60662D01*
X269986D01*
Y60602D01*
X270106D01*
Y60541D01*
X270167D01*
Y60481D01*
X270227D01*
Y60361D01*
X270167D01*
Y60119D01*
X270106D01*
Y60059D01*
X270046D01*
Y59999D01*
X269986D01*
Y59939D01*
X269926D01*
Y59878D01*
X269805D01*
Y59818D01*
X269685D01*
Y59758D01*
X269564D01*
Y59698D01*
X269444D01*
Y59637D01*
X269323D01*
Y59577D01*
X269203D01*
Y59517D01*
X269082D01*
Y59457D01*
X268962D01*
Y59396D01*
X268841D01*
Y59336D01*
X268660D01*
Y59276D01*
X268540D01*
Y59216D01*
X268419D01*
Y59155D01*
X268299D01*
Y59095D01*
X268178D01*
Y59035D01*
X268058D01*
Y58975D01*
X267877D01*
Y58915D01*
X267757D01*
Y58854D01*
X267636D01*
Y58794D01*
X267515D01*
Y58734D01*
X267395D01*
Y58674D01*
X267274D01*
Y58613D01*
X267154D01*
Y58553D01*
X267034D01*
Y58493D01*
X266913D01*
Y58433D01*
X266792D01*
Y58372D01*
X266672D01*
Y58312D01*
X266612D01*
Y58252D01*
X266431D01*
Y58191D01*
X266371D01*
Y58131D01*
X266250D01*
Y58071D01*
X266190D01*
Y58011D01*
X266070D01*
Y57950D01*
X265949D01*
Y57890D01*
X265828D01*
Y57830D01*
X265768D01*
Y57770D01*
X265648D01*
Y57709D01*
X265587D01*
Y57649D01*
X265467D01*
Y57589D01*
X265407D01*
Y57529D01*
X265286D01*
Y57468D01*
X265166D01*
Y57408D01*
X265105D01*
Y57348D01*
X265045D01*
Y57288D01*
X264925D01*
Y57227D01*
X264864D01*
Y57167D01*
X264804D01*
Y57107D01*
X264744D01*
Y57047D01*
X264623D01*
Y56986D01*
X264563D01*
Y56926D01*
X264503D01*
Y56806D01*
X264563D01*
Y56745D01*
X264985D01*
Y56806D01*
X265587D01*
Y56866D01*
X266311D01*
Y56926D01*
X266672D01*
Y56986D01*
X267154D01*
Y57047D01*
X267576D01*
Y57107D01*
X267998D01*
Y57167D01*
X268299D01*
Y57227D01*
X268359D01*
Y57167D01*
X268419D01*
Y57227D01*
X268781D01*
Y57288D01*
X269203D01*
Y57348D01*
X269685D01*
Y57408D01*
X270167D01*
Y57468D01*
X270950D01*
Y57529D01*
X271613D01*
Y57589D01*
X271673D01*
Y57529D01*
X271854D01*
Y57589D01*
X273963D01*
Y57529D01*
X274746D01*
Y57468D01*
X275047D01*
Y57408D01*
X275348D01*
Y57348D01*
X275650D01*
Y57288D01*
X275951D01*
Y57227D01*
X276252D01*
Y57167D01*
X276493D01*
Y57107D01*
X276614D01*
Y57047D01*
X276734D01*
Y56986D01*
X276855D01*
Y56926D01*
X277035D01*
Y56866D01*
X277096D01*
Y56806D01*
X277216D01*
Y56745D01*
X277276D01*
Y56685D01*
X277397D01*
Y56625D01*
X277457D01*
Y56565D01*
X277518D01*
Y56504D01*
X277638D01*
Y56384D01*
X277698D01*
Y56324D01*
X277759D01*
Y56263D01*
X277819D01*
Y56203D01*
X277879D01*
Y56083D01*
X277939D01*
Y55962D01*
X277999D01*
Y55842D01*
X278060D01*
Y55601D01*
X278120D01*
Y54697D01*
X278060D01*
Y54456D01*
X277999D01*
Y54215D01*
X277939D01*
Y54094D01*
X277879D01*
Y53974D01*
X277819D01*
Y53853D01*
X277759D01*
Y53793D01*
X277698D01*
Y53733D01*
X277638D01*
Y53552D01*
X277698D01*
Y53492D01*
X277939D01*
Y53552D01*
X278421D01*
Y53612D01*
X279024D01*
Y53672D01*
X279506D01*
Y53733D01*
X280289D01*
Y53793D01*
X280952D01*
Y53853D01*
X281735D01*
Y53913D01*
X281916D01*
Y53853D01*
X282036D01*
Y53913D01*
X282759D01*
Y53974D01*
X282820D01*
Y53913D01*
X283061D01*
Y53974D01*
X286375D01*
Y54034D01*
X286495D01*
Y53974D01*
X286917D01*
Y53733D01*
X286857D01*
Y53672D01*
X285230D01*
Y53612D01*
X285170D01*
Y53672D01*
X285109D01*
Y53612D01*
X284085D01*
Y53552D01*
X283242D01*
Y53492D01*
X282639D01*
Y53431D01*
X282579D01*
Y53492D01*
X282398D01*
Y53431D01*
X281735D01*
Y53371D01*
X281615D01*
Y53431D01*
X281554D01*
Y53371D01*
X280892D01*
Y53311D01*
X280169D01*
Y53251D01*
X279506D01*
Y53190D01*
X278964D01*
Y53130D01*
X278482D01*
Y53070D01*
X277759D01*
Y53010D01*
X277457D01*
Y52950D01*
X277096D01*
Y52889D01*
X277035D01*
Y52829D01*
X276975D01*
Y52769D01*
X276915D01*
Y52709D01*
X276795D01*
Y52648D01*
X276734D01*
Y52588D01*
X276674D01*
Y52528D01*
X276614D01*
Y52467D01*
X276554D01*
Y52407D01*
X276493D01*
Y52347D01*
X276373D01*
Y52287D01*
X276312D01*
Y52226D01*
X276252D01*
Y52166D01*
X276192D01*
Y52106D01*
X276132D01*
Y52046D01*
X276011D01*
Y51985D01*
X275951D01*
Y51925D01*
X275830D01*
Y51865D01*
X275770D01*
Y51805D01*
X275650D01*
Y51744D01*
X275529D01*
Y51684D01*
X275469D01*
Y51624D01*
X275409D01*
Y51564D01*
X275288D01*
Y51503D01*
X275168D01*
Y51443D01*
X275107D01*
Y51383D01*
X274987D01*
Y51323D01*
X274927D01*
Y51262D01*
X274746D01*
Y51202D01*
X274686D01*
Y51142D01*
X274565D01*
Y51082D01*
X274445D01*
Y51021D01*
X274324D01*
Y50961D01*
X274204D01*
Y50901D01*
X274083D01*
Y50841D01*
X273963D01*
Y50780D01*
X273842D01*
Y50720D01*
X273722D01*
Y50660D01*
X273601D01*
Y50600D01*
X273420D01*
Y50539D01*
X273300D01*
Y50479D01*
X273179D01*
Y50419D01*
X272998D01*
Y50359D01*
X272878D01*
Y50298D01*
X272697D01*
Y50238D01*
X272637D01*
Y50178D01*
X272396D01*
Y50118D01*
X272275D01*
Y50057D01*
X272155D01*
Y49997D01*
X271974D01*
Y49937D01*
X271794D01*
Y49877D01*
X271673D01*
Y49816D01*
X271492D01*
Y49756D01*
X271311D01*
Y49696D01*
X271131D01*
Y49636D01*
X270890D01*
Y49575D01*
X270709D01*
Y49515D01*
X270468D01*
Y49455D01*
X270287D01*
Y49395D01*
X270106D01*
Y49334D01*
X269865D01*
Y49274D01*
X269685D01*
Y49214D01*
X269383D01*
Y49154D01*
X269142D01*
Y49093D01*
X268901D01*
Y49033D01*
X268660D01*
Y48973D01*
X268359D01*
Y48913D01*
X268058D01*
Y48852D01*
X267757D01*
Y48792D01*
X267455D01*
Y48732D01*
X267094D01*
Y48671D01*
X266732D01*
Y48611D01*
X266190D01*
Y48551D01*
X265648D01*
Y48491D01*
X264864D01*
Y48430D01*
X263840D01*
Y48370D01*
X263780D01*
Y48430D01*
X263479D01*
Y48370D01*
X263358D01*
Y48430D01*
X262816D01*
Y48491D01*
X262515D01*
Y48551D01*
X262394D01*
Y48611D01*
X262213D01*
Y48671D01*
X262153D01*
Y48732D01*
X262093D01*
Y48792D01*
X261972D01*
Y48913D01*
X261912D01*
Y48973D01*
X261852D01*
Y49515D01*
X261912D01*
Y49696D01*
X261972D01*
Y49756D01*
X262033D01*
Y49877D01*
X262093D01*
Y49937D01*
X262153D01*
Y49997D01*
X262213D01*
Y50057D01*
X262274D01*
Y50118D01*
X262334D01*
Y50178D01*
X262394D01*
Y50238D01*
X262515D01*
Y50298D01*
X262575D01*
Y50359D01*
X262695D01*
Y50419D01*
X262756D01*
Y50479D01*
X262876D01*
Y50539D01*
X262997D01*
Y50600D01*
X263117D01*
Y50660D01*
X263238D01*
Y50720D01*
X263358D01*
Y50780D01*
X263539D01*
Y50841D01*
X263659D01*
Y50901D01*
X263840D01*
Y50961D01*
X264081D01*
Y51021D01*
X264262D01*
Y51082D01*
X264443D01*
Y51142D01*
X264684D01*
Y51202D01*
X264925D01*
Y51262D01*
X265166D01*
Y51323D01*
X265407D01*
Y51383D01*
X265708D01*
Y51443D01*
X265949D01*
Y51503D01*
X266190D01*
Y51564D01*
X266551D01*
Y51624D01*
X266853D01*
Y51684D01*
X267154D01*
Y51744D01*
X267455D01*
Y51805D01*
X267696D01*
Y51865D01*
X268058D01*
Y51925D01*
X268359D01*
Y51985D01*
X268660D01*
Y52046D01*
X268962D01*
Y52106D01*
X269383D01*
Y52166D01*
X269745D01*
Y52226D01*
X269986D01*
Y52287D01*
X270347D01*
Y52347D01*
X270649D01*
Y52407D01*
X271010D01*
Y52467D01*
X271311D01*
Y52528D01*
X271673D01*
Y52588D01*
X271974D01*
Y52648D01*
X272336D01*
Y52709D01*
X272697D01*
Y52769D01*
X272998D01*
Y52829D01*
X273360D01*
Y52889D01*
X273782D01*
Y52950D01*
X274083D01*
Y53010D01*
X274505D01*
Y53070D01*
X274866D01*
Y53130D01*
X275168D01*
Y53190D01*
X275228D01*
Y53130D01*
X275288D01*
Y53190D01*
X275650D01*
Y53251D01*
X276071D01*
Y53311D01*
X276312D01*
Y53371D01*
X276373D01*
Y53431D01*
X276433D01*
Y53492D01*
X276493D01*
Y53552D01*
X276554D01*
Y53612D01*
X276614D01*
Y53672D01*
X276674D01*
Y53793D01*
X276734D01*
Y53853D01*
X276795D01*
Y53974D01*
X276855D01*
Y54034D01*
X276915D01*
Y54154D01*
X276975D01*
Y54275D01*
X277035D01*
Y54335D01*
X277096D01*
Y54516D01*
X277156D01*
Y54757D01*
X277216D01*
Y55058D01*
X277276D01*
Y55480D01*
X277216D01*
Y55721D01*
X277156D01*
Y55902D01*
X277096D01*
Y55962D01*
X277035D01*
Y56083D01*
X276975D01*
Y56143D01*
X276915D01*
Y56203D01*
X276855D01*
Y56263D01*
X276795D01*
Y56324D01*
X276674D01*
Y56384D01*
X276614D01*
Y56444D01*
X276493D01*
Y56504D01*
X276433D01*
Y56565D01*
X276312D01*
Y56625D01*
X276192D01*
Y56685D01*
X276071D01*
Y56745D01*
X275830D01*
Y56806D01*
X275589D01*
Y56866D01*
X275288D01*
Y56926D01*
X274987D01*
Y56986D01*
X274686D01*
Y57047D01*
X274324D01*
Y57107D01*
X273902D01*
Y57167D01*
X272878D01*
Y57227D01*
X272577D01*
Y57167D01*
X272396D01*
Y57227D01*
X272155D01*
Y57167D01*
X271914D01*
Y57227D01*
X271854D01*
Y57167D01*
X271191D01*
Y57107D01*
X271070D01*
Y57167D01*
X271010D01*
Y57107D01*
X270347D01*
Y57047D01*
X269805D01*
Y56986D01*
X269323D01*
Y56926D01*
X268841D01*
Y56866D01*
X268540D01*
Y56806D01*
X268178D01*
Y56745D01*
X267696D01*
Y56685D01*
X267274D01*
Y56625D01*
X266853D01*
Y56565D01*
X266371D01*
Y56504D01*
X265889D01*
Y56444D01*
X265286D01*
Y56384D01*
X264443D01*
Y56324D01*
X264262D01*
Y56384D01*
X264081D01*
Y56324D01*
X263840D01*
Y56384D01*
X263720D01*
Y56444D01*
X263599D01*
Y56504D01*
X263539D01*
Y56565D01*
X263479D01*
Y56745D01*
X263418D01*
Y56926D01*
X263479D01*
Y57047D01*
X263539D01*
Y57167D01*
X263599D01*
Y57227D01*
X263659D01*
Y57288D01*
X263720D01*
Y57348D01*
X263780D01*
Y57408D01*
X263840D01*
Y57468D01*
X263900D01*
Y57529D01*
X263961D01*
Y57589D01*
X264081D01*
Y57649D01*
X264141D01*
Y57709D01*
X264262D01*
Y57770D01*
X264322D01*
Y57830D01*
X264443D01*
Y57890D01*
X264503D01*
Y57950D01*
X264623D01*
Y58011D01*
X264684D01*
Y58071D01*
X264804D01*
Y58131D01*
X264864D01*
Y58191D01*
X264985D01*
Y58252D01*
X265045D01*
Y58312D01*
X265166D01*
Y58372D01*
X265226D01*
Y58433D01*
X265286D01*
Y58493D01*
X265407D01*
Y58553D01*
X265467D01*
Y58613D01*
X265587D01*
Y58674D01*
X265708D01*
Y58734D01*
X265407D01*
Y58674D01*
X265045D01*
Y58613D01*
X264864D01*
Y58553D01*
X264684D01*
Y58493D01*
X264503D01*
Y58433D01*
X264262D01*
Y58372D01*
X264021D01*
Y58312D01*
X263780D01*
Y58252D01*
X263479D01*
Y58191D01*
X263238D01*
Y58131D01*
X262997D01*
Y58071D01*
X262635D01*
Y58011D01*
X262274D01*
Y57950D01*
X261852D01*
Y57890D01*
X260647D01*
Y57950D01*
X260406D01*
Y58011D01*
X260285D01*
Y58071D01*
X260225D01*
Y58131D01*
X260165D01*
Y58191D01*
X260104D01*
Y58433D01*
X260044D01*
Y58734D01*
X260104D01*
Y58915D01*
X260165D01*
Y59155D01*
X260225D01*
Y59276D01*
X260285D01*
Y59396D01*
X260346D01*
Y59517D01*
X260406D01*
Y59577D01*
X260466D01*
Y59698D01*
X260526D01*
Y59758D01*
X260587D01*
Y59878D01*
X260647D01*
Y59939D01*
X260707D01*
Y59999D01*
X260767D01*
Y60059D01*
X260827D01*
Y60119D01*
X260888D01*
Y60240D01*
X260948D01*
Y60300D01*
X261008D01*
Y60361D01*
X261069D01*
Y60421D01*
X261129D01*
Y60481D01*
X261189D01*
Y60541D01*
X261249D01*
Y60602D01*
X261310D01*
Y60662D01*
X261430D01*
Y60722D01*
X261490D01*
Y60782D01*
X261550D01*
Y60843D01*
X261611D01*
Y60903D01*
X261671D01*
Y60963D01*
X261791D01*
Y61023D01*
X261852D01*
Y61084D01*
X261972D01*
Y61144D01*
X262033D01*
Y61204D01*
X262093D01*
Y61264D01*
X262153D01*
Y61325D01*
X262274D01*
Y61385D01*
X262334D01*
Y61445D01*
X262394D01*
Y61505D01*
X262515D01*
Y61566D01*
X262575D01*
Y61626D01*
X262635D01*
Y61686D01*
X262515D01*
Y61626D01*
X262454D01*
Y61566D01*
X262334D01*
Y61505D01*
X262153D01*
Y61445D01*
X262093D01*
Y61385D01*
X261852D01*
Y61325D01*
X261731D01*
Y61264D01*
X261611D01*
Y61204D01*
X261430D01*
Y61144D01*
X261370D01*
Y61084D01*
X261189D01*
Y61023D01*
X261069D01*
Y60963D01*
X260948D01*
Y60903D01*
X260827D01*
Y60843D01*
X260707D01*
Y60782D01*
X260587D01*
Y60722D01*
X260466D01*
Y60662D01*
X260346D01*
Y60602D01*
X260165D01*
Y60541D01*
X260044D01*
Y60481D01*
X259924D01*
Y60421D01*
X259803D01*
Y60361D01*
X259683D01*
Y60300D01*
X259502D01*
Y60240D01*
X259381D01*
Y60180D01*
X259261D01*
Y60119D01*
X259140D01*
Y60059D01*
X258960D01*
Y59999D01*
X258779D01*
Y59939D01*
X258658D01*
Y59878D01*
X258478D01*
Y59818D01*
X258357D01*
Y59758D01*
X258176D01*
Y59698D01*
X257996D01*
Y59637D01*
X257815D01*
Y59577D01*
X257634D01*
Y59517D01*
X257453D01*
Y59457D01*
X257212D01*
Y59396D01*
X257032D01*
Y59336D01*
X256851D01*
Y59276D01*
X256610D01*
Y59216D01*
X256369D01*
Y59155D01*
X256188D01*
Y59095D01*
X255887D01*
Y59035D01*
X255586D01*
Y58975D01*
X254862D01*
Y59035D01*
X254742D01*
Y59095D01*
X254622D01*
Y59155D01*
X254561D01*
Y59216D01*
X254501D01*
Y59276D01*
X254441D01*
Y59396D01*
X254380D01*
Y59457D01*
X254320D01*
Y60119D01*
X254380D01*
Y60421D01*
X254139D01*
Y60361D01*
X253898D01*
Y60300D01*
X253657D01*
Y60240D01*
X253356D01*
Y60180D01*
X252754D01*
Y60119D01*
X252633D01*
Y60180D01*
X252332D01*
Y60240D01*
X252211D01*
Y60300D01*
X252091D01*
Y60361D01*
X252031D01*
Y60421D01*
X251970D01*
Y60481D01*
X251910D01*
Y60662D01*
X251850D01*
Y60782D01*
X251790D01*
Y61264D01*
X251609D01*
Y61204D01*
X251549D01*
Y61144D01*
X251428D01*
Y61084D01*
X251308D01*
Y61023D01*
X251247D01*
Y60963D01*
X251127D01*
Y60903D01*
X251067D01*
Y60843D01*
X250946D01*
Y60782D01*
X250826D01*
Y60722D01*
X250705D01*
Y60662D01*
X250585D01*
Y60602D01*
X250464D01*
Y60541D01*
X250343D01*
Y60481D01*
X250163D01*
Y60421D01*
X250042D01*
Y60361D01*
X249922D01*
Y60300D01*
X249741D01*
Y60240D01*
X249560D01*
Y60180D01*
X249379D01*
Y60119D01*
X249138D01*
Y60059D01*
X248837D01*
Y59999D01*
X248355D01*
Y60059D01*
X248054D01*
Y60119D01*
X247933D01*
Y60180D01*
X247813D01*
Y60240D01*
X247692D01*
Y60300D01*
X247632D01*
Y60421D01*
X247572D01*
Y60481D01*
X247512D01*
Y60602D01*
X247451D01*
Y60722D01*
X247391D01*
Y60843D01*
X247331D01*
Y60963D01*
X247271D01*
Y61144D01*
X247210D01*
Y61626D01*
X247150D01*
Y61746D01*
X247210D01*
Y62108D01*
X247271D01*
Y62349D01*
X247331D01*
Y62590D01*
X247391D01*
Y62831D01*
X247451D01*
Y63072D01*
X247512D01*
Y63132D01*
X247572D01*
Y63313D01*
X247632D01*
Y63433D01*
X247692D01*
Y63554D01*
X247753D01*
Y63674D01*
X247813D01*
Y63795D01*
X247873D01*
Y63915D01*
X247933D01*
Y64036D01*
X247994D01*
Y64157D01*
X248054D01*
Y64277D01*
X248114D01*
Y64398D01*
X248174D01*
Y64518D01*
X248235D01*
Y64578D01*
X248295D01*
Y64699D01*
X248355D01*
Y64940D01*
X248295D01*
Y64880D01*
X248174D01*
Y64819D01*
X248054D01*
Y64759D01*
X247994D01*
Y64699D01*
X247933D01*
Y64639D01*
X247873D01*
Y64578D01*
X247813D01*
Y64518D01*
X247692D01*
Y64458D01*
X247632D01*
Y64398D01*
X247572D01*
Y64337D01*
X247512D01*
Y64277D01*
X247391D01*
Y64217D01*
X247271D01*
Y64157D01*
X247210D01*
Y64096D01*
X247090D01*
Y64036D01*
X247030D01*
Y63976D01*
X246909D01*
Y63915D01*
X246789D01*
Y63855D01*
X246728D01*
Y63795D01*
X246608D01*
Y63735D01*
X246487D01*
Y63674D01*
X246367D01*
Y63614D01*
X246246D01*
Y63554D01*
X246126D01*
Y63494D01*
X246005D01*
Y63433D01*
X245825D01*
Y63373D01*
X245644D01*
Y63313D01*
X245463D01*
Y63253D01*
X245282D01*
Y63192D01*
X245041D01*
Y63132D01*
X244619D01*
Y63192D01*
X244439D01*
Y63253D01*
X244258D01*
Y63313D01*
X244138D01*
Y63373D01*
X244077D01*
Y63433D01*
X243957D01*
Y63494D01*
X243897D01*
Y63554D01*
X243836D01*
Y63674D01*
X243776D01*
Y63735D01*
X243716D01*
Y63855D01*
X243655D01*
Y63915D01*
X243595D01*
Y64036D01*
X243535D01*
Y64217D01*
X243475D01*
Y64458D01*
X243414D01*
Y64940D01*
X243354D01*
Y65121D01*
X243414D01*
Y65422D01*
X243475D01*
Y65663D01*
X243535D01*
Y65964D01*
X243595D01*
Y66205D01*
X243655D01*
Y66506D01*
X243716D01*
Y66687D01*
X243776D01*
Y66747D01*
X243836D01*
Y66928D01*
X243897D01*
Y67169D01*
X243957D01*
Y67290D01*
X244017D01*
Y67410D01*
X244077D01*
Y67591D01*
X244138D01*
Y67711D01*
X244198D01*
Y67892D01*
X244258D01*
Y68013D01*
X244318D01*
Y68133D01*
X244378D01*
Y68314D01*
X244439D01*
Y68434D01*
X244499D01*
Y68555D01*
X244559D01*
Y68675D01*
X244619D01*
Y68796D01*
X244680D01*
Y68977D01*
X244740D01*
Y69097D01*
X244800D01*
Y69218D01*
X244861D01*
Y69338D01*
X244921D01*
Y69398D01*
X244800D01*
Y69278D01*
X244680D01*
Y69218D01*
X244619D01*
Y69157D01*
X244559D01*
Y69097D01*
X244499D01*
Y69037D01*
X244439D01*
Y68977D01*
X244378D01*
Y68916D01*
X244318D01*
Y68856D01*
X244258D01*
Y68796D01*
X244198D01*
Y68675D01*
X244138D01*
Y68615D01*
X244077D01*
Y68555D01*
X244017D01*
Y68495D01*
X243957D01*
Y68434D01*
X243897D01*
Y68374D01*
X243836D01*
Y68254D01*
X243776D01*
Y68193D01*
X243716D01*
Y68073D01*
X243655D01*
Y68013D01*
X243595D01*
Y67952D01*
X243535D01*
Y67832D01*
X243475D01*
Y67772D01*
X243414D01*
Y67651D01*
X243354D01*
Y67591D01*
X243294D01*
Y67470D01*
X243234D01*
Y67410D01*
X243174D01*
Y67290D01*
X243113D01*
Y67229D01*
X243053D01*
Y67169D01*
X242993D01*
Y67049D01*
X242933D01*
Y66988D01*
X242872D01*
Y66868D01*
X242812D01*
Y66747D01*
X242752D01*
Y66687D01*
X242691D01*
Y66627D01*
X242631D01*
Y66506D01*
X242571D01*
Y66446D01*
X242511D01*
Y66326D01*
X242450D01*
Y66265D01*
X242390D01*
Y66145D01*
X242330D01*
Y66085D01*
X242270D01*
Y66024D01*
X242209D01*
Y65904D01*
X242149D01*
Y65843D01*
X242089D01*
Y65783D01*
X242029D01*
Y65663D01*
X241968D01*
Y65602D01*
X241908D01*
Y65482D01*
X241848D01*
Y65422D01*
X241788D01*
Y65361D01*
X241727D01*
Y65241D01*
X241667D01*
Y65181D01*
X241607D01*
Y65060D01*
X241547D01*
Y65000D01*
X241486D01*
Y64940D01*
X241426D01*
Y64819D01*
X241366D01*
Y64759D01*
X241306D01*
Y64699D01*
X241245D01*
Y64578D01*
X241185D01*
Y64518D01*
X241125D01*
Y64458D01*
X241065D01*
Y64398D01*
X241004D01*
Y64277D01*
X240944D01*
Y64217D01*
X240884D01*
Y64157D01*
X240824D01*
Y64036D01*
X240763D01*
Y63976D01*
X240703D01*
Y63915D01*
X240643D01*
Y63795D01*
X240583D01*
Y63735D01*
X240522D01*
Y63674D01*
X240462D01*
Y63614D01*
X240402D01*
Y63494D01*
X240342D01*
Y63433D01*
X240281D01*
Y63373D01*
X240221D01*
Y63313D01*
X240161D01*
Y63253D01*
X240101D01*
Y63132D01*
X240040D01*
Y63072D01*
X239980D01*
Y63012D01*
X239920D01*
Y62951D01*
X239860D01*
Y62831D01*
X239799D01*
Y62710D01*
X239739D01*
Y62650D01*
X239679D01*
Y62590D01*
X239619D01*
Y62530D01*
X239498D01*
Y62469D01*
X239317D01*
Y62530D01*
X239137D01*
Y62590D01*
X239076D01*
Y62650D01*
X239016D01*
Y62710D01*
X238956D01*
Y63132D01*
X239016D01*
Y63253D01*
X239076D01*
Y63433D01*
X239137D01*
Y63614D01*
X239197D01*
Y63674D01*
X239257D01*
Y63855D01*
X239317D01*
Y63915D01*
X239378D01*
Y64036D01*
X239438D01*
Y64157D01*
X239498D01*
Y64277D01*
X239558D01*
Y64337D01*
X239619D01*
Y64458D01*
X239679D01*
Y64578D01*
X239739D01*
Y64639D01*
X239799D01*
Y64759D01*
X239860D01*
Y64819D01*
X239920D01*
Y64880D01*
X239980D01*
Y65000D01*
X240040D01*
Y65060D01*
X240101D01*
Y65181D01*
X240161D01*
Y65241D01*
X240221D01*
Y65301D01*
X240281D01*
Y65361D01*
X240342D01*
Y65482D01*
X240402D01*
Y65542D01*
X240462D01*
Y65602D01*
X240522D01*
Y65723D01*
X240583D01*
Y65783D01*
X240643D01*
Y65843D01*
X240703D01*
Y65904D01*
X240763D01*
Y66024D01*
X240824D01*
Y66085D01*
X240884D01*
Y66145D01*
X240944D01*
Y66205D01*
X241004D01*
Y66326D01*
X241065D01*
Y66386D01*
X241125D01*
Y66446D01*
X241185D01*
Y66506D01*
X241245D01*
Y66567D01*
X241306D01*
Y66627D01*
X241366D01*
Y66747D01*
X241426D01*
Y66808D01*
X241486D01*
Y66868D01*
X241547D01*
Y66928D01*
X241607D01*
Y66988D01*
X241667D01*
Y67049D01*
X241727D01*
Y67169D01*
X241788D01*
Y67229D01*
X241848D01*
Y67290D01*
X241908D01*
Y67350D01*
X241968D01*
Y67410D01*
X242029D01*
Y67470D01*
X242089D01*
Y67591D01*
X242149D01*
Y67651D01*
X242209D01*
Y67711D01*
X242270D01*
Y67772D01*
X242330D01*
Y67832D01*
X242390D01*
Y67892D01*
X242450D01*
Y67952D01*
X242511D01*
Y68073D01*
X242571D01*
Y68133D01*
X242631D01*
Y68193D01*
X242691D01*
Y68254D01*
X242752D01*
Y68314D01*
X242812D01*
Y68374D01*
X242872D01*
Y68495D01*
X242933D01*
Y68555D01*
X242993D01*
Y68615D01*
X243053D01*
Y68675D01*
X243113D01*
Y68736D01*
X243174D01*
Y68796D01*
X243234D01*
Y68916D01*
X243354D01*
Y69037D01*
X243414D01*
Y69097D01*
X243475D01*
Y69157D01*
X243535D01*
Y69218D01*
X243595D01*
Y69278D01*
X243655D01*
Y69338D01*
X243716D01*
Y69398D01*
X243776D01*
Y69459D01*
X243836D01*
Y69519D01*
X243897D01*
Y69579D01*
X243957D01*
Y69700D01*
X244017D01*
Y69760D01*
X244077D01*
Y69820D01*
X244138D01*
Y69880D01*
X244198D01*
Y69941D01*
X244258D01*
Y70061D01*
X244318D01*
Y70122D01*
X244378D01*
Y70182D01*
X244439D01*
Y70242D01*
X244499D01*
Y70302D01*
X244559D01*
Y70363D01*
X244619D01*
Y70483D01*
X244680D01*
Y70543D01*
X244740D01*
Y70604D01*
X244800D01*
Y70664D01*
X244861D01*
Y70724D01*
X244921D01*
Y70784D01*
X244981D01*
Y70845D01*
X245041D01*
Y70905D01*
X245101D01*
Y71025D01*
X245162D01*
Y71086D01*
X245222D01*
Y71146D01*
X245282D01*
Y71206D01*
X245343D01*
Y71266D01*
X245403D01*
Y71327D01*
X245463D01*
Y71447D01*
X245523D01*
Y71507D01*
X245584D01*
Y71568D01*
X245644D01*
Y71628D01*
X245704D01*
Y71688D01*
X245764D01*
Y71748D01*
X245825D01*
Y71809D01*
X245885D01*
Y71869D01*
X245945D01*
Y71929D01*
X246005D01*
Y71989D01*
X246066D01*
Y72110D01*
X246126D01*
Y72170D01*
X246186D01*
Y72230D01*
X246246D01*
Y72291D01*
X246307D01*
Y72351D01*
X246367D01*
Y72471D01*
X246427D01*
Y72532D01*
X246487D01*
Y72592D01*
X246548D01*
Y72652D01*
X246608D01*
Y72712D01*
X246668D01*
Y72773D01*
X246728D01*
Y72833D01*
X246849D01*
Y72893D01*
X246909D01*
Y72953D01*
X246969D01*
Y73014D01*
X247030D01*
Y73074D01*
X247090D01*
Y73134D01*
X247150D01*
Y73194D01*
X247210D01*
Y73255D01*
X247271D01*
Y73315D01*
X247331D01*
Y73375D01*
X247391D01*
Y73496D01*
X247451D01*
Y73556D01*
X247512D01*
Y73676D01*
X247572D01*
Y73737D01*
X247632D01*
Y73797D01*
X247692D01*
Y73857D01*
X247753D01*
Y73917D01*
X247813D01*
Y73978D01*
X247873D01*
Y74098D01*
X247994D01*
Y74158D01*
X248174D01*
Y74098D01*
D02*
G37*
%LPC*%
G36*
X282820Y77593D02*
X282458D01*
Y77412D01*
X282398D01*
Y76267D01*
X282458D01*
Y76026D01*
X282519D01*
Y75906D01*
X282579D01*
Y75665D01*
X282639D01*
Y75544D01*
X282759D01*
Y75484D01*
X282820D01*
Y75363D01*
X282880D01*
Y75303D01*
X283061D01*
Y75183D01*
X283242D01*
Y75122D01*
X283302D01*
Y75062D01*
X283483D01*
Y75002D01*
X283663D01*
Y74942D01*
X283964D01*
Y74881D01*
X284567D01*
Y74821D01*
X284808D01*
Y74761D01*
X284989D01*
Y74821D01*
X285230D01*
Y74942D01*
X285109D01*
Y75002D01*
X285049D01*
Y75243D01*
X284929D01*
Y75303D01*
X284868D01*
Y75363D01*
X284808D01*
Y75604D01*
X284748D01*
Y75665D01*
X284627D01*
Y75785D01*
X284567D01*
Y75966D01*
X284447D01*
Y76026D01*
X284386D01*
Y76086D01*
X284326D01*
Y76207D01*
X284206D01*
Y76267D01*
X284145D01*
Y76388D01*
X284085D01*
Y76448D01*
X283964D01*
Y76508D01*
X283904D01*
Y76689D01*
X283723D01*
Y76749D01*
X283663D01*
Y76930D01*
X283483D01*
Y77051D01*
X283422D01*
Y77111D01*
X283302D01*
Y77171D01*
X283242D01*
Y77292D01*
X283121D01*
Y77352D01*
X283061D01*
Y77412D01*
X283000D01*
Y77472D01*
X282880D01*
Y77533D01*
X282820D01*
Y77593D01*
D02*
G37*
G36*
X284386Y61746D02*
X284025D01*
Y61686D01*
X283904D01*
Y61144D01*
X283964D01*
Y60300D01*
X284025D01*
Y60119D01*
X284085D01*
Y60059D01*
X284145D01*
Y59818D01*
X284206D01*
Y59758D01*
X284326D01*
Y59698D01*
X284386D01*
Y59637D01*
X284507D01*
Y59577D01*
X284627D01*
Y59517D01*
X284748D01*
Y59457D01*
X284989D01*
Y59396D01*
X285049D01*
Y59336D01*
X285109D01*
Y59396D01*
X285170D01*
Y59336D01*
X285350D01*
Y59276D01*
X285832D01*
Y59155D01*
X286013D01*
Y59035D01*
X286073D01*
Y58975D01*
X286134D01*
Y59035D01*
X286254D01*
Y58794D01*
X286314D01*
Y58734D01*
X286435D01*
Y58794D01*
X286977D01*
Y58854D01*
X287037D01*
Y58915D01*
X287098D01*
Y58975D01*
X287158D01*
Y59276D01*
X287218D01*
Y59336D01*
X287158D01*
Y59637D01*
X287098D01*
Y59698D01*
X287037D01*
Y59758D01*
X286977D01*
Y59939D01*
X286917D01*
Y59999D01*
X286736D01*
Y60119D01*
X286676D01*
Y60180D01*
X286555D01*
Y60240D01*
X286495D01*
Y60300D01*
X286375D01*
Y60361D01*
X286314D01*
Y60421D01*
X286134D01*
Y60481D01*
X286073D01*
Y60602D01*
X285893D01*
Y60722D01*
X285712D01*
Y60782D01*
X285652D01*
Y60843D01*
X285591D01*
Y60903D01*
X285471D01*
Y60963D01*
X285411D01*
Y61023D01*
X285230D01*
Y61144D01*
X285049D01*
Y61264D01*
X284989D01*
Y61325D01*
X284808D01*
Y61445D01*
X284748D01*
Y61505D01*
X284627D01*
Y61566D01*
X284567D01*
Y61686D01*
X284386D01*
Y61746D01*
D02*
G37*
G36*
X270950Y90065D02*
X270829D01*
Y89945D01*
X270769D01*
Y89824D01*
X270709D01*
Y89704D01*
X270649D01*
Y89523D01*
X270588D01*
Y89342D01*
X270528D01*
Y89222D01*
X270468D01*
Y89041D01*
X270408D01*
Y88800D01*
X270347D01*
Y88559D01*
X270287D01*
Y88318D01*
X270227D01*
Y88016D01*
X270167D01*
Y87655D01*
X270227D01*
Y87775D01*
X270287D01*
Y87956D01*
X270347D01*
Y88016D01*
X270408D01*
Y88257D01*
X270468D01*
Y88318D01*
X270528D01*
Y88559D01*
X270588D01*
Y88619D01*
Y88679D01*
X270649D01*
Y88981D01*
X270709D01*
Y89222D01*
X270769D01*
Y89463D01*
X270829D01*
Y89764D01*
X270890D01*
Y90005D01*
X270950D01*
Y90065D01*
D02*
G37*
G36*
X253296Y83980D02*
X253236D01*
Y83919D01*
X253296D01*
Y83980D01*
D02*
G37*
G36*
X248596Y87414D02*
X248476D01*
Y87354D01*
X248355D01*
Y87233D01*
X248295D01*
Y87173D01*
X248235D01*
Y87113D01*
X248174D01*
Y87053D01*
X248114D01*
Y86992D01*
X248054D01*
Y86932D01*
X247994D01*
Y86812D01*
X247933D01*
Y86751D01*
X247873D01*
Y86631D01*
X247813D01*
Y86571D01*
X247753D01*
Y86450D01*
X247692D01*
Y86329D01*
X247632D01*
Y86269D01*
X247572D01*
Y86149D01*
X247512D01*
Y86028D01*
X247451D01*
Y85908D01*
X247391D01*
Y85787D01*
X247331D01*
Y85606D01*
X247271D01*
Y85486D01*
X247210D01*
Y85305D01*
X247150D01*
Y85124D01*
X247090D01*
Y84944D01*
X247030D01*
Y84642D01*
X246969D01*
Y84040D01*
X246909D01*
Y83919D01*
X246969D01*
Y83377D01*
X247030D01*
Y83136D01*
X247090D01*
Y82955D01*
X247150D01*
Y82835D01*
X247210D01*
Y82775D01*
X247271D01*
Y82654D01*
X247391D01*
Y82775D01*
X247451D01*
Y82955D01*
X247512D01*
Y83076D01*
X247572D01*
Y83257D01*
X247632D01*
Y83377D01*
X247692D01*
Y83558D01*
X247753D01*
Y83739D01*
X247813D01*
Y83859D01*
X247873D01*
Y84040D01*
X247933D01*
Y84281D01*
X247994D01*
Y84401D01*
X248054D01*
Y84642D01*
X248114D01*
Y84763D01*
X248174D01*
Y85004D01*
X248235D01*
Y85245D01*
X248295D01*
Y85426D01*
X248355D01*
Y85606D01*
X248415D01*
Y85667D01*
Y85727D01*
Y85847D01*
X248476D01*
Y86149D01*
X248536D01*
Y86631D01*
X248596D01*
Y86992D01*
X248657D01*
Y87173D01*
X248596D01*
Y87293D01*
X248657D01*
Y87354D01*
X248596D01*
Y87414D01*
D02*
G37*
G36*
X259442Y83799D02*
X259381D01*
Y83739D01*
X259321D01*
Y83678D01*
X259261D01*
Y83558D01*
X259140D01*
Y83437D01*
X259080D01*
Y83377D01*
X259020D01*
Y83317D01*
X258960D01*
Y83257D01*
X258899D01*
Y83136D01*
X258839D01*
Y83076D01*
X258779D01*
Y82955D01*
X258719D01*
Y82835D01*
X258658D01*
Y82714D01*
X258598D01*
Y82534D01*
X258538D01*
Y82353D01*
X258478D01*
Y82232D01*
X258598D01*
Y82292D01*
X258719D01*
Y82353D01*
X258779D01*
Y82413D01*
X258839D01*
Y82473D01*
X258899D01*
Y82534D01*
X258960D01*
Y82654D01*
X259080D01*
Y82775D01*
X259140D01*
Y82835D01*
X259201D01*
Y82895D01*
X259261D01*
Y83016D01*
X259321D01*
Y83076D01*
X259381D01*
Y83136D01*
X259442D01*
Y83196D01*
X259502D01*
Y83377D01*
X259562D01*
Y83498D01*
X259502D01*
Y83739D01*
X259442D01*
Y83799D01*
D02*
G37*
G36*
X267335Y79882D02*
X267274D01*
Y79822D01*
Y79762D01*
X267335D01*
Y79882D01*
D02*
G37*
G36*
X267274Y79702D02*
X267214D01*
Y79581D01*
X267154D01*
Y79340D01*
X267094D01*
Y78979D01*
X267034D01*
Y78677D01*
X266973D01*
Y78195D01*
X266913D01*
Y77894D01*
X266973D01*
Y78015D01*
X267034D01*
Y78256D01*
X267094D01*
Y78436D01*
Y78497D01*
Y78557D01*
X267154D01*
Y78858D01*
X267214D01*
Y79280D01*
X267274D01*
Y79702D01*
D02*
G37*
G36*
X250163Y75604D02*
X250102D01*
Y75544D01*
X250042D01*
Y75484D01*
X249982D01*
Y75243D01*
X249922D01*
Y75122D01*
X249862D01*
Y74821D01*
X249801D01*
Y74701D01*
X249741D01*
Y74520D01*
X249681D01*
Y74279D01*
X249621D01*
Y74158D01*
X249560D01*
Y73917D01*
X249500D01*
Y73676D01*
X249440D01*
Y73496D01*
X249379D01*
Y73375D01*
X249319D01*
Y73074D01*
X249259D01*
Y72833D01*
X249199D01*
Y72351D01*
X249138D01*
Y72110D01*
X249078D01*
Y71989D01*
X249138D01*
Y71929D01*
X249078D01*
Y71387D01*
X249138D01*
Y71266D01*
X249199D01*
Y71206D01*
X249379D01*
Y71266D01*
X249440D01*
Y71327D01*
X249500D01*
Y71447D01*
X249560D01*
Y71507D01*
X249621D01*
Y71688D01*
X249681D01*
Y71809D01*
X249741D01*
Y71989D01*
X249801D01*
Y72110D01*
X249862D01*
Y72351D01*
X249922D01*
Y72592D01*
X249982D01*
Y72893D01*
X250042D01*
Y73134D01*
X250102D01*
Y73556D01*
X250163D01*
Y73616D01*
X250102D01*
Y73797D01*
X250163D01*
Y74158D01*
Y74219D01*
Y75604D01*
D02*
G37*
G36*
X261430Y64337D02*
X261249D01*
Y64277D01*
X261069D01*
Y64217D01*
X260888D01*
Y64157D01*
X260707D01*
Y64096D01*
X260587D01*
Y64036D01*
X260466D01*
Y63976D01*
X260346D01*
Y63915D01*
X260225D01*
Y63855D01*
X260104D01*
Y63795D01*
X259984D01*
Y63735D01*
X259863D01*
Y63674D01*
X259743D01*
Y63614D01*
X259622D01*
Y63554D01*
X259502D01*
Y63494D01*
X259381D01*
Y63433D01*
X259321D01*
Y63373D01*
X259201D01*
Y63313D01*
X259080D01*
Y63253D01*
X258960D01*
Y63192D01*
X258899D01*
Y63132D01*
X258779D01*
Y63072D01*
X258719D01*
Y63012D01*
X258598D01*
Y62951D01*
X258478D01*
Y62891D01*
X258417D01*
Y62831D01*
X258297D01*
Y62771D01*
X258237D01*
Y62710D01*
X258116D01*
Y62650D01*
X258056D01*
Y62590D01*
X257996D01*
Y62530D01*
X257875D01*
Y62469D01*
X257815D01*
Y62409D01*
X257755D01*
Y62349D01*
X257935D01*
Y62409D01*
X258056D01*
Y62469D01*
X258237D01*
Y62530D01*
X258357D01*
Y62590D01*
X258478D01*
Y62650D01*
X258598D01*
Y62710D01*
X258719D01*
Y62771D01*
X258839D01*
Y62831D01*
X258960D01*
Y62891D01*
X259020D01*
Y62951D01*
X259140D01*
Y63012D01*
X259261D01*
Y63072D01*
X259381D01*
Y63132D01*
X259502D01*
Y63192D01*
X259622D01*
Y63253D01*
X259743D01*
Y63313D01*
X259803D01*
Y63373D01*
X259924D01*
Y63433D01*
X260044D01*
Y63494D01*
X260165D01*
Y63554D01*
X260225D01*
Y63614D01*
X260346D01*
Y63674D01*
X260466D01*
Y63735D01*
X260526D01*
Y63795D01*
X260707D01*
Y63855D01*
X260767D01*
Y63915D01*
X260888D01*
Y63976D01*
X260948D01*
Y64036D01*
X261069D01*
Y64096D01*
X261129D01*
Y64157D01*
X261249D01*
Y64217D01*
X261310D01*
Y64277D01*
X261430D01*
Y64337D01*
D02*
G37*
G36*
X275469Y52709D02*
X275228D01*
Y52648D01*
X274927D01*
Y52588D01*
X274505D01*
Y52528D01*
X274204D01*
Y52467D01*
X273782D01*
Y52407D01*
X273420D01*
Y52347D01*
X273119D01*
Y52287D01*
X272697D01*
Y52226D01*
X272336D01*
Y52166D01*
X272035D01*
Y52106D01*
X271673D01*
Y52046D01*
X271432D01*
Y51985D01*
X271010D01*
Y51925D01*
X270649D01*
Y51865D01*
X270347D01*
Y51805D01*
X269986D01*
Y51744D01*
X269685D01*
Y51684D01*
X269323D01*
Y51624D01*
X268962D01*
Y51564D01*
X268660D01*
Y51503D01*
X268299D01*
Y51443D01*
X267998D01*
Y51383D01*
X267696D01*
Y51323D01*
X267335D01*
Y51262D01*
X267034D01*
Y51202D01*
X266672D01*
Y51142D01*
X266431D01*
Y51082D01*
X266130D01*
Y51021D01*
X265889D01*
Y50961D01*
X265527D01*
Y50901D01*
X265286D01*
Y50841D01*
X264985D01*
Y50780D01*
X264744D01*
Y50720D01*
X264503D01*
Y50660D01*
X264322D01*
Y50600D01*
X264081D01*
Y50539D01*
X263900D01*
Y50479D01*
X263780D01*
Y50419D01*
X263599D01*
Y50359D01*
X263418D01*
Y50298D01*
X263298D01*
Y50238D01*
X263177D01*
Y50178D01*
X263057D01*
Y50118D01*
X262936D01*
Y50057D01*
X262876D01*
Y49997D01*
X262756D01*
Y49937D01*
X262695D01*
Y49877D01*
X262575D01*
Y49816D01*
X262515D01*
Y49756D01*
X262454D01*
Y49696D01*
X262394D01*
Y49575D01*
X262334D01*
Y49515D01*
X262274D01*
Y49395D01*
X262213D01*
Y49274D01*
X262274D01*
Y49093D01*
X262394D01*
Y49033D01*
X262575D01*
Y48973D01*
X264141D01*
Y49033D01*
X264262D01*
Y48973D01*
X264382D01*
Y49033D01*
X264985D01*
Y49093D01*
X265587D01*
Y49154D01*
X265648D01*
Y49093D01*
X265768D01*
Y49154D01*
X266190D01*
Y49214D01*
X266491D01*
Y49274D01*
X266913D01*
Y49334D01*
X267274D01*
Y49395D01*
X267576D01*
Y49455D01*
X267877D01*
Y49515D01*
X268178D01*
Y49575D01*
X268359D01*
Y49636D01*
X268660D01*
Y49696D01*
X268901D01*
Y49756D01*
X269142D01*
Y49816D01*
X269323D01*
Y49877D01*
X269564D01*
Y49937D01*
X269805D01*
Y49997D01*
X269986D01*
Y50057D01*
X270227D01*
Y50118D01*
X270408D01*
Y50178D01*
X270649D01*
Y50238D01*
X270769D01*
Y50298D01*
X270950D01*
Y50359D01*
X271131D01*
Y50419D01*
X271311D01*
Y50479D01*
X271492D01*
Y50539D01*
X271613D01*
Y50600D01*
X271794D01*
Y50660D01*
X271914D01*
Y50720D01*
X272095D01*
Y50780D01*
X272215D01*
Y50841D01*
X272336D01*
Y50901D01*
X272516D01*
Y50961D01*
X272637D01*
Y51021D01*
X272818D01*
Y51082D01*
X272878D01*
Y51142D01*
X273059D01*
Y51202D01*
X273179D01*
Y51262D01*
X273300D01*
Y51323D01*
X273420D01*
Y51383D01*
X273541D01*
Y51443D01*
X273661D01*
Y51503D01*
X273842D01*
Y51564D01*
X273902D01*
Y51624D01*
X274023D01*
Y51684D01*
X274143D01*
Y51744D01*
X274204D01*
Y51805D01*
X274324D01*
Y51865D01*
X274445D01*
Y51925D01*
X274565D01*
Y51985D01*
X274625D01*
Y52046D01*
X274746D01*
Y52106D01*
X274866D01*
Y52166D01*
X274927D01*
Y52226D01*
X274987D01*
Y52287D01*
X275107D01*
Y52347D01*
X275168D01*
Y52407D01*
X275288D01*
Y52467D01*
X275348D01*
Y52528D01*
X275409D01*
Y52588D01*
X275469D01*
Y52709D01*
D02*
G37*
%LPD*%
D10*
X36409Y42742D02*
G03*
X19324Y42435I-8765J12173D01*
G01*
X137235Y85673D02*
G03*
X154321Y85981I8765J-12173D01*
G01*
X22117Y54416D02*
X23172D01*
X32117D02*
X33172D01*
X19645Y42415D02*
X36141D01*
X137504Y86000D02*
X154000D01*
X140472Y74000D02*
X141528D01*
X150472D02*
X151528D01*
X244976Y115654D02*
X287024D01*
X244976D02*
Y118154D01*
Y99138D02*
Y115654D01*
Y99138D02*
X287024D01*
Y115654D01*
Y118154D01*
X244976D02*
X287024D01*
D11*
X243694Y108390D02*
G03*
X243694Y108390I-394J0D01*
G01*
X4498Y149500D02*
X14498D01*
Y109500D02*
Y149500D01*
X4498Y109500D02*
Y149500D01*
Y109500D02*
X14498D01*
X217000Y39000D02*
X221000D01*
X245000D02*
X249000D01*
X221000Y43000D02*
X245000D01*
X221000Y35000D02*
Y43000D01*
Y35000D02*
X245000D01*
Y43000D01*
X331000Y26000D02*
X339000D01*
X331000D02*
Y50000D01*
X339000D01*
Y26000D02*
Y50000D01*
X335000Y22000D02*
Y26000D01*
Y50000D02*
Y54000D01*
X194500Y29000D02*
X202500D01*
X194500D02*
Y53000D01*
X202500D01*
Y29000D02*
Y53000D01*
X198500Y25000D02*
Y29000D01*
Y53000D02*
Y57000D01*
X115000Y36500D02*
X123000D01*
X115000D02*
Y60500D01*
X123000D01*
Y36500D02*
Y60500D01*
X119000Y32500D02*
Y36500D01*
Y60500D02*
Y64500D01*
X296000Y18500D02*
X304000D01*
X296000D02*
Y42500D01*
X304000D01*
Y18500D02*
Y42500D01*
X300000Y14500D02*
Y18500D01*
Y42500D02*
Y46500D01*
X69500Y178500D02*
Y186500D01*
X45500Y178500D02*
X69500D01*
X45500D02*
Y186500D01*
X69500D01*
Y182500D02*
X73500D01*
X41500D02*
X45500D01*
X165000Y23500D02*
Y33500D01*
X145000Y23500D02*
X165000D01*
X145000D02*
Y33500D01*
X165000D01*
X116303Y165421D02*
X121815Y167095D01*
X116303Y165421D02*
X116795Y163650D01*
X121815Y165126D01*
X116303Y180579D02*
X121815Y178905D01*
X116303Y180579D02*
X116795Y182350D01*
X121815Y180874D01*
X161185Y178905D02*
X166697Y180579D01*
X166205Y182350D02*
X166697Y180579D01*
X161185Y180874D02*
X166205Y182350D01*
X161185Y167095D02*
X166697Y165421D01*
X166205Y163650D02*
X166697Y165421D01*
X161185Y165126D02*
X166205Y163650D01*
X161185Y161189D02*
Y184811D01*
X121815D02*
X161185D01*
X121815Y161189D02*
Y184811D01*
Y161189D02*
X161185D01*
X32000Y174000D02*
X42000D01*
Y154000D02*
Y174000D01*
X32000Y154000D02*
X42000D01*
X32000D02*
Y174000D01*
X72500Y154000D02*
Y174000D01*
Y154000D02*
X82500D01*
Y174000D01*
X72500D02*
X82500D01*
X138500Y132000D02*
Y136000D01*
Y104000D02*
Y108000D01*
X142500D02*
Y132000D01*
X134500D02*
X142500D01*
X134500Y108000D02*
Y132000D01*
Y108000D02*
X142500D01*
X310000Y185000D02*
Y195000D01*
X350000D01*
X310000Y185000D02*
X350000D01*
Y195000D01*
X118000Y104000D02*
Y108000D01*
Y132000D02*
Y136000D01*
X114000Y108000D02*
Y132000D01*
Y108000D02*
X122000D01*
Y132000D01*
X114000D02*
X122000D01*
X159500Y134500D02*
X179500D01*
Y144500D01*
X159500D02*
X179500D01*
X159500Y134500D02*
Y144500D01*
X115910Y178905D02*
Y174970D01*
X117878Y176938D01*
X115254D01*
X167780Y175626D02*
X167124Y174970D01*
X165812D01*
X165156Y175626D01*
Y176282D01*
X165812Y176938D01*
X166468D01*
X165812D01*
X165156Y177594D01*
Y178250D01*
X165812Y178905D01*
X167124D01*
X167780Y178250D01*
X115254Y171031D02*
X117878D01*
X115254Y168408D01*
Y167752D01*
X115910Y167096D01*
X117222D01*
X117878Y167752D01*
X167091Y171031D02*
X165779D01*
X166435D01*
Y167096D01*
X167091Y167752D01*
D12*
X100500Y22000D02*
Y138000D01*
X56500D02*
X100500D01*
X56500Y22000D02*
Y138000D01*
Y22000D02*
X100500D01*
X107000Y86999D02*
Y83000D01*
X108999D01*
X109666Y83666D01*
Y86332D01*
X108999Y86999D01*
X107000D01*
X110999Y85666D02*
Y83000D01*
Y84333D01*
X111665Y84999D01*
X112332Y85666D01*
X112998D01*
X114997Y83000D02*
X116330D01*
X115664D01*
Y85666D01*
X114997D01*
X118330D02*
X119663Y83000D01*
X120995Y85666D01*
X124328Y83000D02*
X122995D01*
X122328Y83666D01*
Y84999D01*
X122995Y85666D01*
X124328D01*
X124994Y84999D01*
Y84333D01*
X122328D01*
X126327Y85666D02*
Y83000D01*
Y84333D01*
X126994Y84999D01*
X127660Y85666D01*
X128326D01*
X259999Y142332D02*
X258666D01*
X258000Y141665D01*
Y138999D01*
X258666Y138333D01*
X259999D01*
X260666Y138999D01*
Y141665D01*
X259999Y142332D01*
X261999Y140999D02*
Y138999D01*
X262665Y138333D01*
X264665D01*
Y140999D01*
X266664Y141665D02*
Y140999D01*
X265997D01*
X267330D01*
X266664D01*
Y138999D01*
X267330Y138333D01*
X269330Y137000D02*
Y140999D01*
X271329D01*
X271995Y140332D01*
Y138999D01*
X271329Y138333D01*
X269330D01*
X273328Y140999D02*
Y138999D01*
X273995Y138333D01*
X275994D01*
Y140999D01*
X277994Y141665D02*
Y140999D01*
X277327D01*
X278660D01*
X277994D01*
Y138999D01*
X278660Y138333D01*
X18666Y85999D02*
X16000D01*
Y82000D01*
X18666D01*
X16000Y83999D02*
X17333D01*
X19999Y82000D02*
Y84666D01*
X21998D01*
X22664Y83999D01*
Y82000D01*
X24664Y84666D02*
X25997D01*
X26663Y83999D01*
Y82000D01*
X24664D01*
X23997Y82666D01*
X24664Y83333D01*
X26663D01*
X27996Y85999D02*
Y82000D01*
X29996D01*
X30662Y82666D01*
Y83333D01*
Y83999D01*
X29996Y84666D01*
X27996D01*
X31995Y82000D02*
X33328D01*
X32661D01*
Y85999D01*
X31995D01*
X37326Y82000D02*
X35993D01*
X35327Y82666D01*
Y83999D01*
X35993Y84666D01*
X37326D01*
X37993Y83999D01*
Y83333D01*
X35327D01*
X50166Y167499D02*
X47500D01*
Y165499D01*
X48833D01*
X47500D01*
Y163500D01*
X51499D02*
X52832D01*
X52165D01*
Y166166D01*
X51499D01*
X54831Y163500D02*
X56164D01*
X55497D01*
Y167499D01*
X54831D01*
X58830Y166832D02*
Y166166D01*
X58163D01*
X59496D01*
X58830D01*
Y164166D01*
X59496Y163500D01*
X63495D02*
X62162D01*
X61496Y164166D01*
Y165499D01*
X62162Y166166D01*
X63495D01*
X64161Y165499D01*
Y164833D01*
X61496D01*
X65494Y166166D02*
Y163500D01*
Y164833D01*
X66161Y165499D01*
X66827Y166166D01*
X67494D01*
X236999Y158000D02*
X233000D01*
X236999Y161999D01*
Y162998D01*
X235999Y163998D01*
X234000D01*
X233000Y162998D01*
X238998D02*
X239998Y163998D01*
X241997D01*
X242997Y162998D01*
Y159000D01*
X241997Y158000D01*
X239998D01*
X238998Y159000D01*
Y162998D01*
X248995Y158000D02*
X244996D01*
X248995Y161999D01*
Y162998D01*
X247995Y163998D01*
X245996D01*
X244996Y162998D01*
X254993Y158000D02*
X250994D01*
X254993Y161999D01*
Y162998D01*
X253993Y163998D01*
X251994D01*
X250994Y162998D01*
X256992Y160999D02*
X260991D01*
X262990Y162998D02*
X263990Y163998D01*
X265989D01*
X266989Y162998D01*
Y159000D01*
X265989Y158000D01*
X263990D01*
X262990Y159000D01*
Y162998D01*
X268988D02*
X269988Y163998D01*
X271987D01*
X272987Y162998D01*
Y161999D01*
X271987Y160999D01*
X270988D01*
X271987D01*
X272987Y159999D01*
Y159000D01*
X271987Y158000D01*
X269988D01*
X268988Y159000D01*
X274986Y160999D02*
X278985D01*
X284983Y158000D02*
X280984D01*
X284983Y161999D01*
Y162998D01*
X283983Y163998D01*
X281984D01*
X280984Y162998D01*
X286982D02*
X287982Y163998D01*
X289982D01*
X290981Y162998D01*
Y159000D01*
X289982Y158000D01*
X287982D01*
X286982Y159000D01*
Y162998D01*
X48999Y12997D02*
X45000D01*
Y6999D01*
X48999D01*
X45000Y9998D02*
X46999D01*
X54997Y11998D02*
X53997Y12997D01*
X51998D01*
X50998Y11998D01*
Y7999D01*
X51998Y6999D01*
X53997D01*
X54997Y7999D01*
X60995Y12997D02*
X56996D01*
Y6999D01*
X60995D01*
X56996Y9998D02*
X58995D01*
X66993Y6999D02*
X62994D01*
X66993Y10998D01*
Y11998D01*
X65993Y12997D01*
X63994D01*
X62994Y11998D01*
X68992Y7999D02*
X69992Y6999D01*
X71991D01*
X72991Y7999D01*
Y11998D01*
X71991Y12997D01*
X69992D01*
X68992Y11998D01*
Y10998D01*
X69992Y9998D01*
X72991D01*
X78989Y12997D02*
X74990D01*
Y9998D01*
X76990Y10998D01*
X77989D01*
X78989Y9998D01*
Y7999D01*
X77989Y6999D01*
X75990D01*
X74990Y7999D01*
X86986Y12997D02*
X90985D01*
X88986D01*
Y6999D01*
X95983D02*
X93984D01*
X92984Y7999D01*
Y9998D01*
X93984Y10998D01*
X95983D01*
X96983Y9998D01*
Y8999D01*
X92984D01*
X99982Y10998D02*
X101982D01*
X102981Y9998D01*
Y6999D01*
X99982D01*
X98983Y7999D01*
X99982Y8999D01*
X102981D01*
X104981Y6999D02*
Y10998D01*
X105980D01*
X106980Y9998D01*
Y6999D01*
Y9998D01*
X107980Y10998D01*
X108979Y9998D01*
Y6999D01*
X116977Y11998D02*
X117976Y12997D01*
X119976D01*
X120975Y11998D01*
Y10998D01*
X119976Y9998D01*
X118976D01*
X119976D01*
X120975Y8999D01*
Y7999D01*
X119976Y6999D01*
X117976D01*
X116977Y7999D01*
X122975Y11998D02*
X123975Y12997D01*
X125974D01*
X126973Y11998D01*
Y7999D01*
X125974Y6999D01*
X123975D01*
X122975Y7999D01*
Y11998D01*
X128973Y10998D02*
X129973D01*
Y9998D01*
X128973D01*
Y10998D01*
Y7999D02*
X129973D01*
Y6999D01*
X128973D01*
Y7999D01*
X139969Y6999D02*
Y12997D01*
X142968D01*
X143968Y11998D01*
Y9998D01*
X142968Y8999D01*
X139969D01*
X146967Y6999D02*
X148966D01*
X149966Y7999D01*
Y9998D01*
X148966Y10998D01*
X146967D01*
X145967Y9998D01*
Y7999D01*
X146967Y6999D01*
X151965Y10998D02*
Y7999D01*
X152965Y6999D01*
X153965Y7999D01*
X154964Y6999D01*
X155964Y7999D01*
Y10998D01*
X160962Y6999D02*
X158963D01*
X157964Y7999D01*
Y9998D01*
X158963Y10998D01*
X160962D01*
X161962Y9998D01*
Y8999D01*
X157964D01*
X163962Y10998D02*
Y6999D01*
Y8999D01*
X164961Y9998D01*
X165961Y10998D01*
X166961D01*
X175958Y6999D02*
Y10998D01*
X177957Y12997D01*
X179956Y10998D01*
Y6999D01*
Y9998D01*
X175958D01*
X181956Y6999D02*
Y10998D01*
X182955D01*
X183955Y9998D01*
Y6999D01*
Y9998D01*
X184955Y10998D01*
X185954Y9998D01*
Y6999D01*
X187954Y5000D02*
Y10998D01*
X190953D01*
X191953Y9998D01*
Y7999D01*
X190953Y6999D01*
X187954D01*
X193952D02*
X195951D01*
X194951D01*
Y12997D01*
X193952D01*
X198950Y6999D02*
X200950D01*
X199950D01*
Y10998D01*
X198950D01*
X204948Y6999D02*
Y11998D01*
Y9998D01*
X203949D01*
X205948D01*
X204948D01*
Y11998D01*
X205948Y12997D01*
X208947Y6999D02*
X210946D01*
X209947D01*
Y10998D01*
X208947D01*
X216944Y6999D02*
X214945D01*
X213945Y7999D01*
Y9998D01*
X214945Y10998D01*
X216944D01*
X217944Y9998D01*
Y8999D01*
X213945D01*
X219943Y10998D02*
Y6999D01*
Y8999D01*
X220943Y9998D01*
X221943Y10998D01*
X222942D01*
X232939D02*
X234939D01*
X235938Y9998D01*
Y6999D01*
X232939D01*
X231940Y7999D01*
X232939Y8999D01*
X235938D01*
X237938Y6999D02*
Y10998D01*
X240937D01*
X241936Y9998D01*
Y6999D01*
X247934Y12997D02*
Y6999D01*
X244935D01*
X243936Y7999D01*
Y9998D01*
X244935Y10998D01*
X247934D01*
X259930Y12997D02*
X255932D01*
Y9998D01*
X257931D01*
X255932D01*
Y6999D01*
X261930D02*
X263929D01*
X262930D01*
Y10998D01*
X261930D01*
X266928Y6999D02*
X268928D01*
X267928D01*
Y12997D01*
X266928D01*
X272926Y11998D02*
Y10998D01*
X271927D01*
X273926D01*
X272926D01*
Y7999D01*
X273926Y6999D01*
X279924D02*
X277925D01*
X276925Y7999D01*
Y9998D01*
X277925Y10998D01*
X279924D01*
X280924Y9998D01*
Y8999D01*
X276925D01*
X282923Y10998D02*
Y6999D01*
Y8999D01*
X283923Y9998D01*
X284922Y10998D01*
X285922D01*
X226502Y48001D02*
Y53999D01*
X229501D01*
X230500Y52999D01*
Y51000D01*
X229501Y50000D01*
X226502D01*
X228501D02*
X230500Y48001D01*
X236498Y53999D02*
X234499Y52999D01*
X232500Y51000D01*
Y49001D01*
X233499Y48001D01*
X235499D01*
X236498Y49001D01*
Y50000D01*
X235499Y51000D01*
X232500D01*
X331600Y64200D02*
Y70198D01*
X334599D01*
X335599Y69198D01*
Y67199D01*
X334599Y66199D01*
X331600D01*
X333599D02*
X335599Y64200D01*
X337598D02*
X339597D01*
X338598D01*
Y70198D01*
X337598Y69198D01*
X57000Y141500D02*
Y147498D01*
Y143499D02*
X59999Y145499D01*
X57000Y143499D02*
X59999Y141500D01*
X62998D02*
X64997D01*
X63998D01*
Y147498D01*
X62998Y146498D01*
X264999Y127499D02*
X264000Y128499D01*
X262000D01*
X261001Y127499D01*
Y123501D01*
X262000Y122501D01*
X264000D01*
X264999Y123501D01*
X135100Y146200D02*
Y152198D01*
X138099D01*
X139099Y151198D01*
Y149199D01*
X138099Y148199D01*
X135100D01*
X137099D02*
X139099Y146200D01*
X141098Y151198D02*
X142098Y152198D01*
X144097D01*
X145097Y151198D01*
Y150199D01*
X144097Y149199D01*
X143097D01*
X144097D01*
X145097Y148199D01*
Y147200D01*
X144097Y146200D01*
X142098D01*
X141098Y147200D01*
X22146Y39415D02*
X26145D01*
X24146D01*
Y33417D01*
X32143D02*
X28144D01*
X32143Y37415D01*
Y38415D01*
X31143Y39415D01*
X29144D01*
X28144Y38415D01*
X114600Y146200D02*
Y152198D01*
X117599D01*
X118599Y151198D01*
Y149199D01*
X117599Y148199D01*
X114600D01*
X116599D02*
X118599Y146200D01*
X124597D02*
X120598D01*
X124597Y150199D01*
Y151198D01*
X123597Y152198D01*
X121598D01*
X120598Y151198D01*
X141002Y94999D02*
X145000D01*
X143001D01*
Y89001D01*
X147000Y93999D02*
X147999Y94999D01*
X149999D01*
X150998Y93999D01*
Y93000D01*
X149999Y92000D01*
X148999D01*
X149999D01*
X150998Y91000D01*
Y90001D01*
X149999Y89001D01*
X147999D01*
X147000Y90001D01*
X136001Y195999D02*
X140000D01*
X138001D01*
Y190001D01*
X141999D02*
X143999D01*
X142999D01*
Y195999D01*
X141999Y194999D01*
X124502Y47001D02*
Y52999D01*
X127501D01*
X128500Y51999D01*
Y50000D01*
X127501Y49000D01*
X124502D01*
X126501D02*
X128500Y47001D01*
X133499D02*
Y52999D01*
X130500Y50000D01*
X134498D01*
X181002Y37501D02*
Y43499D01*
X184001D01*
X185000Y42499D01*
Y40500D01*
X184001Y39500D01*
X181002D01*
X183001D02*
X185000Y37501D01*
X190998Y43499D02*
X187000D01*
Y40500D01*
X188999Y41500D01*
X189999D01*
X190998Y40500D01*
Y38501D01*
X189999Y37501D01*
X187999D01*
X187000Y38501D01*
X306502Y31001D02*
Y36999D01*
X309501D01*
X310500Y35999D01*
Y34000D01*
X309501Y33000D01*
X306502D01*
X308501D02*
X310500Y31001D01*
X312500Y36999D02*
X316498D01*
Y35999D01*
X312500Y32001D01*
Y31001D01*
X294501Y193999D02*
X292502D01*
X293501D01*
Y189001D01*
X292502Y188001D01*
X291502D01*
X290502Y189001D01*
X296500Y188001D02*
X298500D01*
X297500D01*
Y193999D01*
X296500Y192999D01*
X301499Y193999D02*
X305498D01*
Y192999D01*
X301499Y189001D01*
Y188001D01*
X7001Y104999D02*
X5002D01*
X6002D01*
Y100001D01*
X5002Y99001D01*
X4002D01*
X3002Y100001D01*
X9001Y99001D02*
X11000D01*
X10000D01*
Y104999D01*
X9001Y103999D01*
X13999D02*
X14999Y104999D01*
X16998D01*
X17998Y103999D01*
Y103000D01*
X16998Y102000D01*
X17998Y101000D01*
Y100001D01*
X16998Y99001D01*
X14999D01*
X13999Y100001D01*
Y101000D01*
X14999Y102000D01*
X13999Y103000D01*
Y103999D01*
X14999Y102000D02*
X16998D01*
X52001Y196499D02*
Y190501D01*
X56000D01*
X57999D02*
X59999D01*
X58999D01*
Y196499D01*
X57999Y195499D01*
X164099Y152898D02*
X163099Y153898D01*
X161100D01*
X160100Y152898D01*
Y148900D01*
X161100Y147900D01*
X163099D01*
X164099Y148900D01*
X166098Y147900D02*
X168097D01*
X167098D01*
Y153898D01*
X166098Y152898D01*
X154500Y40999D02*
X153501Y41999D01*
X151501D01*
X150502Y40999D01*
Y37001D01*
X151501Y36001D01*
X153501D01*
X154500Y37001D01*
X160498Y36001D02*
X156500D01*
X160498Y40000D01*
Y40999D01*
X159499Y41999D01*
X157499D01*
X156500Y40999D01*
X20500Y166499D02*
X19501Y167499D01*
X17501D01*
X16502Y166499D01*
Y162501D01*
X17501Y161501D01*
X19501D01*
X20500Y162501D01*
X25499Y161501D02*
Y167499D01*
X22500Y164500D01*
X26498D01*
X90500Y165499D02*
X89501Y166499D01*
X87501D01*
X86502Y165499D01*
Y161501D01*
X87501Y160501D01*
X89501D01*
X90500Y161501D01*
X92500Y165499D02*
X93499Y166499D01*
X95499D01*
X96498Y165499D01*
Y164500D01*
X95499Y163500D01*
X94499D01*
X95499D01*
X96498Y162500D01*
Y161501D01*
X95499Y160501D01*
X93499D01*
X92500Y161501D01*
M02*
