G04*
G04 #@! TF.GenerationSoftware,Altium Limited,Altium Designer,21.6.4 (81)*
G04*
G04 Layer_Color=16711935*
%FSLAX25Y25*%
%MOIN*%
G70*
G04*
G04 #@! TF.SameCoordinates,2300CAAD-5815-40F2-B5FC-BA94866832FB*
G04*
G04*
G04 #@! TF.FilePolarity,Negative*
G04*
G01*
G75*
%ADD13C,0.06706*%
%ADD14R,0.06706X0.06706*%
%ADD15C,0.06312*%
%ADD16O,0.06000X0.11200*%
%ADD17C,0.05524*%
%ADD18C,0.08713*%
%ADD19R,0.08713X0.08713*%
%ADD20C,0.06800*%
%ADD21C,0.08674*%
%ADD22R,0.06706X0.06706*%
D13*
X9498Y134500D02*
D03*
Y114500D02*
D03*
Y124500D02*
D03*
X325000Y190000D02*
D03*
X315000D02*
D03*
X335000D02*
D03*
D14*
X9498Y144500D02*
D03*
D15*
X213000Y39000D02*
D03*
X253000D02*
D03*
X335000Y18000D02*
D03*
Y58000D02*
D03*
X198500Y21000D02*
D03*
Y61000D02*
D03*
X119000Y28500D02*
D03*
Y68500D02*
D03*
X300000Y50500D02*
D03*
Y10500D02*
D03*
X37500Y182500D02*
D03*
X77500D02*
D03*
X138500Y140000D02*
D03*
Y100000D02*
D03*
X118000D02*
D03*
Y140000D02*
D03*
D16*
X17645Y54915D02*
D03*
X37645D02*
D03*
X27645D02*
D03*
X146000Y73500D02*
D03*
X136000D02*
D03*
X156000D02*
D03*
D17*
X150000Y28500D02*
D03*
X160000D02*
D03*
X37000Y169000D02*
D03*
Y159000D02*
D03*
X77500Y169000D02*
D03*
Y159000D02*
D03*
X174500Y139500D02*
D03*
X164500D02*
D03*
D18*
X276000Y106500D02*
D03*
X266000D02*
D03*
D19*
X256000D02*
D03*
D20*
X63500Y131500D02*
D03*
X93500Y36500D02*
D03*
Y111500D02*
D03*
X63500Y36500D02*
D03*
D21*
X171028Y182843D02*
D03*
X111972D02*
D03*
Y163157D02*
D03*
X171028D02*
D03*
D22*
X345000Y190000D02*
D03*
M02*
