G04*
G04 #@! TF.GenerationSoftware,Altium Limited,Altium Designer,21.6.4 (81)*
G04*
G04 Layer_Color=255*
%FSLAX25Y25*%
%MOIN*%
G70*
G04*
G04 #@! TF.SameCoordinates,2300CAAD-5815-40F2-B5FC-BA94866832FB*
G04*
G04*
G04 #@! TF.FilePolarity,Positive*
G04*
G01*
G75*
%ADD27C,0.05906*%
%ADD28R,0.05906X0.05906*%
%ADD29C,0.05512*%
%ADD30O,0.05200X0.10400*%
%ADD31C,0.04724*%
%ADD32C,0.07913*%
%ADD33R,0.07913X0.07913*%
%ADD34C,0.06000*%
%ADD35C,0.07874*%
%ADD36R,0.05906X0.05906*%
D27*
X9498Y134500D02*
D03*
Y114500D02*
D03*
Y124500D02*
D03*
X325000Y190000D02*
D03*
X315000D02*
D03*
X335000D02*
D03*
D28*
X9498Y144500D02*
D03*
D29*
X213000Y39000D02*
D03*
X253000D02*
D03*
X335000Y18000D02*
D03*
Y58000D02*
D03*
X198500Y21000D02*
D03*
Y61000D02*
D03*
X119000Y28500D02*
D03*
Y68500D02*
D03*
X300000Y50500D02*
D03*
Y10500D02*
D03*
X37500Y182500D02*
D03*
X77500D02*
D03*
X138500Y140000D02*
D03*
Y100000D02*
D03*
X118000D02*
D03*
Y140000D02*
D03*
D30*
X17645Y54915D02*
D03*
X37645D02*
D03*
X27645D02*
D03*
X146000Y73500D02*
D03*
X136000D02*
D03*
X156000D02*
D03*
D31*
X150000Y28500D02*
D03*
X160000D02*
D03*
X37000Y169000D02*
D03*
Y159000D02*
D03*
X77500Y169000D02*
D03*
Y159000D02*
D03*
X174500Y139500D02*
D03*
X164500D02*
D03*
D32*
X276000Y106500D02*
D03*
X266000D02*
D03*
D33*
X256000D02*
D03*
D34*
X63500Y131500D02*
D03*
X93500Y36500D02*
D03*
Y111500D02*
D03*
X63500Y36500D02*
D03*
D35*
X171028Y182843D02*
D03*
X111972D02*
D03*
Y163157D02*
D03*
X171028D02*
D03*
D36*
X345000Y190000D02*
D03*
M02*
