G04*
G04 #@! TF.GenerationSoftware,Altium Limited,Altium Designer,21.6.4 (81)*
G04*
G04 Layer_Color=65535*
%FSLAX25Y25*%
%MOIN*%
G70*
G04*
G04 #@! TF.SameCoordinates,5C3FC4FD-EDC0-4224-B471-B9A6CD0CAB0C*
G04*
G04*
G04 #@! TF.FilePolarity,Positive*
G04*
G01*
G75*
%ADD10C,0.00500*%
%ADD11C,0.00787*%
%ADD12C,0.01000*%
G36*
X290861Y99343D02*
X290930D01*
Y99274D01*
X291137D01*
Y99067D01*
X291068D01*
Y98860D01*
X290999D01*
Y98791D01*
X290930D01*
Y98722D01*
X290792D01*
Y98653D01*
X290723D01*
Y98584D01*
X290654D01*
Y98377D01*
X290516D01*
Y98308D01*
X290447D01*
Y98239D01*
X290378D01*
Y98170D01*
X290309D01*
Y98101D01*
X290171D01*
Y97894D01*
X290102D01*
Y97825D01*
X290033D01*
Y97756D01*
X289964D01*
Y97687D01*
X289895D01*
Y97411D01*
X289826D01*
Y97273D01*
X289757D01*
Y96997D01*
X289688D01*
Y96928D01*
X289619D01*
Y96790D01*
X289550D01*
Y96514D01*
X289481D01*
Y96445D01*
X289412D01*
Y96238D01*
X289343D01*
Y95962D01*
X289274D01*
Y95755D01*
X289205D01*
Y95548D01*
X289136D01*
Y95341D01*
X289205D01*
Y94720D01*
X289274D01*
Y94444D01*
X289343D01*
Y94306D01*
X289412D01*
Y94168D01*
X289481D01*
Y93961D01*
X289550D01*
Y93616D01*
X289619D01*
Y93478D01*
X289688D01*
Y93340D01*
X289757D01*
Y93271D01*
X289826D01*
Y93064D01*
X289895D01*
Y92926D01*
X289964D01*
Y92788D01*
X290102D01*
Y92719D01*
X290171D01*
Y92581D01*
X290240D01*
Y92443D01*
X290378D01*
Y92374D01*
X290447D01*
Y92236D01*
X290516D01*
Y92167D01*
X290654D01*
Y92098D01*
X290723D01*
Y92029D01*
X290792D01*
Y91960D01*
X290861D01*
Y91891D01*
X290930D01*
Y91822D01*
X290999D01*
Y91753D01*
X291137D01*
Y91684D01*
X291206D01*
Y91615D01*
X291275D01*
Y91546D01*
X291344D01*
Y91615D01*
X291413D01*
Y91477D01*
X291620D01*
Y91408D01*
X291689D01*
Y91339D01*
X291758D01*
Y91270D01*
X291827D01*
Y91339D01*
X291896D01*
Y91270D01*
X292241D01*
Y91201D01*
X292379D01*
Y91132D01*
X292517D01*
Y91201D01*
X292724D01*
Y91132D01*
X292931D01*
Y91063D01*
X293276D01*
Y90994D01*
X293483D01*
Y90925D01*
X293897D01*
Y90856D01*
X294104D01*
Y90787D01*
X294380D01*
Y90718D01*
X294587D01*
Y90649D01*
X294725D01*
Y90580D01*
X294794D01*
Y90511D01*
X294863D01*
Y90442D01*
X294932D01*
Y90097D01*
X294863D01*
Y90028D01*
X294794D01*
Y89959D01*
X294725D01*
Y89890D01*
X294656D01*
Y89821D01*
X294518D01*
Y89752D01*
X294173D01*
Y89821D01*
X293690D01*
Y89890D01*
X293621D01*
Y89821D01*
X293552D01*
Y89890D01*
X293414D01*
Y89959D01*
X293069D01*
Y90028D01*
X292724D01*
Y90097D01*
X292655D01*
Y90028D01*
X292517D01*
Y90097D01*
X292448D01*
Y90166D01*
X292379D01*
Y90097D01*
X292310D01*
Y89959D01*
X292517D01*
Y89821D01*
X292586D01*
Y89752D01*
X292724D01*
Y89683D01*
X292793D01*
Y89545D01*
X293000D01*
Y89476D01*
X293069D01*
Y89338D01*
X293276D01*
Y89269D01*
X293345D01*
Y89200D01*
X293414D01*
Y89269D01*
X293483D01*
Y89131D01*
X293552D01*
Y89062D01*
X293759D01*
Y88993D01*
X293828D01*
Y88924D01*
X293897D01*
Y88855D01*
X294035D01*
Y88717D01*
X294173D01*
Y88648D01*
X294242D01*
Y88510D01*
X294311D01*
Y88441D01*
X294518D01*
Y88303D01*
X294656D01*
Y88234D01*
X294725D01*
Y88165D01*
X294794D01*
Y88096D01*
X294863D01*
Y88027D01*
X294932D01*
Y87958D01*
X295001D01*
Y87889D01*
X295070D01*
Y87820D01*
X295139D01*
Y87751D01*
X295208D01*
Y87613D01*
X295277D01*
Y87544D01*
X295346D01*
Y87475D01*
X295415D01*
Y87544D01*
X295484D01*
Y87268D01*
X295553D01*
Y86854D01*
X295484D01*
Y86716D01*
X295415D01*
Y86647D01*
X295346D01*
Y86578D01*
X295277D01*
Y86440D01*
X295208D01*
Y86302D01*
X295070D01*
Y86233D01*
X295001D01*
Y86164D01*
X294725D01*
Y86095D01*
X294656D01*
Y86026D01*
X294587D01*
Y85957D01*
X294449D01*
Y86026D01*
X294380D01*
Y85957D01*
X294311D01*
Y85888D01*
X294242D01*
Y85819D01*
X294173D01*
Y85888D01*
X294035D01*
Y85819D01*
X293759D01*
Y85750D01*
X293690D01*
Y85681D01*
X293414D01*
Y85612D01*
X293138D01*
Y85543D01*
X293069D01*
Y85612D01*
X293000D01*
Y85543D01*
X292724D01*
Y85474D01*
X292655D01*
Y85405D01*
X292586D01*
Y85336D01*
X292517D01*
Y85267D01*
X292655D01*
Y85198D01*
X292724D01*
Y85060D01*
X292931D01*
Y84991D01*
X293000D01*
Y84922D01*
X293069D01*
Y84853D01*
X293207D01*
Y84784D01*
X293276D01*
Y84715D01*
X293345D01*
Y84646D01*
X293483D01*
Y84577D01*
X293552D01*
Y84508D01*
X293690D01*
Y84439D01*
X293759D01*
Y84370D01*
X293828D01*
Y84301D01*
X293897D01*
Y84232D01*
X293966D01*
Y84163D01*
X294035D01*
Y84094D01*
X294104D01*
Y84025D01*
X294242D01*
Y83887D01*
X294311D01*
Y83818D01*
X294380D01*
Y83749D01*
X294449D01*
Y83680D01*
X294518D01*
Y83611D01*
X294587D01*
Y83542D01*
X294725D01*
Y83473D01*
X294794D01*
Y83335D01*
X294932D01*
Y83266D01*
X295001D01*
Y83128D01*
X295070D01*
Y83059D01*
X295139D01*
Y82990D01*
X295208D01*
Y82852D01*
X295277D01*
Y82783D01*
X295484D01*
Y82714D01*
X295553D01*
Y82576D01*
X295622D01*
Y82507D01*
X295691D01*
Y82438D01*
X295760D01*
Y82300D01*
X295829D01*
Y82231D01*
X295898D01*
Y82162D01*
X295967D01*
Y82093D01*
X296036D01*
Y81955D01*
X296243D01*
Y81748D01*
X296312D01*
Y81610D01*
X296381D01*
Y81472D01*
X296312D01*
Y81265D01*
X296243D01*
Y81127D01*
X296174D01*
Y81058D01*
X296105D01*
Y80989D01*
X296036D01*
Y80920D01*
X295760D01*
Y80851D01*
X295484D01*
Y80782D01*
X295208D01*
Y80713D01*
X295139D01*
Y80644D01*
X294794D01*
Y80575D01*
X294725D01*
Y80644D01*
X294518D01*
Y80575D01*
X294311D01*
Y80506D01*
X294173D01*
Y80575D01*
X293966D01*
Y80506D01*
X293690D01*
Y80575D01*
X293000D01*
Y80644D01*
X292862D01*
Y80575D01*
X292586D01*
Y80644D01*
X292517D01*
Y80713D01*
X292034D01*
Y80782D01*
X291758D01*
Y80851D01*
X291620D01*
Y80920D01*
X291482D01*
Y80989D01*
X291137D01*
Y81058D01*
X290999D01*
Y81127D01*
X290861D01*
Y81196D01*
X290654D01*
Y81265D01*
X290585D01*
Y81334D01*
X290447D01*
Y81403D01*
X290240D01*
Y81472D01*
X290171D01*
Y81541D01*
X289895D01*
Y81610D01*
X289826D01*
Y81679D01*
X289757D01*
Y81748D01*
X289619D01*
Y81817D01*
X289481D01*
Y81886D01*
X289412D01*
Y81955D01*
X289274D01*
Y82024D01*
X289136D01*
Y82093D01*
X288998D01*
Y82162D01*
X288929D01*
Y82231D01*
X288791D01*
Y82300D01*
X288653D01*
Y82369D01*
X288584D01*
Y82438D01*
X288515D01*
Y82507D01*
X288308D01*
Y82576D01*
X288170D01*
Y82645D01*
X288101D01*
Y82714D01*
X288032D01*
Y82783D01*
X287894D01*
Y82852D01*
X287687D01*
Y82921D01*
X287549D01*
Y82990D01*
X287480D01*
Y83059D01*
X287411D01*
Y83128D01*
X287204D01*
Y83197D01*
X287066D01*
Y83266D01*
X286997D01*
Y83335D01*
X286652D01*
Y83404D01*
X286445D01*
Y83473D01*
X286169D01*
Y83542D01*
X285962D01*
Y83611D01*
X285686D01*
Y83542D01*
X285617D01*
Y83473D01*
X285479D01*
Y83266D01*
X285548D01*
Y82852D01*
X285617D01*
Y82231D01*
X285686D01*
Y81955D01*
X285755D01*
Y81886D01*
X285686D01*
Y81817D01*
X285755D01*
Y81679D01*
X285824D01*
Y81472D01*
X285893D01*
Y81403D01*
X285962D01*
Y81127D01*
X286031D01*
Y80989D01*
X286100D01*
Y80920D01*
X286238D01*
Y80851D01*
X286307D01*
Y80782D01*
X286376D01*
Y80713D01*
X286445D01*
Y80644D01*
X286514D01*
Y80575D01*
X286583D01*
Y80506D01*
X286721D01*
Y80575D01*
X286997D01*
Y80506D01*
X287204D01*
Y80575D01*
X287342D01*
Y80506D01*
X287411D01*
Y80575D01*
X287480D01*
Y80506D01*
X288515D01*
Y80437D01*
X288584D01*
Y80506D01*
X288653D01*
Y80437D01*
X289550D01*
Y80368D01*
X289757D01*
Y80299D01*
X290171D01*
Y80368D01*
X290240D01*
Y80299D01*
X290585D01*
Y80230D01*
X291137D01*
Y80161D01*
X291413D01*
Y80092D01*
X291896D01*
Y80023D01*
X291965D01*
Y79954D01*
X292172D01*
Y79885D01*
X292241D01*
Y79954D01*
X292310D01*
Y79885D01*
X292448D01*
Y79816D01*
X292655D01*
Y79747D01*
X292793D01*
Y79678D01*
X292862D01*
Y79609D01*
X292931D01*
Y79540D01*
X293000D01*
Y79471D01*
X293069D01*
Y79333D01*
X293138D01*
Y79264D01*
X293276D01*
Y78850D01*
X293345D01*
Y78781D01*
X293276D01*
Y78574D01*
X293207D01*
Y78367D01*
X293138D01*
Y78298D01*
X293069D01*
Y78160D01*
X292862D01*
Y78091D01*
X292793D01*
Y78022D01*
X292517D01*
Y77953D01*
X292172D01*
Y78022D01*
X291551D01*
Y78091D01*
X291344D01*
Y78160D01*
X291206D01*
Y78229D01*
X291137D01*
Y78298D01*
X290930D01*
Y78367D01*
X290861D01*
Y78436D01*
X290792D01*
Y78505D01*
X290654D01*
Y78574D01*
X290447D01*
Y78643D01*
X290378D01*
Y78712D01*
X290240D01*
Y78781D01*
X290171D01*
Y78850D01*
X289895D01*
Y78919D01*
X289688D01*
Y78988D01*
X289481D01*
Y79057D01*
X289205D01*
Y79126D01*
X288860D01*
Y79195D01*
X288653D01*
Y79264D01*
X288377D01*
Y79333D01*
X288032D01*
Y79402D01*
X287687D01*
Y79471D01*
X287273D01*
Y79540D01*
X287066D01*
Y79609D01*
X286721D01*
Y79678D01*
X286514D01*
Y79609D01*
X286445D01*
Y79540D01*
X286376D01*
Y79195D01*
X286445D01*
Y79126D01*
X286514D01*
Y78988D01*
X286583D01*
Y78919D01*
X286652D01*
Y78850D01*
X286721D01*
Y78712D01*
X286790D01*
Y78643D01*
X286859D01*
Y78574D01*
X286928D01*
Y78505D01*
X286997D01*
Y78367D01*
X287066D01*
Y78298D01*
X287135D01*
Y78229D01*
X287204D01*
Y78160D01*
X287273D01*
Y78022D01*
X287342D01*
Y77953D01*
X287549D01*
Y77884D01*
X287687D01*
Y77815D01*
X287756D01*
Y77746D01*
X287963D01*
Y77677D01*
X288170D01*
Y77608D01*
X288308D01*
Y77539D01*
X288515D01*
Y77470D01*
X288653D01*
Y77401D01*
X288722D01*
Y77332D01*
X288929D01*
Y77263D01*
X289136D01*
Y77194D01*
X289205D01*
Y77125D01*
X289274D01*
Y77056D01*
X289412D01*
Y76987D01*
X289481D01*
Y76918D01*
X289550D01*
Y76987D01*
X289619D01*
Y76918D01*
X289688D01*
Y76780D01*
X289895D01*
Y76711D01*
X289964D01*
Y76642D01*
X290033D01*
Y76573D01*
X290171D01*
Y76504D01*
X290378D01*
Y76366D01*
X290447D01*
Y76297D01*
X290654D01*
Y76159D01*
X290723D01*
Y76090D01*
X290792D01*
Y76021D01*
X290861D01*
Y75952D01*
X290930D01*
Y75883D01*
X291137D01*
Y75745D01*
X291206D01*
Y75676D01*
X291275D01*
Y75607D01*
X291344D01*
Y75538D01*
X291413D01*
Y75400D01*
X291482D01*
Y75331D01*
X291551D01*
Y75262D01*
X291620D01*
Y75124D01*
X291689D01*
Y75055D01*
X291758D01*
Y74917D01*
X291827D01*
Y74848D01*
X291896D01*
Y74641D01*
X291965D01*
Y74020D01*
X292034D01*
Y73744D01*
X291965D01*
Y73468D01*
X291896D01*
Y73330D01*
X291827D01*
Y73261D01*
X291758D01*
Y73192D01*
X291689D01*
Y73123D01*
X291551D01*
Y73054D01*
X291482D01*
Y72847D01*
X291551D01*
Y72778D01*
X291896D01*
Y72709D01*
X291965D01*
Y72640D01*
X292172D01*
Y72571D01*
X292379D01*
Y72502D01*
X292448D01*
Y72433D01*
X292517D01*
Y72502D01*
X292655D01*
Y72433D01*
X292724D01*
Y72364D01*
X292931D01*
Y72295D01*
X293069D01*
Y72226D01*
X293276D01*
Y72157D01*
X293345D01*
Y72088D01*
X293414D01*
Y72019D01*
X293483D01*
Y72088D01*
X293621D01*
Y72019D01*
X293690D01*
Y71950D01*
X293759D01*
Y71881D01*
X293966D01*
Y71812D01*
X294104D01*
Y71743D01*
X294242D01*
Y71674D01*
X294380D01*
Y71605D01*
X294518D01*
Y71536D01*
X294587D01*
Y71467D01*
X294725D01*
Y71398D01*
X294863D01*
Y71329D01*
X295001D01*
Y71260D01*
X295070D01*
Y71191D01*
X295484D01*
Y71122D01*
X295553D01*
Y71053D01*
X295622D01*
Y70984D01*
X295829D01*
Y70915D01*
X296105D01*
Y70846D01*
X296312D01*
Y70777D01*
X296519D01*
Y70708D01*
X296588D01*
Y70777D01*
X296657D01*
Y70708D01*
X296933D01*
Y70639D01*
X297209D01*
Y70501D01*
X297347D01*
Y70294D01*
X297278D01*
Y70018D01*
X297209D01*
Y69949D01*
X297140D01*
Y69880D01*
X296864D01*
Y69811D01*
X296450D01*
Y69742D01*
X296381D01*
Y69811D01*
X296312D01*
Y69742D01*
X296243D01*
Y69811D01*
X296105D01*
Y69880D01*
X295829D01*
Y69949D01*
X295553D01*
Y70018D01*
X295415D01*
Y70087D01*
X295208D01*
Y70156D01*
X295139D01*
Y70225D01*
X295001D01*
Y70294D01*
X294863D01*
Y70363D01*
X294725D01*
Y70432D01*
X294656D01*
Y70501D01*
X294449D01*
Y70639D01*
X294104D01*
Y70708D01*
X294035D01*
Y70777D01*
X293828D01*
Y70846D01*
X293690D01*
Y70915D01*
X293621D01*
Y70984D01*
X293552D01*
Y70915D01*
X293483D01*
Y71053D01*
X293414D01*
Y71122D01*
X293207D01*
Y71191D01*
X293138D01*
Y71260D01*
X293000D01*
Y71329D01*
X292931D01*
Y71398D01*
X292724D01*
Y71467D01*
X292655D01*
Y71398D01*
X292586D01*
Y71467D01*
X292517D01*
Y71536D01*
X292310D01*
Y71605D01*
X292172D01*
Y71674D01*
X292034D01*
Y71743D01*
X291827D01*
Y71812D01*
X291689D01*
Y71881D01*
X291551D01*
Y71950D01*
X291206D01*
Y72019D01*
X291068D01*
Y72088D01*
X290792D01*
Y72157D01*
X290585D01*
Y72226D01*
X290378D01*
Y72295D01*
X290309D01*
Y72226D01*
X290240D01*
Y72295D01*
X290102D01*
Y72364D01*
X289757D01*
Y72433D01*
X289412D01*
Y72502D01*
X289274D01*
Y72433D01*
X289136D01*
Y72502D01*
X288515D01*
Y72571D01*
X288308D01*
Y72502D01*
X288101D01*
Y72571D01*
X288032D01*
Y72502D01*
X287963D01*
Y72571D01*
X287687D01*
Y72502D01*
X287549D01*
Y72295D01*
X287618D01*
Y72088D01*
X287687D01*
Y71950D01*
X287756D01*
Y71812D01*
X287825D01*
Y71605D01*
X287894D01*
Y71467D01*
X287963D01*
Y71398D01*
X288032D01*
Y71329D01*
X288101D01*
Y71260D01*
X288170D01*
Y71122D01*
X288239D01*
Y71053D01*
X288308D01*
Y70984D01*
X288377D01*
Y70846D01*
X288446D01*
Y70777D01*
X288515D01*
Y70708D01*
X288653D01*
Y70639D01*
X288722D01*
Y70570D01*
X288791D01*
Y70501D01*
X288860D01*
Y70570D01*
X288929D01*
Y70501D01*
X288998D01*
Y70432D01*
X289205D01*
Y70363D01*
X289412D01*
Y70294D01*
X289550D01*
Y70225D01*
X289757D01*
Y70156D01*
X289895D01*
Y70087D01*
X289964D01*
Y70018D01*
X290102D01*
Y69949D01*
X290240D01*
Y69880D01*
X290378D01*
Y69811D01*
X290585D01*
Y69673D01*
X290723D01*
Y69604D01*
X290861D01*
Y69535D01*
X290930D01*
Y69466D01*
X291068D01*
Y69397D01*
X291206D01*
Y69328D01*
X291275D01*
Y69397D01*
X291344D01*
Y69328D01*
X291413D01*
Y69259D01*
X291482D01*
Y69190D01*
X291689D01*
Y69121D01*
X291896D01*
Y69052D01*
X292034D01*
Y68983D01*
X292103D01*
Y68914D01*
X292310D01*
Y68776D01*
X292517D01*
Y68707D01*
X292586D01*
Y68638D01*
X292655D01*
Y68569D01*
X292793D01*
Y68500D01*
X293000D01*
Y68431D01*
X293069D01*
Y68362D01*
X293138D01*
Y68293D01*
X293276D01*
Y68224D01*
X293345D01*
Y68155D01*
X293414D01*
Y68086D01*
X293483D01*
Y68017D01*
X293552D01*
Y67948D01*
X293690D01*
Y67879D01*
X293759D01*
Y67672D01*
X293690D01*
Y67465D01*
X293552D01*
Y67327D01*
X293483D01*
Y67258D01*
X293345D01*
Y67189D01*
X293207D01*
Y67258D01*
X293138D01*
Y67189D01*
X293069D01*
Y67120D01*
X293000D01*
Y67189D01*
X292724D01*
Y67258D01*
X292586D01*
Y67327D01*
X292448D01*
Y67465D01*
X292379D01*
Y67534D01*
X292310D01*
Y67603D01*
X292241D01*
Y67672D01*
X292172D01*
Y67741D01*
X292034D01*
Y67810D01*
X291965D01*
Y67879D01*
X291827D01*
Y67948D01*
X291758D01*
Y68017D01*
X291689D01*
Y68086D01*
X291482D01*
Y68155D01*
X291413D01*
Y68224D01*
X291137D01*
Y68293D01*
X291068D01*
Y68362D01*
X290861D01*
Y68431D01*
X290585D01*
Y68500D01*
X290378D01*
Y68569D01*
X290171D01*
Y68638D01*
X290033D01*
Y68707D01*
X289964D01*
Y68776D01*
X289826D01*
Y68845D01*
X289619D01*
Y68914D01*
X289550D01*
Y68983D01*
X289343D01*
Y69052D01*
X289274D01*
Y69121D01*
X289136D01*
Y69190D01*
X289067D01*
Y69259D01*
X288860D01*
Y69397D01*
X288653D01*
Y69466D01*
X288584D01*
Y69604D01*
X288377D01*
Y69673D01*
X288308D01*
Y69742D01*
X288239D01*
Y69811D01*
X288170D01*
Y69880D01*
X287894D01*
Y69811D01*
X287825D01*
Y69190D01*
X287894D01*
Y69121D01*
X287825D01*
Y69052D01*
X287894D01*
Y68776D01*
X287963D01*
Y68638D01*
X288032D01*
Y68569D01*
X288101D01*
Y68362D01*
X288170D01*
Y68293D01*
X288239D01*
Y68155D01*
X288446D01*
Y68017D01*
X288515D01*
Y67948D01*
X288584D01*
Y67879D01*
X288791D01*
Y67810D01*
X288929D01*
Y67741D01*
X289067D01*
Y67672D01*
X289205D01*
Y67603D01*
X289481D01*
Y67534D01*
X289550D01*
Y67465D01*
X289757D01*
Y67396D01*
X289895D01*
Y67465D01*
X289964D01*
Y67396D01*
X290033D01*
Y67327D01*
X290378D01*
Y67258D01*
X290447D01*
Y67189D01*
X290516D01*
Y67258D01*
X290654D01*
Y67189D01*
X290861D01*
Y67120D01*
X290930D01*
Y67051D01*
X290999D01*
Y67120D01*
X291068D01*
Y67051D01*
X291137D01*
Y66982D01*
X291206D01*
Y67051D01*
X291344D01*
Y66982D01*
X291413D01*
Y66913D01*
X291482D01*
Y66844D01*
X291620D01*
Y66775D01*
X291827D01*
Y66706D01*
X291896D01*
Y66637D01*
X291965D01*
Y66568D01*
X292103D01*
Y66499D01*
X292172D01*
Y66430D01*
X292241D01*
Y66361D01*
X292310D01*
Y66292D01*
X292379D01*
Y66154D01*
X292448D01*
Y66085D01*
X292517D01*
Y66016D01*
X292586D01*
Y65878D01*
X292655D01*
Y65809D01*
X292724D01*
Y65740D01*
X292793D01*
Y65464D01*
X292862D01*
Y65188D01*
X292931D01*
Y64912D01*
X293000D01*
Y64774D01*
X293069D01*
Y64429D01*
X293138D01*
Y63670D01*
X293069D01*
Y63463D01*
X293000D01*
Y63394D01*
X292931D01*
Y63325D01*
X292862D01*
Y63256D01*
X292724D01*
Y63187D01*
X292655D01*
Y63118D01*
X292517D01*
Y63049D01*
X292448D01*
Y62980D01*
X292379D01*
Y62773D01*
X292448D01*
Y62704D01*
X292586D01*
Y62635D01*
X292724D01*
Y62497D01*
X292931D01*
Y62359D01*
X293069D01*
Y62290D01*
X293138D01*
Y62152D01*
X293207D01*
Y62083D01*
X293345D01*
Y61945D01*
X293414D01*
Y61807D01*
X293483D01*
Y61738D01*
X293621D01*
Y61531D01*
X293690D01*
Y61393D01*
X293759D01*
Y61255D01*
X293690D01*
Y61186D01*
X293621D01*
Y61048D01*
X293552D01*
Y60979D01*
X293483D01*
Y60910D01*
X293276D01*
Y60841D01*
X293138D01*
Y60772D01*
X293069D01*
Y60841D01*
X293000D01*
Y60772D01*
X292724D01*
Y60703D01*
X292586D01*
Y60772D01*
X292517D01*
Y60703D01*
X292448D01*
Y60772D01*
X292379D01*
Y60703D01*
X291965D01*
Y60634D01*
X291827D01*
Y60703D01*
X291620D01*
Y60634D01*
X291344D01*
Y60565D01*
X291275D01*
Y60634D01*
X291206D01*
Y60565D01*
X291137D01*
Y60634D01*
X290654D01*
Y60565D01*
X290585D01*
Y60634D01*
X290516D01*
Y60565D01*
X290102D01*
Y60634D01*
X289895D01*
Y60703D01*
X289757D01*
Y60634D01*
X289550D01*
Y60703D01*
X289343D01*
Y60772D01*
X289136D01*
Y60841D01*
X289067D01*
Y60772D01*
X288998D01*
Y60841D01*
X288929D01*
Y60772D01*
X288860D01*
Y60703D01*
X288722D01*
Y60565D01*
X288653D01*
Y60496D01*
X288722D01*
Y60427D01*
X288791D01*
Y60358D01*
X288860D01*
Y60289D01*
X288929D01*
Y60151D01*
X288998D01*
Y60013D01*
X289067D01*
Y59944D01*
X289205D01*
Y59875D01*
X289274D01*
Y59806D01*
X289481D01*
Y59737D01*
X289757D01*
Y59668D01*
X289895D01*
Y59599D01*
X290171D01*
Y59530D01*
X290309D01*
Y59461D01*
X290447D01*
Y59392D01*
X290516D01*
Y59323D01*
X290654D01*
Y59392D01*
X290723D01*
Y59254D01*
X290861D01*
Y59185D01*
X290930D01*
Y59116D01*
X290999D01*
Y59047D01*
X291137D01*
Y58978D01*
X291206D01*
Y58909D01*
X291275D01*
Y58840D01*
X291413D01*
Y58771D01*
X291482D01*
Y58633D01*
X291620D01*
Y58495D01*
X291689D01*
Y58426D01*
X291758D01*
Y58357D01*
X291896D01*
Y58288D01*
X291965D01*
Y58219D01*
X292034D01*
Y58150D01*
X292103D01*
Y58081D01*
X292172D01*
Y58012D01*
X292241D01*
Y57874D01*
X292310D01*
Y57805D01*
X292379D01*
Y57736D01*
X292448D01*
Y57598D01*
X292517D01*
Y57529D01*
X292655D01*
Y57460D01*
X292724D01*
Y57253D01*
X292793D01*
Y57184D01*
X293000D01*
Y57046D01*
X293069D01*
Y56977D01*
X293138D01*
Y56908D01*
X293207D01*
Y56839D01*
X293276D01*
Y56701D01*
X293345D01*
Y56632D01*
X293414D01*
Y56563D01*
X293483D01*
Y56425D01*
X293552D01*
Y56356D01*
X293621D01*
Y56287D01*
X293690D01*
Y56149D01*
X293759D01*
Y55528D01*
X293690D01*
Y55390D01*
X293552D01*
Y55183D01*
X293483D01*
Y55114D01*
X293345D01*
Y55045D01*
X293138D01*
Y54976D01*
X293069D01*
Y54907D01*
X292793D01*
Y54838D01*
X292724D01*
Y54769D01*
X292379D01*
Y54700D01*
X292310D01*
Y54631D01*
X292034D01*
Y54562D01*
X291965D01*
Y54631D01*
X291896D01*
Y54562D01*
X291482D01*
Y54493D01*
X291344D01*
Y54562D01*
X291275D01*
Y54493D01*
X290861D01*
Y54424D01*
X290792D01*
Y54493D01*
X290309D01*
Y54424D01*
X290240D01*
Y54493D01*
X290171D01*
Y54424D01*
X290102D01*
Y54493D01*
X289688D01*
Y54424D01*
X289550D01*
Y54493D01*
X289481D01*
Y54424D01*
X289412D01*
Y54493D01*
X289205D01*
Y54424D01*
X288998D01*
Y54562D01*
X288929D01*
Y54700D01*
X288860D01*
Y54769D01*
X288653D01*
Y54838D01*
X288584D01*
Y54907D01*
X288377D01*
Y54838D01*
X287756D01*
Y54769D01*
X287687D01*
Y54700D01*
X287549D01*
Y54631D01*
X287480D01*
Y54562D01*
X287411D01*
Y54493D01*
X287342D01*
Y54424D01*
X287273D01*
Y54286D01*
X287342D01*
Y53458D01*
X287273D01*
Y53320D01*
X286997D01*
Y53251D01*
X286583D01*
Y53320D01*
X286376D01*
Y53389D01*
X286307D01*
Y53803D01*
X286238D01*
Y54631D01*
X286307D01*
Y54700D01*
X286376D01*
Y54838D01*
X286445D01*
Y54976D01*
X286514D01*
Y55114D01*
X286583D01*
Y55183D01*
X286652D01*
Y55252D01*
X286790D01*
Y55321D01*
X286859D01*
Y55252D01*
X286928D01*
Y55321D01*
X286997D01*
Y55390D01*
X287066D01*
Y55459D01*
X287204D01*
Y55528D01*
X287756D01*
Y55597D01*
X287894D01*
Y55666D01*
X287963D01*
Y55804D01*
X287894D01*
Y55873D01*
X287825D01*
Y56011D01*
X287756D01*
Y56080D01*
X287687D01*
Y56149D01*
X287618D01*
Y56218D01*
X287549D01*
Y56287D01*
X287411D01*
Y56494D01*
X287342D01*
Y56632D01*
X287273D01*
Y56770D01*
X287204D01*
Y56977D01*
X287135D01*
Y57253D01*
X287066D01*
Y57322D01*
X287135D01*
Y57529D01*
X287066D01*
Y58150D01*
X286997D01*
Y58564D01*
X286928D01*
Y58633D01*
X286997D01*
Y58909D01*
X286928D01*
Y58978D01*
X286997D01*
Y59116D01*
X287066D01*
Y59254D01*
X287135D01*
Y59392D01*
X287204D01*
Y59461D01*
X287273D01*
Y59530D01*
X287342D01*
Y59599D01*
X287480D01*
Y59668D01*
X287549D01*
Y59737D01*
X287618D01*
Y59806D01*
X287687D01*
Y59875D01*
X287756D01*
Y60082D01*
X287687D01*
Y60220D01*
X287618D01*
Y60358D01*
X287549D01*
Y60772D01*
X287480D01*
Y60979D01*
X287549D01*
Y61117D01*
X287618D01*
Y61324D01*
X287687D01*
Y61393D01*
X287756D01*
Y61462D01*
X287825D01*
Y61531D01*
X287963D01*
Y61600D01*
X288308D01*
Y61669D01*
X288722D01*
Y61600D01*
X288860D01*
Y61669D01*
X288998D01*
Y61600D01*
X289067D01*
Y61669D01*
X289136D01*
Y61600D01*
X289688D01*
Y61531D01*
X289895D01*
Y61462D01*
X290240D01*
Y61393D01*
X290447D01*
Y61462D01*
X290585D01*
Y61393D01*
X291275D01*
Y61462D01*
X291413D01*
Y61393D01*
X291482D01*
Y61462D01*
X291896D01*
Y61531D01*
X292034D01*
Y61600D01*
X292172D01*
Y61876D01*
X292103D01*
Y61945D01*
X292034D01*
Y62014D01*
X291896D01*
Y62083D01*
X291827D01*
Y62152D01*
X291758D01*
Y62221D01*
X291689D01*
Y62152D01*
X291620D01*
Y62290D01*
X291551D01*
Y62359D01*
X291482D01*
Y62428D01*
X291413D01*
Y62497D01*
X291344D01*
Y62566D01*
X291206D01*
Y62635D01*
X291137D01*
Y62704D01*
X291068D01*
Y62773D01*
X290861D01*
Y62911D01*
X290792D01*
Y62980D01*
X290585D01*
Y63049D01*
X290516D01*
Y63118D01*
X290447D01*
Y63187D01*
X290309D01*
Y63256D01*
X290240D01*
Y63325D01*
X290171D01*
Y63394D01*
X290033D01*
Y63463D01*
X289964D01*
Y63532D01*
X289895D01*
Y63670D01*
X289688D01*
Y63739D01*
X289619D01*
Y63808D01*
X289550D01*
Y63877D01*
X289412D01*
Y63946D01*
X289343D01*
Y64015D01*
X289274D01*
Y64084D01*
X289205D01*
Y64153D01*
X289067D01*
Y64222D01*
X288860D01*
Y64291D01*
X288791D01*
Y64360D01*
X288722D01*
Y64429D01*
X288584D01*
Y64498D01*
X288377D01*
Y64567D01*
X288308D01*
Y64636D01*
X288101D01*
Y64705D01*
X287963D01*
Y64774D01*
X287894D01*
Y64843D01*
X287825D01*
Y64912D01*
X287687D01*
Y64981D01*
X287618D01*
Y65119D01*
X287480D01*
Y65602D01*
X287549D01*
Y65740D01*
X287618D01*
Y65809D01*
X287687D01*
Y65878D01*
X287963D01*
Y65947D01*
X288032D01*
Y65878D01*
X288101D01*
Y65947D01*
X288308D01*
Y65878D01*
X288515D01*
Y65809D01*
X288791D01*
Y65740D01*
X288929D01*
Y65671D01*
X288998D01*
Y65602D01*
X289067D01*
Y65533D01*
X289136D01*
Y65464D01*
X289205D01*
Y65395D01*
X289412D01*
Y65257D01*
X289481D01*
Y65188D01*
X289550D01*
Y65119D01*
X289688D01*
Y65050D01*
X289757D01*
Y64981D01*
X289826D01*
Y64912D01*
X289895D01*
Y64843D01*
X289964D01*
Y64774D01*
X290102D01*
Y64705D01*
X290171D01*
Y64636D01*
X290240D01*
Y64567D01*
X290447D01*
Y64429D01*
X290585D01*
Y64360D01*
X290723D01*
Y64291D01*
X290792D01*
Y64222D01*
X290930D01*
Y64153D01*
X291068D01*
Y64084D01*
X291206D01*
Y64015D01*
X291482D01*
Y63946D01*
X291620D01*
Y63877D01*
X291827D01*
Y63946D01*
X291896D01*
Y64015D01*
X291965D01*
Y64360D01*
X291896D01*
Y64429D01*
X291965D01*
Y64498D01*
X291896D01*
Y64912D01*
X291827D01*
Y65188D01*
X291758D01*
Y65326D01*
X291689D01*
Y65464D01*
X291620D01*
Y65533D01*
X291551D01*
Y65740D01*
X291482D01*
Y65809D01*
X291413D01*
Y65878D01*
X291344D01*
Y65947D01*
X291206D01*
Y66016D01*
X291137D01*
Y66085D01*
X290999D01*
Y66154D01*
X290930D01*
Y66223D01*
X290792D01*
Y66292D01*
X290654D01*
Y66361D01*
X290447D01*
Y66430D01*
X290309D01*
Y66499D01*
X290033D01*
Y66568D01*
X289757D01*
Y66637D01*
X289412D01*
Y66706D01*
X289274D01*
Y66775D01*
X288998D01*
Y66844D01*
X288791D01*
Y66913D01*
X288584D01*
Y66982D01*
X288446D01*
Y67051D01*
X288377D01*
Y67120D01*
X288101D01*
Y67189D01*
X287963D01*
Y67258D01*
X287894D01*
Y67396D01*
X287687D01*
Y67465D01*
X287618D01*
Y67603D01*
X287411D01*
Y67741D01*
X287342D01*
Y67810D01*
X287273D01*
Y67879D01*
X287204D01*
Y67948D01*
X287135D01*
Y68086D01*
X287066D01*
Y68155D01*
X286997D01*
Y68224D01*
X286928D01*
Y68500D01*
X286859D01*
Y68638D01*
X286790D01*
Y68845D01*
X286721D01*
Y69190D01*
X286652D01*
Y70156D01*
X286721D01*
Y70363D01*
X286790D01*
Y70501D01*
X286859D01*
Y70570D01*
X286928D01*
Y70639D01*
X286997D01*
Y70708D01*
X287135D01*
Y70915D01*
X287066D01*
Y70984D01*
X286997D01*
Y71053D01*
X286859D01*
Y71260D01*
X286790D01*
Y71398D01*
X286721D01*
Y71467D01*
X286652D01*
Y71536D01*
X286583D01*
Y71812D01*
X286514D01*
Y71950D01*
X286445D01*
Y72088D01*
X286376D01*
Y72433D01*
X286307D01*
Y72571D01*
X286376D01*
Y72709D01*
X286445D01*
Y72916D01*
X286514D01*
Y73123D01*
X286652D01*
Y73192D01*
X286721D01*
Y73261D01*
X286859D01*
Y73537D01*
X286790D01*
Y73606D01*
X286583D01*
Y73675D01*
X286514D01*
Y73744D01*
X286445D01*
Y73813D01*
X286307D01*
Y73882D01*
X286100D01*
Y74020D01*
X286031D01*
Y74089D01*
X285962D01*
Y74158D01*
X285893D01*
Y74227D01*
X285824D01*
Y74365D01*
X285755D01*
Y74434D01*
X285686D01*
Y74503D01*
X285617D01*
Y74710D01*
X285548D01*
Y74848D01*
X285479D01*
Y74986D01*
X285410D01*
Y75193D01*
X285341D01*
Y75469D01*
X285272D01*
Y75607D01*
X285341D01*
Y75814D01*
X285272D01*
Y76642D01*
X285341D01*
Y77056D01*
X285410D01*
Y77194D01*
X285479D01*
Y77263D01*
X285548D01*
Y77401D01*
X285617D01*
Y77608D01*
X285686D01*
Y77677D01*
X285755D01*
Y77746D01*
X285893D01*
Y77815D01*
X285962D01*
Y78022D01*
X285893D01*
Y78160D01*
X285824D01*
Y78229D01*
X285755D01*
Y78298D01*
X285686D01*
Y78367D01*
X285617D01*
Y78505D01*
X285548D01*
Y78574D01*
X285479D01*
Y78643D01*
X285410D01*
Y78919D01*
X285341D01*
Y79057D01*
X285272D01*
Y79126D01*
X285203D01*
Y79678D01*
X285272D01*
Y79954D01*
X285341D01*
Y80161D01*
X285410D01*
Y80230D01*
X285341D01*
Y80368D01*
X285272D01*
Y80437D01*
X285203D01*
Y80575D01*
X285134D01*
Y80644D01*
X285065D01*
Y80713D01*
X284996D01*
Y80989D01*
X284927D01*
Y81058D01*
X284858D01*
Y81196D01*
X284789D01*
Y81265D01*
X284720D01*
Y81679D01*
X284651D01*
Y81748D01*
X284720D01*
Y81817D01*
X284651D01*
Y81955D01*
X284582D01*
Y82231D01*
X284513D01*
Y82507D01*
X284444D01*
Y82783D01*
X284375D01*
Y82852D01*
X284444D01*
Y82921D01*
X284375D01*
Y83335D01*
X284306D01*
Y83473D01*
X284375D01*
Y83680D01*
X284306D01*
Y84025D01*
X284375D01*
Y84163D01*
X284444D01*
Y84301D01*
X284513D01*
Y84370D01*
X284582D01*
Y84439D01*
X284858D01*
Y84508D01*
X285203D01*
Y84439D01*
X285410D01*
Y84508D01*
X285617D01*
Y84439D01*
X285755D01*
Y84370D01*
X286169D01*
Y84301D01*
X286445D01*
Y84232D01*
X286583D01*
Y84163D01*
X286928D01*
Y84094D01*
X287066D01*
Y84025D01*
X287204D01*
Y83956D01*
X287480D01*
Y83887D01*
X287549D01*
Y83818D01*
X287756D01*
Y83749D01*
X287894D01*
Y83680D01*
X288101D01*
Y83611D01*
X288170D01*
Y83542D01*
X288308D01*
Y83473D01*
X288377D01*
Y83404D01*
X288446D01*
Y83335D01*
X288515D01*
Y83404D01*
X288584D01*
Y83266D01*
X288791D01*
Y83197D01*
X288860D01*
Y83128D01*
X288929D01*
Y83059D01*
X288998D01*
Y83128D01*
X289067D01*
Y82990D01*
X289274D01*
Y82921D01*
X289343D01*
Y82852D01*
X289412D01*
Y82783D01*
X289550D01*
Y82714D01*
X289757D01*
Y82645D01*
X289826D01*
Y82576D01*
X289895D01*
Y82507D01*
X290033D01*
Y82438D01*
X290171D01*
Y82369D01*
X290309D01*
Y82300D01*
X290378D01*
Y82231D01*
X290516D01*
Y82162D01*
X290654D01*
Y82093D01*
X290792D01*
Y82024D01*
X290861D01*
Y81955D01*
X290999D01*
Y81886D01*
X291275D01*
Y81817D01*
X291482D01*
Y81748D01*
X291551D01*
Y81679D01*
X291620D01*
Y81748D01*
X291689D01*
Y81679D01*
X291758D01*
Y81610D01*
X292172D01*
Y81541D01*
X292241D01*
Y81472D01*
X292586D01*
Y81403D01*
X293138D01*
Y81334D01*
X293552D01*
Y81403D01*
X293621D01*
Y81334D01*
X293690D01*
Y81403D01*
X293759D01*
Y81334D01*
X294242D01*
Y81403D01*
X294311D01*
Y81334D01*
X294380D01*
Y81403D01*
X294794D01*
Y81472D01*
X294932D01*
Y81541D01*
X295001D01*
Y81610D01*
X295070D01*
Y81817D01*
X295001D01*
Y81955D01*
X294932D01*
Y82024D01*
X294863D01*
Y82093D01*
X294794D01*
Y82162D01*
X294725D01*
Y82300D01*
X294656D01*
Y82369D01*
X294587D01*
Y82438D01*
X294518D01*
Y82507D01*
X294449D01*
Y82645D01*
X294380D01*
Y82714D01*
X294242D01*
Y82783D01*
X294173D01*
Y82921D01*
X294104D01*
Y82990D01*
X293966D01*
Y83128D01*
X293897D01*
Y83197D01*
X293828D01*
Y83266D01*
X293759D01*
Y83335D01*
X293690D01*
Y83473D01*
X293621D01*
Y83542D01*
X293414D01*
Y83680D01*
X293345D01*
Y83749D01*
X293276D01*
Y83818D01*
X293207D01*
Y83887D01*
X293138D01*
Y84025D01*
X292931D01*
Y84094D01*
X292862D01*
Y84232D01*
X292793D01*
Y84163D01*
X292724D01*
Y84232D01*
X292655D01*
Y84301D01*
X292586D01*
Y84370D01*
X292448D01*
Y84439D01*
X292379D01*
Y84508D01*
X292310D01*
Y84577D01*
X292172D01*
Y84646D01*
X292103D01*
Y84715D01*
X291965D01*
Y84853D01*
X291896D01*
Y84922D01*
X291689D01*
Y84991D01*
X291551D01*
Y85060D01*
X291413D01*
Y85129D01*
X291206D01*
Y85198D01*
X291137D01*
Y85267D01*
X291068D01*
Y85336D01*
X290861D01*
Y85405D01*
X290654D01*
Y85474D01*
X290516D01*
Y85543D01*
X290447D01*
Y85612D01*
X290033D01*
Y85681D01*
X289964D01*
Y85750D01*
X289550D01*
Y85819D01*
X289412D01*
Y85888D01*
X289136D01*
Y85957D01*
X288929D01*
Y86026D01*
X288584D01*
Y86095D01*
X288446D01*
Y86164D01*
X288239D01*
Y86233D01*
X288101D01*
Y86302D01*
X287894D01*
Y86371D01*
X287825D01*
Y86440D01*
X287549D01*
Y86509D01*
X287342D01*
Y86578D01*
X287135D01*
Y86647D01*
X287066D01*
Y86716D01*
X286859D01*
Y86785D01*
X286652D01*
Y86854D01*
X286445D01*
Y86923D01*
X286376D01*
Y86992D01*
X286169D01*
Y87061D01*
X285893D01*
Y87130D01*
X285686D01*
Y87199D01*
X285617D01*
Y87268D01*
X285272D01*
Y87337D01*
X285134D01*
Y87406D01*
X284996D01*
Y87475D01*
X284789D01*
Y87544D01*
X284720D01*
Y87613D01*
X284513D01*
Y87682D01*
X284375D01*
Y87751D01*
X284306D01*
Y87820D01*
X284237D01*
Y87889D01*
X284030D01*
Y87958D01*
X283892D01*
Y88027D01*
X283823D01*
Y88234D01*
X283754D01*
Y88441D01*
X283823D01*
Y88717D01*
X283961D01*
Y88786D01*
X284030D01*
Y88717D01*
X284168D01*
Y88786D01*
X284651D01*
Y88717D01*
X284858D01*
Y88648D01*
X284927D01*
Y88579D01*
X285065D01*
Y88510D01*
X285272D01*
Y88441D01*
X285341D01*
Y88372D01*
X285410D01*
Y88303D01*
X285479D01*
Y88372D01*
X285548D01*
Y88234D01*
X285755D01*
Y88165D01*
X285824D01*
Y88096D01*
X285893D01*
Y88027D01*
X285962D01*
Y88096D01*
X286100D01*
Y88027D01*
X286238D01*
Y87958D01*
X286376D01*
Y87889D01*
X286514D01*
Y87820D01*
X286583D01*
Y87751D01*
X286790D01*
Y87682D01*
X286859D01*
Y87613D01*
X287204D01*
Y87544D01*
X287342D01*
Y87475D01*
X287549D01*
Y87406D01*
X287687D01*
Y87337D01*
X287963D01*
Y87268D01*
X288170D01*
Y87199D01*
X288239D01*
Y87130D01*
X288446D01*
Y87061D01*
X288584D01*
Y87130D01*
X288653D01*
Y87061D01*
X288791D01*
Y86992D01*
X288929D01*
Y86923D01*
X289136D01*
Y86854D01*
X289205D01*
Y86785D01*
X289481D01*
Y86716D01*
X289619D01*
Y86647D01*
X289688D01*
Y86716D01*
X289757D01*
Y86647D01*
X289895D01*
Y86509D01*
X290171D01*
Y86440D01*
X290447D01*
Y86371D01*
X290585D01*
Y86302D01*
X290654D01*
Y86371D01*
X290723D01*
Y86302D01*
X290792D01*
Y86233D01*
X291344D01*
Y86164D01*
X291689D01*
Y86233D01*
X291827D01*
Y86164D01*
X292172D01*
Y86233D01*
X292586D01*
Y86302D01*
X292862D01*
Y86371D01*
X293138D01*
Y86440D01*
X293345D01*
Y86509D01*
X293621D01*
Y86578D01*
X293690D01*
Y86647D01*
X293966D01*
Y86716D01*
X294242D01*
Y86785D01*
X294311D01*
Y86854D01*
X294449D01*
Y86923D01*
X294518D01*
Y87268D01*
X294449D01*
Y87406D01*
X294380D01*
Y87475D01*
X294242D01*
Y87544D01*
X294173D01*
Y87682D01*
X294104D01*
Y87751D01*
X293966D01*
Y87889D01*
X293897D01*
Y87958D01*
X293828D01*
Y88027D01*
X293690D01*
Y88096D01*
X293621D01*
Y88165D01*
X293552D01*
Y88234D01*
X293483D01*
Y88303D01*
X293414D01*
Y88372D01*
X293345D01*
Y88441D01*
X293207D01*
Y88510D01*
X293138D01*
Y88579D01*
X293069D01*
Y88648D01*
X292931D01*
Y88717D01*
X292862D01*
Y88786D01*
X292793D01*
Y88855D01*
X292655D01*
Y88924D01*
X292586D01*
Y88993D01*
X292379D01*
Y89131D01*
X292172D01*
Y89200D01*
X292103D01*
Y89269D01*
X292034D01*
Y89338D01*
X291965D01*
Y89407D01*
X291896D01*
Y89476D01*
X291758D01*
Y89545D01*
X291689D01*
Y89614D01*
X291620D01*
Y89683D01*
X291413D01*
Y89752D01*
X291206D01*
Y89821D01*
X291068D01*
Y89890D01*
X290930D01*
Y89959D01*
X290861D01*
Y90028D01*
X290723D01*
Y90097D01*
X290585D01*
Y90166D01*
X290447D01*
Y90235D01*
X290378D01*
Y90304D01*
X290171D01*
Y90373D01*
X289964D01*
Y90511D01*
X289826D01*
Y90580D01*
X289688D01*
Y90649D01*
X289481D01*
Y90718D01*
X289343D01*
Y90787D01*
X289067D01*
Y90856D01*
X288998D01*
Y90925D01*
X288929D01*
Y90994D01*
X288584D01*
Y91063D01*
X288515D01*
Y91132D01*
X288446D01*
Y91063D01*
X288377D01*
Y91132D01*
X288239D01*
Y91201D01*
X287963D01*
Y91270D01*
X287618D01*
Y91339D01*
X287273D01*
Y91408D01*
X286859D01*
Y91477D01*
X286652D01*
Y91546D01*
X286583D01*
Y91615D01*
X286514D01*
Y91546D01*
X286445D01*
Y91615D01*
X286169D01*
Y91684D01*
X285962D01*
Y91753D01*
X285893D01*
Y91684D01*
X285824D01*
Y91753D01*
X285686D01*
Y91822D01*
X285410D01*
Y91891D01*
X285272D01*
Y91960D01*
X285203D01*
Y92029D01*
X285065D01*
Y91960D01*
X284996D01*
Y92029D01*
X284927D01*
Y92098D01*
X284720D01*
Y92167D01*
X284513D01*
Y92236D01*
X284237D01*
Y92305D01*
X284030D01*
Y92374D01*
X283961D01*
Y92443D01*
X283823D01*
Y92512D01*
X283754D01*
Y92581D01*
X283478D01*
Y92650D01*
X283271D01*
Y92719D01*
X283133D01*
Y92788D01*
X283064D01*
Y92857D01*
X282926D01*
Y92926D01*
X282788D01*
Y92995D01*
X282650D01*
Y93064D01*
X282581D01*
Y93133D01*
X282374D01*
Y93202D01*
X282305D01*
Y93271D01*
X282236D01*
Y93340D01*
X282098D01*
Y93409D01*
X282029D01*
Y93478D01*
X281960D01*
Y93547D01*
X281891D01*
Y93892D01*
X282029D01*
Y93961D01*
X282098D01*
Y94030D01*
X282167D01*
Y94099D01*
X282236D01*
Y94168D01*
X282305D01*
Y94099D01*
X282788D01*
Y94030D01*
X282926D01*
Y93961D01*
X283133D01*
Y93892D01*
X283202D01*
Y93823D01*
X283478D01*
Y93754D01*
X283616D01*
Y93685D01*
X283754D01*
Y93616D01*
X283961D01*
Y93547D01*
X284099D01*
Y93478D01*
X284237D01*
Y93409D01*
X284375D01*
Y93340D01*
X284513D01*
Y93409D01*
X284582D01*
Y93340D01*
X284651D01*
Y93271D01*
X284789D01*
Y93202D01*
X285065D01*
Y93133D01*
X285203D01*
Y93064D01*
X285410D01*
Y92995D01*
X285617D01*
Y92926D01*
X285686D01*
Y92857D01*
X285824D01*
Y92788D01*
X286031D01*
Y92719D01*
X286100D01*
Y92650D01*
X286169D01*
Y92719D01*
X286307D01*
Y92650D01*
X286514D01*
Y92581D01*
X286583D01*
Y92512D01*
X286652D01*
Y92581D01*
X286721D01*
Y92512D01*
X286859D01*
Y92443D01*
X287135D01*
Y92374D01*
X287273D01*
Y92305D01*
X287480D01*
Y92236D01*
X287549D01*
Y92167D01*
X287687D01*
Y92098D01*
X287963D01*
Y92029D01*
X288101D01*
Y91960D01*
X288446D01*
Y91891D01*
X288653D01*
Y91822D01*
X288860D01*
Y91753D01*
X289067D01*
Y91684D01*
X289136D01*
Y91753D01*
X289205D01*
Y91684D01*
X289343D01*
Y91753D01*
X289550D01*
Y92029D01*
X289481D01*
Y92098D01*
X289412D01*
Y92236D01*
X289343D01*
Y92305D01*
X289274D01*
Y92374D01*
X289205D01*
Y92512D01*
X289136D01*
Y92581D01*
X289067D01*
Y92719D01*
X288998D01*
Y92788D01*
X288929D01*
Y92857D01*
X288860D01*
Y93064D01*
X288791D01*
Y93202D01*
X288722D01*
Y93340D01*
X288653D01*
Y93409D01*
X288584D01*
Y93823D01*
X288515D01*
Y93892D01*
X288446D01*
Y94099D01*
X288377D01*
Y94168D01*
X288308D01*
Y94513D01*
X288239D01*
Y94927D01*
X288170D01*
Y95755D01*
X288239D01*
Y96031D01*
X288308D01*
Y96307D01*
X288377D01*
Y96445D01*
X288446D01*
Y96652D01*
X288515D01*
Y96790D01*
X288584D01*
Y96928D01*
X288653D01*
Y97273D01*
X288722D01*
Y97411D01*
X288791D01*
Y97825D01*
X288860D01*
Y97963D01*
X288929D01*
Y98101D01*
X288998D01*
Y98239D01*
X289067D01*
Y98377D01*
X289205D01*
Y98446D01*
X289274D01*
Y98584D01*
X289343D01*
Y98722D01*
X289481D01*
Y98791D01*
X289550D01*
Y98860D01*
X289619D01*
Y98929D01*
X289688D01*
Y98998D01*
X289826D01*
Y99067D01*
X289895D01*
Y99274D01*
X290033D01*
Y99343D01*
X290102D01*
Y99412D01*
X290309D01*
Y99481D01*
X290447D01*
Y99412D01*
X290516D01*
Y99481D01*
X290585D01*
Y99412D01*
X290654D01*
Y99481D01*
X290861D01*
Y99343D01*
D02*
G37*
G36*
X282581Y96100D02*
X282650D01*
Y96031D01*
X282581D01*
Y95893D01*
X282512D01*
Y95755D01*
X282443D01*
Y95686D01*
X282374D01*
Y95548D01*
X282305D01*
Y95410D01*
X282236D01*
Y95341D01*
X282167D01*
Y95203D01*
X282098D01*
Y95134D01*
X282029D01*
Y94996D01*
X281960D01*
Y94858D01*
X281891D01*
Y94789D01*
X281822D01*
Y94720D01*
X281753D01*
Y94582D01*
X281684D01*
Y94513D01*
X281615D01*
Y94375D01*
X281546D01*
Y94237D01*
X281408D01*
Y94099D01*
X281339D01*
Y93961D01*
X281270D01*
Y93892D01*
X281201D01*
Y93754D01*
X281132D01*
Y93616D01*
X280994D01*
Y93478D01*
X280925D01*
Y93340D01*
X280787D01*
Y93202D01*
X280718D01*
Y93064D01*
X280649D01*
Y92995D01*
X280580D01*
Y92926D01*
X280511D01*
Y92857D01*
X280442D01*
Y92719D01*
X280373D01*
Y92650D01*
X280304D01*
Y92581D01*
X280235D01*
Y92512D01*
X280166D01*
Y92443D01*
X280097D01*
Y92374D01*
X280028D01*
Y92236D01*
X279959D01*
Y92167D01*
X279890D01*
Y92098D01*
X279821D01*
Y92029D01*
X279752D01*
Y91960D01*
X279683D01*
Y91891D01*
X279614D01*
Y91822D01*
X279545D01*
Y91753D01*
X279476D01*
Y91684D01*
X279407D01*
Y91615D01*
X279338D01*
Y91546D01*
X279269D01*
Y91477D01*
X279200D01*
Y91339D01*
X279062D01*
Y91270D01*
X278993D01*
Y91201D01*
X278924D01*
Y91132D01*
X278855D01*
Y91063D01*
X278717D01*
Y90925D01*
X278648D01*
Y90856D01*
X278510D01*
Y90787D01*
X278372D01*
Y90718D01*
X278303D01*
Y90649D01*
X278234D01*
Y90511D01*
X278165D01*
Y90442D01*
X278027D01*
Y90373D01*
X277889D01*
Y90304D01*
X277820D01*
Y90235D01*
X277682D01*
Y90166D01*
X277544D01*
Y90097D01*
X277475D01*
Y90028D01*
X277337D01*
Y89959D01*
X277130D01*
Y89890D01*
X276923D01*
Y89821D01*
X276233D01*
Y89890D01*
X275957D01*
Y89959D01*
X275819D01*
Y90028D01*
X275681D01*
Y90097D01*
X275543D01*
Y90166D01*
X275474D01*
Y90235D01*
X275336D01*
Y90304D01*
X275267D01*
Y90373D01*
X275129D01*
Y90442D01*
X275060D01*
Y90511D01*
X274991D01*
Y90580D01*
X274922D01*
Y90649D01*
X274853D01*
Y90718D01*
X274784D01*
Y90787D01*
X274715D01*
Y90856D01*
X274646D01*
Y90925D01*
X274577D01*
Y90994D01*
X274508D01*
Y91063D01*
X274439D01*
Y91201D01*
X274370D01*
Y91270D01*
X274163D01*
Y91063D01*
X274094D01*
Y90787D01*
X274025D01*
Y90373D01*
X273956D01*
Y90304D01*
X274025D01*
Y90235D01*
X273956D01*
Y89959D01*
X273887D01*
Y89614D01*
X273818D01*
Y89200D01*
X273749D01*
Y88786D01*
X273680D01*
Y88579D01*
X273611D01*
Y88165D01*
X273542D01*
Y87889D01*
X273473D01*
Y87613D01*
X273404D01*
Y87475D01*
X273335D01*
Y87199D01*
X273266D01*
Y87130D01*
X273197D01*
Y86992D01*
X273128D01*
Y86923D01*
X273059D01*
Y86854D01*
X272921D01*
Y86785D01*
X272645D01*
Y86854D01*
X272438D01*
Y86923D01*
X272369D01*
Y86785D01*
X272300D01*
Y86647D01*
X272231D01*
Y86578D01*
X272162D01*
Y86440D01*
X272093D01*
Y86302D01*
X272024D01*
Y86164D01*
X271955D01*
Y86026D01*
X271886D01*
Y85888D01*
X271817D01*
Y85819D01*
X271748D01*
Y85681D01*
X271679D01*
Y85543D01*
X271610D01*
Y85405D01*
X271541D01*
Y85336D01*
X271472D01*
Y85129D01*
X271403D01*
Y85060D01*
X271334D01*
Y84922D01*
X271265D01*
Y84784D01*
X271196D01*
Y84646D01*
X271127D01*
Y84508D01*
X271058D01*
Y84370D01*
X270989D01*
Y84232D01*
X270920D01*
Y84094D01*
X270851D01*
Y83956D01*
X270782D01*
Y83818D01*
X270713D01*
Y83680D01*
X270644D01*
Y83542D01*
X270575D01*
Y83404D01*
X270506D01*
Y83266D01*
X270437D01*
Y83059D01*
X270368D01*
Y82990D01*
X270299D01*
Y82783D01*
X270230D01*
Y82645D01*
X270161D01*
Y81679D01*
X270092D01*
Y81196D01*
X270023D01*
Y80920D01*
X270092D01*
Y80851D01*
X270023D01*
Y80575D01*
X269954D01*
Y80506D01*
X270023D01*
Y80437D01*
X269954D01*
Y79816D01*
X269885D01*
Y79402D01*
X269816D01*
Y78781D01*
X269747D01*
Y78298D01*
X269678D01*
Y78091D01*
X269609D01*
Y77677D01*
X269540D01*
Y77263D01*
X269471D01*
Y76987D01*
X269402D01*
Y76780D01*
X269333D01*
Y76504D01*
X269264D01*
Y76228D01*
X269195D01*
Y76090D01*
X269126D01*
Y75952D01*
X269057D01*
Y75814D01*
X268988D01*
Y75745D01*
X268574D01*
Y75814D01*
X268436D01*
Y75883D01*
X268367D01*
Y75952D01*
X268298D01*
Y76021D01*
X268229D01*
Y76159D01*
X268160D01*
Y76228D01*
X268091D01*
Y76504D01*
X268022D01*
Y77884D01*
X268091D01*
Y78436D01*
X268160D01*
Y78850D01*
X268229D01*
Y79195D01*
X268298D01*
Y79540D01*
X268367D01*
Y79678D01*
X268436D01*
Y79885D01*
X268505D01*
Y80161D01*
X268574D01*
Y80437D01*
X268643D01*
Y80575D01*
X268712D01*
Y80851D01*
X268781D01*
Y80989D01*
X268850D01*
Y81265D01*
X268919D01*
Y81334D01*
X268988D01*
Y81610D01*
X269057D01*
Y81748D01*
X269126D01*
Y81955D01*
X269195D01*
Y82093D01*
X269264D01*
Y82300D01*
X269333D01*
Y82438D01*
X269402D01*
Y82645D01*
X269471D01*
Y82783D01*
X269540D01*
Y82990D01*
X269609D01*
Y84370D01*
X269678D01*
Y84439D01*
X269609D01*
Y84508D01*
X269678D01*
Y84784D01*
X269609D01*
Y85060D01*
X269678D01*
Y85129D01*
X269609D01*
Y85267D01*
X269678D01*
Y85819D01*
X269609D01*
Y85888D01*
X269678D01*
Y86026D01*
X269609D01*
Y86164D01*
X269678D01*
Y86440D01*
X269609D01*
Y86578D01*
X269678D01*
Y86785D01*
X269609D01*
Y86854D01*
X269678D01*
Y86923D01*
X269609D01*
Y86992D01*
X269540D01*
Y86923D01*
X269471D01*
Y86716D01*
X269402D01*
Y86647D01*
X269333D01*
Y86440D01*
X269264D01*
Y86233D01*
X269195D01*
Y86095D01*
X269126D01*
Y85957D01*
X269057D01*
Y85819D01*
X268988D01*
Y85681D01*
X268919D01*
Y85474D01*
X268850D01*
Y85405D01*
X268781D01*
Y85267D01*
X268712D01*
Y85129D01*
X268643D01*
Y84991D01*
X268505D01*
Y84853D01*
X268436D01*
Y84715D01*
X268367D01*
Y84577D01*
X268298D01*
Y84508D01*
X268229D01*
Y84439D01*
X268160D01*
Y84370D01*
X268091D01*
Y84232D01*
X268022D01*
Y84163D01*
X267953D01*
Y84094D01*
X267884D01*
Y83956D01*
X267815D01*
Y83887D01*
X267746D01*
Y83818D01*
X267677D01*
Y83749D01*
X267608D01*
Y83680D01*
X267470D01*
Y83542D01*
X267401D01*
Y83473D01*
X267263D01*
Y83404D01*
X267194D01*
Y83335D01*
X267056D01*
Y83266D01*
X266987D01*
Y83197D01*
X266849D01*
Y83128D01*
X266780D01*
Y83059D01*
X266711D01*
Y83128D01*
X266642D01*
Y83059D01*
X266021D01*
Y83128D01*
X265883D01*
Y83197D01*
X265745D01*
Y83266D01*
X265607D01*
Y83335D01*
X265538D01*
Y83404D01*
X265400D01*
Y83542D01*
X265262D01*
Y83473D01*
X265193D01*
Y83404D01*
X265124D01*
Y83197D01*
X265055D01*
Y82990D01*
X264986D01*
Y82852D01*
X264917D01*
Y82714D01*
X264848D01*
Y82507D01*
X264779D01*
Y82369D01*
X264710D01*
Y82231D01*
X264641D01*
Y82093D01*
X264572D01*
Y81955D01*
X264503D01*
Y81817D01*
X264434D01*
Y81679D01*
X264365D01*
Y81610D01*
X264296D01*
Y81472D01*
X264227D01*
Y81334D01*
X264158D01*
Y81196D01*
X264089D01*
Y81127D01*
X264020D01*
Y81058D01*
X263951D01*
Y80989D01*
X263882D01*
Y80851D01*
X263813D01*
Y80782D01*
X263744D01*
Y80713D01*
X263675D01*
Y80644D01*
X263537D01*
Y80575D01*
X263468D01*
Y80506D01*
X262985D01*
Y80575D01*
X262847D01*
Y80644D01*
X262709D01*
Y80713D01*
X262640D01*
Y80782D01*
X262571D01*
Y80851D01*
X262433D01*
Y80989D01*
X262364D01*
Y81058D01*
X262295D01*
Y81196D01*
X262226D01*
Y81403D01*
X262157D01*
Y81679D01*
X262088D01*
Y82024D01*
X262019D01*
Y82507D01*
X261950D01*
Y82645D01*
X262019D01*
Y83197D01*
X261950D01*
Y83266D01*
X262019D01*
Y83956D01*
X262088D01*
Y84577D01*
X262157D01*
Y84784D01*
X262226D01*
Y84991D01*
X262157D01*
Y84922D01*
X262019D01*
Y84784D01*
X261950D01*
Y84715D01*
X261881D01*
Y84577D01*
X261812D01*
Y84508D01*
X261743D01*
Y84439D01*
X261674D01*
Y84370D01*
X261605D01*
Y84232D01*
X261536D01*
Y84163D01*
X261467D01*
Y84094D01*
X261398D01*
Y83956D01*
X261329D01*
Y83887D01*
X261260D01*
Y83749D01*
X261191D01*
Y83680D01*
X261122D01*
Y83611D01*
X261053D01*
Y83197D01*
X260984D01*
Y82438D01*
X260915D01*
Y81955D01*
X260846D01*
Y81610D01*
X260777D01*
Y81334D01*
X260708D01*
Y81127D01*
X260640D01*
Y80989D01*
X260571D01*
Y80713D01*
X260502D01*
Y80506D01*
X260433D01*
Y80299D01*
X260364D01*
Y80161D01*
X260295D01*
Y79954D01*
X260226D01*
Y79885D01*
X260156D01*
Y79678D01*
X260087D01*
Y79540D01*
X260018D01*
Y79471D01*
X259949D01*
Y79264D01*
X259880D01*
Y79126D01*
X259811D01*
Y79057D01*
X259742D01*
Y78919D01*
X259674D01*
Y78781D01*
X259605D01*
Y78712D01*
X259536D01*
Y78643D01*
X259467D01*
Y78505D01*
X259398D01*
Y78436D01*
X259329D01*
Y78367D01*
X259260D01*
Y78298D01*
X259191D01*
Y78229D01*
X259121D01*
Y78160D01*
X259052D01*
Y78091D01*
X258983D01*
Y78022D01*
X258845D01*
Y77953D01*
X258776D01*
Y77884D01*
X258639D01*
Y77815D01*
X258432D01*
Y77746D01*
X258225D01*
Y77815D01*
X258086D01*
Y77746D01*
X257948D01*
Y77815D01*
X257810D01*
Y77884D01*
X257673D01*
Y77953D01*
X257535D01*
Y78022D01*
X257466D01*
Y78091D01*
X257328D01*
Y78160D01*
X257259D01*
Y78229D01*
X257189D01*
Y78298D01*
X257120D01*
Y78367D01*
X257051D01*
Y78505D01*
X256982D01*
Y78643D01*
X256913D01*
Y78712D01*
X256844D01*
Y78850D01*
X256775D01*
Y78919D01*
X256707D01*
Y79195D01*
X256638D01*
Y79264D01*
X256569D01*
Y79540D01*
X256500D01*
Y79678D01*
X256431D01*
Y79885D01*
X256362D01*
Y80023D01*
X256293D01*
Y80230D01*
X256224D01*
Y80368D01*
X256154D01*
Y80437D01*
X256016D01*
Y80368D01*
X255947D01*
Y80299D01*
X255878D01*
Y80161D01*
X255809D01*
Y80023D01*
X255740D01*
Y79954D01*
X255672D01*
Y79747D01*
X255603D01*
Y79609D01*
X255534D01*
Y79471D01*
X255465D01*
Y79333D01*
X255396D01*
Y79195D01*
X255327D01*
Y78988D01*
X255258D01*
Y78850D01*
X255188D01*
Y78781D01*
X255119D01*
Y78505D01*
X255050D01*
Y78367D01*
X254981D01*
Y78229D01*
X254912D01*
Y78022D01*
X254843D01*
Y77815D01*
X254774D01*
Y77677D01*
X254706D01*
Y77470D01*
X254637D01*
Y77194D01*
X254568D01*
Y76987D01*
X254499D01*
Y76849D01*
X254430D01*
Y76573D01*
X254361D01*
Y76228D01*
X254292D01*
Y75952D01*
X254223D01*
Y75676D01*
X254153D01*
Y75124D01*
X254084D01*
Y74848D01*
X254015D01*
Y74365D01*
X253946D01*
Y73813D01*
X253878D01*
Y73330D01*
X253809D01*
Y73261D01*
X253740D01*
Y73330D01*
X253671D01*
Y73261D01*
X253602D01*
Y73330D01*
X253464D01*
Y73399D01*
X253395D01*
Y73468D01*
X253257D01*
Y73537D01*
X253188D01*
Y73813D01*
X253119D01*
Y74296D01*
X253050D01*
Y74917D01*
X252981D01*
Y76435D01*
X252912D01*
Y80506D01*
X252981D01*
Y80575D01*
X252912D01*
Y80644D01*
X252981D01*
Y80851D01*
X252912D01*
Y80920D01*
X252981D01*
Y80989D01*
X252912D01*
Y81196D01*
X252981D01*
Y82576D01*
X253050D01*
Y82645D01*
X252981D01*
Y82714D01*
X253050D01*
Y82990D01*
X252981D01*
Y83059D01*
X253050D01*
Y83887D01*
X253119D01*
Y84163D01*
X253050D01*
Y84232D01*
X252981D01*
Y84163D01*
X252912D01*
Y83956D01*
X252843D01*
Y83749D01*
X252774D01*
Y83542D01*
X252705D01*
Y83404D01*
X252636D01*
Y83128D01*
X252567D01*
Y83059D01*
X252498D01*
Y82783D01*
X252429D01*
Y82576D01*
X252360D01*
Y82438D01*
X252291D01*
Y82300D01*
X252222D01*
Y82024D01*
X252153D01*
Y81955D01*
X252084D01*
Y81679D01*
X252015D01*
Y81541D01*
X251946D01*
Y81334D01*
X251877D01*
Y81127D01*
X251808D01*
Y81058D01*
X251739D01*
Y80782D01*
X251670D01*
Y80644D01*
X251601D01*
Y80506D01*
X251532D01*
Y80299D01*
X251463D01*
Y80161D01*
X251394D01*
Y79885D01*
X251325D01*
Y79816D01*
X251256D01*
Y79609D01*
X251187D01*
Y79402D01*
X251118D01*
Y79264D01*
X251049D01*
Y78988D01*
X250980D01*
Y78919D01*
X250911D01*
Y78712D01*
X250842D01*
Y78505D01*
X250773D01*
Y78298D01*
X250704D01*
Y78160D01*
X250635D01*
Y77953D01*
X250566D01*
Y77815D01*
X250497D01*
Y77608D01*
X250428D01*
Y77470D01*
X250359D01*
Y77263D01*
X250290D01*
Y77056D01*
X250221D01*
Y76918D01*
X250152D01*
Y76711D01*
X250083D01*
Y76573D01*
X250014D01*
Y76297D01*
X250083D01*
Y76021D01*
X250152D01*
Y75676D01*
X250221D01*
Y75124D01*
X250290D01*
Y74572D01*
X250359D01*
Y72571D01*
X250290D01*
Y71812D01*
X250221D01*
Y71329D01*
X250152D01*
Y70915D01*
X250083D01*
Y70639D01*
X250014D01*
Y70501D01*
X249945D01*
Y70294D01*
X249876D01*
Y70087D01*
X249807D01*
Y69949D01*
X249738D01*
Y69811D01*
X249669D01*
Y69673D01*
X249600D01*
Y69535D01*
X249531D01*
Y69397D01*
X249393D01*
Y69259D01*
X249324D01*
Y69190D01*
X249255D01*
Y69121D01*
X249186D01*
Y69052D01*
X249117D01*
Y68983D01*
X248979D01*
Y68914D01*
X248772D01*
Y68845D01*
X248703D01*
Y68914D01*
X248427D01*
Y68983D01*
X248220D01*
Y69052D01*
X248082D01*
Y69121D01*
X248013D01*
Y69190D01*
X247875D01*
Y69259D01*
X247806D01*
Y69328D01*
X247737D01*
Y69466D01*
X247668D01*
Y69604D01*
X247599D01*
Y69811D01*
X247530D01*
Y70570D01*
X247461D01*
Y70708D01*
X247530D01*
Y71122D01*
X247599D01*
Y71398D01*
X247668D01*
Y71467D01*
X247599D01*
Y71605D01*
X247668D01*
Y71950D01*
X247737D01*
Y72226D01*
X247806D01*
Y72433D01*
X247875D01*
Y72778D01*
X247944D01*
Y72985D01*
X248013D01*
Y73261D01*
X248082D01*
Y73468D01*
X248151D01*
Y73675D01*
X248220D01*
Y73882D01*
X248289D01*
Y74089D01*
X248358D01*
Y74296D01*
X248427D01*
Y74434D01*
X248496D01*
Y74710D01*
X248565D01*
Y74848D01*
X248634D01*
Y75124D01*
X248703D01*
Y75331D01*
X248772D01*
Y75469D01*
X248841D01*
Y75676D01*
X248910D01*
Y75952D01*
X248979D01*
Y76021D01*
X249048D01*
Y76297D01*
X249117D01*
Y76435D01*
X249186D01*
Y76780D01*
X249117D01*
Y76987D01*
X249048D01*
Y77263D01*
X248979D01*
Y77401D01*
X248910D01*
Y77608D01*
X248841D01*
Y77815D01*
X248772D01*
Y77953D01*
X248703D01*
Y78022D01*
X248634D01*
Y78298D01*
X248565D01*
Y78436D01*
X248496D01*
Y78505D01*
X248427D01*
Y78643D01*
X248358D01*
Y78781D01*
X248289D01*
Y78988D01*
X248220D01*
Y79057D01*
X248151D01*
Y79195D01*
X248082D01*
Y79333D01*
X248013D01*
Y79402D01*
X247944D01*
Y79540D01*
X247875D01*
Y79609D01*
X247806D01*
Y79747D01*
X247668D01*
Y79816D01*
X247599D01*
Y79954D01*
X247530D01*
Y80023D01*
X247461D01*
Y80161D01*
X247392D01*
Y80299D01*
X247323D01*
Y80368D01*
X247185D01*
Y80506D01*
X247116D01*
Y80575D01*
X247047D01*
Y80713D01*
X246978D01*
Y80782D01*
X246909D01*
Y80851D01*
X246840D01*
Y80920D01*
X246771D01*
Y80989D01*
X246702D01*
Y81127D01*
X246633D01*
Y81196D01*
X246495D01*
Y81265D01*
X246357D01*
Y81196D01*
X246288D01*
Y81058D01*
X246219D01*
Y80920D01*
X246150D01*
Y80713D01*
X246081D01*
Y80575D01*
X246012D01*
Y80437D01*
X245943D01*
Y80230D01*
X245874D01*
Y80023D01*
X245805D01*
Y79954D01*
X245736D01*
Y79747D01*
X245667D01*
Y79609D01*
X245598D01*
Y79402D01*
X245529D01*
Y79264D01*
X245460D01*
Y79057D01*
X245391D01*
Y78919D01*
X245322D01*
Y78712D01*
X245253D01*
Y78643D01*
X245184D01*
Y78436D01*
X245115D01*
Y78298D01*
X245046D01*
Y78091D01*
X244977D01*
Y77953D01*
X244908D01*
Y77815D01*
X244839D01*
Y77677D01*
X244770D01*
Y77470D01*
X244701D01*
Y77401D01*
X244632D01*
Y77125D01*
X244563D01*
Y77056D01*
X244494D01*
Y76849D01*
X244425D01*
Y76711D01*
X244356D01*
Y76504D01*
X244287D01*
Y76435D01*
X244218D01*
Y76228D01*
X244149D01*
Y76090D01*
X244080D01*
Y75952D01*
X244011D01*
Y75814D01*
X243942D01*
Y75607D01*
X243873D01*
Y75469D01*
X243804D01*
Y75262D01*
X243735D01*
Y75124D01*
X243666D01*
Y74986D01*
X243597D01*
Y74848D01*
X243528D01*
Y74641D01*
X243459D01*
Y74572D01*
X243390D01*
Y74365D01*
X243321D01*
Y74227D01*
X243252D01*
Y74020D01*
X243183D01*
Y73882D01*
X243114D01*
Y73744D01*
X243045D01*
Y73606D01*
X242976D01*
Y73468D01*
X242907D01*
Y73261D01*
X242838D01*
Y73192D01*
X242769D01*
Y72985D01*
X242700D01*
Y72847D01*
X242631D01*
Y72640D01*
X242562D01*
Y72571D01*
X242493D01*
Y72364D01*
X242424D01*
Y72226D01*
X242355D01*
Y72088D01*
X242286D01*
Y71950D01*
X242217D01*
Y71812D01*
X242148D01*
Y71674D01*
X242079D01*
Y71536D01*
X242010D01*
Y71329D01*
X241941D01*
Y71191D01*
X241872D01*
Y71053D01*
X241803D01*
Y70915D01*
X241734D01*
Y70777D01*
X241665D01*
Y70639D01*
X241596D01*
Y70501D01*
X241527D01*
Y70363D01*
X241458D01*
Y70225D01*
X241389D01*
Y70087D01*
X241320D01*
Y69949D01*
X241251D01*
Y69811D01*
X241182D01*
Y69673D01*
X241113D01*
Y69535D01*
X241044D01*
Y69397D01*
X240975D01*
Y69259D01*
X240906D01*
Y69121D01*
X240837D01*
Y68983D01*
X240768D01*
Y68845D01*
X240699D01*
Y68707D01*
X240630D01*
Y68569D01*
X240561D01*
Y68431D01*
X240492D01*
Y68362D01*
X240423D01*
Y68155D01*
X240354D01*
Y68086D01*
X240285D01*
Y67948D01*
X240216D01*
Y67810D01*
X240147D01*
Y67672D01*
X240078D01*
Y67534D01*
X240009D01*
Y67396D01*
X239940D01*
Y67258D01*
X239871D01*
Y67189D01*
X239802D01*
Y66982D01*
X239733D01*
Y66844D01*
X239664D01*
Y66706D01*
X239595D01*
Y66637D01*
X239526D01*
Y66499D01*
X239457D01*
Y66361D01*
X239388D01*
Y66223D01*
X239319D01*
Y66085D01*
X239250D01*
Y65947D01*
X239181D01*
Y65878D01*
X239112D01*
Y65740D01*
X239043D01*
Y65602D01*
X238974D01*
Y65464D01*
X238905D01*
Y65326D01*
X238836D01*
Y65257D01*
X238767D01*
Y65050D01*
X238698D01*
Y64912D01*
X238629D01*
Y64843D01*
X238560D01*
Y64705D01*
X238491D01*
Y64567D01*
X238422D01*
Y64429D01*
X238353D01*
Y64360D01*
X238284D01*
Y64153D01*
X238215D01*
Y64084D01*
X238146D01*
Y63946D01*
X238077D01*
Y63808D01*
X238008D01*
Y63670D01*
X237939D01*
Y63601D01*
X237870D01*
Y63394D01*
X237801D01*
Y63256D01*
X237732D01*
Y63187D01*
X237663D01*
Y62980D01*
X237594D01*
Y62911D01*
X237525D01*
Y62773D01*
X237456D01*
Y62635D01*
X237387D01*
Y62497D01*
X237318D01*
Y62359D01*
X237249D01*
Y62221D01*
X237180D01*
Y62152D01*
X237111D01*
Y62014D01*
X237042D01*
Y61945D01*
X236973D01*
Y61807D01*
X236904D01*
Y61738D01*
X236697D01*
Y61876D01*
X236766D01*
Y61945D01*
X236835D01*
Y62083D01*
X236904D01*
Y62221D01*
X236973D01*
Y62359D01*
X237042D01*
Y62497D01*
X237111D01*
Y62635D01*
X237180D01*
Y62773D01*
X237249D01*
Y62911D01*
X237318D01*
Y63049D01*
X237387D01*
Y63187D01*
X237456D01*
Y63325D01*
X237525D01*
Y63394D01*
X237594D01*
Y63601D01*
X237663D01*
Y63739D01*
X237732D01*
Y63877D01*
X237801D01*
Y64015D01*
X237870D01*
Y64153D01*
X237939D01*
Y64291D01*
X238008D01*
Y64429D01*
X238077D01*
Y64567D01*
X238146D01*
Y64705D01*
X238215D01*
Y64774D01*
X238284D01*
Y64981D01*
X238353D01*
Y65050D01*
X238422D01*
Y65188D01*
X238491D01*
Y65395D01*
X238560D01*
Y65464D01*
X238629D01*
Y65602D01*
X238698D01*
Y65809D01*
X238767D01*
Y65878D01*
X238836D01*
Y66085D01*
X238905D01*
Y66154D01*
X238974D01*
Y66292D01*
X239043D01*
Y66430D01*
X239112D01*
Y66568D01*
X239181D01*
Y66706D01*
X239250D01*
Y66844D01*
X239319D01*
Y66982D01*
X239388D01*
Y67120D01*
X239457D01*
Y67258D01*
X239526D01*
Y67396D01*
X239595D01*
Y67534D01*
X239664D01*
Y67672D01*
X239733D01*
Y67810D01*
X239802D01*
Y67948D01*
X239871D01*
Y68086D01*
X239940D01*
Y68224D01*
X240009D01*
Y68362D01*
X240078D01*
Y68500D01*
X240147D01*
Y68638D01*
X240216D01*
Y68776D01*
X240285D01*
Y68983D01*
X240354D01*
Y69052D01*
X240423D01*
Y69190D01*
X240492D01*
Y69328D01*
X240561D01*
Y69466D01*
X240630D01*
Y69673D01*
X240699D01*
Y69742D01*
X240768D01*
Y69880D01*
X240837D01*
Y70018D01*
X240906D01*
Y70156D01*
X240975D01*
Y70363D01*
X241044D01*
Y70432D01*
X241113D01*
Y70639D01*
X241182D01*
Y70777D01*
X241251D01*
Y70915D01*
X241320D01*
Y71053D01*
X241389D01*
Y71191D01*
X241458D01*
Y71329D01*
X241527D01*
Y71536D01*
X241596D01*
Y71674D01*
X241665D01*
Y71812D01*
X241734D01*
Y71950D01*
X241803D01*
Y72157D01*
X241872D01*
Y72226D01*
X241941D01*
Y72433D01*
X242010D01*
Y72571D01*
X242079D01*
Y72778D01*
X242148D01*
Y72847D01*
X242217D01*
Y73054D01*
X242286D01*
Y73192D01*
X242355D01*
Y73330D01*
X242424D01*
Y73537D01*
X242493D01*
Y73675D01*
X242562D01*
Y73813D01*
X242631D01*
Y74020D01*
X242700D01*
Y74089D01*
X242769D01*
Y74296D01*
X242838D01*
Y74434D01*
X242907D01*
Y74641D01*
X242976D01*
Y74779D01*
X243045D01*
Y74986D01*
X243114D01*
Y75055D01*
X243183D01*
Y75262D01*
X243252D01*
Y75469D01*
X243321D01*
Y75607D01*
X243390D01*
Y75814D01*
X243459D01*
Y75952D01*
X243528D01*
Y76090D01*
X243597D01*
Y76228D01*
X243666D01*
Y76366D01*
X243735D01*
Y76573D01*
X243804D01*
Y76780D01*
X243873D01*
Y76918D01*
X243942D01*
Y77056D01*
X244011D01*
Y77194D01*
X244080D01*
Y77332D01*
X244149D01*
Y77539D01*
X244218D01*
Y77746D01*
X244287D01*
Y77884D01*
X244356D01*
Y78091D01*
X244425D01*
Y78160D01*
X244494D01*
Y78367D01*
X244563D01*
Y78505D01*
X244632D01*
Y78712D01*
X244701D01*
Y78919D01*
X244770D01*
Y79057D01*
X244839D01*
Y79195D01*
X244908D01*
Y79402D01*
X244977D01*
Y79540D01*
X245046D01*
Y79747D01*
X245115D01*
Y79954D01*
X245184D01*
Y80023D01*
X245253D01*
Y80230D01*
X245322D01*
Y80437D01*
X245391D01*
Y80575D01*
X245460D01*
Y80713D01*
X245529D01*
Y80920D01*
X245598D01*
Y81058D01*
X245667D01*
Y81265D01*
X245736D01*
Y81472D01*
X245805D01*
Y81610D01*
X245874D01*
Y81748D01*
X245943D01*
Y82093D01*
X245874D01*
Y82162D01*
X245805D01*
Y82300D01*
X245736D01*
Y82369D01*
X245667D01*
Y82507D01*
X245598D01*
Y82576D01*
X245529D01*
Y82714D01*
X245460D01*
Y82852D01*
X245391D01*
Y82921D01*
X245322D01*
Y83197D01*
X245253D01*
Y83404D01*
X245184D01*
Y83749D01*
X245115D01*
Y84163D01*
X245046D01*
Y84232D01*
X245115D01*
Y84301D01*
X245046D01*
Y84577D01*
X245115D01*
Y84715D01*
X245046D01*
Y84784D01*
X245115D01*
Y85405D01*
X245184D01*
Y85681D01*
X245253D01*
Y85888D01*
X245322D01*
Y85957D01*
X245253D01*
Y86026D01*
X245322D01*
Y86233D01*
X245391D01*
Y86371D01*
X245460D01*
Y86578D01*
X245529D01*
Y86716D01*
X245598D01*
Y86923D01*
X245667D01*
Y86992D01*
X245736D01*
Y87130D01*
X245805D01*
Y87268D01*
X245874D01*
Y87406D01*
X245943D01*
Y87544D01*
X246012D01*
Y87613D01*
X246081D01*
Y87751D01*
X246150D01*
Y87820D01*
X246219D01*
Y87889D01*
X246288D01*
Y88027D01*
X246357D01*
Y88165D01*
X246426D01*
Y88234D01*
X246495D01*
Y88303D01*
X246564D01*
Y88372D01*
X246633D01*
Y88441D01*
X246702D01*
Y88510D01*
X246771D01*
Y88579D01*
X246840D01*
Y88648D01*
X246909D01*
Y88717D01*
X246978D01*
Y88786D01*
X247047D01*
Y88855D01*
X247116D01*
Y88924D01*
X247254D01*
Y88993D01*
X247392D01*
Y89062D01*
X247599D01*
Y89131D01*
X248013D01*
Y89062D01*
X248151D01*
Y88993D01*
X248220D01*
Y88855D01*
X248289D01*
Y88786D01*
X248358D01*
Y88510D01*
X248427D01*
Y87268D01*
X248358D01*
Y86992D01*
X248289D01*
Y86440D01*
X248220D01*
Y86233D01*
X248151D01*
Y86095D01*
X248082D01*
Y85819D01*
X248013D01*
Y85405D01*
X247944D01*
Y85336D01*
X247875D01*
Y85060D01*
X247806D01*
Y84853D01*
X247737D01*
Y84715D01*
X247668D01*
Y84439D01*
X247599D01*
Y84301D01*
X247530D01*
Y84094D01*
X247461D01*
Y83956D01*
X247392D01*
Y83680D01*
X247323D01*
Y83611D01*
X247254D01*
Y83404D01*
X247185D01*
Y83197D01*
X247116D01*
Y83059D01*
X247047D01*
Y82852D01*
X246978D01*
Y82714D01*
X246909D01*
Y82507D01*
X246840D01*
Y82369D01*
X246771D01*
Y82093D01*
X246840D01*
Y81955D01*
X246909D01*
Y81886D01*
X246978D01*
Y81748D01*
X247116D01*
Y81679D01*
X247185D01*
Y81541D01*
X247254D01*
Y81403D01*
X247392D01*
Y81334D01*
X247461D01*
Y81265D01*
X247530D01*
Y81127D01*
X247599D01*
Y80989D01*
X247737D01*
Y80920D01*
X247806D01*
Y80851D01*
X247875D01*
Y80713D01*
X247944D01*
Y80575D01*
X248013D01*
Y80506D01*
X248082D01*
Y80437D01*
X248151D01*
Y80368D01*
X248220D01*
Y80299D01*
X248289D01*
Y80161D01*
X248358D01*
Y80092D01*
X248427D01*
Y79954D01*
X248496D01*
Y79885D01*
X248565D01*
Y79747D01*
X248634D01*
Y79609D01*
X248703D01*
Y79540D01*
X248772D01*
Y79402D01*
X248841D01*
Y79264D01*
X248910D01*
Y79195D01*
X248979D01*
Y79057D01*
X249048D01*
Y78988D01*
X249117D01*
Y78850D01*
X249186D01*
Y78643D01*
X249255D01*
Y78505D01*
X249324D01*
Y78367D01*
X249393D01*
Y78160D01*
X249462D01*
Y78022D01*
X249531D01*
Y77953D01*
X249600D01*
Y77746D01*
X249669D01*
Y77953D01*
X249738D01*
Y78022D01*
X249807D01*
Y78298D01*
X249876D01*
Y78367D01*
X249945D01*
Y78643D01*
X250014D01*
Y78712D01*
X250083D01*
Y78988D01*
X250152D01*
Y79195D01*
X250221D01*
Y79264D01*
X250290D01*
Y79540D01*
X250359D01*
Y79609D01*
X250428D01*
Y79816D01*
X250497D01*
Y80092D01*
X250566D01*
Y80161D01*
X250635D01*
Y80368D01*
X250704D01*
Y80506D01*
X250773D01*
Y80713D01*
X250842D01*
Y80920D01*
X250911D01*
Y81058D01*
X250980D01*
Y81265D01*
X251049D01*
Y81403D01*
X251118D01*
Y81610D01*
X251187D01*
Y81748D01*
X251256D01*
Y81955D01*
X251325D01*
Y82162D01*
X251394D01*
Y82300D01*
X251463D01*
Y82507D01*
X251532D01*
Y82645D01*
X251601D01*
Y82852D01*
X251670D01*
Y82990D01*
X251739D01*
Y83266D01*
X251808D01*
Y83335D01*
X251877D01*
Y83611D01*
X251946D01*
Y83680D01*
X252015D01*
Y83956D01*
X252084D01*
Y84094D01*
X252153D01*
Y84301D01*
X252222D01*
Y84508D01*
X252291D01*
Y84646D01*
X252360D01*
Y84853D01*
X252429D01*
Y85060D01*
X252498D01*
Y85198D01*
X252567D01*
Y85405D01*
X252636D01*
Y85681D01*
X252705D01*
Y85819D01*
X252774D01*
Y85957D01*
X252843D01*
Y86233D01*
X252912D01*
Y86440D01*
X252981D01*
Y86647D01*
X253050D01*
Y86785D01*
X253119D01*
Y87061D01*
X253188D01*
Y87268D01*
X253257D01*
Y87544D01*
X253326D01*
Y87682D01*
X253395D01*
Y87820D01*
X253464D01*
Y88096D01*
X253533D01*
Y88372D01*
X253602D01*
Y88579D01*
X253671D01*
Y88717D01*
X253740D01*
Y88786D01*
X253809D01*
Y88855D01*
X253878D01*
Y88924D01*
X254153D01*
Y88855D01*
X254223D01*
Y88786D01*
X254292D01*
Y88510D01*
X254361D01*
Y88303D01*
X254292D01*
Y88027D01*
X254223D01*
Y87613D01*
X254153D01*
Y87199D01*
X254084D01*
Y86578D01*
X254015D01*
Y86164D01*
X253946D01*
Y85543D01*
X253878D01*
Y85060D01*
X253809D01*
Y84991D01*
X253878D01*
Y84922D01*
X253809D01*
Y84094D01*
X253740D01*
Y82990D01*
X253671D01*
Y82507D01*
X253740D01*
Y82438D01*
X253671D01*
Y81817D01*
X253602D01*
Y81679D01*
X253671D01*
Y81541D01*
X253602D01*
Y81472D01*
X253671D01*
Y81334D01*
X253602D01*
Y81265D01*
X253671D01*
Y81058D01*
X253602D01*
Y78850D01*
X253533D01*
Y78505D01*
X253602D01*
Y78436D01*
X253533D01*
Y78298D01*
X253602D01*
Y78229D01*
X253533D01*
Y78091D01*
X253602D01*
Y77953D01*
X253533D01*
Y77884D01*
X253602D01*
Y77746D01*
X253533D01*
Y77608D01*
X253602D01*
Y77539D01*
X253533D01*
Y77401D01*
X253602D01*
Y76504D01*
X253671D01*
Y76573D01*
X253740D01*
Y76849D01*
X253809D01*
Y77194D01*
X253878D01*
Y77332D01*
X253946D01*
Y77539D01*
X254015D01*
Y77815D01*
X254084D01*
Y78022D01*
X254153D01*
Y78160D01*
X254223D01*
Y78367D01*
X254292D01*
Y78505D01*
X254361D01*
Y78712D01*
X254430D01*
Y78919D01*
X254499D01*
Y78988D01*
X254568D01*
Y79195D01*
X254637D01*
Y79333D01*
X254706D01*
Y79471D01*
X254774D01*
Y79678D01*
X254843D01*
Y79747D01*
X254912D01*
Y79954D01*
X254981D01*
Y80092D01*
X255050D01*
Y80230D01*
X255119D01*
Y80299D01*
X255188D01*
Y80506D01*
X255258D01*
Y80575D01*
X255327D01*
Y80713D01*
X255396D01*
Y80782D01*
X255465D01*
Y80851D01*
X255534D01*
Y80920D01*
X255603D01*
Y81058D01*
X255740D01*
Y81127D01*
X255878D01*
Y81196D01*
X255947D01*
Y81265D01*
X256362D01*
Y81196D01*
X256431D01*
Y81127D01*
X256500D01*
Y80989D01*
X256569D01*
Y80851D01*
X256638D01*
Y80782D01*
X256707D01*
Y80575D01*
X256775D01*
Y80437D01*
X256844D01*
Y80299D01*
X256913D01*
Y80092D01*
X256982D01*
Y79816D01*
X257051D01*
Y79747D01*
X257120D01*
Y79609D01*
X257189D01*
Y79333D01*
X257259D01*
Y79264D01*
X257328D01*
Y79126D01*
X257397D01*
Y79057D01*
X257466D01*
Y78919D01*
X257535D01*
Y78850D01*
X257604D01*
Y78712D01*
X257673D01*
Y78643D01*
X257741D01*
Y78574D01*
X257810D01*
Y78505D01*
X257948D01*
Y78436D01*
X258294D01*
Y78505D01*
X258432D01*
Y78574D01*
X258501D01*
Y78643D01*
X258570D01*
Y78712D01*
X258639D01*
Y78781D01*
X258707D01*
Y78850D01*
X258776D01*
Y78988D01*
X258845D01*
Y79057D01*
X258914D01*
Y79195D01*
X258983D01*
Y79264D01*
X259052D01*
Y79402D01*
X259121D01*
Y79540D01*
X259191D01*
Y79609D01*
X259260D01*
Y79747D01*
X259329D01*
Y79885D01*
X259398D01*
Y80023D01*
X259467D01*
Y80230D01*
X259536D01*
Y80368D01*
X259605D01*
Y80506D01*
X259674D01*
Y80713D01*
X259742D01*
Y80920D01*
X259811D01*
Y81058D01*
X259880D01*
Y81334D01*
X259949D01*
Y81541D01*
X260018D01*
Y81817D01*
X260087D01*
Y82093D01*
X260156D01*
Y82162D01*
X260087D01*
Y82231D01*
X260018D01*
Y82162D01*
X259949D01*
Y82024D01*
X259811D01*
Y81955D01*
X259742D01*
Y81886D01*
X259674D01*
Y81817D01*
X259605D01*
Y81748D01*
X259467D01*
Y81679D01*
X259191D01*
Y81610D01*
X259052D01*
Y81679D01*
X258845D01*
Y81748D01*
X258707D01*
Y81817D01*
X258639D01*
Y81886D01*
X258570D01*
Y81955D01*
X258501D01*
Y82024D01*
X258432D01*
Y82162D01*
X258363D01*
Y82714D01*
X258432D01*
Y82921D01*
X258501D01*
Y83197D01*
X258570D01*
Y83404D01*
X258639D01*
Y83542D01*
X258707D01*
Y83680D01*
X258776D01*
Y83818D01*
X258845D01*
Y83887D01*
X258914D01*
Y83956D01*
X258983D01*
Y84094D01*
X259052D01*
Y84163D01*
X259121D01*
Y84301D01*
X259191D01*
Y84370D01*
X259260D01*
Y84439D01*
X259329D01*
Y84508D01*
X259467D01*
Y84577D01*
X259536D01*
Y84646D01*
X259605D01*
Y84715D01*
X259742D01*
Y84784D01*
X259880D01*
Y84853D01*
X259949D01*
Y84922D01*
X260502D01*
Y84853D01*
X260640D01*
Y84784D01*
X260708D01*
Y84646D01*
X260777D01*
Y84577D01*
X260846D01*
Y84439D01*
X260915D01*
Y84508D01*
X260984D01*
Y84577D01*
X261053D01*
Y84715D01*
X261191D01*
Y84853D01*
X261260D01*
Y84922D01*
X261329D01*
Y85060D01*
X261398D01*
Y85129D01*
X261467D01*
Y85198D01*
X261536D01*
Y85336D01*
X261605D01*
Y85405D01*
X261674D01*
Y85474D01*
X261743D01*
Y85543D01*
X261812D01*
Y85681D01*
X261950D01*
Y85819D01*
X262019D01*
Y85888D01*
X262157D01*
Y85957D01*
X262295D01*
Y86026D01*
X262364D01*
Y86095D01*
X262433D01*
Y86164D01*
X262709D01*
Y86095D01*
X262778D01*
Y86026D01*
X262847D01*
Y85888D01*
X262916D01*
Y85267D01*
X262847D01*
Y84646D01*
X262778D01*
Y84439D01*
X262709D01*
Y83956D01*
X262640D01*
Y83335D01*
X262571D01*
Y83266D01*
X262640D01*
Y83197D01*
X262571D01*
Y82714D01*
X262640D01*
Y82645D01*
X262571D01*
Y82369D01*
X262640D01*
Y81817D01*
X262709D01*
Y81610D01*
X262778D01*
Y81334D01*
X262847D01*
Y81265D01*
X262916D01*
Y81196D01*
X263054D01*
Y81127D01*
X263192D01*
Y81196D01*
X263261D01*
Y81265D01*
X263330D01*
Y81334D01*
X263399D01*
Y81472D01*
X263468D01*
Y81541D01*
X263537D01*
Y81679D01*
X263606D01*
Y81748D01*
X263675D01*
Y81886D01*
X263744D01*
Y82024D01*
X263813D01*
Y82093D01*
X263882D01*
Y82231D01*
X263951D01*
Y82438D01*
X264020D01*
Y82576D01*
X264089D01*
Y82714D01*
X264158D01*
Y82852D01*
X264227D01*
Y82990D01*
X264296D01*
Y83197D01*
X264365D01*
Y83335D01*
X264434D01*
Y83473D01*
X264503D01*
Y83749D01*
X264572D01*
Y83818D01*
X264641D01*
Y84094D01*
X264710D01*
Y84163D01*
X264779D01*
Y84370D01*
X264848D01*
Y84577D01*
X264917D01*
Y85474D01*
X264986D01*
Y85543D01*
X264917D01*
Y85750D01*
X264986D01*
Y86233D01*
X265055D01*
Y86440D01*
X265124D01*
Y86854D01*
X265193D01*
Y87061D01*
X265262D01*
Y87199D01*
X265331D01*
Y87475D01*
X265400D01*
Y87613D01*
X265469D01*
Y87751D01*
X265538D01*
Y87958D01*
X265607D01*
Y88027D01*
X265676D01*
Y88165D01*
X265745D01*
Y88234D01*
X265883D01*
Y88303D01*
X265952D01*
Y88372D01*
X266228D01*
Y88303D01*
X266297D01*
Y88234D01*
X266366D01*
Y88027D01*
X266435D01*
Y87268D01*
X266366D01*
Y86923D01*
X266297D01*
Y86647D01*
X266228D01*
Y86371D01*
X266159D01*
Y86095D01*
X266090D01*
Y85888D01*
X266021D01*
Y85612D01*
X265952D01*
Y85405D01*
X265883D01*
Y85267D01*
X265814D01*
Y85060D01*
X265745D01*
Y84784D01*
X265676D01*
Y84577D01*
X265607D01*
Y84163D01*
X265676D01*
Y84025D01*
X265745D01*
Y83887D01*
X265814D01*
Y83818D01*
X265952D01*
Y83749D01*
X266090D01*
Y83680D01*
X266573D01*
Y83749D01*
X266642D01*
Y83818D01*
X266711D01*
Y83887D01*
X266849D01*
Y83956D01*
X266918D01*
Y84094D01*
X267056D01*
Y84163D01*
X267125D01*
Y84301D01*
X267263D01*
Y84370D01*
X267332D01*
Y84508D01*
X267401D01*
Y84577D01*
X267470D01*
Y84646D01*
X267539D01*
Y84784D01*
X267608D01*
Y84853D01*
X267677D01*
Y84991D01*
X267746D01*
Y85060D01*
X267815D01*
Y85129D01*
X267884D01*
Y85267D01*
X267953D01*
Y85336D01*
X268022D01*
Y85474D01*
X268091D01*
Y85543D01*
X268160D01*
Y85750D01*
X268229D01*
Y85819D01*
X268298D01*
Y86026D01*
X268367D01*
Y86164D01*
X268436D01*
Y86302D01*
X268505D01*
Y86440D01*
X268574D01*
Y86647D01*
X268643D01*
Y86785D01*
X268712D01*
Y86992D01*
X268781D01*
Y87130D01*
X268850D01*
Y87337D01*
X268919D01*
Y87475D01*
X268988D01*
Y87682D01*
X269057D01*
Y87889D01*
X269126D01*
Y88165D01*
X269195D01*
Y88372D01*
X269264D01*
Y88510D01*
X269333D01*
Y88786D01*
X269402D01*
Y89200D01*
X269471D01*
Y89614D01*
X269540D01*
Y90166D01*
X269609D01*
Y90649D01*
X269678D01*
Y90856D01*
X269747D01*
Y90994D01*
X269885D01*
Y91063D01*
X270230D01*
Y90718D01*
X270299D01*
Y90442D01*
X270230D01*
Y90304D01*
X270299D01*
Y90097D01*
X270230D01*
Y89683D01*
X270161D01*
Y88855D01*
X270092D01*
Y88786D01*
X270161D01*
Y87406D01*
X270230D01*
Y86026D01*
X270299D01*
Y85957D01*
X270230D01*
Y85819D01*
X270299D01*
Y85750D01*
X270230D01*
Y85681D01*
X270299D01*
Y85612D01*
X270230D01*
Y85405D01*
X270299D01*
Y85336D01*
X270230D01*
Y85129D01*
X270299D01*
Y85060D01*
X270230D01*
Y84991D01*
X270299D01*
Y84715D01*
X270230D01*
Y84577D01*
X270368D01*
Y84646D01*
X270437D01*
Y84784D01*
X270506D01*
Y84922D01*
X270575D01*
Y85060D01*
X270644D01*
Y85198D01*
X270713D01*
Y85336D01*
X270782D01*
Y85474D01*
X270851D01*
Y85543D01*
X270920D01*
Y85750D01*
X270989D01*
Y85819D01*
X271058D01*
Y85957D01*
X271127D01*
Y86095D01*
X271196D01*
Y86233D01*
X271265D01*
Y86302D01*
X271334D01*
Y86440D01*
X271403D01*
Y86578D01*
X271472D01*
Y86716D01*
X271541D01*
Y86854D01*
X271610D01*
Y86992D01*
X271679D01*
Y87130D01*
X271748D01*
Y87199D01*
X271817D01*
Y87337D01*
X271886D01*
Y87475D01*
X271955D01*
Y87613D01*
X271886D01*
Y87889D01*
X271817D01*
Y88372D01*
X271748D01*
Y88441D01*
X271817D01*
Y89200D01*
X271886D01*
Y89683D01*
X271955D01*
Y89890D01*
X272024D01*
Y90166D01*
X272093D01*
Y90442D01*
X272162D01*
Y90649D01*
X272231D01*
Y90718D01*
X272300D01*
Y90994D01*
X272369D01*
Y91132D01*
X272438D01*
Y91270D01*
X272507D01*
Y91408D01*
X272576D01*
Y91546D01*
X272645D01*
Y91684D01*
X272714D01*
Y91822D01*
X272783D01*
Y91891D01*
X272852D01*
Y92098D01*
X272921D01*
Y92167D01*
X272990D01*
Y92236D01*
X273059D01*
Y92305D01*
X273128D01*
Y92443D01*
X273197D01*
Y92512D01*
X273266D01*
Y92581D01*
X273335D01*
Y92650D01*
X273404D01*
Y92719D01*
X273542D01*
Y92788D01*
X273749D01*
Y92719D01*
X273818D01*
Y92581D01*
X273887D01*
Y92512D01*
X273956D01*
Y92236D01*
X274025D01*
Y92167D01*
X273956D01*
Y92098D01*
X274025D01*
Y92029D01*
X274094D01*
Y92098D01*
X274163D01*
Y92029D01*
X274370D01*
Y91960D01*
X274508D01*
Y91891D01*
X274577D01*
Y91753D01*
X274715D01*
Y91684D01*
X274784D01*
Y91546D01*
X274922D01*
Y91477D01*
X274991D01*
Y91339D01*
X275060D01*
Y91270D01*
X275198D01*
Y91132D01*
X275267D01*
Y91063D01*
X275405D01*
Y90994D01*
X275474D01*
Y90925D01*
X275543D01*
Y90856D01*
X275612D01*
Y90787D01*
X275750D01*
Y90718D01*
X275819D01*
Y90649D01*
X276026D01*
Y90580D01*
X276233D01*
Y90511D01*
X276647D01*
Y90580D01*
X276854D01*
Y90649D01*
X276992D01*
Y90718D01*
X277061D01*
Y90787D01*
X277199D01*
Y90856D01*
X277337D01*
Y90925D01*
X277406D01*
Y90994D01*
X277544D01*
Y91063D01*
X277613D01*
Y91132D01*
X277751D01*
Y91201D01*
X277820D01*
Y91339D01*
X277958D01*
Y91408D01*
X278096D01*
Y91546D01*
X278165D01*
Y91615D01*
X278303D01*
Y91684D01*
X278372D01*
Y91753D01*
X278441D01*
Y91891D01*
X278579D01*
Y91960D01*
X278648D01*
Y92098D01*
X278786D01*
Y92167D01*
X278855D01*
Y92236D01*
X278924D01*
Y92305D01*
X278993D01*
Y92374D01*
X279062D01*
Y92512D01*
X279131D01*
Y92581D01*
X279269D01*
Y92719D01*
X279407D01*
Y92857D01*
X279476D01*
Y92926D01*
X279545D01*
Y92995D01*
X279614D01*
Y93064D01*
X279683D01*
Y93133D01*
X279752D01*
Y93202D01*
X279821D01*
Y93271D01*
X279890D01*
Y93340D01*
X279959D01*
Y93409D01*
X280028D01*
Y93478D01*
X280097D01*
Y93547D01*
X280166D01*
Y93616D01*
X280235D01*
Y93754D01*
X280373D01*
Y93892D01*
X280442D01*
Y93961D01*
X280580D01*
Y94099D01*
X280649D01*
Y94168D01*
X280718D01*
Y94237D01*
X280787D01*
Y94306D01*
X280856D01*
Y94375D01*
X280925D01*
Y94513D01*
X281063D01*
Y94582D01*
X281132D01*
Y94651D01*
X281201D01*
Y94720D01*
X281270D01*
Y94789D01*
X281339D01*
Y94927D01*
X281477D01*
Y95065D01*
X281546D01*
Y95134D01*
X281615D01*
Y95203D01*
X281684D01*
Y95272D01*
X281753D01*
Y95341D01*
X281822D01*
Y95410D01*
X281891D01*
Y95479D01*
X281960D01*
Y95548D01*
X282029D01*
Y95617D01*
X282098D01*
Y95686D01*
X282167D01*
Y95755D01*
X282236D01*
Y95824D01*
X282305D01*
Y95893D01*
X282374D01*
Y95962D01*
X282443D01*
Y96031D01*
X282512D01*
Y96169D01*
X282581D01*
Y96100D01*
D02*
G37*
G36*
X296795Y67051D02*
X296864D01*
Y66982D01*
X296933D01*
Y66913D01*
X297002D01*
Y66637D01*
X296933D01*
Y66568D01*
X296864D01*
Y66499D01*
X296795D01*
Y66430D01*
X296726D01*
Y66499D01*
X296588D01*
Y66430D01*
X296312D01*
Y66499D01*
X296243D01*
Y66568D01*
X296174D01*
Y66637D01*
X296105D01*
Y66706D01*
X296036D01*
Y66775D01*
X296105D01*
Y66913D01*
X296243D01*
Y66982D01*
X296312D01*
Y67051D01*
X296381D01*
Y67120D01*
X296795D01*
Y67051D01*
D02*
G37*
G36*
X247254Y73054D02*
X247323D01*
Y72985D01*
X247392D01*
Y72916D01*
X247461D01*
Y72847D01*
X247530D01*
Y72295D01*
X247461D01*
Y72157D01*
X247392D01*
Y71950D01*
X247323D01*
Y71881D01*
X247254D01*
Y71743D01*
X247185D01*
Y71674D01*
X247116D01*
Y71536D01*
X247047D01*
Y71398D01*
X246978D01*
Y71329D01*
X246909D01*
Y71191D01*
X246840D01*
Y71122D01*
X246771D01*
Y70984D01*
X246702D01*
Y70846D01*
X246633D01*
Y70777D01*
X246564D01*
Y70639D01*
X246495D01*
Y70570D01*
X246426D01*
Y70432D01*
X246357D01*
Y70294D01*
X246288D01*
Y70225D01*
X246219D01*
Y70087D01*
X246150D01*
Y70018D01*
X246081D01*
Y69880D01*
X246012D01*
Y69742D01*
X245943D01*
Y69673D01*
X245874D01*
Y69535D01*
X245805D01*
Y69466D01*
X245736D01*
Y69328D01*
X245667D01*
Y69190D01*
X245598D01*
Y69052D01*
X245529D01*
Y68983D01*
X245460D01*
Y68845D01*
X245391D01*
Y68707D01*
X245322D01*
Y68638D01*
X245253D01*
Y68500D01*
X245184D01*
Y68431D01*
X245115D01*
Y68224D01*
X245046D01*
Y68155D01*
X244977D01*
Y68017D01*
X244908D01*
Y67948D01*
X244839D01*
Y67741D01*
X244770D01*
Y67672D01*
X244701D01*
Y67534D01*
X244632D01*
Y67396D01*
X244563D01*
Y67258D01*
X244494D01*
Y67189D01*
X244425D01*
Y67051D01*
X244356D01*
Y66844D01*
X244287D01*
Y66775D01*
X244218D01*
Y66568D01*
X244149D01*
Y66499D01*
X244080D01*
Y66292D01*
X244011D01*
Y66154D01*
X243942D01*
Y66016D01*
X243873D01*
Y65878D01*
X243804D01*
Y65740D01*
X243735D01*
Y65533D01*
X243666D01*
Y65395D01*
X243597D01*
Y65257D01*
X243528D01*
Y64981D01*
X243459D01*
Y64912D01*
X243390D01*
Y64774D01*
X243321D01*
Y64498D01*
X243252D01*
Y64360D01*
X243183D01*
Y64153D01*
X243114D01*
Y63877D01*
X243045D01*
Y63601D01*
X242976D01*
Y63325D01*
X242907D01*
Y63049D01*
X242838D01*
Y62773D01*
X242769D01*
Y62014D01*
X242838D01*
Y61738D01*
X242907D01*
Y61600D01*
X242976D01*
Y61462D01*
X243045D01*
Y61324D01*
X243114D01*
Y61255D01*
X243183D01*
Y61186D01*
X243321D01*
Y61117D01*
X243390D01*
Y61048D01*
X243528D01*
Y60979D01*
X244011D01*
Y61048D01*
X244287D01*
Y61117D01*
X244494D01*
Y61186D01*
X244632D01*
Y61255D01*
X244770D01*
Y61324D01*
X244908D01*
Y61393D01*
X245046D01*
Y61462D01*
X245184D01*
Y61531D01*
X245322D01*
Y61600D01*
X245460D01*
Y61669D01*
X245529D01*
Y61738D01*
X245667D01*
Y61807D01*
X245736D01*
Y61876D01*
X245874D01*
Y61945D01*
X246012D01*
Y62014D01*
X246081D01*
Y62083D01*
X246219D01*
Y62152D01*
X246288D01*
Y62221D01*
X246357D01*
Y62290D01*
X246495D01*
Y62359D01*
X246564D01*
Y62428D01*
X246633D01*
Y62497D01*
X246771D01*
Y62566D01*
X246840D01*
Y62635D01*
X246909D01*
Y62704D01*
X246978D01*
Y62773D01*
X247047D01*
Y62842D01*
X247116D01*
Y62911D01*
X247254D01*
Y62980D01*
X247323D01*
Y63049D01*
X247392D01*
Y63118D01*
X247461D01*
Y63187D01*
X247530D01*
Y63256D01*
X247599D01*
Y63325D01*
X247668D01*
Y63394D01*
X247737D01*
Y63463D01*
X247806D01*
Y63532D01*
X247875D01*
Y63601D01*
X247944D01*
Y63670D01*
X248013D01*
Y63739D01*
X248082D01*
Y63808D01*
X248151D01*
Y63877D01*
X248220D01*
Y63946D01*
X248289D01*
Y64015D01*
X248358D01*
Y64084D01*
X248427D01*
Y64153D01*
X248496D01*
Y64222D01*
X248565D01*
Y64291D01*
X248634D01*
Y64360D01*
X248703D01*
Y64429D01*
X248772D01*
Y64567D01*
X248841D01*
Y64636D01*
X248910D01*
Y64774D01*
X248979D01*
Y64843D01*
X249048D01*
Y64981D01*
X249117D01*
Y65050D01*
X249186D01*
Y65188D01*
X249255D01*
Y65257D01*
X249324D01*
Y65326D01*
X249393D01*
Y65464D01*
X249462D01*
Y65602D01*
X249531D01*
Y65671D01*
X249600D01*
Y65740D01*
X249669D01*
Y65878D01*
X249738D01*
Y65947D01*
X249807D01*
Y66016D01*
X249876D01*
Y66154D01*
X249945D01*
Y66223D01*
X250014D01*
Y66361D01*
X250083D01*
Y66430D01*
X250152D01*
Y66499D01*
X250221D01*
Y66637D01*
X250290D01*
Y66706D01*
X250359D01*
Y66775D01*
X250428D01*
Y66913D01*
X250497D01*
Y66982D01*
X250566D01*
Y67051D01*
X250635D01*
Y67189D01*
X250704D01*
Y67258D01*
X250773D01*
Y67327D01*
X250842D01*
Y67396D01*
X250911D01*
Y67465D01*
X250980D01*
Y67603D01*
X251049D01*
Y67672D01*
X251118D01*
Y67741D01*
X251187D01*
Y67810D01*
X251256D01*
Y67948D01*
X251325D01*
Y68017D01*
X251394D01*
Y68086D01*
X251463D01*
Y68155D01*
X251532D01*
Y68293D01*
X251601D01*
Y68362D01*
X251670D01*
Y68431D01*
X251739D01*
Y68500D01*
X251808D01*
Y68569D01*
X251877D01*
Y68638D01*
X251946D01*
Y68776D01*
X252015D01*
Y68845D01*
X252084D01*
Y68914D01*
X252153D01*
Y68983D01*
X252222D01*
Y69052D01*
X252291D01*
Y69121D01*
X252360D01*
Y69190D01*
X252429D01*
Y69259D01*
X252498D01*
Y69328D01*
X252567D01*
Y69397D01*
X252636D01*
Y69466D01*
X252705D01*
Y69535D01*
X252774D01*
Y69604D01*
X252843D01*
Y69673D01*
X252912D01*
Y69742D01*
X252981D01*
Y69811D01*
X253050D01*
Y69880D01*
X253119D01*
Y69949D01*
X253188D01*
Y70087D01*
X253326D01*
Y70156D01*
X253395D01*
Y70225D01*
X253464D01*
Y70363D01*
X253602D01*
Y70432D01*
X253671D01*
Y70570D01*
X253740D01*
Y70639D01*
X253878D01*
Y70708D01*
X253946D01*
Y70777D01*
X254015D01*
Y70846D01*
X254153D01*
Y70915D01*
X254568D01*
Y70846D01*
X254637D01*
Y70777D01*
X254706D01*
Y70708D01*
X254774D01*
Y70294D01*
X254706D01*
Y70225D01*
X254637D01*
Y70087D01*
X254568D01*
Y70018D01*
X254499D01*
Y69880D01*
X254430D01*
Y69811D01*
X254361D01*
Y69742D01*
X254292D01*
Y69673D01*
X254223D01*
Y69604D01*
X254153D01*
Y69535D01*
X254084D01*
Y69466D01*
X254015D01*
Y69397D01*
X253946D01*
Y69328D01*
X253878D01*
Y69259D01*
X253809D01*
Y69190D01*
X253740D01*
Y69121D01*
X253671D01*
Y69052D01*
X253602D01*
Y68983D01*
X253533D01*
Y68914D01*
X253464D01*
Y68845D01*
X253395D01*
Y68776D01*
X253326D01*
Y68707D01*
X253257D01*
Y68638D01*
X253188D01*
Y68569D01*
X253119D01*
Y68500D01*
X253050D01*
Y68431D01*
X252981D01*
Y68293D01*
X252912D01*
Y68224D01*
X252843D01*
Y68155D01*
X252774D01*
Y68086D01*
X252705D01*
Y68017D01*
X252636D01*
Y67948D01*
X252567D01*
Y67879D01*
X252498D01*
Y67741D01*
X252429D01*
Y67672D01*
X252360D01*
Y67603D01*
X252291D01*
Y67534D01*
X252222D01*
Y67465D01*
X252153D01*
Y67396D01*
X252084D01*
Y67327D01*
X252015D01*
Y67189D01*
X251946D01*
Y67120D01*
X251877D01*
Y67051D01*
X251808D01*
Y66913D01*
X251739D01*
Y66844D01*
X251670D01*
Y66775D01*
X251601D01*
Y66637D01*
X251532D01*
Y66568D01*
X251463D01*
Y66499D01*
X251394D01*
Y66361D01*
X251325D01*
Y66292D01*
X251256D01*
Y66223D01*
X251187D01*
Y66085D01*
X251118D01*
Y66016D01*
X251049D01*
Y65947D01*
X250980D01*
Y65809D01*
X250911D01*
Y65740D01*
X250842D01*
Y65671D01*
X250773D01*
Y65533D01*
X250704D01*
Y65464D01*
X250635D01*
Y65395D01*
X250566D01*
Y65257D01*
X250497D01*
Y65188D01*
X250428D01*
Y65050D01*
X250359D01*
Y64981D01*
X250290D01*
Y64843D01*
X250221D01*
Y64774D01*
X250152D01*
Y64636D01*
X250083D01*
Y64567D01*
X250014D01*
Y64498D01*
X249945D01*
Y64360D01*
X249876D01*
Y64291D01*
X249807D01*
Y64153D01*
X249738D01*
Y64084D01*
X249669D01*
Y63946D01*
X249600D01*
Y63877D01*
X249531D01*
Y63739D01*
X249462D01*
Y63670D01*
X249393D01*
Y63532D01*
X249324D01*
Y63463D01*
X249255D01*
Y63325D01*
X249186D01*
Y63256D01*
X249117D01*
Y63118D01*
X249048D01*
Y62980D01*
X248979D01*
Y62911D01*
X248910D01*
Y62773D01*
X248841D01*
Y62704D01*
X248772D01*
Y62566D01*
X248703D01*
Y62428D01*
X248634D01*
Y62290D01*
X248565D01*
Y62221D01*
X248496D01*
Y62083D01*
X248427D01*
Y61945D01*
X248358D01*
Y61807D01*
X248289D01*
Y61738D01*
X248220D01*
Y61600D01*
X248151D01*
Y61462D01*
X248082D01*
Y61324D01*
X248013D01*
Y61186D01*
X247944D01*
Y61117D01*
X247875D01*
Y60910D01*
X247806D01*
Y60841D01*
X247737D01*
Y60634D01*
X247668D01*
Y60565D01*
X247599D01*
Y60358D01*
X247530D01*
Y60220D01*
X247461D01*
Y60082D01*
X247392D01*
Y59806D01*
X247323D01*
Y59530D01*
X247254D01*
Y59254D01*
X247185D01*
Y58909D01*
X247116D01*
Y58495D01*
X247185D01*
Y58219D01*
X247254D01*
Y58012D01*
X247323D01*
Y57874D01*
X247392D01*
Y57736D01*
X247461D01*
Y57598D01*
X247530D01*
Y57529D01*
X247668D01*
Y57460D01*
X247737D01*
Y57391D01*
X248496D01*
Y57460D01*
X248772D01*
Y57529D01*
X248910D01*
Y57598D01*
X249117D01*
Y57667D01*
X249255D01*
Y57736D01*
X249393D01*
Y57805D01*
X249600D01*
Y57874D01*
X249738D01*
Y57943D01*
X249876D01*
Y58012D01*
X250014D01*
Y58081D01*
X250152D01*
Y58150D01*
X250290D01*
Y58219D01*
X250428D01*
Y58288D01*
X250497D01*
Y58357D01*
X250635D01*
Y58426D01*
X250704D01*
Y58495D01*
X250842D01*
Y58564D01*
X250911D01*
Y58633D01*
X250980D01*
Y58702D01*
X251118D01*
Y58771D01*
X251187D01*
Y58840D01*
X251325D01*
Y58909D01*
X251394D01*
Y58978D01*
X251463D01*
Y59047D01*
X251532D01*
Y59116D01*
X251601D01*
Y59185D01*
X251670D01*
Y59254D01*
X251739D01*
Y59461D01*
X251808D01*
Y59599D01*
X251877D01*
Y59737D01*
X251946D01*
Y59875D01*
X252015D01*
Y60013D01*
X252084D01*
Y60151D01*
X252153D01*
Y60289D01*
X252222D01*
Y60427D01*
X252291D01*
Y60496D01*
X252360D01*
Y60634D01*
X252429D01*
Y60703D01*
X252498D01*
Y60841D01*
X252567D01*
Y60979D01*
X252636D01*
Y61048D01*
X252705D01*
Y61186D01*
X252774D01*
Y61255D01*
X252843D01*
Y61393D01*
X252912D01*
Y61462D01*
X252981D01*
Y61600D01*
X253050D01*
Y61669D01*
X253119D01*
Y61807D01*
X253188D01*
Y61876D01*
X253257D01*
Y61945D01*
X253326D01*
Y62014D01*
X253395D01*
Y62152D01*
X253464D01*
Y62221D01*
X253533D01*
Y62290D01*
X253602D01*
Y62359D01*
X253671D01*
Y62497D01*
X253740D01*
Y62566D01*
X253809D01*
Y62635D01*
X253878D01*
Y62773D01*
X253946D01*
Y62842D01*
X254015D01*
Y62911D01*
X254084D01*
Y62980D01*
X254153D01*
Y63049D01*
X254223D01*
Y63187D01*
X254292D01*
Y63256D01*
X254361D01*
Y63325D01*
X254430D01*
Y63394D01*
X254499D01*
Y63463D01*
X254568D01*
Y63532D01*
X254637D01*
Y63601D01*
X254774D01*
Y63670D01*
X254981D01*
Y63739D01*
X255258D01*
Y63808D01*
X255327D01*
Y63739D01*
X255465D01*
Y63670D01*
X255534D01*
Y63601D01*
X255603D01*
Y63463D01*
X255672D01*
Y63325D01*
X255603D01*
Y63187D01*
X255534D01*
Y63118D01*
X255465D01*
Y62980D01*
X255396D01*
Y62842D01*
X255327D01*
Y62773D01*
X255258D01*
Y62635D01*
X255188D01*
Y62497D01*
X255119D01*
Y62428D01*
X255050D01*
Y62290D01*
X254981D01*
Y62221D01*
X254912D01*
Y62083D01*
X254843D01*
Y62014D01*
X254774D01*
Y61945D01*
X254706D01*
Y61807D01*
X254637D01*
Y61738D01*
X254568D01*
Y61600D01*
X254499D01*
Y61531D01*
X254430D01*
Y61462D01*
X254361D01*
Y61393D01*
X254292D01*
Y61255D01*
X254223D01*
Y61186D01*
X254153D01*
Y61117D01*
X254084D01*
Y61048D01*
X254015D01*
Y60910D01*
X253946D01*
Y60841D01*
X253878D01*
Y60772D01*
X253809D01*
Y60703D01*
X253740D01*
Y60634D01*
X253671D01*
Y60565D01*
X253602D01*
Y60496D01*
X253533D01*
Y60427D01*
X253464D01*
Y60358D01*
X253395D01*
Y60220D01*
X253326D01*
Y60151D01*
X253257D01*
Y60013D01*
X253188D01*
Y59875D01*
X253119D01*
Y59806D01*
X253050D01*
Y59599D01*
X252981D01*
Y59530D01*
X252912D01*
Y59323D01*
X252843D01*
Y59254D01*
X252774D01*
Y59047D01*
X252705D01*
Y58978D01*
X252636D01*
Y58840D01*
X252567D01*
Y58564D01*
X252498D01*
Y58357D01*
X252429D01*
Y57943D01*
X252360D01*
Y57874D01*
X252429D01*
Y57667D01*
X252498D01*
Y57598D01*
X252636D01*
Y57529D01*
X253395D01*
Y57598D01*
X253671D01*
Y57667D01*
X253946D01*
Y57736D01*
X254153D01*
Y57805D01*
X254430D01*
Y57874D01*
X254637D01*
Y57943D01*
X254843D01*
Y58012D01*
X254912D01*
Y58081D01*
X254981D01*
Y58150D01*
X255050D01*
Y58219D01*
X255119D01*
Y58288D01*
X255188D01*
Y58426D01*
X255258D01*
Y58495D01*
X255327D01*
Y58564D01*
X255396D01*
Y58633D01*
X255465D01*
Y58702D01*
X255534D01*
Y58771D01*
X255672D01*
Y58840D01*
X255740D01*
Y58909D01*
X255809D01*
Y58978D01*
X255878D01*
Y59047D01*
X255947D01*
Y59116D01*
X256016D01*
Y59185D01*
X256085D01*
Y59254D01*
X256224D01*
Y59323D01*
X256293D01*
Y59392D01*
X256362D01*
Y59461D01*
X256431D01*
Y59530D01*
X256569D01*
Y59599D01*
X256638D01*
Y59668D01*
X256707D01*
Y59737D01*
X256775D01*
Y59806D01*
X256844D01*
Y59875D01*
X256982D01*
Y59944D01*
X257051D01*
Y60013D01*
X257189D01*
Y60082D01*
X257259D01*
Y60151D01*
X257328D01*
Y60220D01*
X257466D01*
Y60289D01*
X257535D01*
Y60358D01*
X257673D01*
Y60427D01*
X257741D01*
Y60496D01*
X257879D01*
Y60565D01*
X257948D01*
Y60634D01*
X258086D01*
Y60703D01*
X258155D01*
Y60772D01*
X258294D01*
Y60841D01*
X258363D01*
Y60910D01*
X258501D01*
Y60979D01*
X258639D01*
Y61048D01*
X258707D01*
Y61117D01*
X258776D01*
Y61186D01*
X258914D01*
Y61255D01*
X259052D01*
Y61324D01*
X259191D01*
Y61393D01*
X259329D01*
Y61462D01*
X259467D01*
Y61531D01*
X259536D01*
Y61600D01*
X259674D01*
Y61669D01*
X259742D01*
Y61738D01*
X259949D01*
Y61807D01*
X260087D01*
Y61876D01*
X260156D01*
Y61945D01*
X260364D01*
Y62014D01*
X260502D01*
Y62083D01*
X260640D01*
Y62152D01*
X260777D01*
Y62221D01*
X260915D01*
Y62290D01*
X261122D01*
Y62359D01*
X261260D01*
Y62428D01*
X261467D01*
Y62497D01*
X261605D01*
Y62566D01*
X261743D01*
Y62635D01*
X261950D01*
Y62704D01*
X262226D01*
Y62773D01*
X262364D01*
Y62842D01*
X262640D01*
Y62911D01*
X262847D01*
Y62980D01*
X263123D01*
Y63049D01*
X263399D01*
Y63118D01*
X263606D01*
Y63049D01*
X263813D01*
Y62980D01*
X263882D01*
Y62911D01*
X264020D01*
Y62842D01*
X264089D01*
Y62704D01*
X264158D01*
Y62428D01*
X264089D01*
Y62359D01*
X264020D01*
Y62290D01*
X263951D01*
Y62221D01*
X263882D01*
Y62152D01*
X263813D01*
Y62083D01*
X263675D01*
Y62014D01*
X263606D01*
Y61945D01*
X263468D01*
Y61876D01*
X263399D01*
Y61807D01*
X263261D01*
Y61738D01*
X263123D01*
Y61669D01*
X263054D01*
Y61600D01*
X262916D01*
Y61531D01*
X262778D01*
Y61462D01*
X262640D01*
Y61393D01*
X262502D01*
Y61324D01*
X262364D01*
Y61255D01*
X262295D01*
Y61186D01*
X262157D01*
Y61117D01*
X262088D01*
Y61048D01*
X261950D01*
Y60979D01*
X261812D01*
Y60910D01*
X261674D01*
Y60841D01*
X261536D01*
Y60772D01*
X261467D01*
Y60703D01*
X261329D01*
Y60634D01*
X261260D01*
Y60565D01*
X261122D01*
Y60496D01*
X260984D01*
Y60427D01*
X260846D01*
Y60358D01*
X260708D01*
Y60289D01*
X260640D01*
Y60220D01*
X260502D01*
Y60151D01*
X260364D01*
Y60082D01*
X260226D01*
Y60013D01*
X260087D01*
Y59944D01*
X259949D01*
Y59875D01*
X259811D01*
Y59806D01*
X259674D01*
Y59737D01*
X259536D01*
Y59668D01*
X259398D01*
Y59599D01*
X259260D01*
Y59530D01*
X259121D01*
Y59461D01*
X258983D01*
Y59392D01*
X258776D01*
Y59323D01*
X258707D01*
Y59254D01*
X258570D01*
Y59185D01*
X258432D01*
Y59116D01*
X258294D01*
Y59047D01*
X258086D01*
Y58978D01*
X257948D01*
Y58909D01*
X257810D01*
Y58840D01*
X257673D01*
Y58771D01*
X257535D01*
Y58702D01*
X257397D01*
Y58633D01*
X257259D01*
Y58564D01*
X257120D01*
Y58495D01*
X256982D01*
Y58426D01*
X256844D01*
Y58357D01*
X256707D01*
Y58288D01*
X256500D01*
Y58219D01*
X256362D01*
Y58150D01*
X256293D01*
Y58081D01*
X256224D01*
Y58012D01*
X256154D01*
Y57943D01*
X256085D01*
Y57874D01*
X256016D01*
Y57805D01*
X255947D01*
Y57667D01*
X255878D01*
Y57598D01*
X255809D01*
Y57529D01*
X255740D01*
Y57460D01*
X255672D01*
Y57391D01*
X255603D01*
Y57322D01*
X255534D01*
Y57184D01*
X255465D01*
Y57115D01*
X255396D01*
Y56977D01*
X255327D01*
Y56839D01*
X255258D01*
Y56356D01*
X255327D01*
Y56287D01*
X255396D01*
Y56218D01*
X255878D01*
Y56149D01*
X255947D01*
Y56218D01*
X256224D01*
Y56287D01*
X256500D01*
Y56356D01*
X256775D01*
Y56425D01*
X256982D01*
Y56494D01*
X257189D01*
Y56563D01*
X257466D01*
Y56632D01*
X257741D01*
Y56701D01*
X257948D01*
Y56770D01*
X258086D01*
Y56839D01*
X258294D01*
Y56908D01*
X258570D01*
Y56977D01*
X258707D01*
Y57046D01*
X258914D01*
Y57115D01*
X259052D01*
Y57184D01*
X259260D01*
Y57253D01*
X259398D01*
Y57322D01*
X259605D01*
Y57391D01*
X259811D01*
Y57460D01*
X259949D01*
Y57529D01*
X260087D01*
Y57598D01*
X260226D01*
Y57667D01*
X260433D01*
Y57736D01*
X260571D01*
Y57805D01*
X260708D01*
Y57874D01*
X260846D01*
Y57943D01*
X260984D01*
Y58012D01*
X261122D01*
Y58081D01*
X261260D01*
Y58150D01*
X261398D01*
Y58219D01*
X261536D01*
Y58288D01*
X261674D01*
Y58357D01*
X261881D01*
Y58426D01*
X261950D01*
Y58495D01*
X262157D01*
Y58564D01*
X262295D01*
Y58633D01*
X262433D01*
Y58702D01*
X262571D01*
Y58771D01*
X262709D01*
Y58840D01*
X262916D01*
Y58909D01*
X263054D01*
Y58978D01*
X263192D01*
Y59047D01*
X263330D01*
Y59116D01*
X263468D01*
Y59185D01*
X263606D01*
Y59254D01*
X263675D01*
Y59323D01*
X263813D01*
Y59392D01*
X264020D01*
Y59461D01*
X264089D01*
Y59530D01*
X264227D01*
Y59599D01*
X264365D01*
Y59668D01*
X264503D01*
Y59737D01*
X264641D01*
Y59806D01*
X264710D01*
Y59875D01*
X264848D01*
Y59944D01*
X264986D01*
Y60013D01*
X265124D01*
Y60082D01*
X265262D01*
Y60151D01*
X265331D01*
Y60220D01*
X265469D01*
Y60289D01*
X265676D01*
Y60358D01*
X265745D01*
Y60427D01*
X265883D01*
Y60496D01*
X266090D01*
Y60565D01*
X266228D01*
Y60634D01*
X266366D01*
Y60703D01*
X266504D01*
Y60772D01*
X266711D01*
Y60841D01*
X266918D01*
Y60910D01*
X267056D01*
Y60979D01*
X267470D01*
Y60910D01*
X267539D01*
Y60841D01*
X267608D01*
Y60634D01*
X267677D01*
Y60565D01*
X267608D01*
Y60358D01*
X267539D01*
Y60220D01*
X267470D01*
Y60082D01*
X267401D01*
Y60013D01*
X267332D01*
Y59944D01*
X267263D01*
Y59875D01*
X267194D01*
Y59806D01*
X267125D01*
Y59737D01*
X267056D01*
Y59668D01*
X266918D01*
Y59599D01*
X266849D01*
Y59530D01*
X266711D01*
Y59461D01*
X266642D01*
Y59392D01*
X266504D01*
Y59323D01*
X266366D01*
Y59254D01*
X266297D01*
Y59185D01*
X266159D01*
Y59116D01*
X266090D01*
Y59047D01*
X265952D01*
Y58978D01*
X265883D01*
Y58909D01*
X265745D01*
Y58840D01*
X265676D01*
Y58771D01*
X265538D01*
Y58702D01*
X265469D01*
Y58633D01*
X265331D01*
Y58564D01*
X265193D01*
Y58495D01*
X265055D01*
Y58426D01*
X264917D01*
Y58357D01*
X264848D01*
Y58288D01*
X264710D01*
Y58219D01*
X264641D01*
Y58150D01*
X264503D01*
Y58081D01*
X264434D01*
Y58012D01*
X264296D01*
Y57943D01*
X264158D01*
Y57874D01*
X264089D01*
Y57805D01*
X263951D01*
Y57736D01*
X263882D01*
Y57667D01*
X263813D01*
Y57598D01*
X263675D01*
Y57529D01*
X263606D01*
Y57460D01*
X263537D01*
Y57391D01*
X263468D01*
Y57322D01*
X263330D01*
Y57253D01*
X263261D01*
Y57184D01*
X263192D01*
Y57115D01*
X263123D01*
Y57046D01*
X263054D01*
Y56977D01*
X262985D01*
Y56908D01*
X262847D01*
Y56770D01*
X262709D01*
Y56632D01*
X262640D01*
Y56563D01*
X262571D01*
Y56494D01*
X262502D01*
Y56425D01*
X262433D01*
Y56356D01*
X262364D01*
Y56218D01*
X262295D01*
Y56149D01*
X262226D01*
Y56011D01*
X262157D01*
Y55873D01*
X262088D01*
Y55804D01*
X262019D01*
Y55597D01*
X261950D01*
Y55390D01*
X261881D01*
Y55045D01*
X261950D01*
Y54976D01*
X262157D01*
Y54907D01*
X262364D01*
Y54976D01*
X262640D01*
Y54907D01*
X262778D01*
Y54976D01*
X263192D01*
Y55045D01*
X263675D01*
Y55114D01*
X264089D01*
Y55183D01*
X264365D01*
Y55252D01*
X264710D01*
Y55321D01*
X264986D01*
Y55390D01*
X265331D01*
Y55459D01*
X265538D01*
Y55528D01*
X265814D01*
Y55597D01*
X266090D01*
Y55666D01*
X266297D01*
Y55735D01*
X266504D01*
Y55804D01*
X266711D01*
Y55873D01*
X266987D01*
Y55942D01*
X267194D01*
Y56011D01*
X267401D01*
Y56080D01*
X267608D01*
Y56149D01*
X267884D01*
Y56218D01*
X268091D01*
Y56287D01*
X268229D01*
Y56356D01*
X268505D01*
Y56425D01*
X268712D01*
Y56494D01*
X268919D01*
Y56563D01*
X269057D01*
Y56632D01*
X269333D01*
Y56701D01*
X269540D01*
Y56770D01*
X269678D01*
Y56839D01*
X269954D01*
Y56908D01*
X270092D01*
Y56977D01*
X270299D01*
Y57046D01*
X270506D01*
Y57115D01*
X270644D01*
Y57184D01*
X270920D01*
Y57253D01*
X271058D01*
Y57322D01*
X271265D01*
Y57391D01*
X271403D01*
Y57460D01*
X271541D01*
Y57529D01*
X271748D01*
Y57598D01*
X271886D01*
Y57667D01*
X272231D01*
Y57598D01*
X272369D01*
Y57529D01*
X272438D01*
Y57460D01*
X272507D01*
Y57253D01*
X272438D01*
Y57046D01*
X272369D01*
Y56977D01*
X272300D01*
Y56908D01*
X272231D01*
Y56839D01*
X272162D01*
Y56770D01*
X272024D01*
Y56701D01*
X271886D01*
Y56632D01*
X271748D01*
Y56563D01*
X271610D01*
Y56494D01*
X271472D01*
Y56425D01*
X271334D01*
Y56356D01*
X271196D01*
Y56287D01*
X271058D01*
Y56218D01*
X270920D01*
Y56149D01*
X270782D01*
Y56080D01*
X270644D01*
Y56011D01*
X270506D01*
Y55942D01*
X270299D01*
Y55873D01*
X270161D01*
Y55804D01*
X270023D01*
Y55735D01*
X269885D01*
Y55666D01*
X269747D01*
Y55597D01*
X269540D01*
Y55528D01*
X269471D01*
Y55459D01*
X269264D01*
Y55390D01*
X269126D01*
Y55321D01*
X269057D01*
Y55252D01*
X268850D01*
Y55183D01*
X268712D01*
Y55114D01*
X268574D01*
Y55045D01*
X268505D01*
Y54976D01*
X268367D01*
Y54907D01*
X268229D01*
Y54838D01*
X268091D01*
Y54769D01*
X267953D01*
Y54700D01*
X267884D01*
Y54631D01*
X267746D01*
Y54562D01*
X267677D01*
Y54493D01*
X267539D01*
Y54424D01*
X267401D01*
Y54355D01*
X267332D01*
Y54286D01*
X267194D01*
Y54217D01*
X267056D01*
Y54148D01*
X266987D01*
Y54079D01*
X266849D01*
Y54010D01*
X266780D01*
Y53941D01*
X266642D01*
Y53872D01*
X266573D01*
Y53803D01*
X266504D01*
Y53734D01*
X266366D01*
Y53665D01*
X266297D01*
Y53596D01*
X266228D01*
Y53527D01*
X266090D01*
Y53458D01*
X266021D01*
Y53389D01*
X265952D01*
Y53251D01*
X266021D01*
Y53182D01*
X266504D01*
Y53251D01*
X267194D01*
Y53320D01*
X267815D01*
Y53389D01*
X267884D01*
Y53320D01*
X268022D01*
Y53389D01*
X268367D01*
Y53458D01*
X268919D01*
Y53527D01*
X269402D01*
Y53596D01*
X269954D01*
Y53665D01*
X270299D01*
Y53734D01*
X270368D01*
Y53665D01*
X270437D01*
Y53734D01*
X270782D01*
Y53803D01*
X271265D01*
Y53872D01*
X271886D01*
Y53941D01*
X272438D01*
Y54010D01*
X273266D01*
Y54079D01*
X274025D01*
Y54148D01*
X274232D01*
Y54079D01*
X274301D01*
Y54148D01*
X276923D01*
Y54079D01*
X277682D01*
Y54010D01*
X278027D01*
Y53941D01*
X278441D01*
Y53872D01*
X278786D01*
Y53803D01*
X279131D01*
Y53734D01*
X279545D01*
Y53665D01*
X279683D01*
Y53596D01*
X279821D01*
Y53527D01*
X280028D01*
Y53458D01*
X280097D01*
Y53389D01*
X280304D01*
Y53320D01*
X280442D01*
Y53251D01*
X280511D01*
Y53182D01*
X280649D01*
Y53113D01*
X280718D01*
Y53044D01*
X280856D01*
Y52975D01*
X280925D01*
Y52906D01*
X280994D01*
Y52837D01*
X281063D01*
Y52768D01*
X281132D01*
Y52630D01*
X281201D01*
Y52561D01*
X281270D01*
Y52492D01*
X281339D01*
Y52354D01*
X281408D01*
Y52147D01*
X281477D01*
Y51940D01*
X281546D01*
Y51319D01*
X281615D01*
Y51112D01*
X281546D01*
Y50836D01*
X281477D01*
Y50491D01*
X281408D01*
Y50284D01*
X281339D01*
Y50146D01*
X281270D01*
Y50008D01*
X281201D01*
Y49870D01*
X281132D01*
Y49732D01*
X281063D01*
Y49663D01*
X280994D01*
Y49525D01*
X281063D01*
Y49456D01*
X281270D01*
Y49525D01*
X281891D01*
Y49594D01*
X282512D01*
Y49663D01*
X283133D01*
Y49732D01*
X283823D01*
Y49801D01*
X283892D01*
Y49732D01*
X284030D01*
Y49801D01*
X284720D01*
Y49870D01*
X285410D01*
Y49939D01*
X285479D01*
Y49870D01*
X285617D01*
Y49939D01*
X285962D01*
Y49870D01*
X286031D01*
Y49939D01*
X286790D01*
Y50008D01*
X286997D01*
Y49939D01*
X287135D01*
Y50008D01*
X290240D01*
Y50077D01*
X290309D01*
Y50008D01*
X290585D01*
Y50077D01*
X290723D01*
Y50008D01*
X290930D01*
Y50077D01*
X291137D01*
Y50008D01*
X291413D01*
Y50077D01*
X291551D01*
Y50008D01*
X291620D01*
Y49939D01*
X291689D01*
Y49801D01*
X291620D01*
Y49663D01*
X291068D01*
Y49594D01*
X290999D01*
Y49663D01*
X289826D01*
Y49594D01*
X289619D01*
Y49663D01*
X289550D01*
Y49594D01*
X288446D01*
Y49525D01*
X287756D01*
Y49456D01*
X287687D01*
Y49525D01*
X287480D01*
Y49456D01*
X286790D01*
Y49387D01*
X286652D01*
Y49456D01*
X286514D01*
Y49387D01*
X285755D01*
Y49318D01*
X285548D01*
Y49387D01*
X285479D01*
Y49318D01*
X284789D01*
Y49249D01*
X284099D01*
Y49180D01*
X283961D01*
Y49249D01*
X283892D01*
Y49180D01*
X283409D01*
Y49111D01*
X283340D01*
Y49180D01*
X283202D01*
Y49111D01*
X282581D01*
Y49042D01*
X282029D01*
Y48973D01*
X281339D01*
Y48904D01*
X281270D01*
Y48973D01*
X281201D01*
Y48904D01*
X280787D01*
Y48835D01*
X280373D01*
Y48766D01*
X280304D01*
Y48697D01*
X280235D01*
Y48628D01*
X280166D01*
Y48559D01*
X280097D01*
Y48490D01*
X279959D01*
Y48352D01*
X279890D01*
Y48283D01*
X279752D01*
Y48214D01*
X279683D01*
Y48145D01*
X279614D01*
Y48076D01*
X279545D01*
Y48007D01*
X279476D01*
Y47938D01*
X279338D01*
Y47869D01*
X279269D01*
Y47800D01*
X279131D01*
Y47731D01*
X279062D01*
Y47662D01*
X278993D01*
Y47593D01*
X278855D01*
Y47524D01*
X278717D01*
Y47455D01*
X278648D01*
Y47386D01*
X278510D01*
Y47317D01*
X278441D01*
Y47248D01*
X278303D01*
Y47179D01*
X278234D01*
Y47110D01*
X278096D01*
Y47041D01*
X278027D01*
Y46972D01*
X277889D01*
Y46903D01*
X277751D01*
Y46834D01*
X277613D01*
Y46765D01*
X277475D01*
Y46696D01*
X277406D01*
Y46627D01*
X277199D01*
Y46558D01*
X277061D01*
Y46489D01*
X276992D01*
Y46420D01*
X276854D01*
Y46351D01*
X276647D01*
Y46282D01*
X276509D01*
Y46213D01*
X276371D01*
Y46144D01*
X276233D01*
Y46075D01*
X276095D01*
Y46006D01*
X275888D01*
Y45937D01*
X275750D01*
Y45868D01*
X275612D01*
Y45799D01*
X275405D01*
Y45730D01*
X275267D01*
Y45661D01*
X275060D01*
Y45592D01*
X274922D01*
Y45523D01*
X274715D01*
Y45454D01*
X274508D01*
Y45385D01*
X274370D01*
Y45316D01*
X274163D01*
Y45247D01*
X273956D01*
Y45178D01*
X273749D01*
Y45109D01*
X273542D01*
Y45040D01*
X273266D01*
Y44971D01*
X273059D01*
Y44902D01*
X272852D01*
Y44833D01*
X272645D01*
Y44764D01*
X272438D01*
Y44695D01*
X272093D01*
Y44626D01*
X271955D01*
Y44557D01*
X271610D01*
Y44488D01*
X271334D01*
Y44419D01*
X271058D01*
Y44350D01*
X270782D01*
Y44281D01*
X270437D01*
Y44212D01*
X270092D01*
Y44143D01*
X269747D01*
Y44074D01*
X269402D01*
Y44005D01*
X268988D01*
Y43936D01*
X268505D01*
Y43867D01*
X267953D01*
Y43798D01*
X267332D01*
Y43729D01*
X266642D01*
Y43660D01*
X266573D01*
Y43729D01*
X266366D01*
Y43660D01*
X265193D01*
Y43591D01*
X265055D01*
Y43660D01*
X264848D01*
Y43591D01*
X264572D01*
Y43660D01*
X264020D01*
Y43729D01*
X263675D01*
Y43798D01*
X263468D01*
Y43867D01*
X263330D01*
Y43936D01*
X263192D01*
Y44005D01*
X263123D01*
Y44074D01*
X263054D01*
Y44212D01*
X262985D01*
Y44281D01*
X262916D01*
Y44488D01*
X262847D01*
Y44626D01*
X262916D01*
Y44971D01*
X262985D01*
Y45178D01*
X263054D01*
Y45247D01*
X263123D01*
Y45316D01*
X263192D01*
Y45385D01*
X263261D01*
Y45454D01*
X263330D01*
Y45523D01*
X263399D01*
Y45592D01*
X263468D01*
Y45661D01*
X263537D01*
Y45730D01*
X263606D01*
Y45799D01*
X263744D01*
Y45868D01*
X263882D01*
Y45937D01*
X263951D01*
Y46006D01*
X264089D01*
Y46075D01*
X264158D01*
Y46144D01*
X264365D01*
Y46213D01*
X264503D01*
Y46282D01*
X264641D01*
Y46351D01*
X264779D01*
Y46420D01*
X264986D01*
Y46489D01*
X265124D01*
Y46558D01*
X265400D01*
Y46627D01*
X265607D01*
Y46696D01*
X265814D01*
Y46765D01*
X266090D01*
Y46834D01*
X266366D01*
Y46903D01*
X266711D01*
Y46972D01*
X266918D01*
Y47041D01*
X267263D01*
Y47110D01*
X267539D01*
Y47179D01*
X267884D01*
Y47248D01*
X268229D01*
Y47317D01*
X268643D01*
Y47386D01*
X268919D01*
Y47455D01*
X269195D01*
Y47524D01*
X269264D01*
Y47455D01*
X269333D01*
Y47524D01*
X269609D01*
Y47593D01*
X269954D01*
Y47662D01*
X270299D01*
Y47731D01*
X270713D01*
Y47800D01*
X270989D01*
Y47869D01*
X271472D01*
Y47938D01*
X271886D01*
Y48007D01*
X272231D01*
Y48076D01*
X272576D01*
Y48145D01*
X272990D01*
Y48214D01*
X273335D01*
Y48283D01*
X273680D01*
Y48352D01*
X274163D01*
Y48421D01*
X274439D01*
Y48490D01*
X274853D01*
Y48559D01*
X275336D01*
Y48628D01*
X275681D01*
Y48697D01*
X276095D01*
Y48766D01*
X276578D01*
Y48835D01*
X276923D01*
Y48904D01*
X277337D01*
Y48973D01*
X277820D01*
Y49042D01*
X278096D01*
Y49111D01*
X278234D01*
Y49042D01*
X278303D01*
Y49111D01*
X278648D01*
Y49180D01*
X279131D01*
Y49249D01*
X279476D01*
Y49318D01*
X279545D01*
Y49387D01*
X279614D01*
Y49456D01*
X279683D01*
Y49525D01*
X279752D01*
Y49594D01*
X279821D01*
Y49732D01*
X279890D01*
Y49801D01*
X279959D01*
Y49939D01*
X280028D01*
Y50008D01*
X280097D01*
Y50146D01*
X280166D01*
Y50215D01*
X280235D01*
Y50353D01*
X280304D01*
Y50422D01*
X280373D01*
Y50629D01*
X280442D01*
Y50974D01*
X280511D01*
Y51250D01*
X280580D01*
Y51526D01*
X280511D01*
Y51664D01*
X280580D01*
Y51733D01*
X280511D01*
Y51940D01*
X280442D01*
Y52147D01*
X280373D01*
Y52285D01*
X280304D01*
Y52354D01*
X280235D01*
Y52492D01*
X280166D01*
Y52561D01*
X280028D01*
Y52630D01*
X279959D01*
Y52699D01*
X279890D01*
Y52768D01*
X279821D01*
Y52837D01*
X279683D01*
Y52906D01*
X279545D01*
Y52975D01*
X279407D01*
Y53044D01*
X279338D01*
Y53113D01*
X279131D01*
Y53182D01*
X278855D01*
Y53251D01*
X278579D01*
Y53320D01*
X278303D01*
Y53389D01*
X277958D01*
Y53458D01*
X277613D01*
Y53527D01*
X277130D01*
Y53596D01*
X276647D01*
Y53665D01*
X275474D01*
Y53734D01*
X275198D01*
Y53665D01*
X274922D01*
Y53734D01*
X274784D01*
Y53665D01*
X274439D01*
Y53734D01*
X274370D01*
Y53665D01*
X273611D01*
Y53596D01*
X273473D01*
Y53665D01*
X273404D01*
Y53596D01*
X272714D01*
Y53527D01*
X272093D01*
Y53458D01*
X271541D01*
Y53389D01*
X270989D01*
Y53320D01*
X270575D01*
Y53251D01*
X270161D01*
Y53182D01*
X269678D01*
Y53113D01*
X269126D01*
Y53044D01*
X268643D01*
Y52975D01*
X268160D01*
Y52906D01*
X267608D01*
Y52837D01*
X266849D01*
Y52768D01*
X266228D01*
Y52699D01*
X266090D01*
Y52768D01*
X265952D01*
Y52699D01*
X265676D01*
Y52768D01*
X265538D01*
Y52699D01*
X265124D01*
Y52768D01*
X264986D01*
Y52837D01*
X264917D01*
Y52906D01*
X264848D01*
Y52975D01*
X264779D01*
Y53113D01*
X264710D01*
Y53389D01*
X264779D01*
Y53596D01*
X264848D01*
Y53665D01*
X264917D01*
Y53734D01*
X264986D01*
Y53803D01*
X265055D01*
Y53872D01*
X265124D01*
Y53941D01*
X265193D01*
Y54010D01*
X265262D01*
Y54079D01*
X265331D01*
Y54148D01*
X265400D01*
Y54217D01*
X265538D01*
Y54286D01*
X265676D01*
Y54355D01*
X265745D01*
Y54424D01*
X265814D01*
Y54493D01*
X265952D01*
Y54562D01*
X266090D01*
Y54631D01*
X266159D01*
Y54700D01*
X266297D01*
Y54769D01*
X266366D01*
Y54838D01*
X266504D01*
Y54907D01*
X266573D01*
Y54976D01*
X266711D01*
Y55045D01*
X266780D01*
Y55114D01*
X266849D01*
Y55183D01*
X266918D01*
Y55252D01*
X267056D01*
Y55321D01*
X267194D01*
Y55390D01*
X267332D01*
Y55459D01*
X266987D01*
Y55390D01*
X266642D01*
Y55321D01*
X266435D01*
Y55252D01*
X266159D01*
Y55183D01*
X265952D01*
Y55114D01*
X265745D01*
Y55045D01*
X265469D01*
Y54976D01*
X265193D01*
Y54907D01*
X264848D01*
Y54838D01*
X264503D01*
Y54769D01*
X264296D01*
Y54700D01*
X263813D01*
Y54631D01*
X263468D01*
Y54562D01*
X262916D01*
Y54493D01*
X261881D01*
Y54424D01*
X261812D01*
Y54493D01*
X261536D01*
Y54562D01*
X261191D01*
Y54631D01*
X261122D01*
Y54700D01*
X261053D01*
Y54769D01*
X260984D01*
Y54838D01*
X260915D01*
Y55045D01*
X260846D01*
Y55528D01*
X260915D01*
Y55735D01*
X260984D01*
Y56011D01*
X261053D01*
Y56149D01*
X261122D01*
Y56218D01*
X261191D01*
Y56356D01*
X261260D01*
Y56494D01*
X261329D01*
Y56563D01*
X261398D01*
Y56701D01*
X261467D01*
Y56770D01*
X261536D01*
Y56839D01*
X261605D01*
Y56908D01*
X261674D01*
Y57046D01*
X261743D01*
Y57115D01*
X261812D01*
Y57184D01*
X261881D01*
Y57253D01*
X261950D01*
Y57322D01*
X262019D01*
Y57391D01*
X262088D01*
Y57460D01*
X262157D01*
Y57529D01*
X262226D01*
Y57598D01*
X262295D01*
Y57667D01*
X262364D01*
Y57736D01*
X262502D01*
Y57805D01*
X262571D01*
Y57874D01*
X262640D01*
Y57943D01*
X262709D01*
Y58012D01*
X262778D01*
Y58081D01*
X262916D01*
Y58150D01*
X262985D01*
Y58219D01*
X263123D01*
Y58288D01*
X263192D01*
Y58357D01*
X263261D01*
Y58426D01*
X263399D01*
Y58495D01*
X263468D01*
Y58564D01*
X263537D01*
Y58633D01*
X263675D01*
Y58702D01*
X263744D01*
Y58771D01*
X263813D01*
Y58840D01*
X263675D01*
Y58771D01*
X263606D01*
Y58702D01*
X263468D01*
Y58633D01*
X263261D01*
Y58564D01*
X263192D01*
Y58495D01*
X262985D01*
Y58426D01*
X262847D01*
Y58357D01*
X262640D01*
Y58288D01*
X262502D01*
Y58219D01*
X262364D01*
Y58150D01*
X262226D01*
Y58081D01*
X262088D01*
Y58012D01*
X261950D01*
Y57943D01*
X261743D01*
Y57874D01*
X261605D01*
Y57805D01*
X261467D01*
Y57736D01*
X261329D01*
Y57667D01*
X261191D01*
Y57598D01*
X261053D01*
Y57529D01*
X260915D01*
Y57460D01*
X260777D01*
Y57391D01*
X260571D01*
Y57322D01*
X260433D01*
Y57253D01*
X260295D01*
Y57184D01*
X260156D01*
Y57115D01*
X259949D01*
Y57046D01*
X259811D01*
Y56977D01*
X259674D01*
Y56908D01*
X259467D01*
Y56839D01*
X259329D01*
Y56770D01*
X259121D01*
Y56701D01*
X258914D01*
Y56632D01*
X258776D01*
Y56563D01*
X258570D01*
Y56494D01*
X258363D01*
Y56425D01*
X258086D01*
Y56356D01*
X257948D01*
Y56287D01*
X257673D01*
Y56218D01*
X257466D01*
Y56149D01*
X257259D01*
Y56080D01*
X256982D01*
Y56011D01*
X256707D01*
Y55942D01*
X256431D01*
Y55873D01*
X256085D01*
Y55804D01*
X255740D01*
Y55735D01*
X254843D01*
Y55804D01*
X254706D01*
Y55873D01*
X254637D01*
Y55942D01*
X254499D01*
Y56080D01*
X254430D01*
Y56149D01*
X254361D01*
Y56287D01*
X254292D01*
Y57115D01*
X254361D01*
Y57391D01*
X254153D01*
Y57322D01*
X253809D01*
Y57253D01*
X253602D01*
Y57184D01*
X253257D01*
Y57115D01*
X252774D01*
Y57046D01*
X252705D01*
Y57115D01*
X252498D01*
Y57046D01*
X252291D01*
Y57115D01*
X251946D01*
Y57184D01*
X251808D01*
Y57253D01*
X251739D01*
Y57322D01*
X251670D01*
Y57391D01*
X251601D01*
Y57460D01*
X251532D01*
Y57598D01*
X251463D01*
Y57736D01*
X251394D01*
Y58357D01*
X251187D01*
Y58288D01*
X251118D01*
Y58219D01*
X250980D01*
Y58150D01*
X250911D01*
Y58081D01*
X250773D01*
Y58012D01*
X250704D01*
Y57943D01*
X250566D01*
Y57874D01*
X250428D01*
Y57805D01*
X250290D01*
Y57736D01*
X250221D01*
Y57667D01*
X250083D01*
Y57598D01*
X249876D01*
Y57529D01*
X249807D01*
Y57460D01*
X249600D01*
Y57391D01*
X249462D01*
Y57322D01*
X249255D01*
Y57253D01*
X249048D01*
Y57184D01*
X248910D01*
Y57115D01*
X248634D01*
Y57046D01*
X248427D01*
Y56977D01*
X248082D01*
Y56908D01*
X247392D01*
Y56977D01*
X247047D01*
Y57046D01*
X246909D01*
Y57115D01*
X246840D01*
Y57184D01*
X246702D01*
Y57253D01*
X246633D01*
Y57391D01*
X246564D01*
Y57460D01*
X246495D01*
Y57529D01*
X246426D01*
Y57736D01*
X246357D01*
Y57874D01*
X246288D01*
Y58012D01*
X246219D01*
Y58219D01*
X246150D01*
Y58564D01*
X246081D01*
Y59047D01*
X246150D01*
Y59392D01*
X246219D01*
Y59668D01*
X246288D01*
Y59944D01*
X246357D01*
Y60220D01*
X246426D01*
Y60427D01*
X246495D01*
Y60496D01*
X246564D01*
Y60703D01*
X246633D01*
Y60841D01*
X246702D01*
Y60979D01*
X246771D01*
Y61186D01*
X246840D01*
Y61255D01*
X246909D01*
Y61462D01*
X246978D01*
Y61531D01*
X247047D01*
Y61738D01*
X247116D01*
Y61807D01*
X247185D01*
Y61945D01*
X247254D01*
Y62083D01*
X247323D01*
Y62221D01*
X247392D01*
Y62359D01*
X247461D01*
Y62566D01*
X247392D01*
Y62497D01*
X247254D01*
Y62428D01*
X247185D01*
Y62359D01*
X247116D01*
Y62290D01*
X247047D01*
Y62221D01*
X246909D01*
Y62152D01*
X246840D01*
Y62083D01*
X246771D01*
Y62014D01*
X246633D01*
Y61945D01*
X246564D01*
Y61876D01*
X246495D01*
Y61807D01*
X246357D01*
Y61738D01*
X246288D01*
Y61669D01*
X246150D01*
Y61600D01*
X246081D01*
Y61531D01*
X245943D01*
Y61462D01*
X245805D01*
Y61393D01*
X245736D01*
Y61324D01*
X245598D01*
Y61255D01*
X245529D01*
Y61186D01*
X245322D01*
Y61117D01*
X245184D01*
Y61048D01*
X245046D01*
Y60979D01*
X244908D01*
Y60910D01*
X244770D01*
Y60841D01*
X244632D01*
Y60772D01*
X244425D01*
Y60703D01*
X244218D01*
Y60634D01*
X244011D01*
Y60565D01*
X243666D01*
Y60496D01*
X243114D01*
Y60565D01*
X242907D01*
Y60634D01*
X242769D01*
Y60703D01*
X242631D01*
Y60772D01*
X242562D01*
Y60841D01*
X242424D01*
Y60910D01*
X242355D01*
Y60979D01*
X242286D01*
Y61048D01*
X242217D01*
Y61186D01*
X242148D01*
Y61255D01*
X242079D01*
Y61393D01*
X242010D01*
Y61531D01*
X241941D01*
Y61738D01*
X241872D01*
Y61945D01*
X241803D01*
Y62290D01*
X241734D01*
Y62428D01*
X241803D01*
Y62497D01*
X241734D01*
Y62842D01*
X241803D01*
Y63187D01*
X241872D01*
Y63463D01*
X241941D01*
Y63739D01*
X242010D01*
Y64084D01*
X242079D01*
Y64360D01*
X242148D01*
Y64567D01*
X242217D01*
Y64705D01*
X242286D01*
Y64912D01*
X242355D01*
Y65119D01*
X242424D01*
Y65257D01*
X242493D01*
Y65395D01*
X242562D01*
Y65671D01*
X242631D01*
Y65740D01*
X242700D01*
Y65947D01*
X242769D01*
Y66154D01*
X242838D01*
Y66223D01*
X242907D01*
Y66430D01*
X242976D01*
Y66568D01*
X243045D01*
Y66775D01*
X243114D01*
Y66844D01*
X243183D01*
Y66982D01*
X243252D01*
Y67189D01*
X243321D01*
Y67327D01*
X243390D01*
Y67465D01*
X243459D01*
Y67603D01*
X243528D01*
Y67672D01*
X243390D01*
Y67534D01*
X243252D01*
Y67465D01*
X243183D01*
Y67327D01*
X243045D01*
Y67258D01*
X242976D01*
Y67189D01*
X242907D01*
Y67120D01*
X242838D01*
Y67051D01*
X242769D01*
Y66913D01*
X242700D01*
Y66844D01*
X242631D01*
Y66775D01*
X242562D01*
Y66706D01*
X242493D01*
Y66637D01*
X242424D01*
Y66568D01*
X242355D01*
Y66430D01*
X242286D01*
Y66361D01*
X242217D01*
Y66292D01*
X242148D01*
Y66154D01*
X242079D01*
Y66085D01*
X242010D01*
Y65947D01*
X241941D01*
Y65878D01*
X241872D01*
Y65740D01*
X241803D01*
Y65671D01*
X241734D01*
Y65602D01*
X241665D01*
Y65464D01*
X241596D01*
Y65395D01*
X241527D01*
Y65257D01*
X241458D01*
Y65188D01*
X241389D01*
Y65050D01*
X241320D01*
Y64981D01*
X241251D01*
Y64843D01*
X241182D01*
Y64774D01*
X241113D01*
Y64636D01*
X241044D01*
Y64567D01*
X240975D01*
Y64429D01*
X240906D01*
Y64360D01*
X240837D01*
Y64222D01*
X240768D01*
Y64153D01*
X240699D01*
Y64084D01*
X240630D01*
Y63946D01*
X240561D01*
Y63877D01*
X240492D01*
Y63739D01*
X240423D01*
Y63670D01*
X240354D01*
Y63601D01*
X240285D01*
Y63463D01*
X240216D01*
Y63394D01*
X240147D01*
Y63325D01*
X240078D01*
Y63187D01*
X240009D01*
Y63118D01*
X239940D01*
Y62980D01*
X239871D01*
Y62911D01*
X239802D01*
Y62773D01*
X239733D01*
Y62704D01*
X239664D01*
Y62635D01*
X239595D01*
Y62497D01*
X239526D01*
Y62428D01*
X239457D01*
Y62359D01*
X239388D01*
Y62221D01*
X239319D01*
Y62152D01*
X239250D01*
Y62083D01*
X239181D01*
Y62014D01*
X239112D01*
Y61876D01*
X239043D01*
Y61807D01*
X238974D01*
Y61738D01*
X238905D01*
Y61600D01*
X238836D01*
Y61531D01*
X238767D01*
Y61462D01*
X238698D01*
Y61324D01*
X238629D01*
Y61255D01*
X238560D01*
Y61186D01*
X238491D01*
Y61117D01*
X238422D01*
Y60979D01*
X238353D01*
Y60910D01*
X238284D01*
Y60841D01*
X238215D01*
Y60772D01*
X238146D01*
Y60634D01*
X238077D01*
Y60565D01*
X238008D01*
Y60496D01*
X237939D01*
Y60427D01*
X237870D01*
Y60289D01*
X237801D01*
Y60220D01*
X237732D01*
Y60151D01*
X237663D01*
Y60013D01*
X237594D01*
Y59875D01*
X237525D01*
Y59806D01*
X237387D01*
Y59737D01*
X237042D01*
Y59806D01*
X236904D01*
Y59875D01*
X236766D01*
Y59944D01*
X236697D01*
Y60496D01*
X236766D01*
Y60634D01*
X236835D01*
Y60910D01*
X236904D01*
Y61048D01*
X236973D01*
Y61186D01*
X237042D01*
Y61324D01*
X237111D01*
Y61462D01*
X237180D01*
Y61600D01*
X237249D01*
Y61669D01*
X237318D01*
Y61807D01*
X237387D01*
Y61945D01*
X237456D01*
Y62014D01*
X237525D01*
Y62152D01*
X237594D01*
Y62221D01*
X237663D01*
Y62359D01*
X237732D01*
Y62428D01*
X237801D01*
Y62566D01*
X237870D01*
Y62635D01*
X237939D01*
Y62704D01*
X238008D01*
Y62842D01*
X238077D01*
Y62911D01*
X238146D01*
Y62980D01*
X238215D01*
Y63118D01*
X238284D01*
Y63187D01*
X238353D01*
Y63256D01*
X238422D01*
Y63325D01*
X238491D01*
Y63463D01*
X238560D01*
Y63532D01*
X238629D01*
Y63601D01*
X238698D01*
Y63739D01*
X238767D01*
Y63808D01*
X238836D01*
Y63877D01*
X238905D01*
Y63946D01*
X238974D01*
Y64084D01*
X239043D01*
Y64153D01*
X239112D01*
Y64222D01*
X239181D01*
Y64291D01*
X239250D01*
Y64360D01*
X239319D01*
Y64498D01*
X239388D01*
Y64567D01*
X239457D01*
Y64636D01*
X239526D01*
Y64705D01*
X239595D01*
Y64774D01*
X239664D01*
Y64912D01*
X239733D01*
Y64981D01*
X239802D01*
Y65050D01*
X239871D01*
Y65119D01*
X239940D01*
Y65188D01*
X240009D01*
Y65257D01*
X240078D01*
Y65326D01*
X240147D01*
Y65464D01*
X240216D01*
Y65533D01*
X240285D01*
Y65602D01*
X240354D01*
Y65671D01*
X240423D01*
Y65740D01*
X240492D01*
Y65809D01*
X240561D01*
Y65878D01*
X240630D01*
Y66016D01*
X240699D01*
Y66085D01*
X240768D01*
Y66154D01*
X240837D01*
Y66223D01*
X240906D01*
Y66292D01*
X240975D01*
Y66361D01*
X241044D01*
Y66430D01*
X241113D01*
Y66568D01*
X241182D01*
Y66637D01*
X241251D01*
Y66706D01*
X241320D01*
Y66775D01*
X241389D01*
Y66844D01*
X241458D01*
Y66913D01*
X241527D01*
Y67051D01*
X241596D01*
Y67120D01*
X241665D01*
Y67189D01*
X241734D01*
Y67258D01*
X241803D01*
Y67327D01*
X241872D01*
Y67396D01*
X241941D01*
Y67465D01*
X242010D01*
Y67534D01*
X242079D01*
Y67603D01*
X242148D01*
Y67672D01*
X242217D01*
Y67741D01*
X242286D01*
Y67810D01*
X242355D01*
Y67948D01*
X242424D01*
Y68017D01*
X242493D01*
Y68086D01*
X242562D01*
Y68155D01*
X242631D01*
Y68293D01*
X242700D01*
Y68362D01*
X242769D01*
Y68431D01*
X242838D01*
Y68500D01*
X242907D01*
Y68569D01*
X242976D01*
Y68638D01*
X243045D01*
Y68776D01*
X243114D01*
Y68845D01*
X243183D01*
Y68914D01*
X243252D01*
Y68983D01*
X243321D01*
Y69052D01*
X243390D01*
Y69121D01*
X243459D01*
Y69190D01*
X243528D01*
Y69259D01*
X243597D01*
Y69397D01*
X243666D01*
Y69466D01*
X243735D01*
Y69535D01*
X243804D01*
Y69604D01*
X243873D01*
Y69673D01*
X243942D01*
Y69742D01*
X244011D01*
Y69880D01*
X244080D01*
Y69949D01*
X244149D01*
Y70018D01*
X244218D01*
Y70087D01*
X244287D01*
Y70156D01*
X244356D01*
Y70225D01*
X244425D01*
Y70294D01*
X244494D01*
Y70363D01*
X244563D01*
Y70432D01*
X244632D01*
Y70570D01*
X244701D01*
Y70639D01*
X244770D01*
Y70708D01*
X244839D01*
Y70777D01*
X244908D01*
Y70846D01*
X244977D01*
Y70915D01*
X245046D01*
Y71053D01*
X245115D01*
Y71122D01*
X245184D01*
Y71191D01*
X245253D01*
Y71260D01*
X245322D01*
Y71329D01*
X245391D01*
Y71398D01*
X245460D01*
Y71467D01*
X245529D01*
Y71536D01*
X245598D01*
Y71605D01*
X245667D01*
Y71674D01*
X245805D01*
Y71743D01*
X245874D01*
Y71812D01*
X245943D01*
Y71881D01*
X246012D01*
Y71950D01*
X246081D01*
Y72019D01*
X246150D01*
Y72088D01*
X246219D01*
Y72157D01*
X246288D01*
Y72295D01*
X246357D01*
Y72364D01*
X246426D01*
Y72502D01*
X246495D01*
Y72571D01*
X246564D01*
Y72640D01*
X246633D01*
Y72709D01*
X246702D01*
Y72778D01*
X246771D01*
Y72847D01*
X246840D01*
Y72985D01*
X246909D01*
Y73054D01*
X247047D01*
Y73123D01*
X247254D01*
Y73054D01*
D02*
G37*
%LPC*%
G36*
X286928Y77056D02*
X286514D01*
Y76849D01*
X286445D01*
Y75538D01*
X286514D01*
Y75262D01*
X286583D01*
Y75124D01*
X286652D01*
Y74848D01*
X286721D01*
Y74710D01*
X286859D01*
Y74641D01*
X286928D01*
Y74503D01*
X286997D01*
Y74434D01*
X287204D01*
Y74296D01*
X287411D01*
Y74227D01*
X287480D01*
Y74158D01*
X287687D01*
Y74089D01*
X287894D01*
Y74020D01*
X288239D01*
Y73951D01*
X288929D01*
Y73882D01*
X289205D01*
Y73813D01*
X289412D01*
Y73882D01*
X289688D01*
Y74020D01*
X289550D01*
Y74089D01*
X289481D01*
Y74365D01*
X289343D01*
Y74434D01*
X289274D01*
Y74503D01*
X289205D01*
Y74779D01*
X289136D01*
Y74848D01*
X288998D01*
Y74986D01*
X288929D01*
Y75193D01*
X288791D01*
Y75262D01*
X288722D01*
Y75331D01*
X288653D01*
Y75469D01*
X288515D01*
Y75538D01*
X288446D01*
Y75676D01*
X288377D01*
Y75745D01*
X288239D01*
Y75814D01*
X288170D01*
Y76021D01*
X287963D01*
Y76090D01*
X287894D01*
Y76297D01*
X287687D01*
Y76435D01*
X287618D01*
Y76504D01*
X287480D01*
Y76573D01*
X287411D01*
Y76711D01*
X287273D01*
Y76780D01*
X287204D01*
Y76849D01*
X287135D01*
Y76918D01*
X286997D01*
Y76987D01*
X286928D01*
Y77056D01*
D02*
G37*
G36*
X288722Y58909D02*
X288308D01*
Y58840D01*
X288170D01*
Y58219D01*
X288239D01*
Y57253D01*
X288308D01*
Y57046D01*
X288377D01*
Y56977D01*
X288446D01*
Y56701D01*
X288515D01*
Y56632D01*
X288653D01*
Y56563D01*
X288722D01*
Y56494D01*
X288860D01*
Y56425D01*
X288998D01*
Y56356D01*
X289136D01*
Y56287D01*
X289412D01*
Y56218D01*
X289481D01*
Y56149D01*
X289550D01*
Y56218D01*
X289619D01*
Y56149D01*
X289826D01*
Y56080D01*
X290378D01*
Y55942D01*
X290585D01*
Y55804D01*
X290654D01*
Y55735D01*
X290723D01*
Y55804D01*
X290861D01*
Y55528D01*
X290930D01*
Y55459D01*
X291068D01*
Y55528D01*
X291689D01*
Y55597D01*
X291758D01*
Y55666D01*
X291827D01*
Y55735D01*
X291896D01*
Y56080D01*
X291965D01*
Y56149D01*
X291896D01*
Y56494D01*
X291827D01*
Y56563D01*
X291758D01*
Y56632D01*
X291689D01*
Y56839D01*
X291620D01*
Y56908D01*
X291413D01*
Y57046D01*
X291344D01*
Y57115D01*
X291206D01*
Y57184D01*
X291137D01*
Y57253D01*
X290999D01*
Y57322D01*
X290930D01*
Y57391D01*
X290723D01*
Y57460D01*
X290654D01*
Y57598D01*
X290447D01*
Y57736D01*
X290240D01*
Y57805D01*
X290171D01*
Y57874D01*
X290102D01*
Y57943D01*
X289964D01*
Y58012D01*
X289895D01*
Y58081D01*
X289688D01*
Y58219D01*
X289481D01*
Y58357D01*
X289412D01*
Y58426D01*
X289205D01*
Y58564D01*
X289136D01*
Y58633D01*
X288998D01*
Y58702D01*
X288929D01*
Y58840D01*
X288722D01*
Y58909D01*
D02*
G37*
G36*
X273335Y91339D02*
X273197D01*
Y91201D01*
X273128D01*
Y91063D01*
X273059D01*
Y90925D01*
X272990D01*
Y90718D01*
X272921D01*
Y90511D01*
X272852D01*
Y90373D01*
X272783D01*
Y90166D01*
X272714D01*
Y89890D01*
X272645D01*
Y89614D01*
X272576D01*
Y89338D01*
X272507D01*
Y88993D01*
X272438D01*
Y88579D01*
X272507D01*
Y88717D01*
X272576D01*
Y88924D01*
X272645D01*
Y88993D01*
X272714D01*
Y89269D01*
X272783D01*
Y89338D01*
X272852D01*
Y89614D01*
X272921D01*
Y89683D01*
Y89752D01*
X272990D01*
Y90097D01*
X273059D01*
Y90373D01*
X273128D01*
Y90649D01*
X273197D01*
Y90994D01*
X273266D01*
Y91270D01*
X273335D01*
Y91339D01*
D02*
G37*
G36*
X253119Y84370D02*
X253050D01*
Y84301D01*
X253119D01*
Y84370D01*
D02*
G37*
G36*
X247737Y88303D02*
X247599D01*
Y88234D01*
X247530D01*
Y88165D01*
X247461D01*
Y88096D01*
X247392D01*
Y88027D01*
X247323D01*
Y87958D01*
X247254D01*
Y87889D01*
X247185D01*
Y87820D01*
X247116D01*
Y87682D01*
X247047D01*
Y87613D01*
X246978D01*
Y87544D01*
X246909D01*
Y87406D01*
X246840D01*
Y87268D01*
X246771D01*
Y87199D01*
X246702D01*
Y87061D01*
X246633D01*
Y86923D01*
X246564D01*
Y86854D01*
X246495D01*
Y86647D01*
X246426D01*
Y86509D01*
X246357D01*
Y86371D01*
X246288D01*
Y86164D01*
X246219D01*
Y86095D01*
X246150D01*
Y85819D01*
X246081D01*
Y85612D01*
X246012D01*
Y85336D01*
X245943D01*
Y85060D01*
X245874D01*
Y83680D01*
X245943D01*
Y83473D01*
X246012D01*
Y83335D01*
X246081D01*
Y83128D01*
X246150D01*
Y82990D01*
X246219D01*
Y82921D01*
X246288D01*
Y82852D01*
X246357D01*
Y83059D01*
X246426D01*
Y83197D01*
X246495D01*
Y83404D01*
X246564D01*
Y83542D01*
X246633D01*
Y83818D01*
X246702D01*
Y83956D01*
X246771D01*
Y84163D01*
X246840D01*
Y84301D01*
X246909D01*
Y84508D01*
X246978D01*
Y84715D01*
X247047D01*
Y84991D01*
X247116D01*
Y85198D01*
X247185D01*
Y85336D01*
X247254D01*
Y85612D01*
X247323D01*
Y85888D01*
X247392D01*
Y86095D01*
X247461D01*
Y86164D01*
Y86302D01*
X247530D01*
Y86578D01*
X247599D01*
Y86992D01*
X247668D01*
Y87406D01*
X247737D01*
Y88303D01*
D02*
G37*
G36*
X260156Y84163D02*
X260087D01*
Y84094D01*
X260018D01*
Y84025D01*
X259949D01*
Y83887D01*
X259811D01*
Y83749D01*
X259742D01*
Y83680D01*
X259674D01*
Y83611D01*
X259605D01*
Y83542D01*
X259536D01*
Y83404D01*
X259467D01*
Y83335D01*
X259398D01*
Y83197D01*
X259329D01*
Y83059D01*
X259260D01*
Y82921D01*
X259191D01*
Y82714D01*
X259121D01*
Y82507D01*
X259052D01*
Y82369D01*
X259191D01*
Y82438D01*
X259329D01*
Y82507D01*
X259398D01*
Y82576D01*
X259467D01*
Y82645D01*
X259536D01*
Y82714D01*
X259605D01*
Y82852D01*
X259742D01*
Y82990D01*
X259811D01*
Y83059D01*
X259880D01*
Y83128D01*
X259949D01*
Y83266D01*
X260018D01*
Y83335D01*
X260087D01*
Y83404D01*
X260156D01*
Y83473D01*
X260226D01*
Y83680D01*
X260295D01*
Y83818D01*
X260226D01*
Y84094D01*
X260156D01*
Y84163D01*
D02*
G37*
G36*
X269195Y79678D02*
X269126D01*
Y79609D01*
Y79540D01*
X269195D01*
Y79678D01*
D02*
G37*
G36*
X269126Y79471D02*
X269057D01*
Y79333D01*
X268988D01*
Y79057D01*
X268919D01*
Y78643D01*
X268850D01*
Y78298D01*
X268781D01*
Y77746D01*
X268712D01*
Y77401D01*
X268781D01*
Y77539D01*
X268850D01*
Y77815D01*
X268919D01*
Y78022D01*
Y78091D01*
Y78160D01*
X268988D01*
Y78505D01*
X269057D01*
Y78988D01*
X269126D01*
Y79471D01*
D02*
G37*
G36*
X249531Y74779D02*
X249462D01*
Y74710D01*
X249393D01*
Y74572D01*
X249324D01*
Y74296D01*
X249255D01*
Y74158D01*
X249186D01*
Y73882D01*
X249117D01*
Y73744D01*
X249048D01*
Y73468D01*
X248979D01*
Y73261D01*
X248910D01*
Y73054D01*
X248841D01*
Y72778D01*
X248772D01*
Y72571D01*
X248703D01*
Y72364D01*
X248634D01*
Y72088D01*
X248565D01*
Y71812D01*
X248496D01*
Y71536D01*
X248427D01*
Y71467D01*
Y70984D01*
X248358D01*
Y70501D01*
X248289D01*
Y70087D01*
X248358D01*
Y70018D01*
X248289D01*
Y69949D01*
X248358D01*
Y69880D01*
X248427D01*
Y69742D01*
X248634D01*
Y69811D01*
X248703D01*
Y69880D01*
X248772D01*
Y70018D01*
X248841D01*
Y70156D01*
X248910D01*
Y70294D01*
X248979D01*
Y70432D01*
X249048D01*
Y70639D01*
X249117D01*
Y70777D01*
X249186D01*
Y71122D01*
X249255D01*
Y71467D01*
X249324D01*
Y71674D01*
X249393D01*
Y72019D01*
X249462D01*
Y72778D01*
X249531D01*
Y74779D01*
D02*
G37*
G36*
X262433Y61876D02*
X262226D01*
Y61807D01*
X262019D01*
Y61738D01*
X261812D01*
Y61669D01*
X261605D01*
Y61600D01*
X261467D01*
Y61531D01*
X261329D01*
Y61462D01*
X261191D01*
Y61393D01*
X261053D01*
Y61324D01*
X260915D01*
Y61255D01*
X260777D01*
Y61186D01*
X260640D01*
Y61117D01*
X260502D01*
Y61048D01*
X260364D01*
Y60979D01*
X260226D01*
Y60910D01*
X260087D01*
Y60841D01*
X260018D01*
Y60772D01*
X259880D01*
Y60703D01*
X259742D01*
Y60634D01*
X259605D01*
Y60565D01*
X259536D01*
Y60496D01*
X259398D01*
Y60427D01*
X259329D01*
Y60358D01*
X259191D01*
Y60289D01*
X259052D01*
Y60220D01*
X258983D01*
Y60151D01*
X258845D01*
Y60082D01*
X258776D01*
Y60013D01*
X258639D01*
Y59944D01*
X258570D01*
Y59875D01*
X258501D01*
Y59806D01*
X258363D01*
Y59737D01*
X258294D01*
Y59668D01*
X258225D01*
Y59599D01*
X258432D01*
Y59668D01*
X258570D01*
Y59737D01*
X258776D01*
Y59806D01*
X258914D01*
Y59875D01*
X259052D01*
Y59944D01*
X259191D01*
Y60013D01*
X259329D01*
Y60082D01*
X259467D01*
Y60151D01*
X259605D01*
Y60220D01*
X259674D01*
Y60289D01*
X259811D01*
Y60358D01*
X259949D01*
Y60427D01*
X260087D01*
Y60496D01*
X260226D01*
Y60565D01*
X260364D01*
Y60634D01*
X260502D01*
Y60703D01*
X260571D01*
Y60772D01*
X260708D01*
Y60841D01*
X260846D01*
Y60910D01*
X260984D01*
Y60979D01*
X261053D01*
Y61048D01*
X261191D01*
Y61117D01*
X261329D01*
Y61186D01*
X261398D01*
Y61255D01*
X261605D01*
Y61324D01*
X261674D01*
Y61393D01*
X261812D01*
Y61462D01*
X261881D01*
Y61531D01*
X262019D01*
Y61600D01*
X262088D01*
Y61669D01*
X262226D01*
Y61738D01*
X262295D01*
Y61807D01*
X262433D01*
Y61876D01*
D02*
G37*
G36*
X278510Y48559D02*
X278372D01*
Y48490D01*
X278303D01*
Y48559D01*
X278234D01*
Y48490D01*
X277889D01*
Y48421D01*
X277406D01*
Y48352D01*
X277130D01*
Y48283D01*
X276647D01*
Y48214D01*
X276164D01*
Y48145D01*
X275888D01*
Y48076D01*
X275405D01*
Y48007D01*
X275060D01*
Y47938D01*
X274991D01*
Y48007D01*
X274922D01*
Y47938D01*
X274646D01*
Y47869D01*
X274163D01*
Y47800D01*
X273887D01*
Y47731D01*
X273473D01*
Y47662D01*
X272990D01*
Y47593D01*
X272714D01*
Y47524D01*
X272300D01*
Y47455D01*
X271886D01*
Y47386D01*
X271541D01*
Y47317D01*
X271127D01*
Y47248D01*
X270782D01*
Y47179D01*
X270368D01*
Y47110D01*
X269954D01*
Y47041D01*
X269609D01*
Y46972D01*
X269333D01*
Y46903D01*
X269264D01*
Y46972D01*
X269195D01*
Y46903D01*
X268919D01*
Y46834D01*
X268505D01*
Y46765D01*
X268229D01*
Y46696D01*
X267884D01*
Y46627D01*
X267539D01*
Y46558D01*
X267125D01*
Y46489D01*
X266849D01*
Y46420D01*
X266642D01*
Y46351D01*
X266228D01*
Y46282D01*
X265952D01*
Y46213D01*
X265745D01*
Y46144D01*
X265469D01*
Y46075D01*
X265262D01*
Y46006D01*
X265124D01*
Y45937D01*
X264917D01*
Y45868D01*
X264710D01*
Y45799D01*
X264641D01*
Y45730D01*
X264434D01*
Y45661D01*
X264296D01*
Y45592D01*
X264158D01*
Y45523D01*
X264089D01*
Y45454D01*
X263951D01*
Y45385D01*
X263882D01*
Y45316D01*
X263813D01*
Y45247D01*
X263744D01*
Y45178D01*
X263606D01*
Y45109D01*
X263537D01*
Y44971D01*
X263468D01*
Y44902D01*
X263399D01*
Y44764D01*
X263330D01*
Y44626D01*
X263399D01*
Y44419D01*
X263537D01*
Y44350D01*
X263744D01*
Y44281D01*
X265124D01*
Y44350D01*
X265193D01*
Y44281D01*
X265469D01*
Y44350D01*
X265676D01*
Y44281D01*
X265814D01*
Y44350D01*
X266504D01*
Y44419D01*
X267125D01*
Y44488D01*
X267263D01*
Y44419D01*
X267332D01*
Y44488D01*
X267746D01*
Y44557D01*
X267815D01*
Y44488D01*
X267884D01*
Y44557D01*
X268229D01*
Y44626D01*
X268712D01*
Y44695D01*
X269126D01*
Y44764D01*
X269402D01*
Y44833D01*
X269816D01*
Y44902D01*
X270092D01*
Y44971D01*
X270368D01*
Y45040D01*
X270713D01*
Y45109D01*
X270920D01*
Y45178D01*
X271265D01*
Y45247D01*
X271472D01*
Y45316D01*
X271748D01*
Y45385D01*
X272024D01*
Y45454D01*
X272231D01*
Y45523D01*
X272507D01*
Y45592D01*
X272714D01*
Y45661D01*
X272921D01*
Y45730D01*
X273128D01*
Y45799D01*
X273335D01*
Y45868D01*
X273542D01*
Y45937D01*
X273749D01*
Y46006D01*
X273956D01*
Y46075D01*
X274094D01*
Y46144D01*
X274232D01*
Y46213D01*
X274370D01*
Y46282D01*
X274577D01*
Y46351D01*
X274784D01*
Y46420D01*
X274922D01*
Y46489D01*
X275129D01*
Y46558D01*
X275267D01*
Y46627D01*
X275474D01*
Y46696D01*
X275543D01*
Y46765D01*
X275750D01*
Y46834D01*
X275888D01*
Y46903D01*
X276026D01*
Y46972D01*
X276164D01*
Y47041D01*
X276302D01*
Y47110D01*
X276440D01*
Y47179D01*
X276578D01*
Y47248D01*
X276716D01*
Y47317D01*
X276854D01*
Y47386D01*
X276923D01*
Y47455D01*
X277061D01*
Y47524D01*
X277199D01*
Y47593D01*
X277337D01*
Y47662D01*
X277475D01*
Y47731D01*
X277544D01*
Y47800D01*
X277682D01*
Y47869D01*
X277751D01*
Y47938D01*
X277889D01*
Y48007D01*
X277958D01*
Y48076D01*
X278096D01*
Y48145D01*
X278165D01*
Y48214D01*
X278303D01*
Y48283D01*
X278372D01*
Y48352D01*
X278441D01*
Y48421D01*
X278510D01*
Y48559D01*
D02*
G37*
%LPD*%
D10*
X36409Y42742D02*
G03*
X19324Y42435I-8765J12173D01*
G01*
X137235Y85673D02*
G03*
X154321Y85981I8765J-12173D01*
G01*
X22117Y54416D02*
X23172D01*
X32117D02*
X33172D01*
X19645Y42415D02*
X36141D01*
X137504Y86000D02*
X154000D01*
X140472Y74000D02*
X141528D01*
X150472D02*
X151528D01*
X244976Y115654D02*
X287024D01*
X244976D02*
Y118154D01*
Y99138D02*
Y115654D01*
Y99138D02*
X287024D01*
Y115654D01*
Y118154D01*
X244976D02*
X287024D01*
D11*
X243694Y108390D02*
G03*
X243694Y108390I-394J0D01*
G01*
X4498Y149500D02*
X14498D01*
Y109500D02*
Y149500D01*
X4498Y109500D02*
Y149500D01*
Y109500D02*
X14498D01*
X217000Y39000D02*
X221000D01*
X245000D02*
X249000D01*
X221000Y43000D02*
X245000D01*
X221000Y35000D02*
Y43000D01*
Y35000D02*
X245000D01*
Y43000D01*
X331000Y26000D02*
X339000D01*
X331000D02*
Y50000D01*
X339000D01*
Y26000D02*
Y50000D01*
X335000Y22000D02*
Y26000D01*
Y50000D02*
Y54000D01*
X194500Y29000D02*
X202500D01*
X194500D02*
Y53000D01*
X202500D01*
Y29000D02*
Y53000D01*
X198500Y25000D02*
Y29000D01*
Y53000D02*
Y57000D01*
X115000Y36500D02*
X123000D01*
X115000D02*
Y60500D01*
X123000D01*
Y36500D02*
Y60500D01*
X119000Y32500D02*
Y36500D01*
Y60500D02*
Y64500D01*
X296000Y18500D02*
X304000D01*
X296000D02*
Y42500D01*
X304000D01*
Y18500D02*
Y42500D01*
X300000Y14500D02*
Y18500D01*
Y42500D02*
Y46500D01*
X69500Y178500D02*
Y186500D01*
X45500Y178500D02*
X69500D01*
X45500D02*
Y186500D01*
X69500D01*
Y182500D02*
X73500D01*
X41500D02*
X45500D01*
X165000Y23500D02*
Y33500D01*
X145000Y23500D02*
X165000D01*
X145000D02*
Y33500D01*
X165000D01*
X116303Y165421D02*
X121815Y167095D01*
X116303Y165421D02*
X116795Y163650D01*
X121815Y165126D01*
X116303Y180579D02*
X121815Y178905D01*
X116303Y180579D02*
X116795Y182350D01*
X121815Y180874D01*
X161185Y178905D02*
X166697Y180579D01*
X166205Y182350D02*
X166697Y180579D01*
X161185Y180874D02*
X166205Y182350D01*
X161185Y167095D02*
X166697Y165421D01*
X166205Y163650D02*
X166697Y165421D01*
X161185Y165126D02*
X166205Y163650D01*
X161185Y161189D02*
Y184811D01*
X121815D02*
X161185D01*
X121815Y161189D02*
Y184811D01*
Y161189D02*
X161185D01*
X32000Y174000D02*
X42000D01*
Y154000D02*
Y174000D01*
X32000Y154000D02*
X42000D01*
X32000D02*
Y174000D01*
X72500Y154000D02*
Y174000D01*
Y154000D02*
X82500D01*
Y174000D01*
X72500D02*
X82500D01*
X138500Y132000D02*
Y136000D01*
Y104000D02*
Y108000D01*
X142500D02*
Y132000D01*
X134500D02*
X142500D01*
X134500Y108000D02*
Y132000D01*
Y108000D02*
X142500D01*
X310000Y185000D02*
Y195000D01*
X350000D01*
X310000Y185000D02*
X350000D01*
Y195000D01*
X118000Y104000D02*
Y108000D01*
Y132000D02*
Y136000D01*
X114000Y108000D02*
Y132000D01*
Y108000D02*
X122000D01*
Y132000D01*
X114000D02*
X122000D01*
X159500Y134500D02*
X179500D01*
Y144500D01*
X159500D02*
X179500D01*
X159500Y134500D02*
Y144500D01*
X115910Y178905D02*
Y174970D01*
X117878Y176938D01*
X115254D01*
X167780Y175626D02*
X167124Y174970D01*
X165812D01*
X165156Y175626D01*
Y176282D01*
X165812Y176938D01*
X166468D01*
X165812D01*
X165156Y177594D01*
Y178250D01*
X165812Y178905D01*
X167124D01*
X167780Y178250D01*
X115254Y171031D02*
X117878D01*
X115254Y168408D01*
Y167752D01*
X115910Y167096D01*
X117222D01*
X117878Y167752D01*
X167091Y171031D02*
X165779D01*
X166435D01*
Y167096D01*
X167091Y167752D01*
D12*
X100500Y22000D02*
Y138000D01*
X56500D02*
X100500D01*
X56500Y22000D02*
Y138000D01*
Y22000D02*
X100500D01*
X107000Y86999D02*
Y83000D01*
X108999D01*
X109666Y83666D01*
Y86332D01*
X108999Y86999D01*
X107000D01*
X110999Y85666D02*
Y83000D01*
Y84333D01*
X111665Y84999D01*
X112332Y85666D01*
X112998D01*
X114997Y83000D02*
X116330D01*
X115664D01*
Y85666D01*
X114997D01*
X118330D02*
X119663Y83000D01*
X120995Y85666D01*
X124328Y83000D02*
X122995D01*
X122328Y83666D01*
Y84999D01*
X122995Y85666D01*
X124328D01*
X124994Y84999D01*
Y84333D01*
X122328D01*
X126327Y85666D02*
Y83000D01*
Y84333D01*
X126994Y84999D01*
X127660Y85666D01*
X128326D01*
X259999Y142332D02*
X258666D01*
X258000Y141665D01*
Y138999D01*
X258666Y138333D01*
X259999D01*
X260666Y138999D01*
Y141665D01*
X259999Y142332D01*
X261999Y140999D02*
Y138999D01*
X262665Y138333D01*
X264665D01*
Y140999D01*
X266664Y141665D02*
Y140999D01*
X265997D01*
X267330D01*
X266664D01*
Y138999D01*
X267330Y138333D01*
X269330Y137000D02*
Y140999D01*
X271329D01*
X271995Y140332D01*
Y138999D01*
X271329Y138333D01*
X269330D01*
X273328Y140999D02*
Y138999D01*
X273995Y138333D01*
X275994D01*
Y140999D01*
X277994Y141665D02*
Y140999D01*
X277327D01*
X278660D01*
X277994D01*
Y138999D01*
X278660Y138333D01*
X18666Y85999D02*
X16000D01*
Y82000D01*
X18666D01*
X16000Y83999D02*
X17333D01*
X19999Y82000D02*
Y84666D01*
X21998D01*
X22664Y83999D01*
Y82000D01*
X24664Y84666D02*
X25997D01*
X26663Y83999D01*
Y82000D01*
X24664D01*
X23997Y82666D01*
X24664Y83333D01*
X26663D01*
X27996Y85999D02*
Y82000D01*
X29996D01*
X30662Y82666D01*
Y83333D01*
Y83999D01*
X29996Y84666D01*
X27996D01*
X31995Y82000D02*
X33328D01*
X32661D01*
Y85999D01*
X31995D01*
X37326Y82000D02*
X35993D01*
X35327Y82666D01*
Y83999D01*
X35993Y84666D01*
X37326D01*
X37993Y83999D01*
Y83333D01*
X35327D01*
X50166Y167499D02*
X47500D01*
Y165499D01*
X48833D01*
X47500D01*
Y163500D01*
X51499D02*
X52832D01*
X52165D01*
Y166166D01*
X51499D01*
X54831Y163500D02*
X56164D01*
X55497D01*
Y167499D01*
X54831D01*
X58830Y166832D02*
Y166166D01*
X58163D01*
X59496D01*
X58830D01*
Y164166D01*
X59496Y163500D01*
X63495D02*
X62162D01*
X61496Y164166D01*
Y165499D01*
X62162Y166166D01*
X63495D01*
X64161Y165499D01*
Y164833D01*
X61496D01*
X65494Y166166D02*
Y163500D01*
Y164833D01*
X66161Y165499D01*
X66827Y166166D01*
X67494D01*
X236999Y158000D02*
X233000D01*
X236999Y161999D01*
Y162998D01*
X235999Y163998D01*
X234000D01*
X233000Y162998D01*
X238998D02*
X239998Y163998D01*
X241997D01*
X242997Y162998D01*
Y159000D01*
X241997Y158000D01*
X239998D01*
X238998Y159000D01*
Y162998D01*
X248995Y158000D02*
X244996D01*
X248995Y161999D01*
Y162998D01*
X247995Y163998D01*
X245996D01*
X244996Y162998D01*
X254993Y158000D02*
X250994D01*
X254993Y161999D01*
Y162998D01*
X253993Y163998D01*
X251994D01*
X250994Y162998D01*
X256992Y160999D02*
X260991D01*
X262990Y162998D02*
X263990Y163998D01*
X265989D01*
X266989Y162998D01*
Y159000D01*
X265989Y158000D01*
X263990D01*
X262990Y159000D01*
Y162998D01*
X268988D02*
X269988Y163998D01*
X271987D01*
X272987Y162998D01*
Y161999D01*
X271987Y160999D01*
X270988D01*
X271987D01*
X272987Y159999D01*
Y159000D01*
X271987Y158000D01*
X269988D01*
X268988Y159000D01*
X274986Y160999D02*
X278985D01*
X284983Y158000D02*
X280984D01*
X284983Y161999D01*
Y162998D01*
X283983Y163998D01*
X281984D01*
X280984Y162998D01*
X286982D02*
X287982Y163998D01*
X289982D01*
X290981Y162998D01*
Y159000D01*
X289982Y158000D01*
X287982D01*
X286982Y159000D01*
Y162998D01*
X48999Y12997D02*
X45000D01*
Y6999D01*
X48999D01*
X45000Y9998D02*
X46999D01*
X54997Y11998D02*
X53997Y12997D01*
X51998D01*
X50998Y11998D01*
Y7999D01*
X51998Y6999D01*
X53997D01*
X54997Y7999D01*
X60995Y12997D02*
X56996D01*
Y6999D01*
X60995D01*
X56996Y9998D02*
X58995D01*
X66993Y6999D02*
X62994D01*
X66993Y10998D01*
Y11998D01*
X65993Y12997D01*
X63994D01*
X62994Y11998D01*
X68992Y7999D02*
X69992Y6999D01*
X71991D01*
X72991Y7999D01*
Y11998D01*
X71991Y12997D01*
X69992D01*
X68992Y11998D01*
Y10998D01*
X69992Y9998D01*
X72991D01*
X78989Y12997D02*
X74990D01*
Y9998D01*
X76990Y10998D01*
X77989D01*
X78989Y9998D01*
Y7999D01*
X77989Y6999D01*
X75990D01*
X74990Y7999D01*
X86986Y12997D02*
X90985D01*
X88986D01*
Y6999D01*
X95983D02*
X93984D01*
X92984Y7999D01*
Y9998D01*
X93984Y10998D01*
X95983D01*
X96983Y9998D01*
Y8999D01*
X92984D01*
X99982Y10998D02*
X101982D01*
X102981Y9998D01*
Y6999D01*
X99982D01*
X98983Y7999D01*
X99982Y8999D01*
X102981D01*
X104981Y6999D02*
Y10998D01*
X105980D01*
X106980Y9998D01*
Y6999D01*
Y9998D01*
X107980Y10998D01*
X108979Y9998D01*
Y6999D01*
X116977Y11998D02*
X117976Y12997D01*
X119976D01*
X120975Y11998D01*
Y10998D01*
X119976Y9998D01*
X118976D01*
X119976D01*
X120975Y8999D01*
Y7999D01*
X119976Y6999D01*
X117976D01*
X116977Y7999D01*
X122975Y11998D02*
X123975Y12997D01*
X125974D01*
X126973Y11998D01*
Y7999D01*
X125974Y6999D01*
X123975D01*
X122975Y7999D01*
Y11998D01*
X128973Y10998D02*
X129973D01*
Y9998D01*
X128973D01*
Y10998D01*
Y7999D02*
X129973D01*
Y6999D01*
X128973D01*
Y7999D01*
X139969Y6999D02*
Y12997D01*
X142968D01*
X143968Y11998D01*
Y9998D01*
X142968Y8999D01*
X139969D01*
X146967Y6999D02*
X148966D01*
X149966Y7999D01*
Y9998D01*
X148966Y10998D01*
X146967D01*
X145967Y9998D01*
Y7999D01*
X146967Y6999D01*
X151965Y10998D02*
Y7999D01*
X152965Y6999D01*
X153965Y7999D01*
X154964Y6999D01*
X155964Y7999D01*
Y10998D01*
X160962Y6999D02*
X158963D01*
X157964Y7999D01*
Y9998D01*
X158963Y10998D01*
X160962D01*
X161962Y9998D01*
Y8999D01*
X157964D01*
X163962Y10998D02*
Y6999D01*
Y8999D01*
X164961Y9998D01*
X165961Y10998D01*
X166961D01*
X175958Y6999D02*
Y10998D01*
X177957Y12997D01*
X179956Y10998D01*
Y6999D01*
Y9998D01*
X175958D01*
X181956Y6999D02*
Y10998D01*
X182955D01*
X183955Y9998D01*
Y6999D01*
Y9998D01*
X184955Y10998D01*
X185954Y9998D01*
Y6999D01*
X187954Y5000D02*
Y10998D01*
X190953D01*
X191953Y9998D01*
Y7999D01*
X190953Y6999D01*
X187954D01*
X193952D02*
X195951D01*
X194951D01*
Y12997D01*
X193952D01*
X198950Y6999D02*
X200950D01*
X199950D01*
Y10998D01*
X198950D01*
X204948Y6999D02*
Y11998D01*
Y9998D01*
X203949D01*
X205948D01*
X204948D01*
Y11998D01*
X205948Y12997D01*
X208947Y6999D02*
X210946D01*
X209947D01*
Y10998D01*
X208947D01*
X216944Y6999D02*
X214945D01*
X213945Y7999D01*
Y9998D01*
X214945Y10998D01*
X216944D01*
X217944Y9998D01*
Y8999D01*
X213945D01*
X219943Y10998D02*
Y6999D01*
Y8999D01*
X220943Y9998D01*
X221943Y10998D01*
X222942D01*
X232939D02*
X234939D01*
X235938Y9998D01*
Y6999D01*
X232939D01*
X231940Y7999D01*
X232939Y8999D01*
X235938D01*
X237938Y6999D02*
Y10998D01*
X240937D01*
X241936Y9998D01*
Y6999D01*
X247934Y12997D02*
Y6999D01*
X244935D01*
X243936Y7999D01*
Y9998D01*
X244935Y10998D01*
X247934D01*
X259930Y12997D02*
X255932D01*
Y9998D01*
X257931D01*
X255932D01*
Y6999D01*
X261930D02*
X263929D01*
X262930D01*
Y10998D01*
X261930D01*
X266928Y6999D02*
X268928D01*
X267928D01*
Y12997D01*
X266928D01*
X272926Y11998D02*
Y10998D01*
X271927D01*
X273926D01*
X272926D01*
Y7999D01*
X273926Y6999D01*
X279924D02*
X277925D01*
X276925Y7999D01*
Y9998D01*
X277925Y10998D01*
X279924D01*
X280924Y9998D01*
Y8999D01*
X276925D01*
X282923Y10998D02*
Y6999D01*
Y8999D01*
X283923Y9998D01*
X284922Y10998D01*
X285922D01*
X226502Y48001D02*
Y53999D01*
X229501D01*
X230500Y52999D01*
Y51000D01*
X229501Y50000D01*
X226502D01*
X228501D02*
X230500Y48001D01*
X236498Y53999D02*
X234499Y52999D01*
X232500Y51000D01*
Y49001D01*
X233499Y48001D01*
X235499D01*
X236498Y49001D01*
Y50000D01*
X235499Y51000D01*
X232500D01*
X331600Y64200D02*
Y70198D01*
X334599D01*
X335599Y69198D01*
Y67199D01*
X334599Y66199D01*
X331600D01*
X333599D02*
X335599Y64200D01*
X337598D02*
X339597D01*
X338598D01*
Y70198D01*
X337598Y69198D01*
X57000Y141500D02*
Y147498D01*
Y143499D02*
X59999Y145499D01*
X57000Y143499D02*
X59999Y141500D01*
X62998D02*
X64997D01*
X63998D01*
Y147498D01*
X62998Y146498D01*
X264999Y127499D02*
X264000Y128499D01*
X262000D01*
X261001Y127499D01*
Y123501D01*
X262000Y122501D01*
X264000D01*
X264999Y123501D01*
X135100Y146200D02*
Y152198D01*
X138099D01*
X139099Y151198D01*
Y149199D01*
X138099Y148199D01*
X135100D01*
X137099D02*
X139099Y146200D01*
X141098Y151198D02*
X142098Y152198D01*
X144097D01*
X145097Y151198D01*
Y150199D01*
X144097Y149199D01*
X143097D01*
X144097D01*
X145097Y148199D01*
Y147200D01*
X144097Y146200D01*
X142098D01*
X141098Y147200D01*
X22146Y39415D02*
X26145D01*
X24146D01*
Y33417D01*
X32143D02*
X28144D01*
X32143Y37415D01*
Y38415D01*
X31143Y39415D01*
X29144D01*
X28144Y38415D01*
X114600Y146200D02*
Y152198D01*
X117599D01*
X118599Y151198D01*
Y149199D01*
X117599Y148199D01*
X114600D01*
X116599D02*
X118599Y146200D01*
X124597D02*
X120598D01*
X124597Y150199D01*
Y151198D01*
X123597Y152198D01*
X121598D01*
X120598Y151198D01*
X141002Y94999D02*
X145000D01*
X143001D01*
Y89001D01*
X147000Y93999D02*
X147999Y94999D01*
X149999D01*
X150998Y93999D01*
Y93000D01*
X149999Y92000D01*
X148999D01*
X149999D01*
X150998Y91000D01*
Y90001D01*
X149999Y89001D01*
X147999D01*
X147000Y90001D01*
X136001Y195999D02*
X140000D01*
X138001D01*
Y190001D01*
X141999D02*
X143999D01*
X142999D01*
Y195999D01*
X141999Y194999D01*
X124502Y47001D02*
Y52999D01*
X127501D01*
X128500Y51999D01*
Y50000D01*
X127501Y49000D01*
X124502D01*
X126501D02*
X128500Y47001D01*
X133499D02*
Y52999D01*
X130500Y50000D01*
X134498D01*
X181002Y37501D02*
Y43499D01*
X184001D01*
X185000Y42499D01*
Y40500D01*
X184001Y39500D01*
X181002D01*
X183001D02*
X185000Y37501D01*
X190998Y43499D02*
X187000D01*
Y40500D01*
X188999Y41500D01*
X189999D01*
X190998Y40500D01*
Y38501D01*
X189999Y37501D01*
X187999D01*
X187000Y38501D01*
X306502Y31001D02*
Y36999D01*
X309501D01*
X310500Y35999D01*
Y34000D01*
X309501Y33000D01*
X306502D01*
X308501D02*
X310500Y31001D01*
X312500Y36999D02*
X316498D01*
Y35999D01*
X312500Y32001D01*
Y31001D01*
X294501Y193999D02*
X292502D01*
X293501D01*
Y189001D01*
X292502Y188001D01*
X291502D01*
X290502Y189001D01*
X296500Y188001D02*
X298500D01*
X297500D01*
Y193999D01*
X296500Y192999D01*
X301499Y193999D02*
X305498D01*
Y192999D01*
X301499Y189001D01*
Y188001D01*
X7001Y104999D02*
X5002D01*
X6002D01*
Y100001D01*
X5002Y99001D01*
X4002D01*
X3002Y100001D01*
X9001Y99001D02*
X11000D01*
X10000D01*
Y104999D01*
X9001Y103999D01*
X13999D02*
X14999Y104999D01*
X16998D01*
X17998Y103999D01*
Y103000D01*
X16998Y102000D01*
X17998Y101000D01*
Y100001D01*
X16998Y99001D01*
X14999D01*
X13999Y100001D01*
Y101000D01*
X14999Y102000D01*
X13999Y103000D01*
Y103999D01*
X14999Y102000D02*
X16998D01*
X52001Y196499D02*
Y190501D01*
X56000D01*
X57999D02*
X59999D01*
X58999D01*
Y196499D01*
X57999Y195499D01*
X164099Y152898D02*
X163099Y153898D01*
X161100D01*
X160100Y152898D01*
Y148900D01*
X161100Y147900D01*
X163099D01*
X164099Y148900D01*
X166098Y147900D02*
X168097D01*
X167098D01*
Y153898D01*
X166098Y152898D01*
X154500Y40999D02*
X153501Y41999D01*
X151501D01*
X150502Y40999D01*
Y37001D01*
X151501Y36001D01*
X153501D01*
X154500Y37001D01*
X160498Y36001D02*
X156500D01*
X160498Y40000D01*
Y40999D01*
X159499Y41999D01*
X157499D01*
X156500Y40999D01*
X20500Y166499D02*
X19501Y167499D01*
X17501D01*
X16502Y166499D01*
Y162501D01*
X17501Y161501D01*
X19501D01*
X20500Y162501D01*
X25499Y161501D02*
Y167499D01*
X22500Y164500D01*
X26498D01*
X90500Y165499D02*
X89501Y166499D01*
X87501D01*
X86502Y165499D01*
Y161501D01*
X87501Y160501D01*
X89501D01*
X90500Y161501D01*
X92500Y165499D02*
X93499Y166499D01*
X95499D01*
X96498Y165499D01*
Y164500D01*
X95499Y163500D01*
X94499D01*
X95499D01*
X96498Y162500D01*
Y161501D01*
X95499Y160501D01*
X93499D01*
X92500Y161501D01*
M02*
