G04*
G04 #@! TF.GenerationSoftware,Altium Limited,Altium Designer,21.6.4 (81)*
G04*
G04 Layer_Physical_Order=2*
G04 Layer_Color=16711680*
%FSLAX25Y25*%
%MOIN*%
G70*
G04*
G04 #@! TF.SameCoordinates,2300CAAD-5815-40F2-B5FC-BA94866832FB*
G04*
G04*
G04 #@! TF.FilePolarity,Positive*
G04*
G01*
G75*
%ADD24C,0.03000*%
%ADD27C,0.05906*%
%ADD28R,0.05906X0.05906*%
%ADD29C,0.05512*%
%ADD30O,0.05200X0.10400*%
%ADD31C,0.04724*%
%ADD32C,0.07913*%
%ADD33R,0.07913X0.07913*%
%ADD34C,0.06000*%
%ADD35C,0.07874*%
%ADD36R,0.05906X0.05906*%
%ADD37C,0.05000*%
G36*
X353471Y1529D02*
X1529D01*
Y198471D01*
X353471D01*
Y1529D01*
D02*
G37*
%LPC*%
G36*
X325520Y193953D02*
X325500D01*
Y190500D01*
X328953D01*
Y190520D01*
X328683Y191526D01*
X328163Y192427D01*
X327427Y193163D01*
X326526Y193683D01*
X325520Y193953D01*
D02*
G37*
G36*
X315520D02*
X315500D01*
Y190500D01*
X318953D01*
Y190520D01*
X318683Y191526D01*
X318163Y192427D01*
X317427Y193163D01*
X316526Y193683D01*
X315520Y193953D01*
D02*
G37*
G36*
X324500D02*
X324480D01*
X323474Y193683D01*
X322573Y193163D01*
X321837Y192427D01*
X321317Y191526D01*
X321047Y190520D01*
Y190500D01*
X324500D01*
Y193953D01*
D02*
G37*
G36*
X314500D02*
X314480D01*
X313474Y193683D01*
X312573Y193163D01*
X311837Y192427D01*
X311317Y191526D01*
X311047Y190520D01*
Y190500D01*
X314500D01*
Y193953D01*
D02*
G37*
G36*
X335520D02*
X334480D01*
X333474Y193683D01*
X332573Y193163D01*
X331837Y192427D01*
X331317Y191526D01*
X331047Y190520D01*
Y189480D01*
X331317Y188474D01*
X331837Y187573D01*
X332573Y186837D01*
X333474Y186317D01*
X334480Y186047D01*
X335520D01*
X336526Y186317D01*
X337427Y186837D01*
X338163Y187573D01*
X338683Y188474D01*
X338953Y189480D01*
Y190520D01*
X338683Y191526D01*
X338163Y192427D01*
X337427Y193163D01*
X336526Y193683D01*
X335520Y193953D01*
D02*
G37*
G36*
X328953Y189500D02*
X325500D01*
Y186047D01*
X325520D01*
X326526Y186317D01*
X327427Y186837D01*
X328163Y187573D01*
X328683Y188474D01*
X328953Y189480D01*
Y189500D01*
D02*
G37*
G36*
X324500D02*
X321047D01*
Y189480D01*
X321317Y188474D01*
X321837Y187573D01*
X322573Y186837D01*
X323474Y186317D01*
X324480Y186047D01*
X324500D01*
Y189500D01*
D02*
G37*
G36*
X318953D02*
X315500D01*
Y186047D01*
X315520D01*
X316526Y186317D01*
X317427Y186837D01*
X318163Y187573D01*
X318683Y188474D01*
X318953Y189480D01*
Y189500D01*
D02*
G37*
G36*
X314500D02*
X311047D01*
Y189480D01*
X311317Y188474D01*
X311837Y187573D01*
X312573Y186837D01*
X313474Y186317D01*
X314480Y186047D01*
X314500D01*
Y189500D01*
D02*
G37*
G36*
X171677Y187779D02*
X171528D01*
Y183343D01*
X175965D01*
Y183493D01*
X175628Y184748D01*
X174978Y185874D01*
X174059Y186793D01*
X172933Y187443D01*
X171677Y187779D01*
D02*
G37*
G36*
X170528D02*
X170378D01*
X169122Y187443D01*
X167996Y186793D01*
X167077Y185874D01*
X166427Y184748D01*
X166091Y183493D01*
Y183343D01*
X170528D01*
Y187779D01*
D02*
G37*
G36*
X77995Y186256D02*
X77005D01*
X76050Y186000D01*
X75194Y185505D01*
X74494Y184806D01*
X74000Y183950D01*
X73744Y182994D01*
Y182006D01*
X74000Y181050D01*
X74494Y180194D01*
X75194Y179495D01*
X76050Y179000D01*
X77005Y178744D01*
X77995D01*
X78950Y179000D01*
X79806Y179495D01*
X80506Y180194D01*
X81000Y181050D01*
X81256Y182006D01*
Y182994D01*
X81000Y183950D01*
X80506Y184806D01*
X79806Y185505D01*
X78950Y186000D01*
X77995Y186256D01*
D02*
G37*
G36*
X37995D02*
X37005D01*
X36050Y186000D01*
X35194Y185505D01*
X34495Y184806D01*
X34000Y183950D01*
X33744Y182994D01*
Y182006D01*
X34000Y181050D01*
X34495Y180194D01*
X35194Y179495D01*
X36050Y179000D01*
X37005Y178744D01*
X37995D01*
X38950Y179000D01*
X39806Y179495D01*
X40505Y180194D01*
X41000Y181050D01*
X41256Y182006D01*
Y182994D01*
X41000Y183950D01*
X40505Y184806D01*
X39806Y185505D01*
X38950Y186000D01*
X37995Y186256D01*
D02*
G37*
G36*
X170528Y182343D02*
X166091D01*
Y182193D01*
X166427Y180937D01*
X167077Y179811D01*
X167996Y178892D01*
X169122Y178242D01*
X170378Y177905D01*
X170528D01*
Y182343D01*
D02*
G37*
G36*
X112622Y187779D02*
X111322D01*
X110067Y187443D01*
X108941Y186793D01*
X108022Y185874D01*
X107372Y184748D01*
X107035Y183493D01*
Y182193D01*
X107372Y180937D01*
X108022Y179811D01*
X108941Y178892D01*
X110067Y178242D01*
X111322Y177905D01*
X112622D01*
X113878Y178242D01*
X115004Y178892D01*
X115923Y179811D01*
X116573Y180937D01*
X116909Y182193D01*
Y183493D01*
X116573Y184748D01*
X115923Y185874D01*
X115004Y186793D01*
X113878Y187443D01*
X112622Y187779D01*
D02*
G37*
G36*
X325500Y178489D02*
Y175500D01*
X328489D01*
X328261Y176351D01*
X327801Y177149D01*
X327149Y177801D01*
X326351Y178261D01*
X325500Y178489D01*
D02*
G37*
G36*
X324500D02*
X323649Y178261D01*
X322851Y177801D01*
X322199Y177149D01*
X321739Y176351D01*
X321511Y175500D01*
X324500D01*
Y178489D01*
D02*
G37*
G36*
X300500D02*
Y175500D01*
X303489D01*
X303261Y176351D01*
X302801Y177149D01*
X302149Y177801D01*
X301351Y178261D01*
X300500Y178489D01*
D02*
G37*
G36*
X299500D02*
X298649Y178261D01*
X297851Y177801D01*
X297199Y177149D01*
X296739Y176351D01*
X296511Y175500D01*
X299500D01*
Y178489D01*
D02*
G37*
G36*
X275500D02*
Y175500D01*
X278489D01*
X278261Y176351D01*
X277801Y177149D01*
X277149Y177801D01*
X276351Y178261D01*
X275500Y178489D01*
D02*
G37*
G36*
X274500D02*
X273649Y178261D01*
X272851Y177801D01*
X272199Y177149D01*
X271739Y176351D01*
X271511Y175500D01*
X274500D01*
Y178489D01*
D02*
G37*
G36*
X250500D02*
Y175500D01*
X253489D01*
X253261Y176351D01*
X252801Y177149D01*
X252149Y177801D01*
X251351Y178261D01*
X250500Y178489D01*
D02*
G37*
G36*
X249500D02*
X248649Y178261D01*
X247851Y177801D01*
X247199Y177149D01*
X246739Y176351D01*
X246511Y175500D01*
X249500D01*
Y178489D01*
D02*
G37*
G36*
X225500D02*
Y175500D01*
X228489D01*
X228261Y176351D01*
X227801Y177149D01*
X227149Y177801D01*
X226351Y178261D01*
X225500Y178489D01*
D02*
G37*
G36*
X224500D02*
X223649Y178261D01*
X222851Y177801D01*
X222199Y177149D01*
X221739Y176351D01*
X221511Y175500D01*
X224500D01*
Y178489D01*
D02*
G37*
G36*
X200500D02*
Y175500D01*
X203489D01*
X203261Y176351D01*
X202801Y177149D01*
X202149Y177801D01*
X201351Y178261D01*
X200500Y178489D01*
D02*
G37*
G36*
X199500D02*
X198649Y178261D01*
X197851Y177801D01*
X197199Y177149D01*
X196739Y176351D01*
X196511Y175500D01*
X199500D01*
Y178489D01*
D02*
G37*
G36*
X175500D02*
Y175500D01*
X178489D01*
X178261Y176351D01*
X177801Y177149D01*
X177149Y177801D01*
X176351Y178261D01*
X175500Y178489D01*
D02*
G37*
G36*
X175965Y182343D02*
X171528D01*
Y177905D01*
X171677D01*
X172458Y178115D01*
X172716Y177666D01*
X172199Y177149D01*
X171739Y176351D01*
X171511Y175500D01*
X174500D01*
Y178489D01*
X174242Y178420D01*
X174049Y178886D01*
X174059Y178892D01*
X174978Y179811D01*
X175628Y180937D01*
X175965Y182193D01*
Y182343D01*
D02*
G37*
G36*
X125500Y178489D02*
Y175500D01*
X128489D01*
X128261Y176351D01*
X127801Y177149D01*
X127149Y177801D01*
X126351Y178261D01*
X125500Y178489D01*
D02*
G37*
G36*
X124500D02*
X123649Y178261D01*
X122851Y177801D01*
X122199Y177149D01*
X121739Y176351D01*
X121511Y175500D01*
X124500D01*
Y178489D01*
D02*
G37*
G36*
X100500D02*
Y175500D01*
X103489D01*
X103261Y176351D01*
X102801Y177149D01*
X102149Y177801D01*
X101351Y178261D01*
X100500Y178489D01*
D02*
G37*
G36*
X99500D02*
X98649Y178261D01*
X97851Y177801D01*
X97199Y177149D01*
X96738Y176351D01*
X96510Y175500D01*
X99500D01*
Y178489D01*
D02*
G37*
G36*
X50500D02*
Y175500D01*
X53490D01*
X53262Y176351D01*
X52801Y177149D01*
X52149Y177801D01*
X51351Y178261D01*
X50500Y178489D01*
D02*
G37*
G36*
X49500D02*
X48649Y178261D01*
X47851Y177801D01*
X47199Y177149D01*
X46738Y176351D01*
X46510Y175500D01*
X49500D01*
Y178489D01*
D02*
G37*
G36*
X25500D02*
Y175500D01*
X28490D01*
X28262Y176351D01*
X27801Y177149D01*
X27149Y177801D01*
X26351Y178261D01*
X25500Y178489D01*
D02*
G37*
G36*
X24500D02*
X23649Y178261D01*
X22851Y177801D01*
X22199Y177149D01*
X21738Y176351D01*
X21510Y175500D01*
X24500D01*
Y178489D01*
D02*
G37*
G36*
X328489Y174500D02*
X325500D01*
Y171511D01*
X326351Y171739D01*
X327149Y172199D01*
X327801Y172851D01*
X328261Y173649D01*
X328489Y174500D01*
D02*
G37*
G36*
X324500D02*
X321511D01*
X321739Y173649D01*
X322199Y172851D01*
X322851Y172199D01*
X323649Y171739D01*
X324500Y171511D01*
Y174500D01*
D02*
G37*
G36*
X303489D02*
X300500D01*
Y171511D01*
X301351Y171739D01*
X302149Y172199D01*
X302801Y172851D01*
X303261Y173649D01*
X303489Y174500D01*
D02*
G37*
G36*
X299500D02*
X296511D01*
X296739Y173649D01*
X297199Y172851D01*
X297851Y172199D01*
X298649Y171739D01*
X299500Y171511D01*
Y174500D01*
D02*
G37*
G36*
X278489D02*
X275500D01*
Y171511D01*
X276351Y171739D01*
X277149Y172199D01*
X277801Y172851D01*
X278261Y173649D01*
X278489Y174500D01*
D02*
G37*
G36*
X274500D02*
X271511D01*
X271739Y173649D01*
X272199Y172851D01*
X272851Y172199D01*
X273649Y171739D01*
X274500Y171511D01*
Y174500D01*
D02*
G37*
G36*
X253489D02*
X250500D01*
Y171511D01*
X251351Y171739D01*
X252149Y172199D01*
X252801Y172851D01*
X253261Y173649D01*
X253489Y174500D01*
D02*
G37*
G36*
X249500D02*
X246511D01*
X246739Y173649D01*
X247199Y172851D01*
X247851Y172199D01*
X248649Y171739D01*
X249500Y171511D01*
Y174500D01*
D02*
G37*
G36*
X228489D02*
X225500D01*
Y171511D01*
X226351Y171739D01*
X227149Y172199D01*
X227801Y172851D01*
X228261Y173649D01*
X228489Y174500D01*
D02*
G37*
G36*
X224500D02*
X221511D01*
X221739Y173649D01*
X222199Y172851D01*
X222851Y172199D01*
X223649Y171739D01*
X224500Y171511D01*
Y174500D01*
D02*
G37*
G36*
X203489D02*
X200500D01*
Y171511D01*
X201351Y171739D01*
X202149Y172199D01*
X202801Y172851D01*
X203261Y173649D01*
X203489Y174500D01*
D02*
G37*
G36*
X199500D02*
X196511D01*
X196739Y173649D01*
X197199Y172851D01*
X197851Y172199D01*
X198649Y171739D01*
X199500Y171511D01*
Y174500D01*
D02*
G37*
G36*
X178489D02*
X175500D01*
Y171511D01*
X176351Y171739D01*
X177149Y172199D01*
X177801Y172851D01*
X178261Y173649D01*
X178489Y174500D01*
D02*
G37*
G36*
X174500D02*
X171511D01*
X171739Y173649D01*
X172199Y172851D01*
X172851Y172199D01*
X173649Y171739D01*
X174500Y171511D01*
Y174500D01*
D02*
G37*
G36*
X128489D02*
X125500D01*
Y171511D01*
X126351Y171739D01*
X127149Y172199D01*
X127801Y172851D01*
X128261Y173649D01*
X128489Y174500D01*
D02*
G37*
G36*
X124500D02*
X121511D01*
X121739Y173649D01*
X122199Y172851D01*
X122851Y172199D01*
X123649Y171739D01*
X124500Y171511D01*
Y174500D01*
D02*
G37*
G36*
X103489D02*
X100500D01*
Y171511D01*
X101351Y171739D01*
X102149Y172199D01*
X102801Y172851D01*
X103261Y173649D01*
X103489Y174500D01*
D02*
G37*
G36*
X99500D02*
X96510D01*
X96738Y173649D01*
X97199Y172851D01*
X97851Y172199D01*
X98649Y171739D01*
X99500Y171511D01*
Y174500D01*
D02*
G37*
G36*
X53490D02*
X50500D01*
Y171511D01*
X51351Y171739D01*
X52149Y172199D01*
X52801Y172851D01*
X53262Y173649D01*
X53490Y174500D01*
D02*
G37*
G36*
X49500D02*
X46510D01*
X46738Y173649D01*
X47199Y172851D01*
X47851Y172199D01*
X48649Y171739D01*
X49500Y171511D01*
Y174500D01*
D02*
G37*
G36*
X28490D02*
X25500D01*
Y171511D01*
X26351Y171739D01*
X27149Y172199D01*
X27801Y172851D01*
X28262Y173649D01*
X28490Y174500D01*
D02*
G37*
G36*
X24500D02*
X21510D01*
X21738Y173649D01*
X22199Y172851D01*
X22851Y172199D01*
X23649Y171739D01*
X24500Y171511D01*
Y174500D01*
D02*
G37*
G36*
X77943Y172362D02*
X77057D01*
X76202Y172133D01*
X75436Y171690D01*
X74810Y171064D01*
X74367Y170298D01*
X74138Y169443D01*
Y168557D01*
X74367Y167702D01*
X74810Y166936D01*
X75436Y166310D01*
X76202Y165867D01*
X77057Y165638D01*
X77943D01*
X78798Y165867D01*
X79564Y166310D01*
X80190Y166936D01*
X80633Y167702D01*
X80862Y168557D01*
Y169443D01*
X80633Y170298D01*
X80190Y171064D01*
X79564Y171690D01*
X78798Y172133D01*
X77943Y172362D01*
D02*
G37*
G36*
X37443D02*
X36557D01*
X35702Y172133D01*
X34936Y171690D01*
X34310Y171064D01*
X33867Y170298D01*
X33638Y169443D01*
Y168557D01*
X33867Y167702D01*
X34310Y166936D01*
X34936Y166310D01*
X35702Y165867D01*
X36557Y165638D01*
X37443D01*
X38298Y165867D01*
X39064Y166310D01*
X39690Y166936D01*
X40133Y167702D01*
X40362Y168557D01*
Y169443D01*
X40133Y170298D01*
X39690Y171064D01*
X39064Y171690D01*
X38298Y172133D01*
X37443Y172362D01*
D02*
G37*
G36*
X78000Y162347D02*
Y159500D01*
X80847D01*
X80633Y160298D01*
X80190Y161064D01*
X79564Y161690D01*
X78798Y162133D01*
X78000Y162347D01*
D02*
G37*
G36*
X37500D02*
Y159500D01*
X40347D01*
X40133Y160298D01*
X39690Y161064D01*
X39064Y161690D01*
X38298Y162133D01*
X37500Y162347D01*
D02*
G37*
G36*
X77000D02*
X76202Y162133D01*
X75436Y161690D01*
X74810Y161064D01*
X74367Y160298D01*
X74153Y159500D01*
X77000D01*
Y162347D01*
D02*
G37*
G36*
X36500D02*
X35702Y162133D01*
X34936Y161690D01*
X34310Y161064D01*
X33867Y160298D01*
X33653Y159500D01*
X36500D01*
Y162347D01*
D02*
G37*
G36*
X171677Y168095D02*
X170378D01*
X169122Y167758D01*
X167996Y167108D01*
X167077Y166189D01*
X166427Y165063D01*
X166091Y163807D01*
Y162507D01*
X166427Y161252D01*
X167077Y160126D01*
X167996Y159207D01*
X169122Y158557D01*
X170378Y158221D01*
X171677D01*
X172933Y158557D01*
X174059Y159207D01*
X174978Y160126D01*
X175628Y161252D01*
X175965Y162507D01*
Y163807D01*
X175628Y165063D01*
X174978Y166189D01*
X174059Y167108D01*
X172933Y167758D01*
X171677Y168095D01*
D02*
G37*
G36*
X112622D02*
X111322D01*
X110067Y167758D01*
X108941Y167108D01*
X108022Y166189D01*
X107372Y165063D01*
X107035Y163807D01*
Y162507D01*
X107372Y161252D01*
X108022Y160126D01*
X108941Y159207D01*
X110067Y158557D01*
X111322Y158221D01*
X112622D01*
X113878Y158557D01*
X115004Y159207D01*
X115923Y160126D01*
X116573Y161252D01*
X116909Y162507D01*
Y163807D01*
X116573Y165063D01*
X115923Y166189D01*
X115004Y167108D01*
X113878Y167758D01*
X112622Y168095D01*
D02*
G37*
G36*
X40347Y158500D02*
X37500D01*
Y155653D01*
X38298Y155867D01*
X39064Y156310D01*
X39690Y156936D01*
X40133Y157702D01*
X40347Y158500D01*
D02*
G37*
G36*
X80847D02*
X78000D01*
Y155653D01*
X78798Y155867D01*
X79564Y156310D01*
X80190Y156936D01*
X80633Y157702D01*
X80847Y158500D01*
D02*
G37*
G36*
X77000D02*
X74153D01*
X74367Y157702D01*
X74810Y156936D01*
X75436Y156310D01*
X76202Y155867D01*
X77000Y155653D01*
Y158500D01*
D02*
G37*
G36*
X36500D02*
X33653D01*
X33867Y157702D01*
X34310Y156936D01*
X34936Y156310D01*
X35702Y155867D01*
X36500Y155653D01*
Y158500D01*
D02*
G37*
G36*
X313000Y153489D02*
Y150500D01*
X315989D01*
X315761Y151351D01*
X315301Y152149D01*
X314649Y152801D01*
X313851Y153261D01*
X313000Y153489D01*
D02*
G37*
G36*
X312000D02*
X311149Y153261D01*
X310351Y152801D01*
X309699Y152149D01*
X309239Y151351D01*
X309011Y150500D01*
X312000D01*
Y153489D01*
D02*
G37*
G36*
X288000D02*
Y150500D01*
X290989D01*
X290761Y151351D01*
X290301Y152149D01*
X289649Y152801D01*
X288851Y153261D01*
X288000Y153489D01*
D02*
G37*
G36*
X287000D02*
X286149Y153261D01*
X285351Y152801D01*
X284699Y152149D01*
X284239Y151351D01*
X284011Y150500D01*
X287000D01*
Y153489D01*
D02*
G37*
G36*
X263000D02*
Y150500D01*
X265989D01*
X265761Y151351D01*
X265301Y152149D01*
X264649Y152801D01*
X263851Y153261D01*
X263000Y153489D01*
D02*
G37*
G36*
X262000D02*
X261149Y153261D01*
X260351Y152801D01*
X259699Y152149D01*
X259239Y151351D01*
X259011Y150500D01*
X262000D01*
Y153489D01*
D02*
G37*
G36*
X188000D02*
Y150500D01*
X190989D01*
X190761Y151351D01*
X190301Y152149D01*
X189649Y152801D01*
X188851Y153261D01*
X188000Y153489D01*
D02*
G37*
G36*
X187000D02*
X186149Y153261D01*
X185351Y152801D01*
X184699Y152149D01*
X184239Y151351D01*
X184011Y150500D01*
X187000D01*
Y153489D01*
D02*
G37*
G36*
X138000D02*
Y150500D01*
X140989D01*
X140761Y151351D01*
X140301Y152149D01*
X139649Y152801D01*
X138851Y153261D01*
X138000Y153489D01*
D02*
G37*
G36*
X137000D02*
X136149Y153261D01*
X135351Y152801D01*
X134699Y152149D01*
X134239Y151351D01*
X134011Y150500D01*
X137000D01*
Y153489D01*
D02*
G37*
G36*
X38000D02*
Y150500D01*
X40990D01*
X40762Y151351D01*
X40301Y152149D01*
X39649Y152801D01*
X38851Y153261D01*
X38000Y153489D01*
D02*
G37*
G36*
X37000D02*
X36149Y153261D01*
X35351Y152801D01*
X34699Y152149D01*
X34238Y151351D01*
X34010Y150500D01*
X37000D01*
Y153489D01*
D02*
G37*
G36*
X113412Y153078D02*
Y150088D01*
X116401D01*
X116173Y150939D01*
X115713Y151737D01*
X115061Y152389D01*
X114263Y152850D01*
X113412Y153078D01*
D02*
G37*
G36*
X112412D02*
X111561Y152850D01*
X110763Y152389D01*
X110111Y151737D01*
X109650Y150939D01*
X109422Y150088D01*
X112412D01*
Y153078D01*
D02*
G37*
G36*
X211409Y151899D02*
Y148909D01*
X214399D01*
X214171Y149760D01*
X213710Y150558D01*
X213058Y151210D01*
X212260Y151671D01*
X211409Y151899D01*
D02*
G37*
G36*
X210409D02*
X209558Y151671D01*
X208760Y151210D01*
X208108Y150558D01*
X207647Y149760D01*
X207419Y148909D01*
X210409D01*
Y151899D01*
D02*
G37*
G36*
X315989Y149500D02*
X313000D01*
Y146511D01*
X313851Y146739D01*
X314649Y147199D01*
X315301Y147851D01*
X315761Y148649D01*
X315989Y149500D01*
D02*
G37*
G36*
X312000D02*
X309011D01*
X309239Y148649D01*
X309699Y147851D01*
X310351Y147199D01*
X311149Y146739D01*
X312000Y146511D01*
Y149500D01*
D02*
G37*
G36*
X290989D02*
X288000D01*
Y146511D01*
X288851Y146739D01*
X289649Y147199D01*
X290301Y147851D01*
X290761Y148649D01*
X290989Y149500D01*
D02*
G37*
G36*
X287000D02*
X284011D01*
X284239Y148649D01*
X284699Y147851D01*
X285351Y147199D01*
X286149Y146739D01*
X287000Y146511D01*
Y149500D01*
D02*
G37*
G36*
X265989D02*
X263000D01*
Y146511D01*
X263851Y146739D01*
X264649Y147199D01*
X265301Y147851D01*
X265761Y148649D01*
X265989Y149500D01*
D02*
G37*
G36*
X262000D02*
X259011D01*
X259239Y148649D01*
X259699Y147851D01*
X260351Y147199D01*
X261149Y146739D01*
X262000Y146511D01*
Y149500D01*
D02*
G37*
G36*
X190989D02*
X188000D01*
Y146511D01*
X188851Y146739D01*
X189649Y147199D01*
X190301Y147851D01*
X190761Y148649D01*
X190989Y149500D01*
D02*
G37*
G36*
X187000D02*
X184011D01*
X184239Y148649D01*
X184699Y147851D01*
X185351Y147199D01*
X186149Y146739D01*
X187000Y146511D01*
Y149500D01*
D02*
G37*
G36*
X140989D02*
X138000D01*
Y146511D01*
X138851Y146739D01*
X139649Y147199D01*
X140301Y147851D01*
X140761Y148649D01*
X140989Y149500D01*
D02*
G37*
G36*
X137000D02*
X134011D01*
X134239Y148649D01*
X134699Y147851D01*
X135351Y147199D01*
X136149Y146739D01*
X137000Y146511D01*
Y149500D01*
D02*
G37*
G36*
X40990D02*
X38000D01*
Y146511D01*
X38851Y146739D01*
X39649Y147199D01*
X40301Y147851D01*
X40762Y148649D01*
X40990Y149500D01*
D02*
G37*
G36*
X37000D02*
X34010D01*
X34238Y148649D01*
X34699Y147851D01*
X35351Y147199D01*
X36149Y146739D01*
X37000Y146511D01*
Y149500D01*
D02*
G37*
G36*
X116401Y149088D02*
X113412D01*
Y146099D01*
X114263Y146327D01*
X115061Y146787D01*
X115713Y147439D01*
X116173Y148237D01*
X116401Y149088D01*
D02*
G37*
G36*
X112412D02*
X109422D01*
X109650Y148237D01*
X110111Y147439D01*
X110763Y146787D01*
X111561Y146327D01*
X112412Y146099D01*
Y149088D01*
D02*
G37*
G36*
X214399Y147909D02*
X211409D01*
Y144920D01*
X212260Y145148D01*
X213058Y145608D01*
X213710Y146260D01*
X214171Y147058D01*
X214399Y147909D01*
D02*
G37*
G36*
X210409D02*
X207419D01*
X207647Y147058D01*
X208108Y146260D01*
X208760Y145608D01*
X209558Y145148D01*
X210409Y144920D01*
Y147909D01*
D02*
G37*
G36*
X348953Y193953D02*
X341047D01*
Y186047D01*
X342451D01*
Y167556D01*
X316944Y142049D01*
X176706D01*
X176564Y142190D01*
X175798Y142633D01*
X174943Y142862D01*
X174057D01*
X173202Y142633D01*
X172436Y142190D01*
X171810Y141564D01*
X171367Y140798D01*
X171138Y139943D01*
Y139057D01*
X171367Y138202D01*
X171810Y137436D01*
X172436Y136810D01*
X173202Y136367D01*
X174057Y136138D01*
X174943D01*
X175798Y136367D01*
X176564Y136810D01*
X176706Y136951D01*
X318000D01*
X318975Y137145D01*
X319802Y137698D01*
X346802Y164698D01*
X347355Y165524D01*
X347549Y166500D01*
Y186047D01*
X348953D01*
Y193953D01*
D02*
G37*
G36*
X13450Y148453D02*
X5545D01*
Y140547D01*
X13450D01*
Y148453D01*
D02*
G37*
G36*
X138995Y143756D02*
X138005D01*
X137050Y143500D01*
X136194Y143006D01*
X135494Y142306D01*
X135000Y141450D01*
X134744Y140495D01*
Y139506D01*
X135000Y138550D01*
X135494Y137694D01*
X136194Y136995D01*
X137050Y136500D01*
X138005Y136244D01*
X138995D01*
X139950Y136500D01*
X140806Y136995D01*
X141506Y137694D01*
X142000Y138550D01*
X142256Y139506D01*
Y140495D01*
X142000Y141450D01*
X141506Y142306D01*
X140806Y143006D01*
X139950Y143500D01*
X138995Y143756D01*
D02*
G37*
G36*
X118494D02*
X117506D01*
X116550Y143500D01*
X115694Y143006D01*
X114995Y142306D01*
X114500Y141450D01*
X114244Y140495D01*
Y139506D01*
X114500Y138550D01*
X114995Y137694D01*
X115694Y136995D01*
X116550Y136500D01*
X117506Y136244D01*
X118494D01*
X119450Y136500D01*
X120306Y136995D01*
X121005Y137694D01*
X121500Y138550D01*
X121756Y139506D01*
Y140495D01*
X121500Y141450D01*
X121005Y142306D01*
X120306Y143006D01*
X119450Y143500D01*
X118494Y143756D01*
D02*
G37*
G36*
X164943Y142862D02*
X164057D01*
X163202Y142633D01*
X162436Y142190D01*
X161810Y141564D01*
X161367Y140798D01*
X161138Y139943D01*
Y139057D01*
X161367Y138202D01*
X161810Y137436D01*
X162436Y136810D01*
X163202Y136367D01*
X164057Y136138D01*
X164943D01*
X165798Y136367D01*
X166564Y136810D01*
X167190Y137436D01*
X167633Y138202D01*
X167862Y139057D01*
Y139943D01*
X167633Y140798D01*
X167190Y141564D01*
X166564Y142190D01*
X165798Y142633D01*
X164943Y142862D01*
D02*
G37*
G36*
X10018Y138453D02*
X8977D01*
X7972Y138183D01*
X7070Y137663D01*
X6335Y136927D01*
X5814Y136026D01*
X5545Y135020D01*
Y133980D01*
X5814Y132974D01*
X6335Y132073D01*
X7070Y131337D01*
X7972Y130817D01*
X8977Y130547D01*
X10018D01*
X11023Y130817D01*
X11925Y131337D01*
X12661Y132073D01*
X13181Y132974D01*
X13450Y133980D01*
Y135020D01*
X13181Y136026D01*
X12661Y136927D01*
X11925Y137663D01*
X11023Y138183D01*
X10018Y138453D01*
D02*
G37*
G36*
X64027Y135500D02*
X62973D01*
X61956Y135227D01*
X61044Y134701D01*
X60299Y133956D01*
X59773Y133044D01*
X59500Y132027D01*
Y130973D01*
X59773Y129956D01*
X60299Y129044D01*
X61044Y128299D01*
X61956Y127773D01*
X62973Y127500D01*
X64027D01*
X65044Y127773D01*
X65956Y128299D01*
X66701Y129044D01*
X67227Y129956D01*
X67500Y130973D01*
Y132027D01*
X67227Y133044D01*
X66701Y133956D01*
X65956Y134701D01*
X65044Y135227D01*
X64027Y135500D01*
D02*
G37*
G36*
X325500Y128489D02*
Y125500D01*
X328489D01*
X328261Y126351D01*
X327801Y127149D01*
X327149Y127801D01*
X326351Y128261D01*
X325500Y128489D01*
D02*
G37*
G36*
X324500D02*
X323649Y128261D01*
X322851Y127801D01*
X322199Y127149D01*
X321739Y126351D01*
X321511Y125500D01*
X324500D01*
Y128489D01*
D02*
G37*
G36*
X300500D02*
Y125500D01*
X303489D01*
X303261Y126351D01*
X302801Y127149D01*
X302149Y127801D01*
X301351Y128261D01*
X300500Y128489D01*
D02*
G37*
G36*
X299500D02*
X298649Y128261D01*
X297851Y127801D01*
X297199Y127149D01*
X296739Y126351D01*
X296511Y125500D01*
X299500D01*
Y128489D01*
D02*
G37*
G36*
X275500D02*
Y125500D01*
X278489D01*
X278261Y126351D01*
X277801Y127149D01*
X277149Y127801D01*
X276351Y128261D01*
X275500Y128489D01*
D02*
G37*
G36*
X274500D02*
X273649Y128261D01*
X272851Y127801D01*
X272199Y127149D01*
X271739Y126351D01*
X271511Y125500D01*
X274500D01*
Y128489D01*
D02*
G37*
G36*
X225500D02*
Y125500D01*
X228489D01*
X228261Y126351D01*
X227801Y127149D01*
X227149Y127801D01*
X226351Y128261D01*
X225500Y128489D01*
D02*
G37*
G36*
X224500D02*
X223649Y128261D01*
X222851Y127801D01*
X222199Y127149D01*
X221739Y126351D01*
X221511Y125500D01*
X224500D01*
Y128489D01*
D02*
G37*
G36*
X200500D02*
Y125500D01*
X203489D01*
X203261Y126351D01*
X202801Y127149D01*
X202149Y127801D01*
X201351Y128261D01*
X200500Y128489D01*
D02*
G37*
G36*
X199500D02*
X198649Y128261D01*
X197851Y127801D01*
X197199Y127149D01*
X196739Y126351D01*
X196511Y125500D01*
X199500D01*
Y128489D01*
D02*
G37*
G36*
X175500D02*
Y125500D01*
X178489D01*
X178261Y126351D01*
X177801Y127149D01*
X177149Y127801D01*
X176351Y128261D01*
X175500Y128489D01*
D02*
G37*
G36*
X174500D02*
X173649Y128261D01*
X172851Y127801D01*
X172199Y127149D01*
X171739Y126351D01*
X171511Y125500D01*
X174500D01*
Y128489D01*
D02*
G37*
G36*
X150500D02*
Y125500D01*
X153489D01*
X153261Y126351D01*
X152801Y127149D01*
X152149Y127801D01*
X151351Y128261D01*
X150500Y128489D01*
D02*
G37*
G36*
X149500D02*
X148649Y128261D01*
X147851Y127801D01*
X147199Y127149D01*
X146739Y126351D01*
X146511Y125500D01*
X149500D01*
Y128489D01*
D02*
G37*
G36*
X125500D02*
Y125500D01*
X128489D01*
X128261Y126351D01*
X127801Y127149D01*
X127149Y127801D01*
X126351Y128261D01*
X125500Y128489D01*
D02*
G37*
G36*
X124500D02*
X123649Y128261D01*
X122851Y127801D01*
X122199Y127149D01*
X121739Y126351D01*
X121511Y125500D01*
X124500D01*
Y128489D01*
D02*
G37*
G36*
X100500D02*
Y125500D01*
X103489D01*
X103261Y126351D01*
X102801Y127149D01*
X102149Y127801D01*
X101351Y128261D01*
X100500Y128489D01*
D02*
G37*
G36*
X99500D02*
X98649Y128261D01*
X97851Y127801D01*
X97199Y127149D01*
X96738Y126351D01*
X96510Y125500D01*
X99500D01*
Y128489D01*
D02*
G37*
G36*
X328489Y124500D02*
X325500D01*
Y121511D01*
X326351Y121739D01*
X327149Y122199D01*
X327801Y122851D01*
X328261Y123649D01*
X328489Y124500D01*
D02*
G37*
G36*
X324500D02*
X321511D01*
X321739Y123649D01*
X322199Y122851D01*
X322851Y122199D01*
X323649Y121739D01*
X324500Y121511D01*
Y124500D01*
D02*
G37*
G36*
X303489D02*
X300500D01*
Y121511D01*
X301351Y121739D01*
X302149Y122199D01*
X302801Y122851D01*
X303261Y123649D01*
X303489Y124500D01*
D02*
G37*
G36*
X299500D02*
X296511D01*
X296739Y123649D01*
X297199Y122851D01*
X297851Y122199D01*
X298649Y121739D01*
X299500Y121511D01*
Y124500D01*
D02*
G37*
G36*
X278489D02*
X275500D01*
Y121511D01*
X276351Y121739D01*
X277149Y122199D01*
X277801Y122851D01*
X278261Y123649D01*
X278489Y124500D01*
D02*
G37*
G36*
X274500D02*
X271511D01*
X271739Y123649D01*
X272199Y122851D01*
X272851Y122199D01*
X273649Y121739D01*
X274500Y121511D01*
Y124500D01*
D02*
G37*
G36*
X228489D02*
X225500D01*
Y121511D01*
X226351Y121739D01*
X227149Y122199D01*
X227801Y122851D01*
X228261Y123649D01*
X228489Y124500D01*
D02*
G37*
G36*
X224500D02*
X221511D01*
X221739Y123649D01*
X222199Y122851D01*
X222851Y122199D01*
X223649Y121739D01*
X224500Y121511D01*
Y124500D01*
D02*
G37*
G36*
X203489D02*
X200500D01*
Y121511D01*
X201351Y121739D01*
X202149Y122199D01*
X202801Y122851D01*
X203261Y123649D01*
X203489Y124500D01*
D02*
G37*
G36*
X199500D02*
X196511D01*
X196739Y123649D01*
X197199Y122851D01*
X197851Y122199D01*
X198649Y121739D01*
X199500Y121511D01*
Y124500D01*
D02*
G37*
G36*
X178489D02*
X175500D01*
Y121511D01*
X176351Y121739D01*
X177149Y122199D01*
X177801Y122851D01*
X178261Y123649D01*
X178489Y124500D01*
D02*
G37*
G36*
X174500D02*
X171511D01*
X171739Y123649D01*
X172199Y122851D01*
X172851Y122199D01*
X173649Y121739D01*
X174500Y121511D01*
Y124500D01*
D02*
G37*
G36*
X153489D02*
X150500D01*
Y121511D01*
X151351Y121739D01*
X152149Y122199D01*
X152801Y122851D01*
X153261Y123649D01*
X153489Y124500D01*
D02*
G37*
G36*
X149500D02*
X146511D01*
X146739Y123649D01*
X147199Y122851D01*
X147851Y122199D01*
X148649Y121739D01*
X149500Y121511D01*
Y124500D01*
D02*
G37*
G36*
X128489D02*
X125500D01*
Y121511D01*
X126351Y121739D01*
X127149Y122199D01*
X127801Y122851D01*
X128261Y123649D01*
X128489Y124500D01*
D02*
G37*
G36*
X124500D02*
X121511D01*
X121739Y123649D01*
X122199Y122851D01*
X122851Y122199D01*
X123649Y121739D01*
X124500Y121511D01*
Y124500D01*
D02*
G37*
G36*
X103489D02*
X100500D01*
Y121511D01*
X101351Y121739D01*
X102149Y122199D01*
X102801Y122851D01*
X103261Y123649D01*
X103489Y124500D01*
D02*
G37*
G36*
X99500D02*
X96510D01*
X96738Y123649D01*
X97199Y122851D01*
X97851Y122199D01*
X98649Y121739D01*
X99500Y121511D01*
Y124500D01*
D02*
G37*
G36*
X10018Y128453D02*
X8977D01*
X7972Y128183D01*
X7070Y127663D01*
X6335Y126927D01*
X5814Y126026D01*
X5545Y125020D01*
Y123980D01*
X5814Y122974D01*
X6335Y122073D01*
X7070Y121337D01*
X7972Y120817D01*
X8977Y120547D01*
X10018D01*
X11023Y120817D01*
X11925Y121337D01*
X12661Y122073D01*
X13181Y122974D01*
X13450Y123980D01*
Y125020D01*
X13181Y126026D01*
X12661Y126927D01*
X11925Y127663D01*
X11023Y128183D01*
X10018Y128453D01*
D02*
G37*
G36*
Y118453D02*
X9998D01*
Y115000D01*
X13450D01*
Y115020D01*
X13181Y116026D01*
X12661Y116927D01*
X11925Y117663D01*
X11023Y118183D01*
X10018Y118453D01*
D02*
G37*
G36*
X8998D02*
X8977D01*
X7972Y118183D01*
X7070Y117663D01*
X6335Y116927D01*
X5814Y116026D01*
X5545Y115020D01*
Y115000D01*
X8998D01*
Y118453D01*
D02*
G37*
G36*
X13450Y114000D02*
X9998D01*
Y110547D01*
X10018D01*
X11023Y110817D01*
X11925Y111337D01*
X12661Y112073D01*
X13181Y112974D01*
X13450Y113980D01*
Y114000D01*
D02*
G37*
G36*
X8998D02*
X5545D01*
Y113980D01*
X5814Y112974D01*
X6335Y112073D01*
X7070Y111337D01*
X7972Y110817D01*
X8977Y110547D01*
X8998D01*
Y114000D01*
D02*
G37*
G36*
X276653Y111457D02*
X275347D01*
X274087Y111119D01*
X272956Y110466D01*
X272034Y109544D01*
X271381Y108413D01*
X271259Y107957D01*
X270741D01*
X270619Y108413D01*
X269966Y109544D01*
X269043Y110466D01*
X267913Y111119D01*
X266653Y111457D01*
X265347D01*
X264087Y111119D01*
X262957Y110466D01*
X262034Y109544D01*
X261457Y108544D01*
X260957Y108678D01*
Y111457D01*
X251043D01*
Y101543D01*
X260957D01*
Y104322D01*
X261457Y104456D01*
X262034Y103456D01*
X262957Y102534D01*
X264087Y101881D01*
X265347Y101543D01*
X266653D01*
X267913Y101881D01*
X269043Y102534D01*
X269966Y103456D01*
X270619Y104587D01*
X270741Y105043D01*
X271259D01*
X271381Y104587D01*
X272034Y103456D01*
X272956Y102534D01*
X274087Y101881D01*
X275347Y101543D01*
X276653D01*
X277913Y101881D01*
X279044Y102534D01*
X279966Y103456D01*
X280619Y104587D01*
X280957Y105847D01*
Y107153D01*
X280619Y108413D01*
X279966Y109544D01*
X279044Y110466D01*
X277913Y111119D01*
X276653Y111457D01*
D02*
G37*
G36*
X94027Y115500D02*
X92973D01*
X91956Y115227D01*
X91044Y114701D01*
X90299Y113956D01*
X89773Y113044D01*
X89500Y112027D01*
Y110973D01*
X89773Y109956D01*
X90299Y109044D01*
X91044Y108299D01*
X91956Y107773D01*
X92973Y107500D01*
X94027D01*
X95044Y107773D01*
X95956Y108299D01*
X96701Y109044D01*
X97227Y109956D01*
X97500Y110973D01*
Y112027D01*
X97227Y113044D01*
X96701Y113956D01*
X95956Y114701D01*
X95044Y115227D01*
X94027Y115500D01*
D02*
G37*
G36*
X139000Y103754D02*
Y100500D01*
X142254D01*
X142000Y101450D01*
X141506Y102306D01*
X140806Y103006D01*
X139950Y103500D01*
X139000Y103754D01*
D02*
G37*
G36*
X313000Y103489D02*
Y100500D01*
X315989D01*
X315761Y101351D01*
X315301Y102149D01*
X314649Y102801D01*
X313851Y103261D01*
X313000Y103489D01*
D02*
G37*
G36*
X312000D02*
X311149Y103261D01*
X310351Y102801D01*
X309699Y102149D01*
X309239Y101351D01*
X309011Y100500D01*
X312000D01*
Y103489D01*
D02*
G37*
G36*
X238000D02*
Y100500D01*
X240989D01*
X240761Y101351D01*
X240301Y102149D01*
X239649Y102801D01*
X238851Y103261D01*
X238000Y103489D01*
D02*
G37*
G36*
X237000D02*
X236149Y103261D01*
X235351Y102801D01*
X234699Y102149D01*
X234239Y101351D01*
X234011Y100500D01*
X237000D01*
Y103489D01*
D02*
G37*
G36*
X213000D02*
Y100500D01*
X215989D01*
X215761Y101351D01*
X215301Y102149D01*
X214649Y102801D01*
X213851Y103261D01*
X213000Y103489D01*
D02*
G37*
G36*
X212000D02*
X211149Y103261D01*
X210351Y102801D01*
X209699Y102149D01*
X209239Y101351D01*
X209011Y100500D01*
X212000D01*
Y103489D01*
D02*
G37*
G36*
X188000D02*
Y100500D01*
X190989D01*
X190761Y101351D01*
X190301Y102149D01*
X189649Y102801D01*
X188851Y103261D01*
X188000Y103489D01*
D02*
G37*
G36*
X187000D02*
X186149Y103261D01*
X185351Y102801D01*
X184699Y102149D01*
X184239Y101351D01*
X184011Y100500D01*
X187000D01*
Y103489D01*
D02*
G37*
G36*
X88000D02*
Y100500D01*
X90990D01*
X90762Y101351D01*
X90301Y102149D01*
X89649Y102801D01*
X88851Y103261D01*
X88000Y103489D01*
D02*
G37*
G36*
X87000D02*
X86149Y103261D01*
X85351Y102801D01*
X84699Y102149D01*
X84238Y101351D01*
X84010Y100500D01*
X87000D01*
Y103489D01*
D02*
G37*
G36*
X63000D02*
Y100500D01*
X65990D01*
X65762Y101351D01*
X65301Y102149D01*
X64649Y102801D01*
X63851Y103261D01*
X63000Y103489D01*
D02*
G37*
G36*
X62000D02*
X61149Y103261D01*
X60351Y102801D01*
X59699Y102149D01*
X59238Y101351D01*
X59010Y100500D01*
X62000D01*
Y103489D01*
D02*
G37*
G36*
X38000D02*
Y100500D01*
X40990D01*
X40762Y101351D01*
X40301Y102149D01*
X39649Y102801D01*
X38851Y103261D01*
X38000Y103489D01*
D02*
G37*
G36*
X37000D02*
X36149Y103261D01*
X35351Y102801D01*
X34699Y102149D01*
X34238Y101351D01*
X34010Y100500D01*
X37000D01*
Y103489D01*
D02*
G37*
G36*
X138000Y103754D02*
X137050Y103500D01*
X136194Y103006D01*
X135494Y102306D01*
X135000Y101450D01*
X134746Y100500D01*
X138000D01*
Y103754D01*
D02*
G37*
G36*
X90990Y99500D02*
X88000D01*
Y96510D01*
X88851Y96738D01*
X89649Y97199D01*
X90301Y97851D01*
X90762Y98649D01*
X90990Y99500D01*
D02*
G37*
G36*
X87000D02*
X84010D01*
X84238Y98649D01*
X84699Y97851D01*
X85351Y97199D01*
X86149Y96738D01*
X87000Y96510D01*
Y99500D01*
D02*
G37*
G36*
X65990D02*
X63000D01*
Y96510D01*
X63851Y96738D01*
X64649Y97199D01*
X65301Y97851D01*
X65762Y98649D01*
X65990Y99500D01*
D02*
G37*
G36*
X62000D02*
X59010D01*
X59238Y98649D01*
X59699Y97851D01*
X60351Y97199D01*
X61149Y96738D01*
X62000Y96510D01*
Y99500D01*
D02*
G37*
G36*
X40990D02*
X38000D01*
Y96510D01*
X38851Y96738D01*
X39649Y97199D01*
X40301Y97851D01*
X40762Y98649D01*
X40990Y99500D01*
D02*
G37*
G36*
X37000D02*
X34010D01*
X34238Y98649D01*
X34699Y97851D01*
X35351Y97199D01*
X36149Y96738D01*
X37000Y96510D01*
Y99500D01*
D02*
G37*
G36*
X315989D02*
X313000D01*
Y96510D01*
X313851Y96738D01*
X314649Y97199D01*
X315301Y97851D01*
X315761Y98649D01*
X315989Y99500D01*
D02*
G37*
G36*
X312000D02*
X309011D01*
X309239Y98649D01*
X309699Y97851D01*
X310351Y97199D01*
X311149Y96738D01*
X312000Y96510D01*
Y99500D01*
D02*
G37*
G36*
X240989D02*
X238000D01*
Y96510D01*
X238851Y96738D01*
X239649Y97199D01*
X240301Y97851D01*
X240761Y98649D01*
X240989Y99500D01*
D02*
G37*
G36*
X237000D02*
X234011D01*
X234239Y98649D01*
X234699Y97851D01*
X235351Y97199D01*
X236149Y96738D01*
X237000Y96510D01*
Y99500D01*
D02*
G37*
G36*
X215989D02*
X213000D01*
Y96510D01*
X213851Y96738D01*
X214649Y97199D01*
X215301Y97851D01*
X215761Y98649D01*
X215989Y99500D01*
D02*
G37*
G36*
X212000D02*
X209011D01*
X209239Y98649D01*
X209699Y97851D01*
X210351Y97199D01*
X211149Y96738D01*
X212000Y96510D01*
Y99500D01*
D02*
G37*
G36*
X190989D02*
X188000D01*
Y96510D01*
X188851Y96738D01*
X189649Y97199D01*
X190301Y97851D01*
X190761Y98649D01*
X190989Y99500D01*
D02*
G37*
G36*
X187000D02*
X184011D01*
X184239Y98649D01*
X184699Y97851D01*
X185351Y97199D01*
X186149Y96738D01*
X187000Y96510D01*
Y99500D01*
D02*
G37*
G36*
X142254D02*
X139000D01*
Y96246D01*
X139950Y96500D01*
X140806Y96995D01*
X141506Y97694D01*
X142000Y98550D01*
X142254Y99500D01*
D02*
G37*
G36*
X138000D02*
X134746D01*
X135000Y98550D01*
X135494Y97694D01*
X136194Y96995D01*
X137050Y96500D01*
X138000Y96246D01*
Y99500D01*
D02*
G37*
G36*
X118494Y103756D02*
X117506D01*
X116550Y103500D01*
X115694Y103006D01*
X114995Y102306D01*
X114500Y101450D01*
X114244Y100495D01*
Y99506D01*
X114500Y98550D01*
X114995Y97694D01*
X115694Y96995D01*
X116550Y96500D01*
X117506Y96244D01*
X118494D01*
X119450Y96500D01*
X120306Y96995D01*
X121005Y97694D01*
X121500Y98550D01*
X121756Y99506D01*
Y100495D01*
X121500Y101450D01*
X121005Y102306D01*
X120306Y103006D01*
X119450Y103500D01*
X118494Y103756D01*
D02*
G37*
G36*
X325500Y78490D02*
Y75500D01*
X328489D01*
X328261Y76351D01*
X327801Y77149D01*
X327149Y77801D01*
X326351Y78262D01*
X325500Y78490D01*
D02*
G37*
G36*
X324500D02*
X323649Y78262D01*
X322851Y77801D01*
X322199Y77149D01*
X321739Y76351D01*
X321511Y75500D01*
X324500D01*
Y78490D01*
D02*
G37*
G36*
X275500D02*
Y75500D01*
X278489D01*
X278261Y76351D01*
X277801Y77149D01*
X277149Y77801D01*
X276351Y78262D01*
X275500Y78490D01*
D02*
G37*
G36*
X274500D02*
X273649Y78262D01*
X272851Y77801D01*
X272199Y77149D01*
X271739Y76351D01*
X271511Y75500D01*
X274500D01*
Y78490D01*
D02*
G37*
G36*
X225500D02*
Y75500D01*
X228489D01*
X228261Y76351D01*
X227801Y77149D01*
X227149Y77801D01*
X226351Y78262D01*
X225500Y78490D01*
D02*
G37*
G36*
X224500D02*
X223649Y78262D01*
X222851Y77801D01*
X222199Y77149D01*
X221739Y76351D01*
X221511Y75500D01*
X224500D01*
Y78490D01*
D02*
G37*
G36*
X200500D02*
Y75500D01*
X203489D01*
X203261Y76351D01*
X202801Y77149D01*
X202149Y77801D01*
X201351Y78262D01*
X200500Y78490D01*
D02*
G37*
G36*
X199500D02*
X198649Y78262D01*
X197851Y77801D01*
X197199Y77149D01*
X196739Y76351D01*
X196511Y75500D01*
X199500D01*
Y78490D01*
D02*
G37*
G36*
X125500D02*
Y75500D01*
X128489D01*
X128261Y76351D01*
X127801Y77149D01*
X127149Y77801D01*
X126351Y78262D01*
X125500Y78490D01*
D02*
G37*
G36*
X124500D02*
X123649Y78262D01*
X122851Y77801D01*
X122199Y77149D01*
X121739Y76351D01*
X121511Y75500D01*
X124500D01*
Y78490D01*
D02*
G37*
G36*
X100500D02*
Y75500D01*
X103489D01*
X103261Y76351D01*
X102801Y77149D01*
X102149Y77801D01*
X101351Y78262D01*
X100500Y78490D01*
D02*
G37*
G36*
X99500D02*
X98649Y78262D01*
X97851Y77801D01*
X97199Y77149D01*
X96738Y76351D01*
X96510Y75500D01*
X99500D01*
Y78490D01*
D02*
G37*
G36*
X75500D02*
Y75500D01*
X78490D01*
X78262Y76351D01*
X77801Y77149D01*
X77149Y77801D01*
X76351Y78262D01*
X75500Y78490D01*
D02*
G37*
G36*
X74500D02*
X73649Y78262D01*
X72851Y77801D01*
X72199Y77149D01*
X71738Y76351D01*
X71510Y75500D01*
X74500D01*
Y78490D01*
D02*
G37*
G36*
X25500D02*
Y75500D01*
X28490D01*
X28262Y76351D01*
X27801Y77149D01*
X27149Y77801D01*
X26351Y78262D01*
X25500Y78490D01*
D02*
G37*
G36*
X24500D02*
X23649Y78262D01*
X22851Y77801D01*
X22199Y77149D01*
X21738Y76351D01*
X21510Y75500D01*
X24500D01*
Y78490D01*
D02*
G37*
G36*
X328489Y74500D02*
X325500D01*
Y71510D01*
X326351Y71738D01*
X327149Y72199D01*
X327801Y72851D01*
X328261Y73649D01*
X328489Y74500D01*
D02*
G37*
G36*
X324500D02*
X321511D01*
X321739Y73649D01*
X322199Y72851D01*
X322851Y72199D01*
X323649Y71738D01*
X324500Y71510D01*
Y74500D01*
D02*
G37*
G36*
X278489D02*
X275500D01*
Y71510D01*
X276351Y71738D01*
X277149Y72199D01*
X277801Y72851D01*
X278261Y73649D01*
X278489Y74500D01*
D02*
G37*
G36*
X274500D02*
X271511D01*
X271739Y73649D01*
X272199Y72851D01*
X272851Y72199D01*
X273649Y71738D01*
X274500Y71510D01*
Y74500D01*
D02*
G37*
G36*
X228489D02*
X225500D01*
Y71510D01*
X226351Y71738D01*
X227149Y72199D01*
X227801Y72851D01*
X228261Y73649D01*
X228489Y74500D01*
D02*
G37*
G36*
X224500D02*
X221511D01*
X221739Y73649D01*
X222199Y72851D01*
X222851Y72199D01*
X223649Y71738D01*
X224500Y71510D01*
Y74500D01*
D02*
G37*
G36*
X203489D02*
X200500D01*
Y71510D01*
X201351Y71738D01*
X202149Y72199D01*
X202801Y72851D01*
X203261Y73649D01*
X203489Y74500D01*
D02*
G37*
G36*
X199500D02*
X196511D01*
X196739Y73649D01*
X197199Y72851D01*
X197851Y72199D01*
X198649Y71738D01*
X199500Y71510D01*
Y74500D01*
D02*
G37*
G36*
X128489D02*
X125500D01*
Y71510D01*
X126351Y71738D01*
X127149Y72199D01*
X127801Y72851D01*
X128261Y73649D01*
X128489Y74500D01*
D02*
G37*
G36*
X124500D02*
X121511D01*
X121739Y73649D01*
X122199Y72851D01*
X122851Y72199D01*
X123649Y71738D01*
X124500Y71510D01*
Y74500D01*
D02*
G37*
G36*
X103489D02*
X100500D01*
Y71510D01*
X101351Y71738D01*
X102149Y72199D01*
X102801Y72851D01*
X103261Y73649D01*
X103489Y74500D01*
D02*
G37*
G36*
X99500D02*
X96510D01*
X96738Y73649D01*
X97199Y72851D01*
X97851Y72199D01*
X98649Y71738D01*
X99500Y71510D01*
Y74500D01*
D02*
G37*
G36*
X78490D02*
X75500D01*
Y71510D01*
X76351Y71738D01*
X77149Y72199D01*
X77801Y72851D01*
X78262Y73649D01*
X78490Y74500D01*
D02*
G37*
G36*
X74500D02*
X71510D01*
X71738Y73649D01*
X72199Y72851D01*
X72851Y72199D01*
X73649Y71738D01*
X74500Y71510D01*
Y74500D01*
D02*
G37*
G36*
X28490D02*
X25500D01*
Y71510D01*
X26351Y71738D01*
X27149Y72199D01*
X27801Y72851D01*
X28262Y73649D01*
X28490Y74500D01*
D02*
G37*
G36*
X24500D02*
X21510D01*
X21738Y73649D01*
X22199Y72851D01*
X22851Y72199D01*
X23649Y71738D01*
X24500Y71510D01*
Y74500D01*
D02*
G37*
G36*
X156000Y79731D02*
X155060Y79607D01*
X154184Y79245D01*
X153432Y78668D01*
X152855Y77916D01*
X152493Y77040D01*
X152369Y76100D01*
Y70900D01*
X152493Y69960D01*
X152855Y69085D01*
X153432Y68332D01*
X154184Y67755D01*
X155060Y67393D01*
X156000Y67269D01*
X156940Y67393D01*
X157816Y67755D01*
X158568Y68332D01*
X159145Y69085D01*
X159507Y69960D01*
X159631Y70900D01*
Y76100D01*
X159507Y77040D01*
X159145Y77916D01*
X158568Y78668D01*
X157816Y79245D01*
X156940Y79607D01*
X156000Y79731D01*
D02*
G37*
G36*
X146000D02*
X145060Y79607D01*
X144185Y79245D01*
X143432Y78668D01*
X142855Y77916D01*
X142493Y77040D01*
X142369Y76100D01*
Y70900D01*
X142493Y69960D01*
X142855Y69085D01*
X143432Y68332D01*
X144185Y67755D01*
X145060Y67393D01*
X146000Y67269D01*
X146940Y67393D01*
X147816Y67755D01*
X148568Y68332D01*
X149145Y69085D01*
X149507Y69960D01*
X149631Y70900D01*
Y76100D01*
X149507Y77040D01*
X149145Y77916D01*
X148568Y78668D01*
X147816Y79245D01*
X146940Y79607D01*
X146000Y79731D01*
D02*
G37*
G36*
X136000D02*
X135060Y79607D01*
X134185Y79245D01*
X133432Y78668D01*
X132855Y77916D01*
X132493Y77040D01*
X132369Y76100D01*
Y70900D01*
X132493Y69960D01*
X132855Y69085D01*
X133432Y68332D01*
X134185Y67755D01*
X135060Y67393D01*
X136000Y67269D01*
X136940Y67393D01*
X137815Y67755D01*
X138568Y68332D01*
X139145Y69085D01*
X139507Y69960D01*
X139631Y70900D01*
Y76100D01*
X139507Y77040D01*
X139145Y77916D01*
X138568Y78668D01*
X137815Y79245D01*
X136940Y79607D01*
X136000Y79731D01*
D02*
G37*
G36*
X119494Y72256D02*
X118506D01*
X117550Y72000D01*
X116694Y71505D01*
X115995Y70806D01*
X115500Y69950D01*
X115244Y68994D01*
Y68006D01*
X115500Y67050D01*
X115995Y66194D01*
X116694Y65495D01*
X117550Y65000D01*
X118506Y64744D01*
X119494D01*
X120450Y65000D01*
X121306Y65495D01*
X122005Y66194D01*
X122500Y67050D01*
X122756Y68006D01*
Y68994D01*
X122500Y69950D01*
X122005Y70806D01*
X121306Y71505D01*
X120450Y72000D01*
X119494Y72256D01*
D02*
G37*
G36*
X198995Y64756D02*
X198005D01*
X197050Y64500D01*
X196194Y64006D01*
X195494Y63306D01*
X195000Y62450D01*
X194744Y61494D01*
Y60505D01*
X195000Y59550D01*
X195494Y58694D01*
X196194Y57995D01*
X197050Y57500D01*
X198005Y57244D01*
X198995D01*
X199950Y57500D01*
X200806Y57995D01*
X201505Y58694D01*
X202000Y59550D01*
X202256Y60505D01*
Y61494D01*
X202000Y62450D01*
X201505Y63306D01*
X200806Y64006D01*
X199950Y64500D01*
X198995Y64756D01*
D02*
G37*
G36*
X18145Y61081D02*
Y55415D01*
X21276D01*
Y57516D01*
X21152Y58455D01*
X20789Y59331D01*
X20212Y60083D01*
X19460Y60660D01*
X18584Y61023D01*
X18145Y61081D01*
D02*
G37*
G36*
X17145D02*
X16705Y61023D01*
X15829Y60660D01*
X15077Y60083D01*
X14500Y59331D01*
X14137Y58455D01*
X14014Y57516D01*
Y55415D01*
X17145D01*
Y61081D01*
D02*
G37*
G36*
X335494Y61756D02*
X334506D01*
X333550Y61500D01*
X332694Y61006D01*
X331995Y60306D01*
X331500Y59450D01*
X331244Y58495D01*
Y57506D01*
X331500Y56550D01*
X331995Y55694D01*
X332694Y54994D01*
X333550Y54500D01*
X334506Y54244D01*
X335494D01*
X336450Y54500D01*
X337306Y54994D01*
X338005Y55694D01*
X338500Y56550D01*
X338756Y57506D01*
Y58495D01*
X338500Y59450D01*
X338005Y60306D01*
X337306Y61006D01*
X336450Y61500D01*
X335494Y61756D01*
D02*
G37*
G36*
X313000Y53490D02*
Y50500D01*
X315989D01*
X315761Y51351D01*
X315301Y52149D01*
X314649Y52801D01*
X313851Y53262D01*
X313000Y53490D01*
D02*
G37*
G36*
X312000D02*
X311149Y53262D01*
X310351Y52801D01*
X309699Y52149D01*
X309239Y51351D01*
X309011Y50500D01*
X312000D01*
Y53490D01*
D02*
G37*
G36*
X288000D02*
Y50500D01*
X290989D01*
X290761Y51351D01*
X290301Y52149D01*
X289649Y52801D01*
X288851Y53262D01*
X288000Y53490D01*
D02*
G37*
G36*
X287000D02*
X286149Y53262D01*
X285351Y52801D01*
X284699Y52149D01*
X284239Y51351D01*
X284011Y50500D01*
X287000D01*
Y53490D01*
D02*
G37*
G36*
X261500D02*
Y50500D01*
X264490D01*
X264262Y51351D01*
X263801Y52149D01*
X263149Y52801D01*
X262351Y53262D01*
X261500Y53490D01*
D02*
G37*
G36*
X260500D02*
X259649Y53262D01*
X258851Y52801D01*
X258199Y52149D01*
X257738Y51351D01*
X257510Y50500D01*
X260500D01*
Y53490D01*
D02*
G37*
G36*
X163000D02*
Y50500D01*
X165989D01*
X165761Y51351D01*
X165301Y52149D01*
X164649Y52801D01*
X163851Y53262D01*
X163000Y53490D01*
D02*
G37*
G36*
X162000D02*
X161149Y53262D01*
X160351Y52801D01*
X159699Y52149D01*
X159239Y51351D01*
X159011Y50500D01*
X162000D01*
Y53490D01*
D02*
G37*
G36*
X138000D02*
Y50500D01*
X140989D01*
X140761Y51351D01*
X140301Y52149D01*
X139649Y52801D01*
X138851Y53262D01*
X138000Y53490D01*
D02*
G37*
G36*
X137000D02*
X136149Y53262D01*
X135351Y52801D01*
X134699Y52149D01*
X134239Y51351D01*
X134011Y50500D01*
X137000D01*
Y53490D01*
D02*
G37*
G36*
X88000D02*
Y50500D01*
X90990D01*
X90762Y51351D01*
X90301Y52149D01*
X89649Y52801D01*
X88851Y53262D01*
X88000Y53490D01*
D02*
G37*
G36*
X87000D02*
X86149Y53262D01*
X85351Y52801D01*
X84699Y52149D01*
X84238Y51351D01*
X84010Y50500D01*
X87000D01*
Y53490D01*
D02*
G37*
G36*
X63000D02*
Y50500D01*
X65990D01*
X65762Y51351D01*
X65301Y52149D01*
X64649Y52801D01*
X63851Y53262D01*
X63000Y53490D01*
D02*
G37*
G36*
X62000D02*
X61149Y53262D01*
X60351Y52801D01*
X59699Y52149D01*
X59238Y51351D01*
X59010Y50500D01*
X62000D01*
Y53490D01*
D02*
G37*
G36*
X21276Y54416D02*
X18145D01*
Y48750D01*
X18584Y48808D01*
X19460Y49171D01*
X20212Y49748D01*
X20789Y50500D01*
X21152Y51376D01*
X21276Y52315D01*
Y54416D01*
D02*
G37*
G36*
X17145D02*
X14014D01*
Y52315D01*
X14137Y51376D01*
X14500Y50500D01*
X15077Y49748D01*
X15829Y49171D01*
X16705Y48808D01*
X17145Y48750D01*
Y54416D01*
D02*
G37*
G36*
X37645Y61147D02*
X36705Y61023D01*
X35829Y60660D01*
X35077Y60083D01*
X34500Y59331D01*
X34137Y58455D01*
X34014Y57516D01*
Y52315D01*
X34137Y51376D01*
X34500Y50500D01*
X35077Y49748D01*
X35829Y49171D01*
X36705Y48808D01*
X37645Y48684D01*
X38584Y48808D01*
X39460Y49171D01*
X40212Y49748D01*
X40789Y50500D01*
X41152Y51376D01*
X41276Y52315D01*
Y57516D01*
X41152Y58455D01*
X40789Y59331D01*
X40212Y60083D01*
X39460Y60660D01*
X38584Y61023D01*
X37645Y61147D01*
D02*
G37*
G36*
X27645D02*
X26705Y61023D01*
X25829Y60660D01*
X25077Y60083D01*
X24500Y59331D01*
X24137Y58455D01*
X24013Y57516D01*
Y52315D01*
X24137Y51376D01*
X24500Y50500D01*
X25077Y49748D01*
X25829Y49171D01*
X26705Y48808D01*
X27645Y48684D01*
X28584Y48808D01*
X29460Y49171D01*
X30212Y49748D01*
X30789Y50500D01*
X31152Y51376D01*
X31276Y52315D01*
Y57516D01*
X31152Y58455D01*
X30789Y59331D01*
X30212Y60083D01*
X29460Y60660D01*
X28584Y61023D01*
X27645Y61147D01*
D02*
G37*
G36*
X300495Y54256D02*
X299505D01*
X298550Y54000D01*
X297694Y53505D01*
X296994Y52806D01*
X296500Y51950D01*
X296244Y50994D01*
Y50006D01*
X296500Y49050D01*
X296994Y48194D01*
X297694Y47495D01*
X298550Y47000D01*
X299505Y46744D01*
X300495D01*
X301450Y47000D01*
X302306Y47495D01*
X303006Y48194D01*
X303500Y49050D01*
X303756Y50006D01*
Y50994D01*
X303500Y51950D01*
X303006Y52806D01*
X302306Y53505D01*
X301450Y54000D01*
X300495Y54256D01*
D02*
G37*
G36*
X315989Y49500D02*
X313000D01*
Y46510D01*
X313851Y46738D01*
X314649Y47199D01*
X315301Y47851D01*
X315761Y48649D01*
X315989Y49500D01*
D02*
G37*
G36*
X312000D02*
X309011D01*
X309239Y48649D01*
X309699Y47851D01*
X310351Y47199D01*
X311149Y46738D01*
X312000Y46510D01*
Y49500D01*
D02*
G37*
G36*
X290989D02*
X288000D01*
Y46510D01*
X288851Y46738D01*
X289649Y47199D01*
X290301Y47851D01*
X290761Y48649D01*
X290989Y49500D01*
D02*
G37*
G36*
X287000D02*
X284011D01*
X284239Y48649D01*
X284699Y47851D01*
X285351Y47199D01*
X286149Y46738D01*
X287000Y46510D01*
Y49500D01*
D02*
G37*
G36*
X264490D02*
X261500D01*
Y46510D01*
X262351Y46738D01*
X263149Y47199D01*
X263801Y47851D01*
X264262Y48649D01*
X264490Y49500D01*
D02*
G37*
G36*
X260500D02*
X257510D01*
X257738Y48649D01*
X258199Y47851D01*
X258851Y47199D01*
X259649Y46738D01*
X260500Y46510D01*
Y49500D01*
D02*
G37*
G36*
X165989D02*
X163000D01*
Y46510D01*
X163851Y46738D01*
X164649Y47199D01*
X165301Y47851D01*
X165761Y48649D01*
X165989Y49500D01*
D02*
G37*
G36*
X162000D02*
X159011D01*
X159239Y48649D01*
X159699Y47851D01*
X160351Y47199D01*
X161149Y46738D01*
X162000Y46510D01*
Y49500D01*
D02*
G37*
G36*
X140989D02*
X138000D01*
Y46510D01*
X138851Y46738D01*
X139649Y47199D01*
X140301Y47851D01*
X140761Y48649D01*
X140989Y49500D01*
D02*
G37*
G36*
X137000D02*
X134011D01*
X134239Y48649D01*
X134699Y47851D01*
X135351Y47199D01*
X136149Y46738D01*
X137000Y46510D01*
Y49500D01*
D02*
G37*
G36*
X90990D02*
X88000D01*
Y46510D01*
X88851Y46738D01*
X89649Y47199D01*
X90301Y47851D01*
X90762Y48649D01*
X90990Y49500D01*
D02*
G37*
G36*
X87000D02*
X84010D01*
X84238Y48649D01*
X84699Y47851D01*
X85351Y47199D01*
X86149Y46738D01*
X87000Y46510D01*
Y49500D01*
D02*
G37*
G36*
X65990D02*
X63000D01*
Y46510D01*
X63851Y46738D01*
X64649Y47199D01*
X65301Y47851D01*
X65762Y48649D01*
X65990Y49500D01*
D02*
G37*
G36*
X62000D02*
X59010D01*
X59238Y48649D01*
X59699Y47851D01*
X60351Y47199D01*
X61149Y46738D01*
X62000Y46510D01*
Y49500D01*
D02*
G37*
G36*
X253495Y42756D02*
X252505D01*
X251550Y42500D01*
X250694Y42006D01*
X249994Y41306D01*
X249500Y40450D01*
X249244Y39494D01*
Y38506D01*
X249500Y37550D01*
X249994Y36694D01*
X250694Y35994D01*
X251550Y35500D01*
X252505Y35244D01*
X253495D01*
X254450Y35500D01*
X255306Y35994D01*
X256006Y36694D01*
X256500Y37550D01*
X256756Y38506D01*
Y39494D01*
X256500Y40450D01*
X256006Y41306D01*
X255306Y42006D01*
X254450Y42500D01*
X253495Y42756D01*
D02*
G37*
G36*
X213494D02*
X212506D01*
X211550Y42500D01*
X210694Y42006D01*
X209995Y41306D01*
X209500Y40450D01*
X209244Y39494D01*
Y38506D01*
X209500Y37550D01*
X209995Y36694D01*
X210694Y35994D01*
X211550Y35500D01*
X212506Y35244D01*
X213494D01*
X214450Y35500D01*
X215306Y35994D01*
X216005Y36694D01*
X216500Y37550D01*
X216756Y38506D01*
Y39494D01*
X216500Y40450D01*
X216005Y41306D01*
X215306Y42006D01*
X214450Y42500D01*
X213494Y42756D01*
D02*
G37*
G36*
X94027Y40500D02*
X92973D01*
X91956Y40227D01*
X91044Y39701D01*
X90299Y38956D01*
X89773Y38044D01*
X89500Y37027D01*
Y35973D01*
X89773Y34956D01*
X90299Y34044D01*
X91044Y33299D01*
X91956Y32773D01*
X92973Y32500D01*
X94027D01*
X95044Y32773D01*
X95956Y33299D01*
X96701Y34044D01*
X97227Y34956D01*
X97500Y35973D01*
Y37027D01*
X97227Y38044D01*
X96701Y38956D01*
X95956Y39701D01*
X95044Y40227D01*
X94027Y40500D01*
D02*
G37*
G36*
X64027D02*
X62973D01*
X61956Y40227D01*
X61044Y39701D01*
X60299Y38956D01*
X59773Y38044D01*
X59500Y37027D01*
Y35973D01*
X59773Y34956D01*
X60299Y34044D01*
X61044Y33299D01*
X61956Y32773D01*
X62973Y32500D01*
X64027D01*
X65044Y32773D01*
X65956Y33299D01*
X66701Y34044D01*
X67227Y34956D01*
X67500Y35973D01*
Y37027D01*
X67227Y38044D01*
X66701Y38956D01*
X65956Y39701D01*
X65044Y40227D01*
X64027Y40500D01*
D02*
G37*
G36*
X325500Y28490D02*
Y25500D01*
X328489D01*
X328261Y26351D01*
X327801Y27149D01*
X327149Y27801D01*
X326351Y28262D01*
X325500Y28490D01*
D02*
G37*
G36*
X324500D02*
X323649Y28262D01*
X322851Y27801D01*
X322199Y27149D01*
X321739Y26351D01*
X321511Y25500D01*
X324500D01*
Y28490D01*
D02*
G37*
G36*
X300500D02*
Y25500D01*
X303489D01*
X303261Y26351D01*
X302801Y27149D01*
X302149Y27801D01*
X301351Y28262D01*
X300500Y28490D01*
D02*
G37*
G36*
X299500D02*
X298649Y28262D01*
X297851Y27801D01*
X297199Y27149D01*
X296739Y26351D01*
X296511Y25500D01*
X299500D01*
Y28490D01*
D02*
G37*
G36*
X275500D02*
Y25500D01*
X278489D01*
X278261Y26351D01*
X277801Y27149D01*
X277149Y27801D01*
X276351Y28262D01*
X275500Y28490D01*
D02*
G37*
G36*
X274500D02*
X273649Y28262D01*
X272851Y27801D01*
X272199Y27149D01*
X271739Y26351D01*
X271511Y25500D01*
X274500D01*
Y28490D01*
D02*
G37*
G36*
X250500D02*
Y25500D01*
X253489D01*
X253261Y26351D01*
X252801Y27149D01*
X252149Y27801D01*
X251351Y28262D01*
X250500Y28490D01*
D02*
G37*
G36*
X249500D02*
X248649Y28262D01*
X247851Y27801D01*
X247199Y27149D01*
X246739Y26351D01*
X246511Y25500D01*
X249500D01*
Y28490D01*
D02*
G37*
G36*
X225500D02*
Y25500D01*
X228489D01*
X228261Y26351D01*
X227801Y27149D01*
X227149Y27801D01*
X226351Y28262D01*
X225500Y28490D01*
D02*
G37*
G36*
X224500D02*
X223649Y28262D01*
X222851Y27801D01*
X222199Y27149D01*
X221739Y26351D01*
X221511Y25500D01*
X224500D01*
Y28490D01*
D02*
G37*
G36*
X175500D02*
Y25500D01*
X178489D01*
X178261Y26351D01*
X177801Y27149D01*
X177149Y27801D01*
X176351Y28262D01*
X175500Y28490D01*
D02*
G37*
G36*
X174500D02*
X173649Y28262D01*
X172851Y27801D01*
X172199Y27149D01*
X171739Y26351D01*
X171511Y25500D01*
X174500D01*
Y28490D01*
D02*
G37*
G36*
X100500D02*
Y25500D01*
X103489D01*
X103261Y26351D01*
X102801Y27149D01*
X102149Y27801D01*
X101351Y28262D01*
X100500Y28490D01*
D02*
G37*
G36*
X99500D02*
X98649Y28262D01*
X97851Y27801D01*
X97199Y27149D01*
X96738Y26351D01*
X96510Y25500D01*
X99500D01*
Y28490D01*
D02*
G37*
G36*
X160443Y31862D02*
X159557D01*
X158702Y31633D01*
X157936Y31190D01*
X157310Y30564D01*
X156867Y29798D01*
X156638Y28943D01*
Y28057D01*
X156867Y27202D01*
X157310Y26436D01*
X157936Y25810D01*
X158702Y25367D01*
X159557Y25138D01*
X160443D01*
X161298Y25367D01*
X162064Y25810D01*
X162690Y26436D01*
X163133Y27202D01*
X163362Y28057D01*
Y28943D01*
X163133Y29798D01*
X162690Y30564D01*
X162064Y31190D01*
X161298Y31633D01*
X160443Y31862D01*
D02*
G37*
G36*
X150443D02*
X149557D01*
X148702Y31633D01*
X147936Y31190D01*
X147310Y30564D01*
X146867Y29798D01*
X146638Y28943D01*
Y28057D01*
X146867Y27202D01*
X147310Y26436D01*
X147936Y25810D01*
X148702Y25367D01*
X149557Y25138D01*
X150443D01*
X151298Y25367D01*
X152064Y25810D01*
X152690Y26436D01*
X153133Y27202D01*
X153362Y28057D01*
Y28943D01*
X153133Y29798D01*
X152690Y30564D01*
X152064Y31190D01*
X151298Y31633D01*
X150443Y31862D01*
D02*
G37*
G36*
X119494Y32256D02*
X118506D01*
X117550Y32000D01*
X116694Y31506D01*
X115995Y30806D01*
X115500Y29950D01*
X115244Y28995D01*
Y28005D01*
X115500Y27050D01*
X115995Y26194D01*
X116694Y25495D01*
X117550Y25000D01*
X118506Y24744D01*
X119494D01*
X120450Y25000D01*
X121306Y25495D01*
X122005Y26194D01*
X122500Y27050D01*
X122756Y28005D01*
Y28995D01*
X122500Y29950D01*
X122005Y30806D01*
X121306Y31506D01*
X120450Y32000D01*
X119494Y32256D01*
D02*
G37*
G36*
X328489Y24500D02*
X325500D01*
Y21510D01*
X326351Y21738D01*
X327149Y22199D01*
X327801Y22851D01*
X328261Y23649D01*
X328489Y24500D01*
D02*
G37*
G36*
X324500D02*
X321511D01*
X321739Y23649D01*
X322199Y22851D01*
X322851Y22199D01*
X323649Y21738D01*
X324500Y21510D01*
Y24500D01*
D02*
G37*
G36*
X303489D02*
X300500D01*
Y21510D01*
X301351Y21738D01*
X302149Y22199D01*
X302801Y22851D01*
X303261Y23649D01*
X303489Y24500D01*
D02*
G37*
G36*
X299500D02*
X296511D01*
X296739Y23649D01*
X297199Y22851D01*
X297851Y22199D01*
X298649Y21738D01*
X299500Y21510D01*
Y24500D01*
D02*
G37*
G36*
X278489D02*
X275500D01*
Y21510D01*
X276351Y21738D01*
X277149Y22199D01*
X277801Y22851D01*
X278261Y23649D01*
X278489Y24500D01*
D02*
G37*
G36*
X274500D02*
X271511D01*
X271739Y23649D01*
X272199Y22851D01*
X272851Y22199D01*
X273649Y21738D01*
X274500Y21510D01*
Y24500D01*
D02*
G37*
G36*
X253489D02*
X250500D01*
Y21510D01*
X251351Y21738D01*
X252149Y22199D01*
X252801Y22851D01*
X253261Y23649D01*
X253489Y24500D01*
D02*
G37*
G36*
X249500D02*
X246511D01*
X246739Y23649D01*
X247199Y22851D01*
X247851Y22199D01*
X248649Y21738D01*
X249500Y21510D01*
Y24500D01*
D02*
G37*
G36*
X228489D02*
X225500D01*
Y21510D01*
X226351Y21738D01*
X227149Y22199D01*
X227801Y22851D01*
X228261Y23649D01*
X228489Y24500D01*
D02*
G37*
G36*
X224500D02*
X221511D01*
X221739Y23649D01*
X222199Y22851D01*
X222851Y22199D01*
X223649Y21738D01*
X224500Y21510D01*
Y24500D01*
D02*
G37*
G36*
X178489D02*
X175500D01*
Y21510D01*
X176351Y21738D01*
X177149Y22199D01*
X177801Y22851D01*
X178261Y23649D01*
X178489Y24500D01*
D02*
G37*
G36*
X174500D02*
X171511D01*
X171739Y23649D01*
X172199Y22851D01*
X172851Y22199D01*
X173649Y21738D01*
X174500Y21510D01*
Y24500D01*
D02*
G37*
G36*
X103489D02*
X100500D01*
Y21510D01*
X101351Y21738D01*
X102149Y22199D01*
X102801Y22851D01*
X103261Y23649D01*
X103489Y24500D01*
D02*
G37*
G36*
X99500D02*
X96510D01*
X96738Y23649D01*
X97199Y22851D01*
X97851Y22199D01*
X98649Y21738D01*
X99500Y21510D01*
Y24500D01*
D02*
G37*
G36*
X199000Y24754D02*
Y21500D01*
X202254D01*
X202000Y22450D01*
X201505Y23306D01*
X200806Y24005D01*
X199950Y24500D01*
X199000Y24754D01*
D02*
G37*
G36*
X198000D02*
X197050Y24500D01*
X196194Y24005D01*
X195494Y23306D01*
X195000Y22450D01*
X194746Y21500D01*
X198000D01*
Y24754D01*
D02*
G37*
G36*
X202254Y20500D02*
X199000D01*
Y17246D01*
X199950Y17500D01*
X200806Y17995D01*
X201505Y18694D01*
X202000Y19550D01*
X202254Y20500D01*
D02*
G37*
G36*
X198000D02*
X194746D01*
X195000Y19550D01*
X195494Y18694D01*
X196194Y17995D01*
X197050Y17500D01*
X198000Y17246D01*
Y20500D01*
D02*
G37*
G36*
X335494Y21756D02*
X334506D01*
X333550Y21500D01*
X332694Y21005D01*
X331995Y20306D01*
X331500Y19450D01*
X331244Y18495D01*
Y17505D01*
X331500Y16550D01*
X331995Y15694D01*
X332694Y14995D01*
X333550Y14500D01*
X334506Y14244D01*
X335494D01*
X336450Y14500D01*
X337306Y14995D01*
X338005Y15694D01*
X338500Y16550D01*
X338756Y17505D01*
Y18495D01*
X338500Y19450D01*
X338005Y20306D01*
X337306Y21005D01*
X336450Y21500D01*
X335494Y21756D01*
D02*
G37*
G36*
X300500Y14254D02*
Y11000D01*
X303754D01*
X303500Y11950D01*
X303006Y12806D01*
X302306Y13506D01*
X301450Y14000D01*
X300500Y14254D01*
D02*
G37*
G36*
X299500D02*
X298550Y14000D01*
X297694Y13506D01*
X296994Y12806D01*
X296500Y11950D01*
X296246Y11000D01*
X299500D01*
Y14254D01*
D02*
G37*
G36*
X303754Y10000D02*
X300500D01*
Y6746D01*
X301450Y7000D01*
X302306Y7495D01*
X303006Y8194D01*
X303500Y9050D01*
X303754Y10000D01*
D02*
G37*
G36*
X299500D02*
X296246D01*
X296500Y9050D01*
X296994Y8194D01*
X297694Y7495D01*
X298550Y7000D01*
X299500Y6746D01*
Y10000D01*
D02*
G37*
%LPD*%
D24*
X318000Y139500D02*
X345000Y166500D01*
Y190000D01*
X174500Y139500D02*
X318000D01*
D27*
X9498Y134500D02*
D03*
Y114500D02*
D03*
Y124500D02*
D03*
X325000Y190000D02*
D03*
X315000D02*
D03*
X335000D02*
D03*
D28*
X9498Y144500D02*
D03*
D29*
X213000Y39000D02*
D03*
X253000D02*
D03*
X335000Y18000D02*
D03*
Y58000D02*
D03*
X198500Y21000D02*
D03*
Y61000D02*
D03*
X119000Y28500D02*
D03*
Y68500D02*
D03*
X300000Y50500D02*
D03*
Y10500D02*
D03*
X37500Y182500D02*
D03*
X77500D02*
D03*
X138500Y140000D02*
D03*
Y100000D02*
D03*
X118000D02*
D03*
Y140000D02*
D03*
D30*
X17645Y54915D02*
D03*
X37645D02*
D03*
X27645D02*
D03*
X146000Y73500D02*
D03*
X136000D02*
D03*
X156000D02*
D03*
D31*
X150000Y28500D02*
D03*
X160000D02*
D03*
X37000Y169000D02*
D03*
Y159000D02*
D03*
X77500Y169000D02*
D03*
Y159000D02*
D03*
X174500Y139500D02*
D03*
X164500D02*
D03*
D32*
X276000Y106500D02*
D03*
X266000D02*
D03*
D33*
X256000D02*
D03*
D34*
X63500Y131500D02*
D03*
X93500Y36500D02*
D03*
Y111500D02*
D03*
X63500Y36500D02*
D03*
D35*
X171028Y182843D02*
D03*
X111972D02*
D03*
Y163157D02*
D03*
X171028D02*
D03*
D36*
X345000Y190000D02*
D03*
D37*
X112912Y149588D02*
D03*
X87500Y100000D02*
D03*
X75000Y75000D02*
D03*
X62500Y100000D02*
D03*
X210909Y148409D02*
D03*
X261000Y50000D02*
D03*
X187500Y150000D02*
D03*
X137500Y50000D02*
D03*
X325000Y175000D02*
D03*
X312500Y150000D02*
D03*
X287500D02*
D03*
X275000Y125000D02*
D03*
X325000D02*
D03*
Y75000D02*
D03*
Y25000D02*
D03*
X300000Y175000D02*
D03*
Y125000D02*
D03*
X312500Y100000D02*
D03*
Y50000D02*
D03*
X300000Y25000D02*
D03*
X275000Y175000D02*
D03*
Y75000D02*
D03*
X287500Y50000D02*
D03*
X275000Y25000D02*
D03*
X250000Y175000D02*
D03*
X262500Y150000D02*
D03*
X250000Y25000D02*
D03*
X225000Y175000D02*
D03*
Y125000D02*
D03*
X237500Y100000D02*
D03*
X225000Y75000D02*
D03*
Y25000D02*
D03*
X200000Y175000D02*
D03*
Y125000D02*
D03*
X212500Y100000D02*
D03*
X200000Y75000D02*
D03*
X175000Y175000D02*
D03*
Y125000D02*
D03*
X187500Y100000D02*
D03*
X175000Y25000D02*
D03*
X150000Y125000D02*
D03*
X162500Y50000D02*
D03*
X125000Y175000D02*
D03*
X137500Y150000D02*
D03*
X125000Y125000D02*
D03*
Y75000D02*
D03*
X100000Y175000D02*
D03*
Y125000D02*
D03*
Y75000D02*
D03*
Y25000D02*
D03*
X87500Y50000D02*
D03*
X50000Y175000D02*
D03*
X62500Y50000D02*
D03*
X25000Y175000D02*
D03*
X37500Y150000D02*
D03*
Y100000D02*
D03*
X25000Y75000D02*
D03*
M02*
